<?xml version="1.0" encoding="utf-8"?>
<!-- Generator: Adobe Illustrator 23.0.3, SVG Export Plug-In . SVG Version: 6.00 Build 0)  -->
<svg version="1.1" id="Layer_1" xmlns="http://www.w3.org/2000/svg" xmlns:xlink="http://www.w3.org/1999/xlink" x="0px" y="0px"
	 viewBox="0 0 89 70.6" style="enable-background:new 0 0 89 70.6;" xml:space="preserve">
<style type="text/css">
	.st0{fill:#ABD2FF;}
</style>
<path class="st0" d="M88.8,64.4l-5.3-15.1c1.5-3.7,0.5-9.3,0.4-12.5c-0.4-9.5-1-19-1.8-28.5c-0.2-2.5-2.1-5-4.9-4.9
	c-10.7,0.5-21.4,0.2-32.1-1c-8.4-1-18.2-4.8-26,0C16.5,4,16.3,6.9,17.6,9c-0.1,0.2-0.1,0.5-0.1,0.7c-1.6,12.4-1.5,24.8,0.2,37.2
	C12.1,51.9,6.7,57,1.4,62.3c-2.9,2.9-0.9,8.5,3.4,8.3c26.4-1.4,52.9-1.4,79.3,0C87.1,70.8,89.8,67.4,88.8,64.4z M27.2,9.7
	c2.4-0.2,5,0.4,7.3,0.9c4.8,0.8,9.6,1.4,14.4,1.9c7.9,0.8,15.9,1,23.8,0.8c0.3,4.7,0.7,9.3,0.9,14c0.2,3.2,0.3,6.3,0.5,9.5
	c0.1,1.9,0.1,3.8,0.2,5.7c0,0.3,0,0.6,0,0.8c-3.3,0-6.9-0.6-9.9-0.6c-4.5-0.1-8.9-0.3-13.4-0.4c-8.1-0.2-16.2-0.5-24.4-0.7
	C25.6,31,25.8,20.3,27.2,9.7z M17.5,60.3c3.2-3,6.4-6,9.6-8.9c15.8,0.5,31.5,0.9,47.3,1.4c0.9,2.6,1.8,5.2,2.7,7.8
	C57.2,59.7,37.3,59.6,17.5,60.3z"/>
</svg>
