<?xml version="1.0" encoding="utf-8"?>
<!-- Generator: Adobe Illustrator 23.0.3, SVG Export Plug-In . SVG Version: 6.00 Build 0)  -->
<svg version="1.1" id="Layer_1" xmlns="http://www.w3.org/2000/svg" xmlns:xlink="http://www.w3.org/1999/xlink" x="0px" y="0px"
	 viewBox="0 0 68 89.6" style="enable-background:new 0 0 68 89.6;" xml:space="preserve">
<style type="text/css">
	.st0{fill:#ABD2FF;}
</style>
<g>
	<path class="st0" d="M43.7,0.2c-9-1.1-19.9,3-27.9,6.9C7.8,11,2.3,18.5,0.6,27.3c-4.1,21.3,12.7,37.2,19.9,55.5
		c0.3,0.7,0.6,1.2,1,1.7c0,3.8,5,7.1,8.6,3.8c7.9-7.5,15.5-15.3,22.6-23.5c6.2-7.2,13.9-15,15-24.8C69.7,22.7,62.8,2.6,43.7,0.2z
		 M57.1,42c-1.1,3.7-4.4,7.1-6.8,10.1c-2.7,3.3-5.4,6.5-8.2,9.7c-4.4,5-9,9.7-13.7,14.4c-6-12.8-15.5-24.2-18-38.3
		C9.1,30.5,11,22.7,17,18.1c6.2-4.8,15.7-7.3,23.3-7.9C56.1,8.8,60.5,30.2,57.1,42z"/>
	<path class="st0" d="M38.6,29.1c-0.9-1.4-2.2-2.4-3.9-2.7c-1.5-0.3-3.5-0.2-4.7,1.1c-0.1,0.1-0.2,0.1-0.3,0.2
		c-4,2.1-5.4,7.3-3.3,11.1c0.8,1.4,2.7,2.7,4.3,2.5c1.9-0.2,3.3-0.5,5-1.3c0.2-0.1,0.5-0.2,0.7-0.4c0.6-0.3,1.2-0.7,1.6-1.2
		c1-0.7,1.7-1.6,2.1-2.8C41,33.3,40.2,30.8,38.6,29.1z"/>
</g>
</svg>
