<?xml version="1.0" encoding="utf-8"?>
<!-- Generator: Adobe Illustrator 23.0.3, SVG Export Plug-In . SVG Version: 6.00 Build 0)  -->
<svg version="1.1" id="Layer_1" xmlns="http://www.w3.org/2000/svg" xmlns:xlink="http://www.w3.org/1999/xlink" x="0px" y="0px"
	 viewBox="0 0 558 112.8" style="enable-background:new 0 0 558 112.8;" xml:space="preserve">
<style type="text/css">
	.st0{fill:#2352B2;}
	.st1{fill:#FFFFFF;}
</style>
<title>Asset 2</title>
<g>
	<path class="st0" d="M144.6,78.2c-1.8,2.9-4.4,5.2-7.5,6.7c-3.8,1.8-7.9,2.6-12,2.5c-7.1,0-12.9-1.7-17.5-5.2
		c-4.6-3.5-7.1-8.3-7.6-14.5h16.3c0.1,2.1,1,4.1,2.5,5.6c1.5,1.4,3.5,2.1,5.6,2.1c1.7,0.1,3.4-0.5,4.6-1.6c1.2-1.1,1.8-2.7,1.7-4.3
		c0-1.5-0.5-2.9-1.6-4c-1.1-1.1-2.4-2-3.9-2.6c-1.6-0.7-3.7-1.5-6.4-2.5c-3.3-1.1-6.6-2.5-9.8-4c-2.6-1.3-4.8-3.3-6.5-5.7
		c-1.8-2.5-2.7-5.8-2.7-9.9c-0.1-3.5,0.9-6.9,2.9-9.8c2-2.8,4.7-5,7.9-6.3c3.7-1.5,7.6-2.3,11.6-2.2c7,0,12.6,1.7,16.8,5
		s6.5,7.9,7,13.8h-16.5c-0.2-1.9-1-3.6-2.3-5c-1.3-1.3-3.2-1.9-5-1.8c-1.6-0.1-3.1,0.5-4.3,1.5c-1.2,1.1-1.8,2.6-1.7,4.2
		c0,1.4,0.5,2.8,1.5,3.8c1.1,1.1,2.3,1.9,3.7,2.5c1.5,0.7,3.6,1.5,6.4,2.5c3.4,1.1,6.7,2.5,9.9,4.1c2.6,1.4,4.9,3.4,6.6,5.9
		c2,3,2.9,6.5,2.8,10C147.1,72.2,146.3,75.4,144.6,78.2z"/>
	<path class="st0" d="M201,23.5v12.2h-17.2v51h-15.4v-51h-17V23.5H201z"/>
	<path class="st0" d="M222.3,23.5V60c0,4.2,1,7.4,2.8,9.6s4.6,3.3,8.2,3.3c3.6,0,6.3-1.1,8.2-3.3s2.8-5.4,2.8-9.6V23.5h15.3V60
		c0,6-1.2,11-3.5,15.1c-2.2,4-5.5,7.2-9.5,9.2c-4.2,2.1-8.9,3.2-13.6,3.1c-4.6,0.1-9.2-0.9-13.4-3c-3.9-2.1-7.1-5.3-9.1-9.2
		c-2.2-4.2-3.3-9.2-3.3-15.2V23.5H222.3z"/>
	<path class="st0" d="M322.7,71.5c-2.6,4.8-6.6,8.7-11.4,11.2c-5.4,2.8-11.5,4.2-17.6,4h-23.9V23.5h23.9c6.1-0.2,12.2,1.2,17.6,3.9
		c4.8,2.5,8.8,6.3,11.4,11.1c2.7,5,4.1,10.7,4,16.5C326.8,60.8,325.4,66.4,322.7,71.5z M306.2,68.3c3.3-3.2,5-7.6,5-13.3
		s-1.7-10.2-5-13.3c-3.3-3.2-8-4.7-13.9-4.8h-7.2v36.1h7.2C298.3,73.1,302.9,71.5,306.2,68.3L306.2,68.3z"/>
	<path class="st0" d="M350.6,23.5v63.2h-15.3V23.5H350.6z"/>
	<path class="st0" d="M407.4,26.7c4.8,2.7,8.8,6.7,11.5,11.5c2.8,5.1,4.3,10.8,4.2,16.7c0.1,5.9-1.4,11.6-4.2,16.7
		c-2.7,4.8-6.7,8.8-11.5,11.6c-10,5.6-22.2,5.6-32.3,0c-4.8-2.7-8.8-6.7-11.5-11.6c-2.9-5.1-4.4-10.9-4.3-16.7
		c-0.1-5.8,1.4-11.6,4.3-16.7c2.7-4.8,6.7-8.8,11.5-11.5C385.2,21.2,397.4,21.2,407.4,26.7L407.4,26.7z M379.3,41.6
		c-2.9,3.2-4.4,7.7-4.4,13.3s1.5,10,4.4,13.2s7,4.9,11.9,4.9s8.9-1.6,11.9-4.9s4.5-7.7,4.5-13.2s-1.5-10-4.5-13.2s-6.9-4.9-11.9-4.9
		S382.2,38.4,379.3,41.6z"/>
	<path class="st0" d="M471.7,40.1c3.5,2.1,6.2,5.1,8,8.8c2,4.2,3,8.8,2.9,13.4c0.1,4.6-0.9,9.2-2.9,13.4c-1.8,3.6-4.6,6.6-8,8.7
		c-3.5,2-7.6,3.1-11.6,3c-4.3,0.1-8.5-1.1-12.1-3.6c-3.2-2.3-5.6-5.7-6.8-9.5v12.5H433V20.6h8.1v29.6c1.2-3.8,3.6-7.2,6.9-9.5
		c3.5-2.5,7.8-3.7,12.1-3.6C464.2,37,468.2,38,471.7,40.1z M449.2,46.5c-2.6,1.5-4.7,3.7-6,6.3c-1.5,2.9-2.2,6.2-2.2,9.5
		c-0.1,3.3,0.7,6.5,2.1,9.4c1.3,2.6,3.4,4.8,6,6.3c2.6,1.5,5.6,2.3,8.6,2.2c5.1,0,9.1-1.6,12.1-4.8c3-3.2,4.5-7.6,4.5-13.2
		s-1.5-10-4.5-13.2s-7.1-4.8-12.1-4.8C454.7,44.2,451.8,45,449.2,46.5z"/>
	<path class="st0" d="M501.4,20.6v66.2h-8.2V20.6H501.4z"/>
	<path class="st0" d="M558,37.7v49.1h-8.2V75.2c-1.1,3.7-3.4,7-6.7,9.2c-3.3,2.2-7.2,3.3-11.1,3.2c-5.6,0-10.2-1.8-13.7-5.5
		s-5.3-8.9-5.3-15.8V37.7h8.2v27.8c0,4.9,1.3,8.7,3.8,11.3c2.5,2.7,5.9,4,10.2,4c4,0.2,7.9-1.4,10.7-4.3c2.7-2.9,4-7.1,4-12.7V37.7
		H558z"/>
</g>
<path class="st1" d="M50.8,39.1c-1.1-6.4-6.4-11.3-12.9-11.3s-11.7,4.9-12.8,11.3C5.4,46.2-4.8,67.9,2.3,87.6s28.9,30,48.6,22.9
	c19.7-7.1,30-28.9,22.9-48.6C69.9,51.3,61.5,42.9,50.8,39.1L50.8,39.1z"/>
<path class="st0" d="M53.2,29c0,2.9-2.3,5.2-5.2,5.2H27.9c-2.9,0-5.2-2.3-5.2-5.2v-8.5c0-2.9,2.3-5.2,5.2-5.2H48
	c2.9,0,5.2,2.3,5.2,5.2V29z"/>
<path class="st0" d="M48,17.4c0,4.7-3.8,8.6-8.5,8.6c0,0,0,0,0,0h-3c-4.7,0-8.6-3.8-8.6-8.5c0,0,0,0,0,0l0,0c0-4.7,3.8-8.5,8.5-8.5
	c0,0,0,0,0,0h3C44.2,8.9,48,12.7,48,17.4C48,17.4,48,17.4,48,17.4z"/>
<rect x="15.7" y="21.3" class="st0" width="32.3" height="4.7"/>
<path class="st0" d="M44.6,13.7c0,2.3-4.3,4.1-6.6,4.1l0,0c-2.3,0-6.6-1.9-6.6-4.1l2.5-9.5c0-2.3,1.8-4.1,4.1-4.1c0,0,0,0,0,0l0,0
	c2.3,0,4.1,1.8,4.1,4.1c0,0,0,0,0,0L44.6,13.7z"/>
<path class="st0" d="M17.4,23.7c0,3-0.8,5.3-1.8,5.3s-1.8-2.4-1.8-5.3s0.8-5.3,1.8-5.3S17.4,20.7,17.4,23.7z"/>
</svg>
