<?xml version="1.0" encoding="utf-8"?>
<!-- Generator: Adobe Illustrator 23.0.3, SVG Export Plug-In . SVG Version: 6.00 Build 0)  -->
<svg version="1.1" id="obj_1_" xmlns="http://www.w3.org/2000/svg" xmlns:xlink="http://www.w3.org/1999/xlink" x="0px" y="0px"
	 viewBox="0 0 800 450" style="enable-background:new 0 0 800 450;" xml:space="preserve">
<style type="text/css">
	.st0{fill:#325DB2;}
	.st1{opacity:0.3;fill:#325DB2;}
	.st2{opacity:0.85;fill:#325DB2;}
	.st3{opacity:0.32;fill:#325DB2;}
	.st4{opacity:0.35;fill:#325DB2;}
</style>
<g>
	<g>
		<path class="st0" d="M85.2,61.7c-8.6-2.1-17.4-3.2-26.1-5.2c-11.8-2.8-23.7-4.2-35.7-5.4c-7-0.7-14.1-1.4-21.1-2.8
			c-0.5-0.1-1-0.2-1.4-0.3v2.1c4.8,1.1,9.8,2,14.7,2.4c3.4,0.2,6.7,0,10,0c8,0.1,15.7,2.3,23.4,4.3c9.3,2.4,18.8,4.6,28,7.6
			c8.5,2.8,17.9,6.2,24.5,12.6c2.9,2.9,5.3,6.6,5.6,10.7c0.3,4.3-1.6,8.3-5,10.9c-3.6,2.8-8.3,3.7-12.8,3.3
			c-4.2-0.4-8.1-1.9-12.1-3.1c-8.4-2.5-17-1-25.6-1.5c-4.7-0.3-9.2-1.1-13.8-2c-3.7-0.7-7.4-1.3-11.1-0.8c-3.9,0.5-7.5,2-11.2,3.3
			c-4.3,1.6-8.8,2.9-13.1,4.6c-0.5,0.2-1.1,0.4-1.6,0.7v8.9c4.4-3.2,9-6.2,13.9-8.6c4.6-2.3,9.5-4,14.6-4.3
			c4.4-0.3,8.9,0.4,13.3,0.9c5,0.6,9.9,0.7,14.9,0.8c5,0,10,0,15,0.9c4,0.7,7.7,2.3,11.3,4.2c3,1.6,6,3.4,9.5,3.6
			c8.2,0.4,14.8-7.6,17.1-14.7c2.3-7.3,0.4-14.9-4.2-20.8C101.1,67.1,93.3,63.7,85.2,61.7z"/>
		<path class="st0" d="M30,61.7c-4.6-2.8-9.5-5.3-14.7-6.8c-4.5-1.3-9.1-1.5-13.8-1.9c-0.2,0-0.4,0-0.6-0.1v49.3
			c3-3.1,6-6.3,9.4-8.9c3.5-2.7,7.3-4.3,11.7-4.6c4.9-0.3,9.8,0.5,14.6-0.2c4-0.6,8.2-2.6,9.6-6.7c1.3-4-0.8-8-3.5-10.9
			C39.1,67.1,34.5,64.3,30,61.7z"/>
		<g>
			<path class="st0" d="M87.1,108.7c0.6,0.1,1.1,0.1,1.7,0.1c-0.1,0-0.3,0-0.4,0C88,108.7,87.5,108.7,87.1,108.7z"/>
			<path class="st0" d="M79.2,106.7c-4.6-0.8-9.2-0.9-13.9-0.8c-4.6,0.1-9.2,0.3-13.6,2c-2.2,0.9-4.2,1.9-6.1,3.3
				c-2,1.6-3.6,3.6-5.1,5.7c-1.3,1.9-2.6,3.8-3.7,5.8c-1.1,2-1.7,4.1-2.4,6.3c-0.6,2-1.5,3.9-3.6,4.8c-2.1,0.9-4.7,1-7,0.9
				c-5.8-0.4-9.8-4.5-14.6-7.3c-1.9-1.1-4-1.9-6.1-2.5c-0.8-0.2-1.6-0.5-2.4-0.7v29c1.5-1.4,3.1-2.6,4.9-3.7
				c2.7-1.7,5.6-2.9,8.8-3.4c2.2-0.4,4.5-0.4,6.7-1.1c2.1-0.6,4-1.8,5.9-3c2.4-1.6,4.6-3.4,6.6-5.5c1.8-2,3.3-4.2,4.3-6.7
				c0.8-2.2,1.1-4.5,1.8-6.7c1.7-5.4,6-9.5,10.7-12.3c4.6-2.7,9.6-3.8,14.9-4c4.2-0.1,8.4-0.1,12.6,0.5c3,0.4,6,0.9,9.1,1.2
				c-0.4-0.1-0.9-0.1-1.3-0.3C83.6,107.9,81.5,107.1,79.2,106.7z"/>
			<path class="st0" d="M92.7,108.1c-1.3,0.4-2.6,0.7-3.9,0.7c2.8,0.1,5.9,0.2,8.4-1.1c2.4-1.4,4.1-4,5.8-6.2l-6.2,5
				C95.4,107.1,94.1,107.7,92.7,108.1z"/>
		</g>
		<path class="st0" d="M53.2,105.2c-0.4,0.1-1.3,0.3-2.5,0.6c-0.6,0.1-1.3,0.3-2.1,0.4c-0.4,0.1-0.8,0.2-1.2,0.4
			c-0.4,0.1-0.8,0.4-1.3,0.5c-1.8,0.8-3.6,2-5.4,3.4c-0.9,0.7-1.9,1.4-2.8,2.2c-1,0.9-1.8,1.9-2.5,3c-0.7,1.1-1.3,2.3-1.7,3.5
			c-0.2,0.6-0.4,1.3-0.6,1.8c-0.2,0.6-0.4,1.2-0.6,1.7c-0.9,2.1-2.1,4-3.5,5.2c-0.2,0.2-0.4,0.3-0.5,0.5l-0.1,0.1l0,0l-0.2,0.1
			l-0.3,0.2c-0.5,0.4-0.8,0.4-1.1,0.6c-0.7,0.3-1.5,0.4-2.2,0.5c-1.5,0.1-2.9,0.1-4,0.2c0.1,0,0.1,0,0.1,0c-2.3,0-2.7-0.2-3-0.2
			c-0.2-0.1-0.4-0.1-0.6-0.2l-0.4-0.1c-0.1,0-0.2,0-0.3,0c-0.1,0-0.2-0.1-0.3-0.1c-0.3-0.2-0.7-0.5-1.1-0.9
			c-0.1-0.1-0.1-0.1-0.7-0.7l-0.1-0.1l-0.1-0.1c-0.3-0.2-0.7-0.4-1.3-0.8c-0.3-0.2-0.6-0.3-0.9-0.5c-0.3-0.2-0.7-0.4-1.1-0.6
			c-0.8-0.4-1.7-0.8-2.7-1.2c-0.5-0.2-1-0.4-1.6-0.6c-0.3-0.1-0.6-0.2-0.8-0.3l-0.4-0.2l-0.1,0l-0.2,0l0,0l-0.1,0l-0.2-0.1
			c-0.6-0.1-1.3-0.3-2-0.4c-0.4,0-0.9-0.1-1.3-0.1v2.8c0.3,0,0.5,0.1,0.8,0.1c0.6,0.1,1.1,0.2,1.7,0.4l0.2,0.1l0,0l0,0l0.4,0.2
			c0.3,0.1,0.5,0.2,0.8,0.3c0.5,0.2,1,0.4,1.4,0.7c0.9,0.4,1.7,0.9,2.4,1.3c0.4,0.2,0.7,0.4,1,0.6c0.3,0.2,0.5,0.4,0.8,0.5
			c0.4,0.3,0.7,0.5,1,0.7c0.5,0.5,0.6,0.6,0.7,0.7c0.6,0.5,1.3,1.1,2.1,1.4c0.2,0.1,0.5,0.2,0.7,0.3c0.1,0,0.3,0.1,0.4,0.1
			c0.4,0.1,0.7,0.2,1.1,0.3c0.4,0.1,1.4,0.3,3.8,0.2l0.1,0l0,0c0.9-0.1,2.3-0.2,4.2-0.5c0.9-0.2,2-0.4,3-1c0.6-0.3,1.2-0.7,1.5-1
			l0.3-0.2l0.2-0.1l0,0l0.1,0l0,0l0.1-0.1c0.2-0.2,0.4-0.4,0.6-0.6c1.7-1.7,2.9-4.1,3.7-6.5c0.2-0.6,0.4-1.2,0.5-1.8
			c0.2-0.7,0.3-1.2,0.5-1.8c0.3-1.1,0.8-2.2,1.3-3.3c0.6-1,1.3-2,2-2.8c0.8-0.8,1.8-1.6,2.6-2.3c1.7-1.5,3.4-2.8,5-3.7
			c0.4-0.2,0.8-0.4,1.2-0.6c0.4-0.2,0.8-0.3,1.2-0.5c0.8-0.2,1.5-0.4,2.1-0.6C51.9,105.7,52.8,105.4,53.2,105.2L53.2,105.2
			c0.8-0.3,1.2-0.4,1.5-0.4c0.2,0,0.3,0,0.3,0s0,0-0.3,0C54.4,104.8,53.9,104.9,53.2,105.2z"/>
		<path class="st0" d="M109.7,112.8c-1.6,0-3.9,0.3-6.6,0.6c-0.7,0.1-1.4,0-2.1,0.1c-0.8,0-1.5,0.1-2.3-0.1
			c-0.8-0.1-1.6-0.1-2.4-0.3c-0.8-0.1-1.7-0.3-2.6-0.5c-0.9-0.2-1.8-0.4-2.7-0.6l-0.7-0.1l-0.7-0.1c-0.5-0.1-0.9-0.2-1.4-0.3
			c-1.9-0.3-3.8-0.7-5.8-1c-4-0.7-8.1-1.4-12.3-1.7c-1-0.1-2.1-0.1-3.1-0.2c-0.5,0-1,0-1.5-0.1c-0.5,0-1,0-1.5,0c-0.5,0-1,0-1.5,0
			c-0.3,0-0.5,0-0.8,0l-0.7,0c-1,0.1-1.9,0.1-2.9,0.2c-4.1,0.5-7.6,1.6-10.6,2.8l-0.1,0.1l-0.1,0l0,0l-0.1,0.1l-0.3,0.1l-0.5,0.2
			c-0.3,0.2-0.6,0.3-1,0.5c-0.7,0.5-1.5,0.9-2.1,1.4c-0.6,0.5-1.2,0.9-1.6,1.4c-0.5,0.5-0.9,1-1.3,1.4l-0.1,0.1l-0.1,0.2
			c-0.6,1.2-1.1,2.2-1.5,3.1c-0.4,0.9-0.7,1.5-0.9,2c-0.2,0.5-0.4,0.9-0.5,1.3c-0.1,0.2-0.1,0.3-0.2,0.4l0,0.1c0,0,0,0.1,0,0.1
			c-0.2,0.5-0.5,1-0.7,1.5c-0.2,0.4-0.4,0.8-0.6,1.2c-0.2,0.3-0.6,0.7-0.8,1.1c-0.3,0.4-0.6,0.8-0.9,1.2c-0.4,0.5-1.3,1.8-3,3.5
			c-1.7,1.6-4.1,3.5-7.3,4.9c-1.6,0.6-3.4,1.1-5.3,1.3c-0.5,0-1,0.1-1.4,0.1c-0.5,0-1,0-1.5-0.1c-0.5-0.1-1.1-0.1-1.6-0.2
			c-0.6-0.1-1.2-0.1-1.9-0.2c-1.3-0.1-2.5-0.1-3.8,0.1l-1,0.1l-0.9,0.1c-0.6,0.1-1.2,0.2-1.8,0.3c-1.1,0.2-2.3,0.5-3.4,0.8v3.2
			c0.2,0,0.3-0.1,0.5-0.1c1.1-0.2,2.2-0.4,3.3-0.6c0.6,0,1.2-0.1,1.8-0.1l0.8-0.1l0.8,0c1.1,0,2.2,0.1,3.2,0.2
			c0.5,0.1,1,0.1,1.6,0.2c0.6,0.1,1.2,0.2,1.7,0.4c0.6,0.1,1.2,0.2,1.8,0.2c0.6,0.1,1.2,0,1.8,0.1c2.4,0,4.7-0.4,6.8-1.1
			c4.1-1.4,7.2-3.5,9.3-5.4c2.1-1.9,3.4-3.4,3.8-4c0.4-0.5,0.7-1,1-1.5c0.3-0.5,0.6-1,0.9-1.5c0.3-0.5,0.7-1,1-1.5
			c0.3-0.5,0.5-1,0.8-1.4c0,0,0-0.1,0.1-0.1l0.1-0.2l0,0l0-0.1c0-0.1,0.1-0.3,0.2-0.4c0.1-0.3,0.3-0.8,0.5-1.3
			c0.2-0.5,0.5-1.3,0.8-2c0.3-0.7,0.7-1.6,1.1-2.5c0.2-0.3,0.4-0.5,0.7-0.8c0.3-0.4,0.7-0.7,1-1c0.4-0.4,0.8-0.6,1.2-1
			c0.3-0.2,0.6-0.3,0.9-0.5l0.5-0.3l0.2-0.1l0.1,0l0.1-0.1c2.5-1.3,5.7-2.5,9-3.2c0.9-0.2,1.9-0.3,2.8-0.4l0.7-0.1
			c0.2,0,0.4,0,0.7-0.1c0.5,0,0.9-0.1,1.4-0.1c0.5,0,1-0.1,1.4-0.1c0.5,0,1,0,1.5,0c1,0,2-0.1,3,0c4,0,8.1,0.4,12.1,0.7
			c2,0.2,4,0.4,5.9,0.6c0.5,0,1,0.1,1.4,0.1l0.7,0.1l0.7,0.1c0.9,0.1,1.8,0.3,2.7,0.4c0.9,0.1,1.8,0.2,2.6,0.3
			c0.9,0.1,1.7,0.1,2.6,0.1c0.8,0.1,1.6-0.1,2.4-0.1c0.8-0.1,1.5-0.1,2.2-0.2c2.8-0.4,4.9-1,6.5-1.1c0.8,0,1.4-0.1,1.8,0
			c0.4,0,0.6,0,0.6,0s-0.2,0-0.6-0.1C111.1,112.8,110.5,112.8,109.7,112.8z M36.9,124L36.9,124L36.9,124C36.9,124,36.9,124,36.9,124
			L36.9,124z"/>
	</g>
	<path class="st0" d="M34.5,71.4c-0.2-0.2-0.4-0.5-0.6-0.8c-0.2-0.3-0.3-0.4-0.5-0.5L33.3,70c-0.2-0.2-0.1-0.1-0.1-0.1l0,0l0,0l0,0
		L33,69.7l-0.3-0.2L32,69c-3.7-2.5-7.9-2.7-11.3-4.1l-0.1-0.1l0,0c-1.9-0.5-3.6-1.8-5.5-3.2c-0.9-0.7-1.9-1.3-3-1.9
		c-0.5-0.3-1-0.5-1.5-0.7c-0.4-0.1-0.6-0.2-0.9-0.3c-0.3-0.1-0.6-0.1-0.9-0.2c-1.2-0.2-2.4-0.1-3.5,0.2c-1.1,0.3-2.1,0.8-3,1.2
		c-0.5,0.3-1,0.6-1.4,0.8v1.4c0.7-0.4,1.3-0.7,2-1c1.7-0.8,3.7-1.3,5.6-0.9c0.2,0.1,0.5,0.1,0.7,0.2l0.6,0.3c0.5,0.3,1,0.5,1.4,0.8
		c0.8,0.5,1.7,1.2,2.5,1.9c1.7,1.4,3.5,3.1,6,4c-0.1,0-0.1,0-0.1-0.1c2,1,3.9,1.5,5.7,2.2c1.8,0.6,3.4,1.3,4.6,2.3l0.4,0.4l0.2,0.2
		l0,0l0.1,0.1l0.2,0.3c0.1,0.1,0.2,0.2,0.2,0.2c0.1,0.1,0.1,0.2,0.2,0.3c0.3,0.5,0.5,1.1,0.5,1.6c0,1.1-0.4,1.8-1.2,2.2
		c-0.4,0.2-0.8,0.3-1.5,0.6c-0.2,0.1-0.3,0.1-0.5,0.2c-0.2,0.1-0.3,0-0.4,0.1c-0.2,0-0.5,0.1-0.7,0.1c-0.5,0-1,0.1-1.5,0.1
		c-0.5,0-1,0-1.4-0.1c-1.8-0.1-3.3-0.4-3.8-0.4c-0.5,0-1-0.1-1.5-0.1l-0.2,0l-0.4,0l-0.3,0l-0.7,0.1c-0.2,0-0.4,0-0.7,0
		c-0.3,0-0.6,0.1-0.9,0.1c-0.6,0.1-1.2,0.1-1.8,0.3c-0.7,0.2-2.6,0.7-4.8,2.1c-2.2,1.4-4.7,3.6-6.9,6.5C2,87.5,1.5,88.2,0.9,89v6.9
		c1.7-2.4,3.3-4.6,4.9-6.4c2.2-2.5,4.3-4.1,6-5c1.7-0.9,3-1.2,3.5-1.3c0.4-0.1,0.8-0.2,1.1-0.2l0.5-0.1c0.2,0,0.4,0,0.7-0.1l0.7,0
		l0.3,0l0,0l0,0c-0.1,0-0.4,0-0.2,0h0l0,0l0.1,0l0.2,0c0.4,0.1,0.9,0.1,1.4,0.1c0.6,0,1.9,0.2,4.1,0.2c1.1,0,2.4,0,3.9-0.3
		c0.4-0.1,0.8-0.2,1.3-0.3c0.2-0.1,0.5-0.1,0.6-0.2c0.2-0.1,0.3-0.1,0.5-0.2c0.5-0.2,1.6-0.6,2.5-1.3c0.9-0.6,1.7-1.6,2.2-2.7
		c0.5-1.1,0.7-2.4,0.5-3.5C35.6,73.5,35.2,72.4,34.5,71.4z"/>
	<path class="st0" d="M107.4,18.2C73,16.6,36.5,16.3,0.9,12.6v0.9c19,3.9,38.2,6.5,57.6,9.4C39,22.3,19.6,20.4,0.9,17.2v8
		c0.2,0,0.4,0.1,0.6,0.1c-0.2,0-0.4,0-0.6,0v1.6c24.4,5.1,48.6,10.8,73.5,14c18.4,4.8,34.8,10.3,50.8,17.3
		c19.9,11.2,35,28.1,28.9,59.9c-0.2-0.3-0.4-0.5-0.6-0.8c-3,18.1-9.9,37.7-27.4,60.2c-14.5,15.9-30.2,31.8-51.2,44.7
		C51.9,235,27.3,245.5,0.9,252v28.2c45.7-9.8,86.9-29.6,118.3-54.1c48.1-36.6,74.1-83.4,81-118.4C210.7,33.4,159.4,20.9,107.4,18.2z
		"/>
	<path class="st0" d="M136.9,87.3c-1.1-4-2.5-7.1-3.5-9.2c-1.1-2.1-1.8-3.3-1.8-3.3c-1.9-2.9-4-5.6-6.4-8.1c-2.3-2.5-5-4.8-7.9-6.7
		c-5.8-3.8-12.3-6.2-19.1-7.4C91.6,51.4,85,50.9,78.4,50L76,49.6l-0.2,0c0,0,0,0,0,0l-0.1,0l-0.3-0.1l-0.6-0.1l-1.2-0.2
		c-1.6-0.3-3.2-0.7-4.8-1.1c-3.2-0.8-6.4-1.6-9.6-2.5l-4.8-1.4c-0.8-0.2-1.6-0.5-2.4-0.7l-2.4-0.6L40,40.4c-3.2-0.8-6.3-1.7-9.5-2.7
		c-3.2-0.9-6.3-2-9.5-2.9c-3.2-0.9-6.5-1.7-9.8-2c-3.4-0.3-6.7-0.1-10,0.3c-0.1,0-0.2,0-0.2,0v0.7c0.1,0,0.2,0,0.3,0
		c3.3-0.3,6.6-0.4,9.8-0.1c3.2,0.4,6.4,1.2,9.6,2.2c3.1,1,6.3,2.1,9.4,3.1c3.1,1.1,6.3,2.1,9.5,3l9.6,2.7l2.4,0.7
		c0.8,0.2,1.6,0.5,2.4,0.7l4.7,1.5c3.2,1,6.4,1.9,9.6,2.8c1.6,0.4,3.2,0.8,4.9,1.2l1.2,0.3l0.6,0.1l0.3,0.1l0.4,0.1l2.5,0.4
		c6.6,1.1,13.2,1.8,19.6,3.1c6.3,1.3,12.4,3.7,17.6,7.3c2.6,1.8,4.9,3.9,7,6.3c2.1,2.4,4,5,5.7,7.7c0,0,0.7,1,1.8,2.9
		c1.1,1.9,2.5,4.7,3.7,8.3c0.6,1.8,1.1,3.7,1.2,5.8c0,0.6,0.1,1.2,0.1,1.8c-0.8,5-2.5,9.7-5.7,13.7c-3.3,4.1-7.6,7.3-12.1,9.8
		c-5.7,3.2-11.9,5.9-18.2,7.9c-3.7,1.2-7.5,2-11.4,2.2c-4.2,0.2-8.4-0.4-12.4-1.3c-4.1-0.9-8-2.3-12.1-3.3c-1.6-0.4-3.1-0.7-4.7-0.8
		c-1,0-2.2,0-3.1,0.6c-1.9,1.3-0.6,4.2,0.3,5.7c2,3.2,5,5.8,8.2,7.7c3.4,2.1,7.3,3.4,11.4,3.7c3.5,0.2,6.9-0.5,10.1-1.8
		c2.8-1.1,5.5-2.4,8.2-3.7c2.4-1.1,4.9-2.1,7.4-3.1c2.4-0.9,4.8-1.9,7-3.2c0.8-0.4,1.5-0.9,2.2-1.4c6.1-3.3,13.1-7.8,18.9-13.7
		c0.9-0.9,1.8-2,2.7-3l0.6-0.8l0.2-0.2l0,0l0.1-0.1l0.1-0.1l0.3-0.4c0.4-0.6,0.8-1.1,1.1-1.7c1.4-2.3,2.5-4.7,3.2-7.3
		c0.7-2.5,1-5.1,0.9-7.5C137.9,91.6,137.4,89.2,136.9,87.3z M133.1,104.1c0,0.1-0.1,0.2-0.1,0.3c0,0,0,0,0,0
		C133,104.3,133.1,104.2,133.1,104.1z"/>
	<path class="st0" d="M175.2,0.2c4,8.4,8.7,16.4,15,23.8c9.9,11.7,20.4,22.3,26.5,36.7c5.7,13.3,8.2,28.3,5.4,42.7
		c-3.1,16.6-12.7,31.3-22.2,44.9c-10.3,14.8-21.1,29.5-33.1,43c-10.8,12.2-23.2,22.7-36.4,32.4c-11.7,8.6-23.6,17-36.1,24.5
		c-11.7,7-24.1,12.5-36.5,18.1c-13.1,5.8-26,12.1-39.4,17.2c-5.8,2.2-11.6,3.9-17.5,5.4v2.1c2.2-0.6,4.3-1.2,6.5-1.7
		c6.8-1.7,13.2-4.3,20.1-5.8c3.6-0.8,7.1-2.1,10.6-3.1c3.6-1,7.3-1.6,10.9-2.9c3.7-1.3,7.2-3.2,11-4.4c3.7-1.2,7.5-1.9,11.2-3.2
		c7.1-2.5,13.8-6.6,20.2-10.4c3.3-2,6.5-4.2,9.9-6c3.3-1.8,6.8-3.1,9.9-5.2c4.2-2.9,7.8-6.5,11.8-9.7c3.7-3,7.8-5.4,11.8-8.1
		c6.7-4.5,13.8-8.8,20.1-13.8c7.6-6.1,13.8-12.7,19.6-20.4c5.5-7.3,10.8-14.5,16.2-21.9c5.1-7.1,10.2-13.7,14-21.6
		c3.5-7.4,8.4-13.8,12.8-20.5c4.5-6.8,7.9-14.2,13-20.7c2.8-3.6,4.9-7.3,5.4-11.9c0.5-4.5-0.2-9.1,0.5-13.6c0.7-4.1,2.1-8,2.5-12.1
		c0.4-4.5,0.2-9.1,0.1-13.6c-0.2-8.6-3.6-18-1.3-26.5c2.5-9,12.3-13.5,20.9-15.1c8.9-1.6,18.4-0.1,27.2,1.2
		c11.7,1.7,21.8-0.3,33.1-3c10.4-2.4,20.8-4,30.3-8.9c5.2-2.7,10.5-5.2,15.7-7.9H175.2z"/>
	<path class="st0" d="M92.2,1.2c1.2,0.2,2.5,0.4,3.7,0.6c1.2,0.2,2.5,0.5,3.8,0.7c1.3,0.2,2.5,0.5,3.8,0.8c1.3,0.3,2.6,0.6,3.8,0.8
		c2.6,0.6,5.2,1.1,7.8,1.8c10.5,2.5,21.5,5.6,32.4,9.8c1.4,0.5,2.7,1.1,4.1,1.6c1.4,0.5,2.7,1.2,4.1,1.8c1.4,0.6,2.8,1.2,4.2,1.8
		c1.3,0.6,2.7,1.3,4,2c5.3,2.7,10.5,6,15.3,9.8c4.8,3.8,9,8.2,12.5,12.9c3.5,4.8,6.2,10,8.1,15.4c0.4,1.3,0.8,2.7,1.3,4
		c0.3,1.4,0.7,2.8,1,4.3l0.1,0.2l0,0l0,0.1l0.1,0.5l0.1,1.1c0.1,0.7,0.2,1.4,0.3,2.1c0.2,1.4,0.4,2.8,0.5,4.2
		c0.2,2.8,0.5,5.6,0.7,8.4c0.1,2.8,0.3,5.5,0.4,8.2c0.1,2.7,0.1,5.4,0.2,8.1c0.1,2.6,0.1,5.2,0.1,7.7c-0.2,5.1-0.8,9.9-2,14.5
		c-1.2,4.5-3.1,8.8-5,12.8c-0.5,1-1,2-1.5,2.9c-0.5,1-1,1.9-1.5,2.8c-1.1,1.8-2.1,3.7-3.2,5.4c-4.4,6.9-8.8,12.9-12.6,18.2
		c-3.8,5.3-6.9,10-9.6,13.8c-5.2,7.6-8.1,11.8-8.1,11.8s3.1-4.1,8.6-11.4c2.8-3.7,6.1-8.2,10.1-13.4c4-5.2,8.6-11,13.2-17.9
		c1.2-1.7,2.3-3.5,3.4-5.4c0.6-0.9,1.1-1.9,1.7-2.9c0.5-1,1.1-1.9,1.6-3c2.1-4.1,4.1-8.3,5.5-13.1c1.4-4.8,2.2-9.8,2.5-15.1
		c0.1-2.6,0.2-5.3,0.1-8c0-2.6,0-5.3,0-8c0-2.7-0.2-5.5-0.3-8.3c-0.1-2.8-0.4-5.6-0.6-8.5c-0.1-1.4-0.3-2.9-0.5-4.3
		c-0.1-0.7-0.2-1.4-0.2-2.2l-0.1-1.1l-0.1-0.5l0-0.1l0-0.1l0-0.2l-0.1-0.3c-0.3-1.4-0.6-2.8-0.9-4.3c-0.4-1.5-0.9-3-1.3-4.4
		c-2-5.8-4.8-11.4-8.6-16.5c-3.7-5.1-8.2-9.7-13.2-13.7c-5-4-10.4-7.4-16-10.2c-1.4-0.7-2.7-1.4-4.2-2c-1.4-0.6-2.8-1.2-4.2-1.8
		c-1.4-0.6-2.7-1.2-4.2-1.7c-1.4-0.5-2.8-1.1-4.2-1.6c-11.2-4.2-22.3-7.2-33-9.5c-2.7-0.6-5.3-1.1-7.9-1.6c-1.3-0.3-2.6-0.5-3.9-0.8
		c0,0,0,0-0.1,0H85.6C87.7,0.5,89.9,0.9,92.2,1.2z"/>
	<path class="st0" d="M140.3,75.9c-5.3-7.6-12.6-13.6-20.8-17.9c-9.4-4.9-19.6-7.9-29.8-10.3c-11-2.7-22.1-4.9-33.2-7.3
		c-18.5-4-37-8.1-55.6-11.8V31c1.7,0,3.4,0,5,0.2c9.8,1.1,19.3,2.5,28.7,5.4c8.7,2.7,17.1,5.3,25.8,8c8.4,2.6,17.1,3.9,25.8,5
		c9.6,1.2,19.2,2.7,27.9,7c18.3,9.1,33.2,32.5,23.7,52.8c-4.9,10.5-15.4,16.7-25.6,21.2c-11.7,5.2-24.2,8.6-35.3,15.2
		c-8.4,5.1-16.2,12.8-16.4,23.3c-0.2,9.6,6.2,18.1,14.6,22.3c10.1,4.9,21.9,3.3,31.6-1.7c11.5-5.9,20.5-16.1,27.3-26.9
		c11.3-18.1,18.4-41,15.5-62.5C148.3,91.6,145.3,83.2,140.3,75.9z"/>
	<g>
		<path class="st0" d="M107.2,194.4c0.2-0.1,0.3-0.3,0.5-0.4l7.8-8.2C112.6,188.5,110,191.5,107.2,194.4
			C107.2,194.4,107.2,194.4,107.2,194.4z"/>
		<path class="st0" d="M96.6,201.8c-3.1,1.9-6,4-9.1,5.9c-3.5,2.3-7,4.6-10.4,7.1c-1.8,1.3-3.7,2.4-5.8,3.3
			c-1.8,0.8-3.7,1.6-5.4,2.6c-3.8,2.2-7.5,4.5-11.7,5.9c-2.1,0.7-4.2,1-6.3,1.7c-2.1,0.7-4.1,1.8-6.2,2.7c-2,0.8-4.1,1.3-6,2.1
			c-2.1,0.9-4.1,2.1-6.2,3.1c-1.9,0.9-3.9,1.4-6,1.9c-2.5,0.6-4.9,1.2-7.4,1.9c-2.3,0.6-4.6,1-7,1c-2.1,0-4.4,0.1-6.4-0.6
			c-0.7-0.3-1.4-0.7-2-1.1v10.4c2.4,0.2,5-0.2,7.3-0.8c4.7-1.2,9.2-3.1,13.6-5c4.8-2.1,9.6-4.3,14.3-6.6c5.3-2.7,10.5-5.4,16.2-7.2
			c2.4-0.8,4.8-1.6,7.1-2.7c3.1-1.5,6-3.2,8.9-5c5-3.1,10-6.1,14.9-9.4c4.4-2.9,8.5-6.3,12.7-9.4c3.9-2.8,7.8-5.5,11.2-8.9
			c-0.5,0.4-1,0.9-1.6,1.3C102.7,197.9,99.6,199.9,96.6,201.8z"/>
	</g>
	<g>
		<path class="st0" d="M35.1,214.9c-2.4,2-5.2,3.6-7.2,6.1c-1.8,2.2-2.6,4.9-4.1,7.2c-1.7,2.6-4.4,3.8-7.1,5.1l4-1
			c2.6-1.8,5-3.7,7.2-6c2.1-2.2,4.1-4.7,6.8-6.4c2.7-1.7,5.9-2.3,8.9-3.4c3-1.1,6.6-2.9,7.6-6.2c0.8-2.6-0.7-5.3-3.4-5.8
			c-2.9-0.5-5.2,1.6-6.9,3.7C39,210.6,37.4,213,35.1,214.9z"/>
		<path class="st0" d="M37.6,184.7c0.3-1.5,0.8-3.5-0.2-4.8c-0.9-1.2-2.6-1.2-3.9-1.2c-2,0-4,0.3-6,0.6c-0.8,0.5-2.1,1-3,1.2
			c-0.7,0.2-1.5,0.3-2.2,0.5c-0.7,0.3-1.4,0.8-2.2,1.2c-2.9,1.4-6,2.6-8.8,4.2c-3.1,1.7-7,2.1-10.4,2.9V236c0.8,0.6,1.8,1.1,2.8,1.2
			c3.8,0.5,8-2.5,11.2-4.1c1.6-0.9,3.3-1.7,4.7-2.9c1.5-1.3,2.5-2.9,3.6-4.5c3.5-5.1,7.8-9,12.3-13.2c3.1-2.9,6.8-6.5,3.8-10.8
			c-1-1.5-2.4-2.8-3.2-4.4c-0.9-1.8-0.8-3.8-0.4-5.7C36.2,189.2,37.1,187,37.6,184.7z"/>
		<path class="st0" d="M60,209.7c-0.9-0.3-2-0.1-2.9,0.2c-1.2,0.4-2.3,1-3.3,1.6c-2.1,1.4-3.8,3.2-5.8,4.6c-4.3,3.1-9.4,5-14.4,6.5
			l-3,2.8c1.2-1.1,2.5-2.1,4.2-2.4c1.8-0.3,3.7-0.3,5.5-0.8c1.9-0.5,3.7-1.1,5.7-1.4c2.2-0.4,4.4-0.5,6.5-1.2c2.8-0.9,5.4-2.7,7.2-5
			C60.6,213.4,62.3,210.5,60,209.7z"/>
		<path class="st0" d="M56.8,222c0.6-0.7,0.9-1.7,0.2-2.4c-0.7-0.6-1.9-0.6-2.8-0.4c-0.9,0.2-1.7,0.6-2.6,1
			c-0.7,0.3-1.5,0.6-2.2,0.9c-1.7,0.7-3.3,1.5-5.1,2l-0.1,0c0.1,0,0.2,0,0.3,0c1.9,0.5,3.9,1,5.9,1.2
			C52.7,224.5,55.3,223.9,56.8,222z"/>
	</g>
	<g>
		<path class="st0" d="M197.4,85.3c-0.2-1-0.5-1.9-0.7-2.8c-0.3-0.9-0.6-1.6-0.8-2.3c-0.5-1.4-1-2.6-1.4-3.4c-3.7-6.8-3.6-1-3.6-1
			s-3.1-4.8-2.5,2.8c0,0.2,0,0.5,0.1,0.8c0,0.3,0,0.5,0,0.8c0,0.5,0.1,1.1,0.1,1.8c0,0.6,0.1,1.3,0.2,2.1c0,0.8,0,1.6,0.1,2.5
			c0.2,1.8,0,3.7-0.1,6c-0.1,1.2-0.2,2.6-0.3,4c-0.2,1.2-0.3,2.5-0.6,3.9c-0.5,2.9-1.2,6-2.2,9.5c-1,3.5-2.4,7.4-4,11.6
			c-0.9,2.2-1.7,4.5-2.7,6.8c-1,2.2-2,4.5-3.1,6.9c-1.2,2.4-2.5,4.9-3.8,7.4c-1.5,2.5-2.9,5.1-4.6,7.8c-0.9,1.4-1.7,2.8-2.6,4.2
			c-0.9,1.3-1.8,2.6-2.7,3.9c-1,1.3-2,2.7-2.9,4c-1,1.3-2.1,2.7-3.1,4.1c-1.1,1.3-2.2,2.7-3.3,4.1c-1.2,1.4-2.3,2.7-3.5,4.1
			c-1.2,1.4-2.4,2.8-3.6,4.2c-0.6,0.7-1.2,1.4-1.9,2.1l-0.9,1.1l-0.2,0.3l-0.1,0.1l-0.1,0.1l-0.5,0.5c-5.2,5.6-10.5,11.3-16,16.9
			c-1.4,1.4-2.8,2.8-4.2,4.2c-1.4,1.4-2.8,2.8-4.3,4.2c-1.4,1.4-2.8,2.8-4.3,4.1c-1.5,1.3-3,2.7-4.4,4l-2.2,2l-2.3,1.9
			c-1.5,1.3-3.1,2.6-4.6,3.9c-1.5,1.3-3.2,2.5-4.7,3.7c-1.6,1.2-3.2,2.5-4.8,3.6l-4.9,3.4l-2.5,1.7l-2.6,1.6
			c-1.7,1.1-3.5,2.2-5.2,3.3c-1.7,1-3.4,2-5.1,3c-6.9,3.9-14.1,7.4-21.3,10.5c-3.6,1.6-7.2,3-10.8,4.5c-3.6,1.4-7.2,2.8-10.8,4
			c-1.8,0.6-3.6,1.3-5.3,1.9c-1.8,0.6-3.5,1.2-5.3,1.8c-0.9,0.3-1.8,0.6-2.6,0.9c-0.9,0.2-1.7,0.5-2.6,0.7c-0.8,0.2-1.7,0.5-2.5,0.7
			c-0.8,0.2-1.7,0.5-2.5,0.7c-1.7,0.4-3.4,0.8-5.1,1.2c-0.1,0-0.2,0-0.3,0.1v4.9c0.4-0.1,0.8-0.1,1.2-0.2c1.8-0.3,3.5-0.6,5.3-0.9
			c0.9-0.1,1.8-0.3,2.7-0.5c0.9-0.2,1.8-0.4,2.7-0.6c0.9-0.2,1.8-0.4,2.8-0.6c0.9-0.2,1.8-0.5,2.7-0.7c1.8-0.5,3.6-1,5.4-1.5
			c1.8-0.5,3.6-1.1,5.5-1.6c3.7-1.1,7.4-2.3,11.1-3.5c3.7-1.3,7.5-2.5,11.3-4c7.6-2.8,15.1-6.1,22.6-9.8c1.9-1,3.8-1.9,5.6-2.9
			c1.8-1,3.6-2,5.4-3.1l2.7-1.6l2.7-1.7l5.4-3.4c1.8-1.1,3.5-2.4,5.2-3.6c1.7-1.2,3.5-2.4,5.1-3.7c1.7-1.3,3.3-2.6,5-3.9l2.5-1.9
			l2.4-2c1.6-1.3,3.2-2.7,4.7-4c1.6-1.3,3.1-2.8,4.6-4.1c1.5-1.4,3-2.7,4.5-4.1c1.5-1.4,2.9-2.8,4.4-4.2
			c5.8-5.6,11.4-11.2,16.7-16.7l0.5-0.5l0.6-0.6l1-1.1c0.6-0.7,1.3-1.4,1.9-2.1c1.3-1.4,2.5-2.8,3.8-4.2c1.2-1.4,2.5-2.8,3.7-4.2
			c1.2-1.4,2.4-2.8,3.6-4.3c1.1-1.4,2.3-2.9,3.4-4.3c1.1-1.5,2.2-2.9,3.2-4.3c1-1.5,2.1-3,3.1-4.5c1-1.5,1.8-2.8,2.7-4.2
			c1.7-2.9,3.4-5.8,4.9-8.5c1.4-2.8,2.7-5.5,4-8.2c1.1-2.7,2.2-5.3,3.3-7.8c0.9-2.4,1.7-4.7,2.5-7c1.6-4.6,2.8-8.9,3.8-13
			c0.9-4,1.4-7.8,1.7-11.2c0.1-1.7,0.1-3.5,0.1-5c-0.1-1.4-0.2-2.8-0.2-4C198.2,89.7,198,87.3,197.4,85.3z M142.8,182.4
			C142.8,182.3,142.8,182.4,142.8,182.4L142.8,182.4z"/>
		<path class="st0" d="M182.1,133.9c0,0,0.2-0.4,0.5-0.9c0.3-0.6,0.7-1.3,1-2.1c-2.2,4.1-4.8,7.6-7,11.2c-1.1,1.8-2.1,3.6-3.1,5.3
			c-0.5,0.9-1,1.7-1.5,2.5c-0.5,0.8-1,1.6-1.6,2.4c-2.2,3.1-4.6,6-6.9,8.9c-1.2,1.5-2.3,2.9-3.5,4.4c-1.1,1.5-2.3,3.1-3.4,4.6
			c-0.5,0.7-1.5,2-2.4,3.4c-0.5,0.7-0.9,1.4-1.3,2c-0.4,0.6-0.8,1.1-1,1.4c-3.6,4.6-7.5,9.1-11.5,13.7c-1,1.1-2,2.3-3,3.5l-0.8,0.9
			l-0.8,0.8c-0.5,0.5-1.1,1.1-1.6,1.6c-1.1,1.1-2.1,2.2-3.3,3.3c-1.2,1.1-2.4,2.2-3.6,3.3c-2.4,2.3-4.4,4.2-6.5,6.2
			c-2,2-4.1,4-6.6,6.2c3.7-3.3,2.2-1.9-4,3.8c-1.6,1.4-3.5,3-5.7,4.9c-2.2,1.8-4.8,3.9-7.6,6.3c-1.4,1.2-2.9,2.4-4.4,3.6
			c-1.6,1.2-3.3,2.3-5.1,3.5c-3.7,2.3-8,4.3-12.6,6.5c-3.7,1.8-7.4,3.7-11.1,5.6c-1.8,1-3.7,1.9-5.5,2.9c-0.9,0.5-1.8,1-2.8,1.5
			l-1.4,0.7c-0.5,0.2-0.9,0.4-1.4,0.6c-7.4,3.4-15,6-21.8,8.3c-3.8,1.3-7.5,2.5-11.1,4c-1.8,0.7-3.6,1.4-5.3,2.1
			c-1.8,0.7-3.5,1.4-5.3,1.9c-1.8,0.5-3.7,0.8-5.6,0.8c-0.8,0-1.7-0.1-2.5-0.1v0.5c0.9,0.1,1.8,0.1,2.7,0.2
			c3.5,0.1,6.9-0.9,10.1-2.1c3.2-1.2,6.4-2.3,9.7-3.5c3.3-1,6.6-2.1,10-3.1c1.7-0.5,3.4-1.1,5.1-1.6c1.7-0.6,3.4-1.1,5.1-1.7
			c3.1-1.1,6.2-2.2,9.2-3.4c0.7-0.3,1.5-0.6,2.2-0.9l2.2-1.1c1.4-0.7,2.9-1.4,4.3-2.1c5.7-2.8,11.4-5.6,17-8.3
			c2.8-1.4,5.6-2.7,8.4-4.3c2.8-1.5,5.4-3.2,8-5.2c2.5-2,4.8-3.9,7.2-5.9c2.4-2,4.8-3.9,7.2-5.9c2.4-2,4.7-4.1,7-6.2
			c2.3-2,4.6-4.1,7-6.1c2.4-2.1,4.8-4.1,7.1-6.2c1.2-1.1,2.3-2.1,3.5-3.2c1.1-1.1,2.3-2.3,3.4-3.4c2.4-2.3,4.3-4.8,6.4-7.2
			c2.1-2.5,4.1-5,6.2-7.5c2-2.6,4-5.2,6.1-7.8c1-1.4,1.9-2.7,2.9-4.1c1-1.4,2-2.7,2.9-4.1c2.9-4,5.4-7.9,7.6-11.2
			c1.7-2.5,3.3-5.1,4.9-7.8c0.8-1.4,1.4-2.8,2.1-4.2l1-2c0.4-0.7,0.7-1.3,1.1-2c1.5-2.7,3.1-5.2,4.5-7.8c1.4-2.6,2.5-5.1,3.2-7.6
			c-0.7,1.6-1.2,2.8-1.8,3.9C183.7,131.3,183,132.4,182.1,133.9z"/>
	</g>
	<path class="st0" d="M82.3,88.9c-1.3-1.3,1.6-2.1,0.2-3.3c2-0.9,2.7-4.1,4.5-3.9c0,0.2,0,0.5,0.2,0.4c0.9,0.1,0.5-0.7,1-1.2
		c0.6,0.8,1.7,0.4,2.1-0.4c0.1,0.3-0.2,0.8,0.1,0.9c1.1,0.4,1.2-1.4,2-1.3c0,0.4-0.7,1.1-0.1,1.4c1.1,0.8,2-1.7,2.9-0.8
		c0.4,0.4-0.8,0.6-0.5,1.3c0.4,1.1,1.7,0.8,2.5,0.7c0.4,0.5-0.5,0.6-0.6,0.8c0.8,0.8,2,2,3.3,1.8c-0.2,0.5-1.6,1-1.2,1.7
		c0.4,1.2,1.6,0.6,2.4,1.3c-0.6,0.4-1-0.4-1.3,0.3c-0.1,0.3,0.7,0,0.4,0.4c-0.5,0.1-1.3-0.1-1.4,0.5c0,0.8,1.3,0.4,1.2,1.1
		c-0.5,0.1-1,0-1.4-0.2c-1.3,0.9,0,1.7,0.4,2.1c-0.4,0.3-1.4-0.2-1.3,0.5c0,0.4,0.9,0.1,0.9,0.6c-0.8,0.5-2.6-1.5-2.4,0.4
		c0.3,0.1,0.2,0.4,0.2,0.7c-0.8-0.5-1.9-0.6-2.7,0.1c-0.8,0.8,1.4,1,0.4,1.5c-0.6-0.4-1-1.4-2-1.2c-0.7,0.2,0.2,1.7-0.9,1
		c-0.8-1.6-1.2,1.7-1.9-0.4c-0.6,0-0.1,0.7-0.7,0.8c-0.3-0.4-0.5-1.3-1.1-1.2c-0.6,0-0.1,1.2-0.9,0.8c-0.2-0.9-1.3-1.1-1.7-2
		c-0.3-0.5-0.9,0.4-1.1,0.1c-0.2-0.4,0.2-1.1-0.3-1.3c-0.6-0.1-0.7,0.9-1.1,0.5c0.9-0.7,0.2-1.2,0.2-1.8l-0.9-0.1
		c0.4-0.7,0.8-1.4,0.6-2.1l-0.8-0.1C81.6,89.1,82.1,89.2,82.3,88.9z"/>
	<g>
		<path class="st0" d="M55.6,96.5c0,0.3-0.2,0.7-0.5,0.4l-0.2-0.2C54.9,96.4,55.4,96.2,55.6,96.5z"/>
		<path class="st0" d="M57.2,95.1c0.1,0,0.1,0.1,0.1,0.2c-0.1,0.1-0.5,0.2-0.5-0.1C56.9,95.2,57,95.1,57.2,95.1z"/>
		<path class="st0" d="M61.9,98.4c0.2,0.4,0.1,0.9-0.5,0.9c-0.3-0.2-0.5-0.3-0.6-0.7C61,98.3,61.5,98.2,61.9,98.4z"/>
		<path class="st0" d="M44.2,67.9l-0.1,0c0.8-0.2,2-0.4,2.7,0.4c-0.1,0.4-0.6,0.3-0.9,0.3c-0.7,0.1-1.2-0.6-1.9-0.5
			C43.9,68,44.2,68.1,44.2,67.9z"/>
		<path class="st0" d="M50.4,70c0.2,0.1,0.6,0.2,0.7,0.4c-0.2,0.4-0.9,0.2-1.3,0.2l-0.6-0.4C49.5,70,50,70,50.4,70z"/>
		<path class="st0" d="M53.3,68.2c0.1,0,0.2,0.2,0.3,0.2l0,0.2c-0.7,0.3-1.2-0.2-1.8-0.3C52.1,68.1,52.8,67.9,53.3,68.2z"/>
		<path class="st0" d="M53,68.4c0-0.1-0.3,0.2-0.4,0L53,68.4z"/>
		<path class="st0" d="M53.8,66.9L53.8,66.9L53.8,66.9l-0.3-0.1C53.6,66.8,53.7,66.7,53.8,66.9z"/>
		<path class="st0" d="M72,64.1c0.1,0,0.1,0.1,0.1,0.2l-0.2-0.1C71.9,64.2,71.9,64.1,72,64.1z"/>
		<path class="st0" d="M89,81.6c0.2,0.1,0.2,0.3,0.2,0.5c-0.2,0.2-0.3,0.2-0.5,0C88.8,81.9,88.6,81.6,89,81.6z"/>
		<path class="st0" d="M95.1,70.4c0.2,0,0.4,0,0.5,0.2c-0.2,0.2-0.1,0.5-0.4,0.5C94.8,71.1,94.9,70.6,95.1,70.4z"/>
		<path class="st0" d="M96,64c0.3,0.2,0.8,0.3,0.7,0.8c0,0.5-0.2,0.7-0.7,0.7c-0.5,0.2-0.5-0.4-0.7-0.5C95.2,64.5,95.6,64.3,96,64z"
			/>
		<path class="st0" d="M95.7,69c0.1,0,0.2,0,0.3,0.1c0,0.2,0,0.3-0.2,0.5C95.6,69.6,95.4,69.1,95.7,69z"/>
		<path class="st0" d="M97.8,81.4c0.2,0.1,0.4,0.1,0.5,0.3c-0.2,0.2,0,0.5-0.3,0.7C97.3,82.3,97.2,81.6,97.8,81.4z"/>
		<polygon class="st0" points="67.1,81.2 66.5,81.4 66.7,81.1 		"/>
		<path class="st0" d="M70.1,82.4c0.4,0.2,0.9,0.3,0.7,0.7c-0.5,0.8-1.6,0.2-2.2,0.1l-0.2,0c0.2-0.1-0.1-0.3,0.1-0.4
			c-0.7,0.2-0.3-0.6-0.9-0.5C68.4,82.1,69.3,82.1,70.1,82.4z"/>
		<path class="st0" d="M99.5,70.8c0.3-0.1,0.2,0.3,0.3,0.4c-0.1,0.2-0.4,0.2-0.5,0C99.3,71,99.4,71,99.5,70.8z"/>
		<path class="st0" d="M101.6,80.2c0.2,0.1,0.1,0.3,0.1,0.5c-0.1,0.2-0.3,0-0.5,0.1C100.9,80.5,101.2,80,101.6,80.2z"/>
		<path class="st0" d="M102.1,75.8c0.2,0.1,0.3,0.4,0.1,0.6c-0.2,0-0.4,0.1-0.5-0.2C101.7,75.9,102,76,102.1,75.8z"/>
		<path class="st0" d="M102.3,79.6c0.3,0.3,1.1-0.1,0.8,0.6c-0.3-0.2-0.8,0.3-1.1-0.1C102.1,79.9,102.1,79.7,102.3,79.6z"/>
		<path class="st0" d="M76.5,81.4c0.3,0,0.6,0,0.8-0.3c-0.1-0.2-0.4-0.2-0.3-0.5c1.3,0.3,2.9,0.1,3.7,1.4c0,0.3-0.2,0.6-0.4,0.7
			c-0.2,0-0.7,0-0.9,0.3c-0.5-0.5-1.4,0.2-2-0.3c0.1,0,0.2-0.1,0.3-0.2c-0.4-0.3-1.1-0.6-1.4-1L76.5,81.4z"/>
		<path class="st0" d="M79.2,87.5c0.1,1-1.1,0.5-1.6,0.4l-0.9-0.6C77.5,87,78.5,86.9,79.2,87.5z"/>
		<polygon class="st0" points="78.5,87.5 78.2,87.9 77.9,87.4 78.2,87.8 		"/>
		<polygon class="st0" points="81.4,88.9 81.1,88.7 81.4,88.6 		"/>
		<path class="st0" d="M84.6,89.5c0.2,0.1,0.3,0.2,0.5,0.4c0,0.3-0.3,0.5-0.5,0.5c-0.7,0.1-1.3-0.2-1.8-0.5L82.7,90
			c-0.1,0.1,0.2-0.1,0.3-0.2c0-0.3-0.3-0.2-0.5-0.2C83.1,89.3,84,89.1,84.6,89.5z"/>
		<path class="st0" d="M83.9,89.9l-0.2-0.2c-0.2,0.3,0,0-0.3,0C83.8,90,83.6,89.5,83.9,89.9z"/>
		<path class="st0" d="M86.2,91.1c0.5-0.4,1.5-0.3,2,0c0.2,0.2,0.6,0.5,0.2,0.7c-0.5,0.2-1.2,0.4-1.8,0.2c-0.1-0.4-0.7-0.3-1.1-0.5
			C85.7,91.3,86.5,91.6,86.2,91.1z"/>
		<polygon class="st0" points="86.9,91.1 87,91.2 86.9,91.2 		"/>
		<path class="st0" d="M92.7,110.9c0.2,0.1,0.1,0.2,0.1,0.4c-0.4,0.5-1.1,0.3-1.6,0.2c-0.2-0.4-0.5,0.1-0.7-0.2
			C91.1,111.1,91.8,110.5,92.7,110.9z"/>
		<path class="st0" d="M110.4,99.1c0.1,0.1,0.3,0.1,0.4,0.3c0,0.2,0.1,0.6-0.4,0.7l-1.1,0c0-0.1,0-0.1,0.1-0.2l-0.5-0.3
			C109.1,98.9,109.9,99.1,110.4,99.1z"/>
		<polygon class="st0" points="101.7,99 101.3,99.1 101.4,99 		"/>
		<polygon class="st0" points="109.3,55.6 109,55.4 109.3,55.4 		"/>
		<path class="st0" d="M109.6,57.9c0.2-0.1-0.2,0.3-0.3,0.2l0.6,0.5l-0.8-0.4L109.6,57.9z"/>
		<path class="st0" d="M109.9,58c0-0.2,0.3-0.1,0.5-0.1c0.2,0.2,0.4,0.3,0.3,0.6c-0.1,0.2-0.3,0-0.4,0.1c0.1-0.1,0.3-0.1,0.4-0.3
			c-0.2-0.3-0.5-0.3-0.6-0.3c0,0.1,0,0.1,0.1,0.2l-0.3,0.1l0.3-0.2L109.9,58z"/>
		<path class="st0" d="M111.6,55.1L111.6,55.1L111.6,55.1l-0.4,0.2C111.4,55.4,111.5,55.2,111.6,55.1z"/>
		<path class="st0" d="M117.3,84.4c0.9,0.2,2.1-0.7,3,0.1c0.2,0.5-0.3,1-0.7,1c-0.9,0.1-1.5-0.7-2.4-0.9L117.3,84.4z"/>
	</g>
	<g>
		<path class="st0" d="M262.9,14.5c-0.1,0-0.1,0.1-0.2,0.2C262.9,14.7,262.9,14.6,262.9,14.5z"/>
		<path class="st0" d="M264.5,12.7l-0.3,0.4C264.3,13.3,264.3,12.8,264.5,12.7z"/>
		<polygon class="st0" points="263.8,14.1 264.2,14.1 264.2,14 263.8,14 		"/>
		<path class="st0" d="M262.8,14.7c-0.1,0.1-0.3,0.1-0.4,0.2C262.8,15.2,262.7,14.9,262.8,14.7z"/>
		<path class="st0" d="M263.5,12.1C263.5,12.1,263.4,12.1,263.5,12.1C263.4,12.1,263.5,12.1,263.5,12.1z"/>
		<path class="st0" d="M263.5,12.1c0.1,0,0.2,0.1,0.2,0.2c0.1-0.1,0.3-0.3,0-0.5C263.7,12,263.5,12.1,263.5,12.1z"/>
		<path class="st0" d="M261.9,14c0.1-0.1,0.5-0.3,0.2-0.4C261.9,13.7,261.8,13.9,261.9,14z"/>
		<path class="st0" d="M263.4,12.1c0,0-0.1-0.1-0.1-0.1C263.3,12,263.4,12,263.4,12.1z"/>
		<path class="st0" d="M277,47.9c-1.3-0.7-3.2-0.6-4.5,0l0.8,0.4c1.2,0.4,3,0.9,4-0.1L277,47.9z"/>
		<polygon class="st0" points="276,97.8 275.9,97.8 275.6,97.7 		"/>
		<polygon class="st0" points="275,10.6 275.1,10.9 275.1,10.5 		"/>
		<polygon class="st0" points="264.9,13 264.7,13.1 264.7,13.1 264.9,13.1 		"/>
		<polygon class="st0" points="275.5,10.5 275.8,10.5 275.7,10.3 		"/>
		<path class="st0" d="M262.6,13.4c-0.3,0.5-0.1,0.4,0.2,0.8l-0.1,0c0.4,0.2,0.1-0.3,0.5-0.5c0.1,0,0.2,0.1,0.1,0.3
			c0.3-0.1,0.2-0.4,0.3-0.7c-0.1,0-0.3-0.1-0.4-0.1c0.1,0.1,0.2,0.4,0.2,0.5C263.2,13.4,262.7,13.8,262.6,13.4z"/>
		<path class="st0" d="M269.1,62c-0.2-0.3-0.6-0.5-0.9-0.6c-0.5-0.2-1,0.2-1.3,0.5c0,0.2,0,0.5-0.2,0.7c0.2,0.1,0.7,0,0.8,0.4
			l-0.1,0.1C267.9,62.7,269,62.9,269.1,62z"/>
		<path class="st0" d="M265.3,13.2c0,0.6,0.7-0.2,0.9,0.2C265.8,12.8,266,13.3,265.3,13.2z"/>
		<polygon class="st0" points="267.2,14.4 267.6,14.4 267.6,14.3 		"/>
		<polygon class="st0" points="274.4,10.7 274.7,10.6 274.5,10.6 		"/>
		<path class="st0" d="M259.4,7.5l0.3,0.2C259.7,7.5,259.5,7.6,259.4,7.5z"/>
		<path class="st0" d="M256.3,17.2c-0.2,1-0.6,1.7-0.4,2.7c0.6,0.1,1.2,1.2,2.3,1.5c1.4,0.4,2.8,0.8,4.4,0.6c0.1,0,0.1,0,0.2,0
			c0,0,0,0,0,0.1c0.1,2.6,3.2,2,4.3,3.5l-0.1-0.7c1.1,0.1,2.3-0.2,3,0.8c0-0.2-0.4-0.9-0.1-1.4c1.4,0.4,2,0.1,3.3-0.6
			c0.1-0.4-0.5-0.2-0.5-0.6c0.7-0.3,1.4,0.4,2,0.2c-0.3-0.5-1.3-0.2-1-1.1c1.2-0.4,1.8-1.5,3.2-1.2c-1-0.2-2.1-0.9-2.4-1.9
			c0.4-0.1,0.9-0.3,0.7-0.8c-1.9-2-5.2-3.1-7.7-3.6c-0.7,0.6-1.5,1.1-2.3,1.7c-0.4-0.1-0.8-0.2-1.1-0.5c0-0.6,0.8-0.8,1.2-1.2
			c-1.2,0.3-3.6,0.8-3.8-0.2c-1.4,1-2.1,0-3.5,0.9L256.3,17.2z M273.7,18.6c-0.1,0-0.2,0-0.3,0C273.5,18.5,273.6,18.6,273.7,18.6z
			 M259.7,15.6C259.7,15.6,259.6,15.7,259.7,15.6C259.6,15.6,259.6,15.6,259.7,15.6z"/>
		<path class="st0" d="M260.1,12.8l-0.1,0.1c0.6,0.2,0.7,0.4,1-0.3C260.7,12.8,260.3,13.3,260.1,12.8z"/>
		<path class="st0" d="M255.1,14.5l0.3,0.2c-0.4,0.7,0.8,0,0.5,0.9c0.3-0.3,0.6,0,1-0.1c0.3-0.2,0.7-0.5,0.6-1
			c-0.1-0.5-0.4-0.8-0.7-0.9c-0.5-0.2-1.3,0-1.5,0.4C255.3,14.2,255.3,14.5,255.1,14.5z"/>
		<path class="st0" d="M241.6,26.9c-0.4,1.4-0.1,3,0.3,3.9c0.6,0.5,2,0.4,2.1,1.8c0.7-0.9,1.9,0.3,2.7,0.5c0.8,0.6,0.8-0.5,1.4-0.6
			c0.7,0,1,0.9,1.6,0.8c-0.1-0.3-0.3-1,0-1.3c0.5,0.4,1.2,0.1,1.7,0.2c0.1-0.4-0.5-0.2-0.6-0.5c-0.2-1,1.3-0.2,1.7-1
			c0.3-0.5-0.8-0.3-0.5-0.8c0.3-0.6,1.2,0.1,1.6-0.6c-0.4-0.2-0.9,0.3-1.2-0.2c0.4-0.7,0.9-2.1,2-1.9c-0.1-0.5-1-0.1-1-0.7
			c0.1-0.4,0.7-0.2,0.9-0.5c-0.1-0.3-0.7,0-1-0.3c-0.4-0.5,0.3-1,0.6-1.4c-1,0.6-1.8-0.2-2.7-0.5l0.4-1.4c-2.2,1.2-4.8,0.1-6.9,2
			C244,25.2,241.8,25.5,241.6,26.9z M243.5,30.2C243.5,30.2,243.5,30.2,243.5,30.2L243.5,30.2C243.6,30.2,243.6,30.2,243.5,30.2z
			 M243.8,30.9c0.1,0,0.1,0,0.2,0C243.9,30.9,243.9,30.9,243.8,30.9z"/>
		<path class="st0" d="M238.5,53.1l0.8,0.6l-0.1,0.1c0.5-0.3,0.9,0.3,1.3,0.1c0.2-0.3,0.7-0.3,0.6-0.8c-0.1-0.5-0.6-0.7-1-0.9
			c-0.6,0.3-1.2,0.2-1.5,0.7c0.1,0,0.3-0.1,0.4,0.1l-0.2,0.2C238.8,53,238.6,53.1,238.5,53.1z"/>
		<path class="st0" d="M241.3,12.7c0.6,0.5,1.1,0.7,1.7,1l-0.1,0.1l1.6,0.1c0.3-0.2,0.5-0.6,0.4-1c-0.8-0.9-1.9-0.5-2.8-0.3
			c-0.1-0.1-0.4-0.5-0.5-0.1c0.1,0.1,0.2,0.1,0.2,0.3C241.7,12.8,241.5,12.7,241.3,12.7z"/>
		<path class="st0" d="M248.7,16.9c0.2-0.1,0-0.3-0.1-0.5c-0.4-0.2-0.9-0.2-1.4,0c-0.1,0.1,0.2,0.4,0,0.5
			C247.7,17,248.3,17.4,248.7,16.9z"/>
		<path class="st0" d="M260.7,13.9c-0.1,0-0.1,0.1-0.2,0.1C260.5,14,260.6,13.9,260.7,13.9z"/>
		<path class="st0" d="M262.6,12.6l0.2,0C262.8,12.6,262.7,12.6,262.6,12.6z"/>
		<path class="st0" d="M260.7,13.9c0.2-0.1,0.4-0.2,0.4-0.4C260.9,13.4,260.8,13.7,260.7,13.9z"/>
		<path class="st0" d="M261.8,12.3c0.3,0.5,0.3,0.3,0.8,0.3l-0.1,0c0,0,0-0.1,0-0.3c-0.2,0.1-0.4-0.1-0.6-0.2
			c0.1,0.1,0.4,0.2,0.3,0.4C262.1,12.4,262,12.3,261.8,12.3z"/>
		<path class="st0" d="M263.8,13c-0.1,0-0.2,0.1-0.2,0.2C263.6,13.2,263.7,13.2,263.8,13z"/>
		<path class="st0" d="M262.9,13.3c0.1-0.1,0.1-0.1,0.2-0.1C263.1,13.1,263,13.1,262.9,13.3z"/>
		<path class="st0" d="M262.9,11.9c-0.2,0.1-0.3,0.3-0.3,0.4C262.7,12.3,262.7,12.1,262.9,11.9z"/>
		<path class="st0" d="M260,14.2c0.2,0.2,0.1-0.1,0.3-0.2C260.2,14,260.1,14.2,260,14.2z"/>
		<polygon class="st0" points="259.8,13.7 260.1,13.9 260,13.8 		"/>
		<polygon class="st0" points="261.3,12.4 261.6,12.5 261.4,12.3 		"/>
		<polygon class="st0" points="276.9,98 276.5,97.7 276.4,98.1 		"/>
		<path class="st0" d="M277.8,57.1C277.8,57.1,277.8,57,277.8,57.1C277.7,57.1,277.8,57.1,277.8,57.1z"/>
		<path class="st0" d="M280.5,31.7c0.1,0,0.2,0,0.4,0c0,0,0,0,0,0C280.8,31.6,280.6,31.6,280.5,31.7z"/>
		<polygon class="st0" points="278,9.2 277.8,9.2 278,9.4 		"/>
		<path class="st0" d="M279.9,31.9L279.9,31.9c-0.3,0.1-0.1,0.3,0,0.3L279.9,31.9z"/>
		<path class="st0" d="M280.2,31.9c0.1-0.1,0.2-0.2,0.3-0.3C280.4,31.7,280.2,31.8,280.2,31.9L280.2,31.9z"/>
		<path class="st0" d="M278,57.4l0.2-0.2c0-0.1-0.1-0.1-0.1-0.2c-0.1,0-0.2,0-0.3,0C278,57.2,278,57.4,278,57.4z"/>
		<path class="st0" d="M240.5,3.1c-0.6,0.4,0.2,1.2,0.6,1.3c0.4,0.1,0.5-0.5,0.4-0.9C241.2,3.2,240.9,2.9,240.5,3.1z"/>
		<path class="st0" d="M239.2,25.2c0.3,0.4,0.8,0.3,1.2,0.3c0.3,0,0.5-0.2,0.5-0.6c-0.1-0.3-0.6-0.5-0.9-0.5
			C239.6,24.6,239.1,24.5,239.2,25.2z"/>
		<path class="st0" d="M278,57.4L278,57.4C278,57.5,278,57.5,278,57.4z"/>
		<polygon class="st0" points="277.6,9.6 277.3,9.7 277.3,9.7 277.6,9.7 		"/>
		<path class="st0" d="M268.9,26.3l-0.4,0.1C268.7,26.6,268.9,26.3,268.9,26.3z"/>
		<path class="st0" d="M289.4,45.1c1,0.3,2.2,0.4,3.5,0.2c1.5-0.2,0.7-1.9,1-2.9c-1.1-0.8-2.7-1.7-4-0.8
			C288,42.3,288.4,44,289.4,45.1z"/>
		<path class="st0" d="M287.8,39.2c0.2,0.1-0.1,0.4-0.3,0.4l0.3,0.2l-0.1,0.1l0.4,0.4l-0.1,0.1l0.9-0.1c0.3-0.1,0.8-0.5,0.6-0.9
			C289,38.5,288.5,39,287.8,39.2z"/>
		<path class="st0" d="M247.8,58.6l-0.1-0.1c0,0-0.2-0.3-0.3-0.2c-0.1,0.1,0.3,0.2,0.1,0.4c-0.2,0.1-0.4-0.1-0.5-0.1
			C247.2,58.8,247.6,58.8,247.8,58.6z"/>
		<path class="st0" d="M296,38.3c0.2,0.3,0.3-0.1,0.5,0.1l-0.1,0.3c-0.2-0.1-0.5,0.1-0.7-0.2c0-0.1,0-0.2,0.1-0.3
			c-0.2-0.1-0.4,0.3-0.4,0.3c0.3,0.1,0.6,0.5,1,0.3c0.3,0,1-0.1,0.6-0.6C296.7,38.3,296.2,37.9,296,38.3z"/>
		<path class="st0" d="M282.2,8.3c0.3,0.2,0.7,0.2,1-0.1c0.1-0.5,0.1-0.8-0.3-1.2c-0.2,0.2-0.4,0-0.6,0.3
			C282.1,7.5,282.1,8,282.2,8.3z"/>
		<path class="st0" d="M280.1,32.2c0.5,0.2,1.1,0.4,1.6-0.1c0-0.1-0.1-0.3-0.2-0.4c-0.2,0-0.4,0-0.6,0c0,0.1,0.1,0.3,0,0.4l-0.4,0.3
			l-0.2-0.2c0,0,0,0,0.1-0.1L280.1,32.2z"/>
		<path class="st0" d="M280.4,32.1L280.4,32.1C280.6,31.9,280.5,32,280.4,32.1z"/>
		<path class="st0" d="M290.9,36.3l0.4-0.3l-0.2-0.3c-0.5-0.2-0.9,0.1-1.3,0.2l0.9-0.1l-0.1,0.4l-0.1-0.1l0,0.2l-0.3,0
			c0.1,0,0.3-0.1,0.4,0.1l0.3-0.4l0.1,0.1C291,36.2,291,36.3,290.9,36.3z"/>
		<path class="st0" d="M283.3,4.8c-0.1-0.2,0-0.6-0.2-0.6c-0.6-0.3-0.7,0.7-0.4,1C283,5.2,283.2,5.1,283.3,4.8z"/>
		<path class="st0" d="M287.3,19.4l0.6-0.1l0-0.1C287.8,19.5,287.5,19.2,287.3,19.4z"/>
		<path class="st0" d="M256.4,27.1L256.4,27.1C256.3,27,256.3,27.1,256.4,27.1z"/>
		<path class="st0" d="M257.6,27.4C257.6,27.4,257.6,27.4,257.6,27.4l-0.4-0.1C257.2,27.4,257.5,27.4,257.6,27.4z"/>
		<path class="st0" d="M256.9,27.3l0.2,0c-0.1,0-0.1-0.1,0-0.3L256.9,27.3z"/>
		<path class="st0" d="M256.7,27.1l-0.2,0l0-0.1l-0.1,0.1c0,0,0,0,0,0l0.3,0.2L256.7,27.1z"/>
		<path class="st0" d="M269.9,76.6c0.5-0.1,1-0.7,0.7-1c-0.9-0.5-1.7,0.3-2.5,0.4l0.2,0c0,0.1,0.3,0.1,0.2,0.3l-0.5,0.2
			C268.6,76.5,269.2,76.7,269.9,76.6z"/>
		<polygon class="st0" points="256.1,38.7 256.4,38.7 256.4,38.6 256.1,38.7 		"/>
		<path class="st0" d="M258.2,27c-0.4-0.8-1.2-0.4-1.8-0.2l0.5,0.1l-0.1,0.1c0.2,0,0.6-0.4,0.9,0.1c0.1,0.2-0.1,0.3-0.1,0.4l0.1,0
			C257.8,27.3,258.2,27.3,258.2,27z"/>
		<path class="st0" d="M271.7,66.4c-0.4-1-1.6-0.2-2.2-0.5l0,0.4c-0.6-0.1,0,0.4-0.6,0.5l0.4,0.2l-0.1,0.1c0.5,0.1,0.1,0.4,0.7,0.4
			c0,0.1-0.1,0.1-0.1,0.2c0.3,0,0.5-0.3,0.8-0.1C271.1,67.3,271.9,67.1,271.7,66.4z"/>
		<path class="st0" d="M270.1,34.4c0,0.1,0,0.1-0.1,0.2l0.3,0.1l0-0.3C270.3,34.5,270.2,34.4,270.1,34.4z"/>
		<path class="st0" d="M257.3,24.1C257.4,24.1,257.5,24,257.3,24.1L257.3,24.1z"/>
		<polygon class="st0" points="256.9,24.3 256.9,24.5 257.1,24.2 		"/>
		<path class="st0" d="M253.9,60.3c0.3-0.3,0.9,0,0.9-0.7c-0.2-0.7-0.8-0.4-1.2-0.6c-0.6,0-0.3,0.9-0.3,1.1l-0.1,0.1
			C253.5,59.9,253.6,60.3,253.9,60.3z"/>
		
			<rect x="248.6" y="42.5" transform="matrix(0.9998 -1.783661e-02 1.783661e-02 0.9998 -0.719 4.4431)" class="st0" width="0.3" height="0.1"/>
		<path class="st0" d="M259.3,63.8c0.2-0.3,0.6-0.1,0.5-0.6c-0.3-0.4-0.8-0.2-1.1-0.1c0.2,0.1-0.3,0.4,0.1,0.4l-0.1,0.2L259.3,63.8z
			"/>
		<path class="st0" d="M251,71.7c0.5-0.4,1.1,0.3,1.7-0.1c0.2-0.1,0.6-0.5,0.2-0.7C252.2,70.7,251.6,71.3,251,71.7z"/>
		<path class="st0" d="M257.2,23.9c0,0.1-0.2,0.1-0.1,0.3c0.1,0,0.2,0,0.2,0C257.3,24,257.2,24,257.2,23.9z"/>
		<path class="st0" d="M251.7,43.2c-0.2,0-0.3,0-0.4,0c0.1,0.1,0.1,0.2,0.2,0.2c-0.3,0.3-0.5,0.6-0.8,0.9c-0.1,1.3,0.2,2.3,0.5,3.7
			c0.4,0.7,1.9,1.3,2.9,1.9c0.5-1.6,1.5,0.5,2.4-0.2c0-0.2,0-0.4-0.1-0.5c0.5-0.5,0.8,0.5,1.2,0.5c-0.3-1.7,2.1-1.6,2.9-2.9
			c-0.6-0.3-0.3-0.9,0.2-1.2c0.3-0.7-0.9-0.7-0.8-1.3c0.1-0.7,1-0.1,1.4-0.5c-0.4-0.5-1.8,0.4-1.8-0.8c0.7-0.4-0.2-0.8-0.1-1.2
			c-1,0-1.9-0.5-2.9-0.6l0.4-0.5c-1.8,1-2,0-3.6,0.9C252.7,42,252.2,42.6,251.7,43.2z"/>
		<path class="st0" d="M246.6,57.4c0.2-0.2,0.7-0.2,0.5-0.7c-0.2-0.5-0.8-0.4-1.2-0.4c-0.4,0.3-0.2,0.3-0.4,0.7
			c0.2,0,0.1,0.1,0.1,0.3C245.9,57.3,246.2,57.5,246.6,57.4z"/>
		<polygon class="st0" points="258.2,33.3 258.2,33.2 257.9,33.2 257.9,33.3 		"/>
	</g>
	<path class="st0" d="M290.1,334.3c-9,4.7-14.7,13.3-22.7,19.3c-10,7.5-23.4,10.4-35.8,9.8c-12.2-0.6-20.6-5.8-27.8-15.4
		c4.9,13,12.6,18.2,26.4,19.5c13.3,1.2,25.3,0.1,36.3-7.9c7.9-5.8,24.4-19.8,34.6-10.7c10.4,9.4-8.4,23.9-15,28.5
		c-10.7,7.6-22.3,15.1-35.2,18c-13.9,3.2-28,1.2-42.1,1.8c-12.5,0.6-25.3,3.4-34.2,12.7c-4,4.1-7,9-11,13.1
		c-4.6,4.7-10.3,7.8-16.4,10.2c-7.4,2.8-15.3,4.5-22.8,7.2c-7.1,2.5-13.6,6-20.1,9.7h79.2c0.9-0.8,1.9-1.7,2.8-2.5
		c9-8.3,18.3-16,29.6-20.9c11.3-4.9,23.4-7.5,34.6-12.4c10.5-4.6,19.9-10.9,29.2-17.4c9.5-6.6,19.1-13.4,26.2-22.7
		c6.9-9,13.1-22.5,8.1-33.8C309.8,330.6,298.7,329.8,290.1,334.3z"/>
	<g>
		<path class="st0" d="M520.3,232.1c0.3,0.1,0.5,0.2,0.8,0.3c-0.3-0.3-0.6-0.6-0.9-1C520.3,231.6,520.3,231.8,520.3,232.1z"/>
		<path class="st0" d="M800.9,134.3c-4.3,5.6-8.5,11.4-13,16.9c-16.6,20.5-38,34.1-60,48.1c-19.7,12.5-42.1,20.8-65.3,24.3
			c-11.9,1.8-24,1.4-35.7,4.1c-10.5,2.4-20.2,7.2-31,8.4c-12.9,1.5-26.3,0.9-39.3,1.4c-12.4,0.4-23.8-1.4-35.5-5.2
			c7.1,7.7,14.9,10.1,26.1,10.4c11.9,0.3,23.7,1.3,35.6,1.8c13.1,0.6,24.4-3.3,37-5.3c12.2-2,23.2,4.3,35.3,3.8
			c11-0.4,20.4-7.7,29.8-12.7c10.1-5.4,20.2-9.4,31.5-11.6c11.3-2.2,22.2-6,33.5-8.1c10.1-1.8,21.5,0.1,30.7-5.2
			c7-4,14.4-10.3,20.3-17V134.3z"/>
		<path class="st0" d="M518.8,229.5c0.5,0.6,1,1.2,1.5,1.8C520.1,230.4,519.7,229.7,518.8,229.5z"/>
	</g>
	<path class="st0" d="M597.4,324.2c-13.4,5.6-31.1,10.4-38.1,24.4c-3.8,7.5-3.4,16-5.4,24c-1.7,6.7-5.9,12.6-13.4,12.7
		c-7.1,0.1-13.6-4.7-15.9-11.4c-2.4-7-0.2-14.8,3.2-21c3.2-5.8,7.7-11,13.3-14.6c5.7-3.6,12.4-5.5,19-7c15.5-3.5,31.2-6.1,46.8-9.5
		L597.4,324.2z"/>
	<g>
		<path class="st0" d="M756.1,396.8C756.1,396.8,756.1,396.8,756.1,396.8c-0.1,0.1-0.2,0.3-0.2,0.4C756,397.1,756,397,756.1,396.8z"
			/>
		<path class="st0" d="M390.2,450.2c5.2-23.9,15.3-49.9,32.3-75.3c26.9-40.6,71.3-79.6,130.8-102.8c38.8-15.7,84.1-25,130.1-25.3
			c-109-0.2-205.6,50.2-255.6,119c-21.3,28.6-33.5,57.7-39.4,84.3H390.2z"/>
		<path class="st0" d="M677.2,406.5c-33.8,6-67.8,14-100.5,30.9c-7.6,4-14.8,8.3-21.7,12.8h5.7c32.9-20.4,69.7-33,107.1-38.5
			c1,0,1,0,2.1,0c2.3-0.5,4.6-1.3,7-1.7c33.6-4,64.7-4.5,79.1-13.2c3.2-5.3,6.7-10.8-1-19.4c1.1,1.4,3.6,3.3,4.6,4.7
			c-4.3-7.2-12.3-14.9-27.6-21.4c3.6,1.4,7.3,2.8,10.9,4.2c-18-8.7-43.9-14.8-68-12.7c-21.1,3.5-47,12-69.8,12.3
			c-21.2,0.6-28.4-4.2-23.6-13.2c4.7-8.7,21.4-21.6,45.9-29.3c-7.8,2.5-15.2,5.8-20.4,8.8c23-12.4,60.2-19.4,96.4-19.6
			c33.1,2,67.4,10.8,97.4,25.8v-4.3c-15.7-7.7-32.6-13.8-50.2-17.9c-45.9-11.8-95.1-8.6-128,4c-0.1-0.4,1.9-0.8,1.9-1.2
			c-60.7,19.7-75.5,52.5-50.2,56c-0.6,0.1-1.2,0.2-1.8,0.3c6.8,1.4,17.4,0.4,27.8,0.4c17.2-0.6,39.6-4.3,60-7.8
			c15.4-2.8,29.3-7.9,50.1-3c27.1,7.2,36.2,20.3,31.3,26.4c0.1-0.1,0.1-0.3,0.2-0.4C735.9,400.6,705.9,401.2,677.2,406.5z"/>
	</g>
	<path class="st0" d="M728.4,400.2c-8.5,1.9-17.3,3.3-24.7,8.3c-6.1,4.1-10.8,9.8-17.2,13.4c-7.9,4.5-17,5.9-25.6,8.6
		c-4.6,1.5-9.1,3.3-13.2,6c-4.1,2.7-7.5,6.3-10.4,10.3c-0.8,1.1-1.6,2.3-2.3,3.5h165.9V334.7c-13.7-6.2-27.6-12.1-42.2-16
		c-18.2-4.9-37-7.8-55.9-9c-20-1.3-40-0.4-59.3,4.9c-8.7,2.4-17.4,5.2-25.9,8.1c-10.6,3.6-21.4,7.8-30.2,15.1c-6.6,5.5-14,15-9.5,24
		c4.5,9.1,17.1,9.8,25.9,9c12.3-1.1,24.2-5.3,36.3-8c10.6-2.4,21.3-3.4,32.1-4.3c9.7-0.8,19.5-2.3,29.3-2.3c11.2,0,22.3,2.8,31.7,9
		c4.5,3,8.8,6.7,11.8,11.2c2.2,3.3,4,7.4,3.2,11.5C746.6,396.3,735.4,398.6,728.4,400.2z"/>
	<path class="st0" d="M695.6,417.9c-0.7-0.6-2.7-0.3-3.5-0.3c-2,0.1-4,0.3-6,0.6c-4.4,0.6-8.7,1.4-13.1,1.9
		c-3.4,0.4-6.8,0.7-10.2,1.1c2-0.4,4-0.9,5.9-1.3c2.6-0.6,6-1,8.2-2.5c1.6-1.1,0.1-1.6-1.2-1.7c-7.3-0.9-15.4,1.8-22.3,3.8
		c-7,2-14.1,3.8-21.2,5.3c-8.1,1.7-16,4.2-23.8,6.8c-7.6,2.5-15.6,4.4-22.9,7.8c-5.5,2.6-9.9,6.5-13.9,10.8h24.9h8.7h18.6
		c0.4-2.4,0.6-4.9,1.2-7.3c0.9-3.6,3-6.3,6.3-8c3.9-1.9,8.4-2.5,12.6-3.6c4.2-1,8.2-2.4,12.2-4.1c3.3-1.4,6.5-2.9,10-3.7
		c4-0.9,8.1-1,12.1-1.3c4.5-0.3,9-0.8,13.3-1.9C692.3,420.3,697,419.1,695.6,417.9z"/>
	<path class="st0" d="M800.9,325.5c-1-0.5-2-1.1-3.1-1.6c-7.7-4.1-15.6-9.6-24.7-14.7c-4.6-2.5-9.5-5-14.8-6.8
		c-5.4-1.8-11.3-2.5-17.2-2.7c-3-0.1-5.9-0.1-8.9-0.1c-3,0-6,0-8.9-0.3c-6-0.6-12.1-1.8-18.4-2.7c-3.2-0.5-6.4-0.9-9.7-1.2
		c-1.6-0.1-3.3-0.2-5-0.2c-0.8,0-1.7,0-2.5,0l-2.5,0c-6.7,0.1-13.4,1-20.1,2.5c-1.9,0.2-3.8,0.6-5.6,0.9c-2.6,0.5-5.3,0.9-7.7,0.9
		c5.4-2.7,11.6-4.2,17.6-5.8c6-1.5,11.9-2.5,17.8-3.3c11.8-1.6,23.4-2.4,34.3-3.6c11-1.2,21.4-2.8,30.8-5.5c1.2-0.3,2.4-0.7,3.5-1.1
		c1.1-0.4,2.3-0.7,3.4-1.1c2.2-0.8,4.4-1.6,6.5-2.4c4.2-1.7,8.1-3.6,11.8-5.4c7.4-3.7,13.9-7.4,19.7-10.2c1.3-0.6,2.5-1.2,3.6-1.8
		v-1.1c-1.3,0.6-2.7,1.3-4.1,1.9c-6,2.7-12.5,6.2-20,9.6c-3.7,1.7-7.7,3.5-11.8,5c-2.1,0.8-4.2,1.5-6.4,2.2c-1.1,0.3-2.2,0.7-3.4,1
		c-1.1,0.3-2.3,0.6-3.4,1c-9.3,2.4-19.6,3.8-30.5,4.8c-10.9,1-22.5,1.6-34.5,3.1c-6,0.8-12.1,1.8-18.3,3.2l-1.2,0.3l-1.2,0.3
		l-2.3,0.6c-1.5,0.4-3.1,0.8-4.6,1.3c-3,0.9-6.1,2-9.1,3.4c-1.2,0.4-2.2,0.8-3.4,1.7c-0.3,0.3-0.7,0.6-1,1.2
		c-0.2,0.3-0.3,0.7-0.4,1.3c0,0.5,0.2,1.1,0.4,1.5c0.5,0.8,1,1,1.4,1.2c0.4,0.2,0.7,0.3,1.1,0.4l0.1,0l0.1,0c2.1,0.4,4.1,0.4,6,0.2
		c1.9-0.2,3.8-0.5,5.6-0.8c1.9-0.3,3.7-0.7,5.4-0.8l0.1,0l0.1,0c6.5-1.4,13-2.3,19.5-2.5l2.5,0c0.8,0,1.6,0,2.4,0
		c1.6,0,3.2,0.1,4.7,0.2c3.2,0.2,6.3,0.6,9.4,1c6.2,0.9,12.4,2,18.6,2.6c3.2,0.3,6.2,0.2,9.2,0.2c3,0,5.9-0.1,8.8,0
		c5.7,0.1,11.3,0.7,16.4,2.2c5.1,1.6,9.9,3.9,14.5,6.2c9.1,4.8,17.2,10.2,25.1,14.1c1.3,0.7,2.6,1.3,3.9,1.9V325.5z"/>
	<path class="st0" d="M653.7,309.8c-16.9,3-33.6,6.1-50.7,8c-18,2-36.6,3.1-53.7,9.7c-18.3,7-34.1,19.9-48.9,32.4
		c-8.8,7.5-17.5,15.4-25.2,24.1c-5.9,6.6-12.1,14.4-14,23.3c-3.8,18.1,18.1,21.6,31.2,20.9c20.5-1.2,39.5-9.9,57.4-19.3
		c7.4-3.9,14.7-7.8,22.4-11.1c6.8-2.9,13.9-5.2,21-7.4c11.6-3.5,23.2-6.8,33.9-12.4c0.8-0.3,1.6-0.7,2.4-1c0.4-0.2,0.9-0.4,1.3-0.7
		c0.1-0.1,0.2-0.2,0.4-0.3c0.3-0.1,0.6-0.2,0.9-0.3c0.3-0.2,0.7-0.4,1-0.5c0.5-0.2,1.1-0.3,1.6-0.5c0.9-0.3,1.9-0.5,2.6-1.1
		c0.4-0.3,0.9-0.5,1.4-0.7c0.5-0.3,1-0.5,1.5-0.8c0.5-0.3,0.9-0.6,1.4-0.8c0.2-0.1,0.4-0.2,0.6-0.3c0.3-0.2,0.5-0.1,0.8-0.2
		c0.5-0.1,1-0.3,1.5-0.3c0.5-0.1,0.9-0.1,1.3-0.3c0.4-0.2,0.9-0.3,1.3-0.4c0.5-0.1,1.1-0.3,1.5-0.4c0.4-0.1,0.8-0.2,1.3-0.2
		c0.2,0,0.3-0.1,0.6-0.2c0.3-0.1,0.6,0.1,0.8,0c0.2,0,0.4-0.1,0.6-0.2c0.2-0.1,0.5-0.1,0.7-0.2c0.1,0,0.1-0.1,0.2-0.1
		c0.1,0,0.3,0,0.4,0c0.3,0,0.5-0.2,0.8-0.2c0.5,0,1-0.2,1.5-0.2c0.3,0,0.5-0.1,0.7-0.1c0.3-0.1,0.6,0,0.8-0.1
		c0.8-0.2,1.7-0.7,2.6-1.1c0.8-0.4,1.6-0.7,2.5-0.9c0.5-0.1,0.9-0.3,1.4-0.5c0.4-0.1,1-0.3,1.4-0.5c0.6-0.1,1.1-0.2,1.7-0.4
		c0.6-0.2,1.2-0.3,1.7-0.5c1.2-0.4,2.2-1,3.3-1.4c0.5-0.2,1-0.4,1.5-0.7c0.4-0.2,1-0.2,1.3-0.5c-1.6-0.3-3,0.1-4.5,0.5
		c-3.2,0.7-6.4,1.6-9.6,2.1c-2.6,0.4-5.2,0.1-7.8,0.4c-0.5,0-0.9,0.1-1.4,0.2c1.4-0.7,2.8-1.4,4.3-2c2.1-0.9,4.1-1.8,6.2-2.6
		c-4.1,1.6-8.2,3.3-12.2,5c-1.1,0.2-2.2,0.5-3.2,0.8c-1.5,0.3-3.4,0.3-4.5,1.4c-0.5,0.5-0.9,1-1.4,1.5c-17.5,7.1-35,14.1-53.1,19.5
		c-13.7,4.1-27.5,8.2-41.1,12.6c-7.8,2.5-15.7,5-23.7,6.8c-6.7,1.6-13.9,3-20.8,2.1c-4.6-0.6-9.1-2.7-10.3-7.6
		c-1.5-5.7,1.1-12.1,3.5-17.2c7-14.8,18.5-28.3,30.9-39c10-8.6,21.4-14.6,34.2-17.7c13-3.2,26.5-4.6,39.7-6.8
		c12.9-2.1,25.6-4.7,38.4-7c13.1-2.3,26.2-3.6,39.5-4.4c3.5-0.2,6.9-0.4,10.4-0.6l1-1.5C677,307.2,665.5,307.8,653.7,309.8z"/>
	<g>
		<path class="st0" d="M506.1,284.7c-11,5.5-21.8,11.4-33.1,16.4c-11.3,4.9-23,8.7-34.5,13c-16.1,6.1-31.4,13.9-45.8,23.2
			c-19.2,12.4-37,26.9-55.1,40.9c-18,13.8-36.5,27-56.9,36.9c-8.8,4.2-17.8,7.9-26.9,11.2c-7.7,2.8-15.6,5.3-23.1,8.5
			c-7.3,3.1-16.4,7.8-19,15.5h164.5c0.2-0.2,0.4-0.4,0.5-0.7c7.5-9.9,13.1-20.9,17.6-32.3c-0.1,0.4-0.3,1-0.5,1.8
			c-0.4,1.6-1,3.8-1.8,6.4c-0.4,1.3-0.9,2.7-1.4,4.2c-0.6,1.4-1.2,3-1.9,4.5c-0.7,1.6-1.4,3.2-2.3,4.8c-0.4,0.8-0.8,1.6-1.3,2.4
			c-0.5,0.8-0.9,1.6-1.4,2.4c-0.4,0.8-1,1.5-1.5,2.3c-0.5,0.8-1,1.5-1.6,2.2c-0.5,0.7-1,1.3-1.4,2h1c0.4-0.5,0.7-0.9,1.1-1.4
			c0.5-0.7,1.1-1.5,1.6-2.2c0.6-0.7,1.1-1.5,1.6-2.3c0.5-0.8,1-1.6,1.5-2.3c0.5-0.8,0.9-1.6,1.4-2.4c0.9-1.6,1.7-3.2,2.5-4.7
			c0.8-1.6,1.4-3.1,2.1-4.6c0.6-1.5,1.1-2.9,1.6-4.2c0.9-2.7,1.6-4.9,2.1-6.4c0.2-0.8,0.4-1.4,0.5-1.8c0.1-0.4,0.2-0.6,0.2-0.6
			s0.1-0.4,0.4-1.2c0.1-0.4,0.3-0.9,0.5-1.5c0.2-0.6,0.5-1.2,0.8-2c0.6-1.5,1.5-3.2,2.4-5.2c0.5-1,1-2.1,1.5-3.2
			c0.5-1.2,1-2.4,1.6-3.7c0.5-1.3,1.1-2.6,1.7-4c0.5-1.4,1-3,1.3-4.5c0.8-3.1,1.4-6.4,2.8-9.4c0.8-1.6,1.6-3.1,2.5-4.5
			c0.5-0.7,1-1.4,1.5-2.1l0.8-1.1l0.9-1c0.6-0.7,1.1-1.4,1.7-2.1c0.6-0.7,1.3-1.3,1.9-1.9c1.3-1.3,2.7-2.5,4-3.8
			c1.3-1.3,2.7-2.5,4-3.9c1.3-1.3,2.5-2.7,3.8-4c2.5-2.6,4.8-5.3,7.1-7.9c4.7-5.1,9.3-9.5,13.3-13.4c4-3.9,7.2-7.1,9.6-9.3
			c2.3-2.2,3.7-3.5,3.7-3.5s-1.4,1.2-3.8,3.4c-2.4,2.1-5.7,5.4-9.8,9.1c-4,3.8-8.8,8.2-13.5,13.2c-2.3,2.5-4.7,5.2-7.3,7.8
			c-1.3,1.3-2.5,2.6-3.8,3.9c-1.3,1.3-2.7,2.5-4,3.8c-1.4,1.2-2.8,2.4-4.1,3.7c-0.7,0.6-1.3,1.3-2,1.9c-0.6,0.7-1.2,1.4-1.8,2.1
			l-0.9,1l-0.8,1c-0.6,0.7-1.1,1.5-1.6,2.2c-1,1.5-1.9,3.1-2.7,4.6c-1.6,3.2-2.3,6.6-3.1,9.6c-0.4,1.5-0.8,3-1.4,4.3
			c-0.6,1.3-1.2,2.7-1.8,3.9c-2.2,5-4.5,9-5.8,12c-0.1,0.2-0.2,0.4-0.3,0.6c1.2-3.2,2.2-6.4,3.3-9.6c3.4-10.5,6.7-20.9,13.5-29.7
			c6.9-9,15.8-16.5,24-24.2c9.2-8.6,18.2-17.5,27.1-26.4c7.9-7.8,16-15.4,25.1-21.8c9.4-6.5,19.6-11.8,29.9-16.5
			c21.4-9.8,43.5-18.1,65.6-26.3c-2.2,0.4-4.3,0.8-6.5,1.3C552.9,264.5,529.1,273.1,506.1,284.7z"/>
		<path class="st0" d="M585.4,257.2c0,0.1-0.1,0.3-0.1,0.4c-0.2,0.1-0.5,0.2-0.7,0.3c2.9-0.6,5.9-1.1,8.8-1.7L585.4,257.2z"/>
	</g>
	<g>
		<path class="st0" d="M436.8,398.3L436.8,398.3C436.8,398.3,436.8,398.3,436.8,398.3L436.8,398.3z"/>
		<path class="st0" d="M800.9,237.3c-5.3,2.6-10.8,5.2-16.6,7.5c-1.6,0.7-3.3,1.3-4.9,1.9c-0.8,0.3-1.7,0.6-2.5,0.9
			c-0.8,0.3-1.7,0.6-2.6,0.9c-0.9,0.3-1.8,0.6-2.6,0.9l-1.3,0.4l-1.3,0.4c-1.8,0.6-3.6,1.1-5.4,1.7c-3.6,1.1-7.2,2.2-10.7,3.2
			c-3.6,1-7.2,1.8-10.7,2.4l-1.5,0.2c0,0,0.1,0,0.1,0c2.1-1,4.3-1.8,6.3-2.9c2.1-1,4.1-2.1,6.1-3.1c1-0.5,2-1,3-1.5l1.5-0.8l0.7-0.4
			l0.8-0.4c1.9-1.1,3.8-2.2,5.7-3.3c1.9-1.1,3.7-2.1,5.5-3.2c1.8-1.1,3.6-2.3,5.4-3.4c7.2-4.4,13.7-9,19.8-13.4
			c1.8-1.3,3.5-2.6,5.2-3.9v-5.3c-2.6,1.7-5.2,3.5-7.9,5.3c-6.3,3.9-13,8.1-20.2,12c-1.8,1-3.6,2-5.4,3c-1.9,1-3.8,1.9-5.7,2.9
			c-1.9,1-3.9,2-5.8,2.9l-0.7,0.3l-0.7,0.3l-1.5,0.7c-1,0.4-2,0.9-3,1.3c-2,0.9-4,1.8-6.1,2.7c-2,0.9-4.2,1.6-6.3,2.4
			c-2.1,0.8-4.2,1.6-6.4,2.4c-2.2,0.7-4.4,1.4-6.6,2.1c-17.6,5.7-36.7,9.7-56,12.6c-2.4,0.4-4.9,0.7-7.4,1c-2.4,0.3-4.9,0.6-7.3,1
			c-5,0.6-9.9,1.2-14.9,1.8c-10,1.2-20,2.7-29.9,4.4c-5,0.9-9.9,1.8-14.8,3c-1.2,0.3-2.4,0.5-3.7,0.8c-1.2,0.3-2.4,0.5-3.7,0.9
			c-2.5,0.7-4.9,1.3-7.3,2c-2.5,0.6-4.7,1.4-7,2.1c-1.1,0.4-2.3,0.7-3.4,1.1l-1.7,0.5l-0.4,0.1l-0.2,0.1l-0.4,0.1l-0.1,0l-0.7,0.3
			c-2.6,0.6-5.1,1.4-7.6,2.1c-1.5,0.4-3,1-4.4,1.5c-1.5,0.5-3,1-4.5,1.6c-2.9,1.2-5.9,2.3-8.9,3.5c-5.9,2.5-11.8,5.1-17.8,7.6
			l-2.2,1l-2.3,1c-1.5,0.7-3,1.3-4.5,2c-3,1.3-6,2.7-9,4c-3,1.4-6,2.7-9,4.1c-1.5,0.7-3,1.4-4.5,2.1c-1.5,0.7-3,1.5-4.5,2.2
			l-2.2,1.1l-2.2,1.2c-1.5,0.8-2.9,1.6-4.3,2.4c-1.4,0.8-2.9,1.8-4.3,2.6l-2.1,1.3l-1.1,0.7l-1,0.7c-1.3,0.9-2.6,1.8-3.9,2.7l-1,0.7
			l-0.5,0.3l-0.1,0l-0.2,0.2l-0.1,0.1l-0.2,0.2l-1.9,1.6c-1.2,1-2.5,2.1-3.7,3.1c-0.6,0.5-1.2,1-1.8,1.6c-0.6,0.5-1.1,1.1-1.7,1.6
			c-1.1,1.1-2.2,2.2-3.3,3.3c-0.6,0.5-1.1,1.1-1.7,1.6c-0.5,0.5-1,1.1-1.6,1.7c-2,2.3-4.1,4.5-6,6.7c-3.6,4.4-7.2,8.5-10.5,12.7
			c-4.8,6-8.7,11.6-11.9,17.1c-1.7,2.9-2.8,5.3-3.9,7.7c-0.6,1.3-1.2,2.5-1.7,3.7c-0.5,1.2-1,2.4-1.3,3.6c-1.6,4.6-2.5,8.7-3,12.2
			c-0.3,1.7-0.4,3.4-0.6,4.8c-0.1,1.5-0.2,2.8-0.2,4.1l0,0.4c0.2,1.7,0.1,3.6,0.3,5.1c0.1,1.6,0.4,2.8,0.8,3.9
			c0.2,0.5,0.4,1,0.6,1.3c0.2,0.3,0.4,0.5,0.5,0.6c0.3,0.3,0.6,0.4,0.8,0.5c0.8,0,0.7-1.8,0.7-1.8c0,0,1.1,1.6,1.6,1.1
			c0.1-0.1,0.3-0.4,0.3-0.8c0-0.2,0-0.5,0.1-0.8c0.1-0.2,0.1-0.5,0.2-0.8c0.1-0.6,0.3-1.6,0.5-2.8c0.2-1.3,0.7-2.9,0.9-5.3
			c0,0.1,0,0.2,0,0.4c0.2-1.1,0.5-2.3,0.8-3.7c0.3-1.3,0.6-2.8,1.1-4.3c0.8-3.1,1.9-6.7,3.5-10.6c0.4-1,0.9-2,1.3-3
			c0.4-1,1-2.1,1.6-3.1c1.2-2.3,2.5-4.9,3.9-7.1c2.9-4.7,6.6-10,11.2-15.7c3.2-4,6.7-8.2,10.3-12.6c1.8-2.2,3.7-4.2,5.6-6.4
			c0.5-0.5,0.9-1.1,1.4-1.6c0.5-0.5,1-1,1.5-1.5c1-1,2-2.1,3.1-3.1c0.5-0.5,1-1.1,1.5-1.6c0.5-0.5,1.1-1,1.6-1.5c1.1-1,2.2-2,3.3-3
			l1.7-1.5l0.2-0.2l0.1-0.1c0.1-0.1,0,0,0,0l0.4-0.3l0.9-0.7c1.3-0.9,2.5-1.9,3.8-2.9l1-0.7l0.9-0.6l1.9-1.3
			c1.3-0.8,2.5-1.7,3.8-2.5c1.3-0.8,2.7-1.6,4.1-2.4l2-1.2l2.1-1.2c1.4-0.8,2.8-1.5,4.2-2.3c1.4-0.8,2.9-1.5,4.3-2.2
			c0.5-0.2,1-0.5,1.4-0.7c-1.7,1.2-3.3,2.4-4.8,3.6c-3.1,2.5-6,4.8-8.9,7.1c-2.7,2.3-5.2,4.5-7.6,6.7c-0.6,0.5-1.2,1.1-1.8,1.6
			l-0.9,0.8l-0.3,0.2l-0.1,0.1l-0.2,0.2l-0.4,0.4c-1.2,1.1-2.3,2.2-3.4,3.3c-8.7,8.8-15.2,16.9-19.9,24.1c-1.2,1.8-2.3,3.6-3.3,5.2
			c-0.9,1.6-1.8,3.1-2.6,4.5c-0.4,0.7-0.8,1.5-1.2,2.2c-0.4,0.7-0.7,1.3-1.1,2c-0.7,1.3-1.3,2.5-1.9,3.6c-2.4,4.5-4,7.9-5.1,10.5
			l1.2,1.5c-0.3-0.1-0.7-0.2-1-0.3l-0.5-0.2l-0.2-0.1c0,0,0,0.1,0,0.1c0,0.1,0,0.2,0,0.3c-0.1,0.3-0.1,0.6-0.2,0.8
			c-0.2,0.6-0.4,1.2-0.5,1.8c-0.3,1.2-0.4,2.4-0.1,3.5c0,0.1,0.1,0.3,0.1,0.4c0,0.1,0.1,0.3,0.1,0.4c0.1,0.3,0.3,0.6,0.4,0.8
			c0.1,0.1,0.1,0.1,0.2,0.1c0,0,0.1,0,0.1,0c0.1,0,0.1,0,0.2,0c0.3,0,0.5-0.1,0.6-0.3c0.1-0.1,0.1-0.2,0.2-0.4c0-0.2,0-0.5,0.1-0.7
			c0.1-0.4,0.3-0.7,0.5-1c0.4-0.5,0.7-0.9,0.7-0.9s-0.1,0.5,0,1.1c0.1,0.3,0.2,0.5,0.4,0.6c0.1,0,0.2,0,0.2-0.1
			c0.1,0,0.3,0.1,0.4,0.1c0.2,0,0.5-0.1,0.6-0.3c0-0.1,0.1-0.1,0.1-0.2c0,0,0-0.1,0-0.1c0,0,0-0.1,0.1,0c0.1,0.1,0.2,0.2,0.3,0.3
			c0,0.1,0.1,0.1,0.1,0.1c0,0,0.1,0,0.1,0.1c0.2,0.2,0.5,0.1,1-0.4c0.3-0.2,0.6-0.5,1-1c0.2-0.2,0.4-0.5,0.7-0.8
			c0.3-0.4,0.5-0.7,0.9-1.6c-0.2,0.3-0.3,0.6-0.5,1c1.9-2,4.3-4.9,7.5-8.9c0.8-1,1.6-2.1,2.5-3.3c0.9-1.1,1.8-2.4,2.7-3.6
			c1-1.3,2-2.7,3.1-4.2c1.1-1.4,2.2-2.8,3.4-4.3c4.8-6.1,11.2-13.1,19.5-20.9c1.1-1,2.1-1.9,3.2-2.9l0.7-0.6l0.9-0.8
			c0.6-0.5,1.2-1,1.8-1.5c2.5-2.1,5-4.3,7.7-6.5c2.6-2.1,5.4-4.2,8.3-6.4c2.9-2.2,6.1-4.4,9.3-6.7c12.7-8.8,27.3-17.6,43.6-25.1
			c1.2-0.6,2.5-1.2,3.7-1.7c-0.1,0.1-0.2,0.1-0.3,0.2c-1.3,0.9-2.5,1.7-3.6,2.4c-1.1,0.8-2.1,1.5-3.1,2.3c-1.9,1.5-3.6,2.8-5,4.1
			c-1.4,1.3-2.6,2.4-3.5,3.5c-0.5,0.5-0.9,1-1.3,1.5c-0.4,0.5-0.7,0.9-1,1.4c-0.3,0.4-0.6,0.8-0.7,1.1c-0.2,0.3-0.3,0.6-0.4,0.9
			c-0.2,0.5-0.3,0.9-0.4,1.2c-0.1,0.6,0.2,0.8,0.5,0.9c0.7,0.1,1.8-0.7,1.8-0.7s-0.6,1.2-0.4,1.9c0.1,0.3,0.3,0.5,0.9,0.4
			c0.3-0.1,0.7-0.2,1.2-0.5c0.2-0.1,0.5-0.3,0.8-0.5c0.3-0.2,0.6-0.3,1-0.6c0.7-0.4,1.6-1,2.6-1.6c1-0.7,2.3-1.4,3.8-2.3
			c1.5-0.9,3.2-1.9,5.2-3c1-0.6,2.1-1.2,3.2-1.8c1.1-0.6,2.3-1.2,3.6-1.9c1.3-0.7,2.7-1.4,4.1-2.2c1.4-0.7,2.9-1.5,4.5-2.2
			c0.8-0.4,1.6-0.8,2.4-1.2c0.9-0.4,1.7-0.8,2.6-1.2c1.8-0.8,3.6-1.7,5.6-2.6c2-0.9,4.1-1.8,6.2-2.8c2.2-0.8,4.4-1.7,6.8-2.5
			c2.4-0.7,4.8-1.5,7.4-2.3c2.7-0.7,5.4-1.5,8.4-2.2c5.8-1.5,12.1-2.8,18.7-4.3c3.3-0.7,6.7-1.5,10.1-2.3c3.5-0.9,7-1.7,10.4-2.7
			c3.7-1.1,7.2-2.2,10.7-3.3c3.5-1.1,6.9-2.2,10.3-2.9l1.3-0.3l1.3-0.2c0.9-0.2,1.8-0.4,2.8-0.5c1.9-0.4,3.7-0.7,5.6-1.1
			c1.9-0.4,3.7-0.6,5.5-0.9c1.8-0.3,3.7-0.6,5.6-0.9c1.9-0.3,3.8-0.6,5.7-0.9c1.9-0.3,3.9-0.6,5.8-0.9l1.5-0.2l0.2,0l0.1,0
			c0,0,0.7-0.1,0.4-0.1l0.4-0.1l0.7-0.2l2.8-0.7l5.6-1.4c1.9-0.4,3.8-1,5.6-1.3l5.5-1.2c1.8-0.3,3.7-0.6,5.5-0.9l1.4-0.2l0.2,0
			l0.3,0l0.1,0l0.4-0.1l0.7-0.1l2.8-0.5c4.1-0.9,7.9-1.9,11.6-3.2c3.7-1.2,7.3-2.5,10.8-3.8c1.8-0.6,3.5-1.3,5.3-1.9l1.4-0.5
			l1.3-0.5c0.9-0.3,1.7-0.7,2.6-1c0.9-0.3,1.7-0.6,2.6-1c0.9-0.4,1.7-0.7,2.6-1.1c1.7-0.8,3.4-1.4,5.1-2.3c4.9-2.3,9.6-4.8,14.2-7.3
			V237.3z"/>
	</g>
	<path class="st0" d="M800.9,193.4l-1.1,0.8c-2.4,1.5-4.8,2.9-7.2,4.4c-2.4,1.4-4.8,3-7.2,4.3c0,0-3.9,2.4-10.9,6.5
		c-3.5,2-7.7,4.4-12.5,7.2c-2.4,1.4-5,2.9-7.7,4.4c-2.8,1.5-5.7,3-8.8,4.6c-6.1,3.2-12.7,6.7-19.8,10c-7.1,3.4-14.8,6.5-22.9,9.5
		c-16.2,5.9-33.9,10.5-51.9,14.5l-3.3,0.7l-3.4,0.6c-2.3,0.4-4.5,0.8-6.8,1.2c-4.5,0.7-9,1.5-13.5,2.1c-9,1.3-17.8,2.6-26.3,4
		c-2.1,0.4-4.2,0.8-6.3,1.2c-1,0.2-2.1,0.4-3.1,0.6c-1,0.2-2.1,0.4-3.1,0.7c-2,0.4-4,0.9-6,1.3c-2,0.4-3.9,1-5.8,1.5
		c-1.9,0.5-3.8,1-5.7,1.6c-1.8,0.6-3.6,1.2-5.4,1.8c-3.5,1.2-6.9,2.5-10.2,3.6c-6.5,2.4-12.3,4.8-17.4,7.2c-2.6,1.1-5,2.2-7.2,3.2
		c-2.2,1-4.2,2-6,2.9c-3.6,1.9-6.3,3.4-8.1,4.7c-1.8,1.2-2.8,1.8-2.8,1.8s1-0.6,2.8-1.8c1.8-1.2,4.6-2.7,8.2-4.5
		c1.8-0.8,3.8-1.9,6-2.8c2.2-1,4.6-2,7.2-3.1c5.1-2.3,11-4.6,17.5-6.9c3.3-1.1,6.6-2.4,10.2-3.5c1.8-0.6,3.6-1.2,5.4-1.7
		c1.8-0.6,3.7-1,5.6-1.5c1.9-0.5,3.9-1,5.8-1.4c2-0.4,4-0.8,6-1.2c1-0.2,2-0.4,3.1-0.6c1-0.2,2.1-0.4,3.1-0.5
		c2.1-0.4,4.2-0.7,6.3-1.1c8.5-1.3,17.4-2.5,26.3-3.7c4.5-0.6,9-1.3,13.6-1.9c2.3-0.4,4.5-0.7,6.8-1.1l3.4-0.6l3.4-0.7
		c18.1-3.7,36-8.1,52.4-13.8c8.2-2.9,16-5.9,23.3-9.2c7.3-3.3,13.9-6.7,20.1-9.8c3.1-1.5,6-3,8.9-4.4c2.8-1.5,5.4-3,7.9-4.4
		c4.9-2.7,9.2-5.1,12.8-7.1c7-4,11-6.3,11-6.3c2.4-1.5,4.8-3.1,7.2-4.6c2.1-1.4,4.2-2.7,6.2-4.1V193.4z"/>
	<path class="st0" d="M800.9,198.2c-0.8,0.6-1.8,1.3-3,2.1c-0.7,0.5-1.4,0.9-2.1,1.5c-0.8,0.5-1.6,1-2.4,1.6
		c-6.8,4.6-16.8,10.9-29,17.9c-6.2,3.4-12.9,7.2-20,11.1c-3.5,2-7.2,4-10.9,6c-1.9,1-3.8,2-5.7,3c-1,0.5-1.9,1-2.9,1.5
		c-1,0.5-2,0.9-3,1.4c-2,0.9-4,1.8-6.1,2.8l-0.8,0.4l-0.2,0.1l-0.1,0c0,0,0,0,0,0l-0.4,0.1l-1.6,0.6c-1.1,0.4-2.1,0.7-3.2,1.1
		c-1.1,0.4-2.1,0.7-3.2,1.1c-1.1,0.4-2.2,0.7-3.3,1.1c-2.2,0.7-4.4,1.3-6.6,2c-4.4,1.4-9,2.6-13.5,3.9c-2.3,0.6-4.5,1.3-6.8,1.9
		c-1.1,0.3-2.3,0.7-3.4,1l-3.4,0.8l-6.9,1.5c-2.3,0.4-4.6,0.8-6.9,1.1l-3.5,0.6c-1.2,0.2-2.3,0.3-3.5,0.4c-2.3,0.3-4.6,0.5-6.9,0.8
		c-4.6,0.5-9.2,0.8-13.8,1.3c-4.6,0.4-9,1.2-13.4,2c-8.7,1.7-17,3.7-25,5.3c-2,0.5-3.9,0.9-5.9,1.4c-1,0.2-1.9,0.4-2.9,0.7
		c-0.9,0.3-1.9,0.5-2.8,0.8c-1.8,0.5-3.6,1-5.4,1.6c-1.8,0.5-3.5,1.1-5.2,1.6c-3.4,1.1-6.6,2.1-9.6,3.2c-3.1,1-6,2-8.7,2.9
		c-2.7,0.9-5.3,1.8-7.6,2.6c-1.2,0.4-2.3,0.8-3.4,1.2c-1.1,0.4-2.1,0.8-3,1.2c-1.9,0.8-3.7,1.3-5.1,2c-1.5,0.7-2.7,1.2-3.7,1.7
		c-2,0.9-3.1,1.4-3.1,1.4s1.1-0.5,3.1-1.4c1-0.4,2.3-1,3.7-1.6c1.5-0.7,3.2-1.2,5.2-1.9c1-0.4,2-0.7,3.1-1.1
		c1.1-0.4,2.2-0.7,3.4-1.1c2.4-0.8,4.9-1.6,7.7-2.5c2.7-0.9,5.7-1.8,8.7-2.8c3.1-1,6.3-2,9.7-3c1.7-0.5,3.4-1.1,5.2-1.6
		c1.8-0.5,3.6-1,5.4-1.5c0.9-0.2,1.8-0.5,2.8-0.8c0.9-0.3,1.9-0.4,2.9-0.7c1.9-0.4,3.9-0.9,5.8-1.3c8-1.5,16.3-3.4,25-5
		c4.3-0.7,8.8-1.4,13.3-1.8c4.5-0.4,9.1-0.7,13.8-1.1c2.3-0.2,4.6-0.5,7-0.7c1.2-0.1,2.3-0.2,3.5-0.4l3.5-0.5c2.3-0.3,4.7-0.7,7-1
		l7-1.4l3.5-0.7c1.2-0.3,2.3-0.6,3.4-0.9c2.3-0.6,4.5-1.2,6.8-1.8c4.5-1.2,9.1-2.4,13.5-3.7c2.2-0.6,4.5-1.3,6.7-1.9
		c1.1-0.3,2.2-0.7,3.3-1c1.1-0.4,2.2-0.7,3.3-1.1c1.1-0.4,2.2-0.7,3.3-1.1l1.6-0.5l0.4-0.1c0.1,0,0,0,0.2-0.1l0.1,0l0.2-0.1l0.8-0.3
		c2.1-0.9,4.1-1.8,6.1-2.7c1-0.5,2-0.9,3-1.3c1-0.5,2-1,3-1.5c2-1,3.9-2,5.8-2.9c3.8-2,7.4-4,11-5.9c7.1-3.8,13.9-7.5,20.1-10.8
		c12.4-6.9,22.5-13.1,29.5-17.6c0.9-0.6,1.7-1.1,2.5-1.6c0.8-0.5,1.5-1,2.2-1.4c0.2-0.2,0.4-0.3,0.7-0.4V198.2z"/>
	<g>
		<path class="st0" d="M800.9,264c-3.5,1.3-6.9,2.7-10.2,4.2c-5.7,2.7-10.5,6.6-15.9,9.6c-5.1,2.8-10.8,3.1-16,5.4
			c-4.2,1.8-8.9,6.5-5,11c4,4.7,11.8,4.9,17.2,7c5.8,2.2,9.4,6.7,13.7,10.9c4.8,4.5,10.4,8.6,16.3,11.7V264z"/>
		<g>
			<path class="st0" d="M760.1,384.5c0-0.2-0.1-0.4-0.1-0.7C759.9,384,760,384.3,760.1,384.5z"/>
			<path class="st0" d="M760.3,441c-1,1.3-2.1,2.4-3,3.7c-0.6,0.9-0.8,2-1.4,2.9c-0.2,0.2-0.4,0.5-0.6,0.7c-0.7,0.7-1.5,1.3-2.2,1.9
				h8.3c0.2-1,0.4-1.9,0.8-2.9c1-2.8,2.7-5.1,4.2-7.7c1.5-2.7,3-5.4,4.2-8.3c1.1-2.8,1.7-5.8,2-8.8c0.4-3,0.3-5.9-0.5-8.8
				c-1.5-5.6-4.6-10.2-7.2-15.2c-2.3-4.3-3.7-8.8-4.7-13.5c0,0.3,0,0.6,0,0.9c0,0.4-0.1,0.8,0,1.1c0.1,0.3,0.4,0.4,0.2,0.8
				c-0.1-0.1-0.2-0.2-0.2-0.3c0.9,2.7,1.4,5.5,2.5,8.1c1,2.6,2.6,5,4,7.4c2.7,4.9,4.2,10.4,4.2,16c0,2.9-0.3,5.9-0.8,8.7
				c-0.5,3.4-2.2,6.1-4.4,8.8c-2.2,2.7-4.3,5.6-6.6,8.2c-1,1.1-2,2-3,3c1-1.2,1.9-2.4,2.8-3.6c1.2-1.7,2.6-3.3,3.9-5
				c1.2-1.6,2.5-3.3,3.1-5.2c0.5-1.7,0.6-3.4,0.4-5.1c-0.1-1.7-0.4-3.4-1.1-4.9c-0.8-1.6-2.1-2.9-3.7-3.7c-0.8-0.4-2.9-1.2-3.6-0.2
				c-0.6,0.9,0.9,2.2,1.5,2.7c1.1,1,2.4,1.7,3.4,2.7c1,1,1.6,2.2,1.7,3.5c0.3,3-0.8,6-2,8.6C761.8,438.9,761.1,439.9,760.3,441z"/>
			<path class="st0" d="M760.1,384.5c0,0.2,0.1,0.4,0.1,0.6c0,0,0-0.1,0-0.1C760.2,384.8,760.1,384.6,760.1,384.5z"/>
			<path class="st0" d="M754.5,440c-1.4-0.4-2.8,0.5-3.8,1.3c-1.2,0.9-2.4,1.9-3.8,2.5c-1.5,0.6-3.1,0.7-4.6,1.1
				c-1.7,0.4-3.4,1-5,1.8c-1.6,0.8-3.2,1.9-4.8,2.8c-0.5,0.3-1,0.5-1.6,0.8h4.3c0-0.1,0.1-0.1,0.1-0.2c0.9-1.3,1.9-2.3,3.3-2.9
				c1.4-0.6,2.9-1.1,4.3-1.5c1.4-0.4,2.8-0.6,4.2-1c1.6-0.5,2.8-1.5,4.1-2.4c1-0.7,2.4-1.3,3.2-0.1c0.8,1.3,0.2,2.9-0.6,4
				c-0.5,0.6-1.1,1.2-1.6,1.8c-0.6,0.7-1.1,1.4-1.7,2.1c-0.1,0.1-0.1,0.1-0.2,0.2h0.9c1.1-1,2.2-2,3.2-3.1c1-1.2,2.1-2.7,2.1-4.3
				C756.4,441.6,755.7,440.3,754.5,440z"/>
			<path class="st0" d="M800.9,380.1c-3.8,0.7-7.4,1.8-11.2,2.8c-2.6,0.7-5,1.3-7.1,2.9c-2,1.5-3.6,2.7-6.3,2.4
				c-5.5-0.6-8.6-5-11.4-9.3c-1.3-2.1-2.4-4.3-3.1-6.7c-0.7-2.1-1.1-4.4-2-6.4c-1.1-2.3-2.8-4.2-3.7-6.6c-1-2.6-1.4-5.3-3.6-7.2
				c-3.8-3.4-8.3-6.1-12.9-8.2c-2.3-1.1-3.9-1-6.3-0.7c-2.8,0.3-5.1-0.5-7.9-1c-2.6-0.5-5.3-0.1-8-0.2c-2.5-0.1-4.5-0.2-6.8,0.7
				c-2.5,1-4.8,1.5-7.5,1.9c-2.4,0.3-4.5,0.9-6.1,2.7c5.2-2.3,10.3-3.6,16-3.7c5.9-0.1,12,0,17.9,0.6c13.1,1.5,21.7,13.2,26,24.8
				c1.9,5.1,2.6,10.6,4.6,15.7c2.2,5.5,6,10.1,9.3,14.9c4,5.8,6.9,12.1,7.1,19.2c0.3,7.7-2,15.5-4.7,22.7c-1.2,3-2.5,6-4.1,8.8h32
				V380.1z"/>
		</g>
	</g>
	<g>
		<path class="st0" d="M554.9,327.2c0,0-0.1,0.1-0.4,0.2c-0.2,0.1-0.6,0.3-1,0.5c-0.9,0.4-2.2,0.8-3.8,1.2c-0.8,0.2-1.7,0.4-2.5,0.7
			c-0.9,0.3-1.8,0.7-2.8,1c-2,0.7-4,1.5-6.1,2.2c-4.1,1.5-8.1,3.2-11,4.7c-0.7,0.4-1.4,0.7-2,1c-0.6,0.3-1.1,0.6-1.5,0.8
			c-0.8,0.5-1.3,0.7-1.3,0.7s-1,0.4-2.7,1.2c-0.8,0.4-1.9,1-3.1,1.6c-0.6,0.3-1.2,0.6-1.9,1c-0.6,0.4-1.3,0.8-2,1.2
			c-2.9,1.6-6.1,3.6-9.6,5.9c-1.7,1.2-3.5,2.3-5.2,3.6c-0.9,0.6-1.8,1.3-2.7,1.9c-0.9,0.6-1.7,1.3-2.6,2
			c-6.8,5.4-12.2,12.5-16.5,17.6c-1.1,1.2-2,2.5-2.8,3.5c-0.8,1.1-1.4,2.1-2,2.9c-0.9,1.7-1.5,2.7-1.5,2.7s0.5-1,1.3-2.7
			c0.5-0.8,1.1-1.9,1.8-3c0.8-1.1,1.6-2.4,2.6-3.7c4-5.3,8.9-12.7,15.6-18.8c0.9-0.7,1.7-1.5,2.6-2.2c0.9-0.7,1.7-1.4,2.6-2.1
			c1.7-1.4,3.4-2.7,5.1-3.9c3.3-2.5,6.5-4.7,9.4-6.6c0.7-0.5,1.4-0.9,2-1.3c0.7-0.4,1.3-0.8,1.9-1.1c1.2-0.7,2.2-1.3,3.1-1.8
			c1.7-0.9,2.7-1.4,2.7-1.4s0.5-0.2,1.4-0.6c0.5-0.2,1-0.4,1.6-0.7c0.6-0.2,1.4-0.5,2.2-0.8c3.2-1.2,7.5-2.4,11.8-3.5
			c2.2-0.5,4.3-1,6.3-1.5c1-0.2,2-0.5,2.9-0.7c1-0.2,1.9-0.3,2.7-0.4c1.6-0.2,3-0.5,3.9-0.8c0.5-0.1,0.8-0.3,1.1-0.4
			C554.8,327.3,554.9,327.2,554.9,327.2z"/>
		<g>
			<path class="st0" d="M590.1,411.9c-1.9,0.8-3.8,1.5-5.5,2.3c-1.8,0.8-3.5,1.6-5.1,2.4c-6.7,3.1-12.6,5.9-17.7,8.3
				c-2.6,1.2-5,2.3-7.2,3.3c-2.2,1.1-4.2,2-6.1,2.9c-3.7,1.8-6.8,3.2-9.3,4.5c-2.5,1.3-4.4,2.2-5.9,3c-0.2,0.1-0.3,0.2-0.5,0.2
				c0.4-0.2,0.7-0.3,1.1-0.5c1.6-0.8,3.1-1.5,4.6-2.3c1.5-0.7,3-1.5,4.5-2.2c1.5-0.7,3-1.4,4.5-2.1c5.8-2.8,11.5-5.3,16.8-7.7
				c5.3-2.4,10.3-4.7,15-6.9c2.3-1.1,4.6-2.1,6.7-3.1c2.2-0.9,4.3-1.8,6.4-2.7c8.3-3.3,15.7-5.9,22.1-8c1.6-0.5,3.2-1,4.7-1.5
				c1.5-0.4,3-0.9,4.3-1.3c1-0.3,2-0.6,2.9-0.9c-8.9,2.2-17,4.7-24.3,7.2C598,408.9,593.9,410.3,590.1,411.9z"/>
			<path class="st0" d="M531.6,439.6c-0.4,0.2-0.7,0.4-1,0.5C531,440,531.3,439.8,531.6,439.6z"/>
			<path class="st0" d="M530.3,440.4c0.1-0.1,0.2-0.1,0.4-0.2c-0.4,0.2-0.8,0.5-1.2,0.8C529.4,440.9,529.7,440.8,530.3,440.4z"/>
			<path class="st0" d="M532.9,439c-0.4,0.2-0.9,0.4-1.3,0.7C532,439.5,532.4,439.2,532.9,439z"/>
			<path class="st0" d="M595.6,411.3c-0.7,0.3-1.3,0.5-1.6,0.7c-0.4,0.2-0.5,0.2-0.5,0.2c10.9-4.1,20.5-7.3,27.4-9.7
				c0.9-0.3,1.8-0.6,2.6-0.9c-9.2,2.6-16.3,5.1-21.2,7C599.2,409.8,597.1,410.7,595.6,411.3z"/>
			<path class="st0" d="M551.5,426.1c-2.2,1.1-4.4,2.2-6.5,3.3c-2.2,1.1-4.3,2.2-6.4,3.3c-2.1,1.1-4.1,2.2-6.1,3.3
				c-0.9,0.5-1.9,1-2.8,1.5c-0.1,0.1-0.2,0.2-0.4,0.2c-2.2,1.5-4.4,2.9-6.5,4.3c2-1.3,3.9-2.5,5.8-3.8c1-0.7,2.2-1.3,3.3-1.9
				c1.1-0.6,2.2-1.2,3.3-1.7c2.2-1.1,4.3-2.3,6.4-3.4c4.2-2.1,8.2-4.1,12.1-6.1c3.8-1.9,7.5-3.7,11-5.5c6-3,11.3-5.8,16.1-8.2
				c-1,0.3-1.6,0.4-1.6,0.4C569.6,417,560.3,421.7,551.5,426.1z"/>
			<path class="st0" d="M715,376.7c0.1,0.2,0.2,0.3,0.1,0.1c-0.1-0.2-0.3-0.6-0.7-1c-0.4-0.5-1.1-1.1-2-1.6c-0.5-0.3-1-0.6-1.5-0.9
				c-0.3-0.2-0.6-0.3-0.9-0.4c-0.3-0.1-0.7-0.3-1-0.4c-0.3-0.1-0.7-0.3-1.1-0.4c-0.4-0.1-0.8-0.2-1.2-0.3c-0.4-0.1-0.8-0.2-1.2-0.4
				c-0.4-0.1-0.8-0.2-1.2-0.3c-0.8-0.2-1.7-0.4-2.6-0.5c-0.9-0.2-1.9-0.3-2.9-0.4c-2-0.2-4.1-0.4-6.4-0.5c-2.3,0.1-4.7,0-7.2,0.2
				c-10.1,0.6-21.8,3.2-33.7,7.6c-1.5,0.6-3,1.1-4.5,1.7c-1.5,0.6-3,1.2-4.5,1.8c-3,1.3-6.1,2.4-9.2,3.6c-1.6,0.6-3.1,1.2-4.7,1.8
				c-1.6,0.6-3.2,1.1-4.8,1.7c-3.2,1.1-6.3,2.2-9.6,3.2c-3.2,1-6.4,2.1-9.6,3c-3.2,0.9-6.4,1.9-9.6,2.8c-1.6,0.5-3.2,1-4.7,1.5
				c-0.8,0.2-1.6,0.5-2.3,0.7c-0.8,0.3-1.5,0.5-2.3,0.8c-1.5,0.5-3,1.1-4.5,1.6c-1.5,0.6-3,1.2-4.4,1.7c-11.6,4.5-21.8,10-30,14.8
				c-2.1,1.2-4,2.4-5.8,3.5c-1.8,1.1-3.5,2.1-5.1,3.1c-3.1,1.9-5.7,3.5-7.8,4.6c0,0-4.8,3.5-12,8.7c-5.2,3.7-11.7,8.3-18.8,12.5
				h12.9c3.5-2.1,7.1-4.4,10.9-6.9c1.8-1.3,3.7-2.6,5.6-3.8c0.9-0.6,1.8-1.2,2.8-1.8c0.1,0,0.2-0.1,0.2-0.1c2.2-1.5,4.5-3,6.8-4.6
				c1.2-0.8,2.5-1.6,3.7-2.5c1.3-0.8,2.6-1.6,3.9-2.5c2.6-1.7,5.3-3.3,8-5c1.4-0.9,2.8-1.6,4.2-2.4c1.4-0.8,2.8-1.6,4.3-2.4
				c1.5-0.8,3-1.5,4.5-2.3c1.5-0.7,3.1-1.4,4.7-2.2c1.6-0.8,3.2-1.4,4.8-2.1c1.6-0.7,3.3-1.4,5-2c1.7-0.6,3.4-1.3,5.1-1.9
				c1.7-0.6,3.5-1.2,5.3-1.8c2.5-0.8,4.9-1.5,7.5-2.3c-0.3,0.1-0.7,0.3-1,0.5c-3.7,1.6-8.3,3.8-13.6,6.4c-0.7,0.4-1.4,0.7-2.2,1.1
				c0.7-0.2,1.7-0.5,2.9-0.9c1.5-0.5,3.4-1,5.6-1.7c1.1-0.4,2.3-0.8,3.7-1.2c1.3-0.4,2.8-0.8,4.3-1.3c1.5-0.5,3.2-1,4.9-1.5
				c1.7-0.5,3.6-1,5.5-1.6c1-0.3,2-0.6,3-0.9c1-0.3,2.1-0.6,3.2-0.9c2.2-0.6,4.4-1.3,6.9-1.9c2.4-0.6,4.9-1.3,7.5-2
				c2.6-0.6,5.4-1.3,8.3-2c2.9-0.7,5.9-1.4,9-2.1c3.1-0.7,6.4-1.3,9.8-2c0,0-1.2,0.6-4.8,1.6c-3.6,1-9.6,2.7-19,5.4
				c-1.5,0.4-3.1,0.9-4.8,1.4c1.7-0.4,3.5-0.9,5.3-1.3c0,0-1,0.4-2.9,1c-1.4,0.5-3.3,1.2-5.5,1.9c1.7-0.5,3.4-0.9,5.2-1.4
				c3-0.7,6.1-1.5,9.5-2.2c1.7-0.4,3.4-0.7,5.1-1.1c1.8-0.4,3.6-0.8,5.4-1c3.7-0.6,7.6-1.2,11.7-1.9c2-0.3,4.1-0.7,6.3-1
				c2.1-0.3,4.3-0.6,6.5-0.9c4.5-0.6,9.1-1.3,14-2c4.7-1,9.7-1.6,14.8-2.9c1.3-0.3,2.6-0.7,3.8-1.1c0.6-0.2,1.4-0.5,2-0.8
				c0.7-0.3,1.4-0.6,2.1-0.9c0.6-0.4,1.3-0.7,1.9-1.1c0.7-0.4,1.3-0.7,1.8-1.2c1.1-0.9,2.1-2.2,2-3.7c0-0.8-0.3-1.4-0.7-2
				C714.9,376.5,715,376.6,715,376.7z M714.4,375.8C714.4,375.8,714.4,375.8,714.4,375.8C714.4,375.8,714.4,375.8,714.4,375.8z
				 M702.3,370.7c-0.6-0.1-1.1-0.2-1.7-0.3C701.1,370.5,701.7,370.6,702.3,370.7z M705.1,378.8c-0.1,0.1-0.1,0.1-0.2,0.2l-0.2,0.1
				c-0.1,0.1-0.3,0.1-0.4,0.2c-0.2,0.1-0.1,0.1-0.9,0.3c-0.6,0.2-1.2,0.4-1.8,0.6c-0.6,0.2-1.3,0.3-2,0.5c-0.7,0.2-1.4,0.3-2.2,0.5
				c-3,0.6-6.4,1.1-10.4,1.8c-0.5,0.1-1,0.2-1.5,0.3c0,0,0.1,0,0,0l-0.3,0l-0.7,0.1c-1,0.1-2,0.3-3,0.4c-2,0.3-4.1,0.5-6.3,0.8
				c0,0-3.6,0.5-9.1,1.3c-5.6,0.9-13.1,2.1-20.9,3.4c-3.3,0.7-6.6,1.4-9.9,2.1c0.7-0.3,1.5-0.6,2.2-0.8c2.1-0.8,4.3-1.6,6.3-2.5
				c2-0.8,4.1-1.7,6.2-2.5c8.2-3.2,16.8-5.9,25.7-7.5c1.1-0.2,2.2-0.4,3.3-0.6c1.1-0.2,2.2-0.3,3.4-0.4c1.1-0.1,2.3-0.2,3.4-0.4
				c1.1-0.1,2.2-0.1,3.3-0.1c1.1,0,2.2-0.1,3.4-0.1c1.2,0.1,2.3,0.2,3.5,0.2c2.3,0.2,4.6,0.4,6.7,0.9c0,0,0.5,0.1,0.9,0.2
				c0.3,0.1,0.5,0.1,0.5,0.1s0.1,0,0.3,0.1c0,0,0.1,0,0.2,0.1c0.1,0,0.2,0.1,0.3,0.2C705.1,378.4,705.2,378.6,705.1,378.8z
				 M705,371.2c0.1,0,0.2,0,0.3,0.1c0.2,0.1,0.4,0.1,0.7,0.2C705.7,371.4,705.4,371.3,705,371.2z M711.7,373.7
				c0.6,0.3,1.1,0.6,1.5,0.9C712.7,374.3,712.2,374,711.7,373.7z M714.6,376.1c0.1,0.1,0.1,0.2,0.2,0.2
				C714.8,376.2,714.7,376.1,714.6,376.1z"/>
			<path class="st0" d="M522.1,442.7c0.3-0.2,0.5-0.3,0.8-0.5C522.6,442.3,522.4,442.4,522.1,442.7
				C522.1,442.6,522.1,442.6,522.1,442.7z"/>
			<path class="st0" d="M512.3,450.2c0.4-0.4,0.8-0.7,1.3-1.1C513.2,449.5,512.7,449.9,512.3,450.2L512.3,450.2z"/>
			<path class="st0" d="M513.6,449.2c0.7-0.6,1.4-1.2,2.1-1.7c2.2-1.6,4.3-3.2,6.3-4.8c-0.4,0.2-0.7,0.5-1.1,0.7
				C518.4,445.2,515.9,447.2,513.6,449.2z"/>
		</g>
	</g>
	<path class="st0" d="M497.7,391.2c0.5-2.2,0.2-4.7,2.1-6.5c0.6-0.4,1.2-0.8,1.9-1.1c0.7-0.3,1.4-0.5,2.1-0.8
		c1.4-0.5,2.7-0.9,3.7-1.6c0.6-0.1-0.1,1.9,1.3,1.5c0.7-0.3,0.9-1.2,1.7-0.6c-0.3,0.3-0.2,0.8-0.3,1.1c1,0.2,1.9,1.2,3,0.5
		c-0.9,1.3,0.9,2.3,0.7,3.6c0.6,0.6,1.2-0.5,1.9-0.1c-0.2,0.8-2.5,1.1-1.1,2.3c0.4,0.2,1.1,0,1.4,0.4c-0.3,0.7-2,0.1-1.4,1.2
		c0.3,0.5,1.7,0.4,1.1,1c-1.9,0.5,0.4,2.9-1.6,4.2c0.1,0.7,0.8,0.9,0.7,1.5c-0.7,0.3-1.1-0.4-1.5-0.7c-1.3,1.2-2.2,3-2.7,4.4l-0.9-1
		c-0.5,0.2-1.4,0.5-1.7,1.1c-0.4,0.7,0.8,1.1,0.2,1.8c-0.5,0.6-0.6-1.9-1.4-1.3c-0.9,0.6-2.1,0.1-2.5,1.4c-1,0.1-1-1.1-1.5-1.6
		c-0.5,0.2-0.7,1-1.4,0.8c-0.2-0.3-0.4-0.6-0.6-0.9c-0.1-0.1-0.2-0.3-0.3-0.4c-0.1-0.1-0.1-0.2-0.2-0.3c-0.3-0.4-0.5-0.8-0.8-1.1
		c-0.3-0.4-0.5-0.7-0.7-1.1c-0.2-0.4-0.5-0.9-0.8-1.5c0.2-1.1,0-2.4-0.2-3.5C497.6,392.9,497.4,391.8,497.7,391.2z"/>
	<g>
		<path class="st0" d="M617.7,340.3c0.3-1.3,1.3-0.9,2-2c0.9-0.4,1.8-0.5,2.8-0.4c0.9,0,1.8,0.1,2.6-0.2c-0.3,0.4-0.9,0.1-1.1,0.6
			c0.4,0.5,1.1-0.5,1.5,0c-0.3,0.1-0.9,0.3-0.6,0.8c0.5,0,1.3-0.4,1.7-0.1c-0.4,0-1-0.1-1.3,0.4c0.4,0.5,0.8,1.1,1.2,1.3
			c-0.5,0.3-1-0.2-1.3,0.5c0.4,0.6,1.2-0.5,1.4,0.3c-1.1,0.3-2.1,0.9-3.2,1.3l0.4,0.6c-0.9,0.2-1.9,0.4-2.8,0.5
			c-0.9,0-1.8,0-2.6-0.5c-0.6-0.3-1.5-1-1-1.8C617.4,341.1,617.1,340.6,617.7,340.3z"/>
		<path class="st0" d="M628.3,358.6c-0.5-0.1-0.7,0.4-0.7,0.7l0.1-0.9L628.3,358.6z"/>
		<path class="st0" d="M627.7,359.3c0.2,0,0.1,0.1,0.2,0.3C627.9,359.4,627.7,359.5,627.7,359.3z"/>
		<polygon class="st0" points="628.9,357.5 627.7,358.2 628.5,357.6 		"/>
		<path class="st0" d="M628.5,359.8l0.4,0L628.5,359.8z"/>
		<polygon class="st0" points="630.7,357.3 629.2,357.4 630.6,357.2 		"/>
		<polygon class="st0" points="630.6,359.7 630.6,359.6 631.1,359.5 631.1,359.5 		"/>
		<polygon class="st0" points="631.8,359.2 631.8,359.2 631.9,359.1 631.9,359.2 		"/>
		<polygon class="st0" points="631.6,357.2 631.4,357.1 631.6,357 		"/>
		<polygon class="st0" points="632.7,358 632.3,357.9 632.7,357.9 		"/>
		<path class="st0" d="M630.4,343.6c0.3-0.6,0.3-1.7,0.7-2.5c0.8-0.9,1.4-1.1,2.1-1.4c0.7-0.2,1.4-0.3,2.2-0.8
			c0.1,1.2,0.8,0.3,1.2,0.1l-0.1,0.8c0.6,0.6,1.8,0.1,2.3,0.2c-0.3,0.2-0.8,0.3-0.8,0.9c0.4,0.2,0.8-0.3,1.4-0.4
			c-0.6,0.4-0.9,1.5-0.3,1.9c0.3,0.1,0.6-0.3,0.8,0c-0.3,0.5-1.3,0.1-1.3,0.7c0.1,0.8,1-0.4,1.3,0.2c-0.8,0.4-1.7,0.4-2.3,1.2
			c0.1,0.3,0.5,0.2,0.6,0.4c-1.1,0.4-2.3,0.8-3.5,1c-1.2,0.1-2.3,0-3.2-0.9C630.7,344.7,631,344.1,630.4,343.6z"/>
		<polygon class="st1" points="633.5,344.4 633.3,344.4 633.5,344.4 		"/>
		<path class="st1" d="M633.6,344.3l0.2,0L633.6,344.3z"/>
		<path class="st1" d="M634.6,342c-0.3-0.1-0.1,1-0.6,0.5L634.6,342z"/>
		<polygon class="st1" points="636.9,343.5 636.7,343.7 636.6,343.5 		"/>
		<polygon class="st0" points="640.2,346.8 640,346.7 640,346.6 		"/>
		<path class="st0" d="M641.6,346.3c0,0-1.1,0.5-1.1,0.5l0.8-0.3L641.6,346.3z"/>
		<polygon class="st0" points="641.9,345.2 642.2,345.2 642.1,345.6 642.2,345.2 		"/>
		<path class="st0" d="M656,351.6c-0.2,0.4,0.5,0,0.2,0.5C656.1,351.9,655.9,351.8,656,351.6z"/>
		<path class="st0" d="M656.4,350.4c-0.2,0.2-0.6,0.6-0.5,0.8C655.6,350.9,656.3,350.7,656.4,350.4z"/>
		<polygon class="st0" points="658.6,351.1 658.4,351.4 658.4,351.3 		"/>
		<path class="st0" d="M657.3,349.6l0.3-0.2L657.3,349.6z"/>
		<path class="st0" d="M658.9,350.8l0.1-0.3L658.9,350.8z"/>
		<polygon class="st1" points="649.5,341.9 649.4,341.8 649.6,341.7 649.6,341.7 		"/>
		<polygon class="st1" points="650.6,342.3 650.5,342.3 650.1,341.8 		"/>
		<polygon class="st0" points="658.8,349.1 658.1,349.2 658.6,349 		"/>
		<path class="st1" d="M651,342c0.3,0.1,0.1,0.3-0.1,0.4L651,342z"/>
		<polygon class="st1" points="648.3,338.5 648.3,338.8 648.2,338.6 		"/>
		<polygon class="st1" points="651.5,341.2 651.5,341.2 651.6,341 651.7,341 		"/>
		<polygon class="st1" points="648.2,338 648.2,338 648.4,337.7 648.4,337.8 		"/>
		<path class="st1" d="M651.4,339.2c0.5-0.2,0,0.3,0,0.4C651.1,339.5,651.3,339.5,651.4,339.2z"/>
		<polygon class="st1" points="652.1,339.5 652,339.9 652,339.7 		"/>
		<polygon class="st1" points="651.7,338.3 650.9,338.4 651.4,338.2 		"/>
		<path class="st0" d="M659.7,334.5c0.2-0.2,0.5-0.5,0.8-0.4c0.1,0.5-0.5,0.5-0.6,0.8C659.7,335.2,659.6,334.7,659.7,334.5z"/>
		<path class="st0" d="M655.7,329.4l0.3-0.4c-0.2,0.3,0,0.8-0.4,1.1l0.1-1.1L655.7,329.4z"/>
		<polygon class="st1" points="647.7,340.8 647.3,340.8 647.7,340.7 		"/>
		<polygon class="st1" points="647.5,340.3 647.4,340.3 647.3,340.2 		"/>
		<polygon class="st1" points="649.2,340 649.3,340.4 649.2,340.3 		"/>
		<path class="st1" d="M647.2,336.7c0.2,0,0,0.5-0.1,0.5C647.2,337.1,647.4,336.9,647.2,336.7z"/>
		<polygon class="st1" points="647,336.1 646.7,336.2 646.9,336 		"/>
		<path class="st1" d="M648.1,336.4l-0.2,0.2c0.1-0.6,0.2-0.6,0.7-0.6c-0.5,0.2-0.4,0.5-0.7,1C647.9,336.8,648.2,336.8,648.1,336.4z
			"/>
		<path class="st1" d="M648.4,336.5l0.3-0.2L648.4,336.5z"/>
		<path class="st0" d="M657,333.6c0.5-0.9,1.5-1.1,2.1-0.8c0.9,0.4,2.3,0.4,1.9,1.8c-0.9,0.4-2.2,0.9-3.1,0.5
			C657.4,335,656.4,334.5,657,333.6z"/>
		<path class="st0" d="M686.2,341.1c0.2-0.5,0.5-0.9,0.9-1c0.8-0.4,1.6,1.1,2.1,0.5c-0.5,0.8-1.2,1.9-2.4,1.4
			C686.4,341.9,686.1,341.5,686.2,341.1z"/>
		<path class="st0" d="M690.7,351.1l0-0.2L690.7,351.1z"/>
		<path class="st0" d="M688.3,343c0,0.1,0.1,0,0.1,0C688.3,343.1,688.3,343.2,688.3,343z"/>
		<path class="st0" d="M688.5,342.9L688.5,342.9L688.5,342.9z"/>
		<path class="st1" d="M687.2,341.3C687.2,341.3,687.1,341.3,687.2,341.3c0-0.2,0.1,0.1,0.2,0l0,0c0.2-0.1,0.2,0.3,0.4,0.2
			C687.3,341.5,687.4,341.6,687.2,341.3z"/>
		<path class="st1" d="M687.7,341.7C687.8,341.8,687.8,341.8,687.7,341.7C687.7,341.7,687.7,341.7,687.7,341.7z"/>
		<path class="st1" d="M687,340.7c0.2,0.1,0.2-0.3,0.4-0.2l0,0.3c-0.1-0.1,0.1-0.2-0.1-0.2c0.2,0.3-0.1,0.3-0.1,0.4
			C686.8,341,687.1,340.9,687,340.7z"/>
		<polygon class="st1" points="687.8,341.4 687.7,341.5 687.7,341.4 		"/>
		<path class="st1" d="M687.7,341.2c0-0.1-0.1-0.1-0.1-0.1C687.6,341.1,687.8,341.2,687.7,341.2
			C687.8,341.2,687.5,341.3,687.7,341.2z"/>
		<path class="st1" d="M687.6,340.8c0,0.1-0.1,0-0.1,0C687.5,340.8,687.5,340.8,687.6,340.8z"/>
		<path class="st1" d="M687.9,341.2C688,341,687.9,341.2,687.9,341.2C687.9,341.2,688,341.2,687.9,341.2z"/>
		<path class="st1" d="M688.2,341.3l0.1,0L688.2,341.3z"/>
		<path class="st1" d="M688.1,341c0.1,0,0,0.1,0,0.1L688.1,341z"/>
		<path class="st1" d="M688.1,340.7L688.1,340.7L688.1,340.7z"/>
		<path class="st0" d="M683,333.6c0.1-0.1,0.2-0.1,0.2-0.3c-0.3,0.2-0.3-0.2-0.5-0.3c0.2-0.7,1-1,1.6-0.7c-0.1,0.3-0.4,0.5-0.5,0.8
			c0.3,0,0.7-0.1,1.1,0.2c1.2-0.6,2.8-0.2,4.2-0.4c-0.2,0.4-0.7,0.2-0.9,0.7c0.1,0.2,0.2-0.1,0.4,0c-0.1,0.1-0.3,0.2-0.3,0.4
			c0.3,0.7,0.7-0.1,1.1,0c-0.6,0.7-1.2,1.7-2,2.2c-0.7,0.6-2.1,0.6-2.9-0.4c-0.2-0.3-0.1-0.7-0.2-1.2c-0.3,0.2-0.8,0.3-1.2-0.1
			C682.8,334.4,682.8,333.9,683,333.6z"/>
		<path class="st0" d="M666.8,333.5c0.5-1.2,1.6-1.8,2.6-2.2c-0.4,0.4-1,0.6-1.3,0.9l0-0.1c-0.2,0.2-0.6,0.2-0.5,0.6
			c-0.1,0,0-0.1-0.1-0.1c-0.4,0.3-0.6,0.7-0.7,1.2c0.2,0.7,0.3-0.2,0.7,0.1l-0.1,0.4c0.1-0.1,0.4,0,0.4-0.2l0,0
			c0.9-0.1,1.6-1.2,2.1-2.1l0,0l0.3-0.3c-0.8,1.1-1.7,3-3.2,2.6C666.8,334.2,666.6,333.8,666.8,333.5z"/>
		<path class="st0" d="M667,333.6C667.1,333.4,667,333.6,667,333.6C667,333.7,667,333.6,667,333.6z"/>
		<path class="st0" d="M668.1,333.8l-0.1-0.2L668.1,333.8z"/>
		<polygon class="st0" points="669.4,331.7 669.4,331.8 669.4,331.8 		"/>
		<polygon class="st0" points="669.6,331.8 669.6,331.9 669.5,331.8 		"/>
		<path class="st0" d="M669.5,331.6l0.2-0.2L669.5,331.6z"/>
		<path class="st0" d="M691.5,350.3l0-0.3L691.5,350.3z"/>
		<path class="st0" d="M690.7,349.3l0.3,0L690.7,349.3z"/>
		<path class="st0" d="M691.4,349.3l0,0.3l-0.3-0.3C691.2,349.2,691.3,349.3,691.4,349.3z"/>
	</g>
	<g>
		<path class="st2" d="M785.8,363.3c-0.2,0.4,0.2,0.8,0.1,1.1c0.3,1,1.3,1.1,2.1,1.3c0.6-0.2,1.5-0.5,1.3-1.4
			c-0.2-0.8-0.7-1.1-1.3-1.4C787.1,362.7,786.5,363,785.8,363.3z M787.4,364.4C787.4,364.4,787.4,364.4,787.4,364.4L787.4,364.4
			C787.4,364.4,787.4,364.4,787.4,364.4z"/>
		<path class="st2" d="M789.1,356.9c-0.3,0-0.6,0.1-0.8,0.4c0,0.3,0.2,0.7,0.5,0.7C789.5,358.3,789.9,357.1,789.1,356.9z"/>
		<path class="st2" d="M780.5,350.5c0.2,0.4,0.7,1.2,1.4,1c0.5,0,0.9-0.3,0.9-0.9c-0.2-0.4-0.6-0.7-1-0.8c0.2,0.2,0.8,0.4,0.6,0.8
			c-0.3-0.2-0.3,0.2-0.7,0c-0.2,0.3,0.4,0.4,0.2,0.7c0,0.1-0.2,0.1-0.3,0l0.1,0C781.3,351.2,781.2,350.7,780.5,350.5z"/>
		<path class="st2" d="M790.7,367.2c0-0.1,0-0.1,0-0.2C790.6,367.1,790.6,367.2,790.7,367.2z"/>
		<path class="st2" d="M790.5,366.7c-0.3,0.2,0,0.2,0.1,0.3C790.6,366.9,790.7,366.8,790.5,366.7z"/>
		<path class="st2" d="M789.7,365.8c0.3,0.2,0.6,0.3,0.9,0.5C790.3,366.1,790,365.9,789.7,365.8z"/>
		<path class="st2" d="M791,367.7c-0.1,0-0.1,0-0.2,0C790.9,367.7,791,367.7,791,367.7z"/>
		<path class="st2" d="M781.8,349.9C781.8,349.9,781.8,349.9,781.8,349.9C781.8,349.9,781.8,349.8,781.8,349.9
			C781.8,349.8,781.8,349.8,781.8,349.9z"/>
		<path class="st2" d="M779.8,350.1l0.6,0.5c0.3-0.7,1.3-0.6,1.4-0.7c-0.3-0.1-0.6-0.1-0.8-0.2C780.5,350.2,780,349.6,779.8,350.1z"
			/>
		<path class="st2" d="M788.6,369.2c0.7,0.6,2.1,0.6,2.7,0c1.3,0.2,2.8-0.2,4.1,0.6c0.6-0.5,1.3,0.2,1.8-0.1c-2.2-0.9-4.5-2-6.8-3.3
			c0.3,0.3,0.5,0.6,0.9,0.9c-0.2-0.1-0.1,0.4-0.3,0.5c0,0,0.1,0.1,0.1,0.1c-1.1-0.1-0.7-1.9-2.2-1.6c-1.9,0.6-4-1-6.1-1.1
			c0,0,0,0,0,0c0,0,0,0,0,0c-0.1,0-0.2,0-0.3,0c-0.2,0.3-0.5,0.6,0,0.7c0.9,0.4,2.2,0.7,3.2,0.9c1.6,0,2,1.1,2.6,2.2l0.1-0.5
			c1.2-0.1,0.2,0.5,1.3,0.6C789.6,369.6,788.9,369.2,788.6,369.2z"/>
		<path class="st2" d="M784,339.8c-0.3-0.1-0.8-0.1-0.9,0.4c1.4,2.1,1.9,4.8,4.3,6.1c0.4,0.1,0.7,0,0.8-0.3c0-1.5-1-2.6-2-3.6
			C785,341.8,785,340.3,784,339.8z"/>
		<path class="st2" d="M764.6,337.1c0.4-0.1,0.6-0.3,0.7-0.7c-0.1-0.6-0.5-0.6-0.8-1c-0.6,0-1.2-0.1-1.5,0.3
			C763.3,336.4,763.8,337,764.6,337.1z M765,336.2c0-0.1-0.1-0.1-0.1,0C764.9,336.2,764.9,336.1,765,336.2
			C764.9,336.1,765,336.2,765,336.2z"/>
		<path class="st2" d="M793.1,359.4C793.1,359.4,793.1,359.4,793.1,359.4c0,0,0,0.1,0,0.1L793.1,359.4z"/>
		<path class="st2" d="M800.9,372.9v-2.4c-1.1-0.2-2.2-0.4-3.2-0.8C798.8,370,799.8,371.7,800.9,372.9z"/>
		<path class="st2" d="M770.6,341.9c0.2-0.2,0.6-0.3,0.6-0.7c0-0.5-0.5-0.7-0.8-0.9c-0.7-0.3-1.3,0.1-2,0
			C769.1,340.8,769.4,342.1,770.6,341.9z"/>
		<path class="st2" d="M799.7,376.9c0.4-0.3,0.8-0.4,1.2-0.4v-1.7c-1.3,0.2-2.5-0.2-3.7-0.3c-0.3,0.6,0.3,0.5,0.3,1
			c0.8,0.1,1.5-0.4,2.3,0.1C799.8,376,800.5,376.6,799.7,376.9z"/>
		<path class="st2" d="M768.9,334.4c0-0.3-0.2-0.4-0.4-0.7c-0.4-0.3-1-0.4-1.3-0.1c-0.4,0.6,0.5,1.1,1,1.2
			C768.4,334.9,768.9,334.8,768.9,334.4z"/>
		<path class="st2" d="M795.5,359.7c-0.5,0.2-0.4,0.8-0.2,1.1c-0.4,0.2-1,0-1.5-0.1l0.2-0.3l-0.4,0.2c-0.1,0-0.1-0.1-0.2-0.1
			c0.3,0.3,0.7,0.5,1.3,0.5C795.6,361.1,795.8,360.2,795.5,359.7z"/>
		<path class="st2" d="M795.3,359.4c-0.3-0.4-0.9-0.2-1.2-0.4C794.5,359.5,794.8,358.9,795.3,359.4z"/>
		<path class="st2" d="M793.5,360.5c-0.1-0.1-0.2-0.2-0.4-0.4C793.2,360.3,793.3,360.4,793.5,360.5z"/>
		<polygon class="st2" points="794,359 793.6,359 793.8,359.1 		"/>
		<path class="st2" d="M793.4,359c-0.3,0.3-0.8,0-1.1,0.4c0.3,0.2,0.6,0.5,0.8,0.8c-0.1-0.2-0.3-0.5-0.3-0.7c0.1-0.1,0.3-0.2,0.3,0
			C793.2,359.2,793.2,359.1,793.4,359z"/>
	</g>
	<g>
		<path class="st0" d="M330.7,328.5c0.4-0.3,1.2,0,1,0.6c-0.4-0.8-0.7-0.1-0.9,0.2l0.2,0.1c-0.3,0.2-0.8-0.1-0.8,0.2
			c0.3-0.4,0-1.2-0.5-1c-0.4,0.4-0.3,0.4-0.4,0.8l0.3-0.1c-0.3,0-0.7,0.7-1,0.3c-0.9,1,0.2,2.3,0,3.4c0-0.9-0.7-1-0.6-1.9
			c0.1-1.1,0.7-2.2,1.6-2.8C330.1,328.2,331.3,327.8,330.7,328.5z"/>
		<path class="st0" d="M331.8,331.4c-0.1,0.5-0.8,1.3-1.2,1.2c1.4,0.1,0-1.7,1.2-1.6c0-0.6,0-1.2,0.1-1.8
			C331.7,329.9,332.6,330.8,331.8,331.4z"/>
		<path class="st0" d="M330.3,332.8c0.1,0.2,0,0.5-0.2,0.7l0.1-0.9C330.3,332.6,329.9,333,330.3,332.8z"/>
		<path class="st0" d="M329.3,333.2c-0.2-0.4,0.1-0.4,0.4-0.7L329.3,333.2z"/>
		<path class="st0" d="M336.5,338.6c0.4,1,0.1,2.2-0.4,3.1l-1.1,1.2c-0.3-0.5-0.7-0.6-0.8,0c0.1,0.5,0.4,0.7,0.7,0.7
			c-0.2,0.3,0.1,0.8-0.5,0.9c1.2,0.2,2.1,1.1,2.5,2.3l-0.6,0.5c1.6,1,0,2.1,0.5,3.5c1.1,2.7-1.6,1.4-0.6,4.1
			c-0.4-0.5-0.9-1.4-1.4-0.5c-0.3,0.6,0.7,1.2,0.4,1.9c-1,0-0.9-2.9-2.2-1.2c-0.2,0.8-1,1.2-1.5,1.8c0.2,2.1-2,3.8-0.8,6.1
			c-0.3-1-1.1-0.2-1.7-0.3c-0.8,1-0.2,2-0.5,2.9c-0.6,0-0.6,0.7-1.2,0.2c0.3-1.6,1-3.1,0.9-4.8c-0.7-0.3-1.1-1.2-1.9-0.5
			c-1.6,1.4-4.3,2.7-4.9,4.2c1.4-3.3,1.9-6.7,3.1-10c-1.6-1-0.8,1.9-1.9,1.5c0.2-1.2-0.9-1.3-1.5-2l1-3.2c-0.2-0.4-0.5-0.3-0.8-0.6
			c-0.4-1.5,2.2-2,1.3-3.6c0.7-1.1,1.9-1,2.4-2.3c-0.7-0.8-0.6,0.8-1.3,0.9c-0.2-0.5,0.8-1,0.2-1.5c-1,0.2-1.6,2-2.7,1.1
			c0.7-0.6-0.5-1,0-1.7c-0.6-0.5-0.9,0.2-0.9,0.6c-0.5-0.6,0.6-1.1,0.4-1.6c-0.5-0.2-0.8,1-1,0.1c0.3-0.3,0.6-0.9,0.5-1.2
			c-0.5-0.2-0.5,0.5-1,0.5c1.3-2,1.4-5,3.8-6.2c1-0.6,2.3-0.6,3.2-0.2c0.5,0.7,2.1,1.5,1.6,2.6c0.4,0.7,0.2,1.7,0.1,2.5
			c0.4-0.2,1.2-0.6,1.7-0.2c-0.5,1.4-2.4,1.2-3,2.7c0.9-0.2,2.1,0,2.5-0.8c1-0.1,1.9,1.3,2.7,0.2c0,0.2,0.2,0.4,0.2,0.6
			c0.5-0.1,0.6-0.3,1.2-0.5c-0.7-1.3-0.4-3.5,1.1-4.3C334.9,337.3,336.1,337.8,336.5,338.6z"/>
		<path class="st1" d="M336.4,338.9c-0.5,0.5-0.1,0.8-0.1,1.4l-0.2-0.2c-0.7,0.4,0.7,1.1-0.5,1.3c-0.1,0.2,0.2-0.4-0.2-0.4
			c-0.4,0.2,0.2,0.4-0.2,0.5c0-0.2-0.1-0.7-0.3-1c-0.5,0-0.9-0.2-1.5-0.3l0.4,0.4c-0.2-0.4-0.6-0.1-1-0.2c0.1-0.7,0.6-1,0.8-1.8
			c-0.2,0.8,0.4-0.2,0.8,0.1c-0.5-0.2-0.2-0.8,0.1-0.7l-0.1,0.2l0.6,0l0,0.1c1.1-0.2-0.5,0.5,0.4,0.6l0.2-0.7L336.4,338.9z"/>
		<path class="st1" d="M335,339.3c0.3,0.1,0.2-0.2,0.5,0c-0.3,0.1,0,0.2,0.2,0.2c-0.7,0.4-0.4-0.5-1-0.3c0-0.3,0-0.4,0.2-0.7
			C335.2,338.9,334.9,338.9,335,339.3z"/>
		<path class="st1" d="M334.1,339.5c0.1,0,0.3-0.6,0.1-0.6l0.3,0.7L334.1,339.5z"/>
		<path class="st1" d="M323.4,336.4c-0.6,0.6-0.9,0.4-1.8,1.2c0.2,0.3,0.7,0,0.5,0.5l-0.1-0.3c-1.2,0.2,0.5,1.5-0.7,1.8l0.2,0
			c-0.2,0.7-0.4,0.4-0.6,1.3c0.1-0.6-0.2-0.7-0.7-0.7c0.6-0.4,0-1.5,0.9-1.5l0.1,0.5c0.5-0.6,0.1-1.9,0.5-2.1l0.1,0.2
			c0.4-0.4,1.6-0.9,1.1-1.3C323,336.2,323.2,336.5,323.4,336.4z"/>
		<polygon class="st1" points="333.2,340.7 333.5,340.6 333.5,341 		"/>
		<path class="st1" d="M323.2,337.7l0.2-0.1c0,1-0.6-0.4-1,0.1C322.8,337.5,322.9,337.2,323.2,337.7z"/>
		<polygon class="st1" points="322.6,338 322.3,338.1 322.5,337.9 		"/>
		<polygon class="st1" points="321,338.4 321,338 321.2,338.3 		"/>
		<polygon class="st1" points="322,339.5 322,339.2 322,339.3 		"/>
		<polygon class="st1" points="322.2,339.9 322.3,339.3 322.3,339.6 		"/>
		<path class="st1" d="M320.9,339.6l0.3,0.1L320.9,339.6z"/>
		<polygon class="st1" points="322.1,340.1 322.1,340.3 321.9,339.9 322,340.2 		"/>
		<path class="st1" d="M322.3,340.6l-0.2,0.7L322.3,340.6z"/>
		<polygon class="st1" points="320,340.3 320,340.1 320,340.1 		"/>
		<polygon class="st1" points="321.1,341.2 321.4,340.7 321.5,340.8 		"/>
		<path class="st1" d="M319.9,340.5c-0.1,0.3-0.1,0-0.2-0.1C319.8,340.4,319.9,340.5,319.9,340.5z"/>
		<path class="st1" d="M320.2,341.6l0.3,0.3l0.2-0.5c0.3,0.7-0.3,0.4-0.7,0.4c0.2-0.4,0.2-0.8,0.7-0.9
			C320.4,341.1,320.2,341.2,320.2,341.6z"/>
		<path class="st1" d="M321.5,341.4c-0.2,0.2-0.1,0-0.2-0.1C321.4,341.3,321.4,341.4,321.5,341.4z"/>
		<path class="st1" d="M321.3,342.3c-0.2,0.3-0.2,0.1-0.1-0.1C321.3,342.2,321.3,342.2,321.3,342.3z"/>
		<polygon class="st0" points="317.1,349.4 316.9,349.2 317.2,349.2 		"/>
		
			<rect x="323" y="351.7" transform="matrix(0.3145 -0.9493 0.9493 0.3145 -112.3194 547.8491)" class="st1" width="0.2" height="0.1"/>
		<path class="st1" d="M328,359.5c-0.1,0-0.1,0.1-0.2,0.1c0-0.2,0-0.5,0.1-0.6C328,359.2,327.8,359.4,328,359.5z"/>
		<path class="st1" d="M326,359.5c0-0.2-0.4-0.2-0.6,0C325.4,359,325.7,359.3,326,359.5z"/>
		<path class="st1" d="M325,360.4L325,360.4L325,360.4z"/>
		<path class="st0" d="M321.2,367.3c-1.2,1.6-0.8,3.5-1.3,5.1c0.7,0.9,0.5,2.6-0.3,3.4c0-0.4,0.7-1.2,0-1.4c-0.2,1.4-0.8,0-0.9,1.5
			l0.6,0.2c-1.4,0.7-2.9,1-3.1,3.1c-0.4,1.2-0.8,2.8-1.5,3.9c-0.3,0.6-0.6,0.2-0.9-0.1c0.2-2.8,2.7-5.4,2.1-8
			c-0.2-1.8,1.9-1.2,2.2-2.5c-0.2-0.1-0.2,0.2-0.2,0.3c0.4-0.6-1-0.4-0.3-0.9c-0.7,0.8-1.9,1.1-2.2,2.2c2.1-2.9,4.1-6.1,5.6-9.1
			C321.6,365.6,320.7,366.5,321.2,367.3z"/>
		
			<rect x="319.7" y="369.4" transform="matrix(0.3145 -0.9493 0.9493 0.3145 -131.4312 556.9232)" class="st3" width="0.3" height="0.1"/>
		<path class="st0" d="M310.2,367.2c-0.1,1.5-1.6,1.9-2.4,2.8c-0.4-0.4,0-1-0.3-1.4c0.1,0.3,0.3,0.3,0.7,0.4l-0.1,0
			c-0.2,0.1-0.1,0.3,0,0.4c0.6-0.1,1.4-0.5,1.5-0.9l-0.3-0.5l0.4,0.3c0.2-0.6,0.5-1.3,0.3-1.9c-0.4,0.2-1.2,0.2-1.4-0.4
			C309.3,365.8,310.4,366.1,310.2,367.2z"/>
		<path class="st3" d="M319.9,371c-0.6-0.3,0.3-0.5-0.1-0.9C320.3,370.1,319.7,370.9,319.9,371z"/>
		<path class="st0" d="M307.5,367.7c0.3-0.4,0.2-1.1,0.7-1.4C307.6,366.8,308.3,367.3,307.5,367.7z"/>
		<path class="st3" d="M319.1,371.6l-0.1-0.3c-0.1,0.5-0.9,0.1-0.6,0.8c0.1-0.1,0.2,0,0.4,0c-0.5,0.5-0.9-0.5-0.6-0.8
			c0.3,0.3,0.6-0.3,0.8-0.5c-0.3-0.2-0.6-0.6,0.1-0.9C319.1,370.3,318.9,371.1,319.1,371.6z"/>
		<polygon class="st0" points="307.5,368.4 307.5,367.9 307.7,368.1 		"/>
		<path class="st3" d="M318.9,371.8l0.1,0.3L318.9,371.8z"/>
		<polygon class="st3" points="319.1,373.7 318.8,373.3 319,373.4 		"/>
		<path class="st3" d="M317.5,373c-0.4-0.1-0.3,0.6-0.6,0.2C317,372.7,317.4,373.3,317.5,373z"/>
		<path class="st3" d="M317.9,374.2c-0.5-0.3-0.1-0.2,0.1-0.9L317.9,374.2z"/>
		<polygon class="st3" points="319.8,374.3 320.1,374.1 320,374.2 		"/>
		<path class="st3" d="M318.9,374.3l-0.1,0l0,0.7c-1-0.1,0-0.7-0.1-1.1C318.7,374,319.1,374,318.9,374.3z"/>
		<polygon class="st3" points="317.2,374.3 317.4,373.9 317.4,374.2 		"/>
		<polygon class="st3" points="318.6,375.9 318.8,375.7 318.8,376 		"/>
		<path class="st0" d="M315.3,376.1c-0.3,1-0.7,2.2-1.9,2.5c-0.4-0.1-0.9,0.4-1.4,0c-0.3-0.9-0.7-1.7-0.2-2.8
			c0.5-0.7,0.9-1.4,1.9-1.5C314.9,374.2,315.2,375.3,315.3,376.1z"/>
		<path class="st0" d="M305.8,374.2c-0.1,0.4-0.6,0.5-1,0.5c-0.4-0.2-0.5-0.6-0.5-1C304.7,372.8,306.1,373.4,305.8,374.2z"/>
		<path class="st3" d="M313.1,376.6l-0.5-0.5C313.1,376.3,313.4,375.7,313.1,376.6z"/>
		<polygon class="st3" points="316.5,377.8 316.7,377.4 316.8,377.6 		"/>
		<path class="st3" d="M313.6,376.8c0.3-0.1,0.7,1.1,0.9,0.2c0.1,0.5-0.7,0.7-0.6,0.8l0-0.6c-0.6,0.2-0.2,0.7-0.8,0.7l-0.3-0.5
			C313.6,377.3,313.3,377.5,313.6,376.8L313.6,376.8z"/>
		<path class="st3" d="M312.5,377.4l0.3,0.8c-0.7-0.3-0.1-1-0.9-1c0.4,0,0.5-0.9,1-0.5C312.7,377.2,313.1,377.1,312.5,377.4z"/>
		<polygon class="st3" points="316.3,378.9 316.4,378.5 316.4,378.8 		"/>
		
			<rect x="315.6" y="379.1" transform="matrix(0.3145 -0.9493 0.9493 0.3145 -143.3983 559.603)" class="st3" width="0.3" height="0.1"/>
		<path class="st0" d="M290.8,374.6c-1.8,2.9-5.3,3.2-8.1,4.7c-0.6-0.2-0.5-0.8-0.4-1.2c0.8-1.2,2.7-1.1,3.5-2.6
			c1.4-1.1,2.8-2.2,4.8-2.1C290.8,373.8,291,374.2,290.8,374.6z"/>
		<path class="st3" d="M314.7,382c0.1-0.2,0.5-0.1,0.4,0.2c-0.3-0.1-1.1,0-0.6-0.6L314.7,382z"/>
		<path class="st3" d="M314.7,382.9c-0.7,0.5,0-0.4-0.7-0.4C314.4,382.3,314.8,382.5,314.7,382.9z"/>
		<path class="st0" d="M296.8,382.2c0.2,0.9-0.8,1.4-1.4,1.6c0.3-0.9,1-0.9,1.2-1.4l0,0.1c0.2-0.2,0.2-0.4,0.1-0.4
			c-0.4-0.3-0.5,0.4-0.9,0.1c0.3-0.4-0.3-0.5,0.1-0.9c-0.5-0.3-0.9,0.6-1.2,0.7c0.2,0.1-0.1,1.4,0.8,1.9l-0.7,0.7
			c-0.6-0.4,0.2-0.9-0.4-1.5c0.1-0.8,0.5-1.9,1.5-2.2C296.5,381,296.8,381.5,296.8,382.2z"/>
		<path class="st4" d="M296.3,381.7c-0.2-0.1-0.4-0.3-0.1-0.5L296.3,381.7z"/>
		<path class="st0" d="M283.4,395.2c0.1,1.6-1.5,1.8-2.3,2.7c0.2-0.9-0.3-1.7,0.2-2.6c0.3-0.4,0.7-0.9,1.2-0.9
			C283.1,394.4,283.2,394.9,283.4,395.2z"/>
		<path class="st1" d="M283,395.4c-0.3,0.4-0.8,1.2-0.9,1.6c-0.6,0.5-0.6-0.9-0.7,0.1c-0.1-0.3,0.2-0.9-0.2-1.2
			c0.8,0,0.9-0.7,0.9-1.2C282.8,394.7,282.7,395.2,283,395.4z"/>
		<path class="st0" d="M276.7,402.2c-0.2,1-1,1.6-1.9,1.9c-0.5-0.4-0.3-1.2-0.2-1.9c0.5-0.3,0.6-0.9,1.3-0.9
			C276.4,401.4,276.6,401.8,276.7,402.2z"/>
		<path class="st1" d="M275.5,401.8c0.1,0.4,0.6-0.2,0.5,0.5l-0.2,0.1c0-0.2-0.4-0.5-0.2-0.6C275.6,401.6,275.5,401.7,275.5,401.8z"
			/>
		<path class="st1" d="M274.9,402.4c-0.1-0.1-0.1-0.5,0.1-0.4L274.9,402.4z"/>
		<path class="st1" d="M275.7,403.4c-0.2-1-0.7,0.7-1-0.2l0.4,0l0-0.1c0.3-0.4,0.7-0.1,0.9,0.1L275.7,403.4z"/>
		<path class="st0" d="M274.3,397.5c-0.2,0.6-0.9,1.7-1.6,1.1c-0.4-0.4-0.1-1.2,0.3-1.7c0.3-0.3,0.5-0.4,0.9-0.4
			C274.3,396.6,274.3,397.2,274.3,397.5z"/>
		<path class="st1" d="M273,397.4c0.2,0.4,0.6-0.1,0.9,0.1l-0.2,0.7c0-1-0.4,0.6-0.9,0c-0.2-0.3,0-0.6,0.3-1L273,397.4z"/>
	</g>
	<g>
		<path class="st0" d="M362.7,358.6l-0.5-0.2c-0.1-0.2,1.8-0.2,0.9-1c1.2-0.1,2.5-1,3.6-0.3c0.1-0.1,0.3-0.1,0.3-0.3l-0.5-0.1
			c0.7-0.5,1.2-1.3,2.2-1.2c0.2,0.1,0.5,0.2,0.4,0.5c-0.5,1.7-3.1,0.6-2.9,2.9c-0.5,0.7-1.7,1.3-2.5,1.3l-0.7,0.7
			c0.6-0.4-0.2-0.7-0.2-1l-0.5,0.3l0.2-0.5l-0.8-0.1C361.9,359.4,362.6,359.1,362.7,358.6z"/>
		<path class="st0" d="M353.1,359.9c0.6-0.1,0.7,0.4,0.7,0.8c-0.3,0.2-0.3,0.5-0.6,0.7c0-0.1-0.2-0.6-0.6-0.3c0.4,0,0,0.5-0.3,0.6
			l0.2-0.3c-0.3-0.2-0.5,0.1-0.8,0l0.2-0.3l-0.4-0.1C351.9,360.7,352.3,360.1,353.1,359.9z"/>
		<path class="st0" d="M350.1,363.8c0.2,0,0.2,0.3,0.3,0.4c-0.1,0.4-0.6,0.5-1,0.7c0.2-0.2,0.4-0.1,0.5-0.5l-0.3-0.3
			c-0.1,0.2-0.2,0.4-0.4,0.3C349.3,364.1,349.6,363.8,350.1,363.8z"/>
		<path class="st0" d="M399.1,348c-0.2-0.6-0.6,0.1-0.9,0c0.1-0.3,0.7-0.1,0.6-0.6c-0.2-0.1-0.7,0-0.9,0.3l-0.1,0
			c0.2-0.5,1.3-0.8,1.1-1.6c-0.2,0.1-0.5,0-0.4-0.3c0.6-0.4,0.5-1,1-1.5l-0.4,0c0.4-0.4,1-0.7,1.5-1.1c-0.7-0.3,0.8-0.6,0.4-1.1
			c0.5,0.2,1.1,0.1,1.1-0.3c0.8-0.1,2,0,2.4,0.8c0.5,0.2,0.2,0.5,0.5,1.1l-0.2,0c0.1,0.2-0.1,0.5,0.3,0.5c-0.2,0.2-0.4,0.6-0.4,0.9
			c0.2,0.3,0.1,0.9-0.2,0.9c-0.1,0.1,0,0.2,0.1,0.3c-0.2,0.1-0.3,0.2-0.3,0.4c-0.6,0.7-1.4,1.2-1.7,2.3l0.2-0.3l-0.3-0.2l-0.2,0.9
			c-0.1-0.3,0.2-0.9-0.2-1.1c-0.4,0-0.5,0.4-0.7,0.5l0.1-0.3c-0.4-0.1-0.6,0.6-1.1,0.6c0.1-0.7-0.4-0.8-0.9-0.8l-0.9,0.5
			C399,349,399.3,348.5,399.1,348z"/>
		<path class="st0" d="M352.8,341.9c0.5,0,1.1,0.3,1.1,0.6c0.2,0.2,0,0.4,0,0.5c0.4-0.1,1.1,0,1,0.7c-1,1.3-2.7,0.9-3.5,0.8l0.1-0.4
			l-0.4,0C351.4,343,351.9,342.3,352.8,341.9z"/>
		<path class="st0" d="M377.7,353.7l-0.3-0.1c0.4-0.5,0.3-1.6,1.3-2.1c0.6-0.3,1-0.2,1.7-0.3c0.8,0.7,0.6,1.4,0.4,2.2
			c-0.5,0.1-1.1,1-1.6,1.2l-0.1,0.2l0.1-0.4l-1.4,0.3C378,354.4,377.7,354.1,377.7,353.7z"/>
		<polygon class="st0" points="357.5,349 357.5,348.9 357.7,348.8 357.8,348.9 		"/>
		<path class="st0" d="M361.2,344.3c0,0.1,0,0.2,0,0.2c0-0.2-0.4-0.4-0.4-0.1C360.8,344.3,361.1,344,361.2,344.3z"/>
		<path class="st0" d="M364.4,343.1l-0.1-0.1c-0.1,0.1,0.3-0.4,0-0.5c0.6-1,1.8,0.5,2.2-1c0.7,0.2,1.4-0.4,1.9,0.2
			c0.4,0.6,0,1.2-0.4,1.6l-0.7,0.6c0-0.2-0.2-0.1-0.3,0l-0.3,0.2c0-0.6-0.6,0.1-0.9-0.1l0.1-0.1c-0.3-0.5-0.7,0.1-1.2-0.2l-0.3,0
			C364.2,343.6,364.4,343.3,364.4,343.1z"/>
		<path class="st0" d="M386.9,332.2c-0.3,0,0.3-0.4-0.1-0.4c0.4-0.2,0.1-0.6,0.3-0.8l-0.1,0c0.7-0.1-0.1-1.1,1.1-1.2
			c0.1-0.7,0.9,0,1.2-0.4c0.9,0.3,1.1,0.5,1.3,1.4c0,0.7-0.1,0.3-0.2,1.2l-0.1,0.4c-0.5-0.4-0.1,0.8-0.7,0.5
			c-0.2,0.2-0.3,0.5-0.6,0.6c0.1-0.1,0-0.2,0-0.3c-0.3-0.1-0.4,0.2-0.6,0.3l-0.1-0.3l-0.5,0.1c0.1-0.1,0-0.2,0-0.3l-0.3,0.1
			C386.8,332.7,387.6,332.3,386.9,332.2z"/>
		<polygon class="st0" points="390,335.4 389.4,335.9 389.7,335.6 		"/>
		<path class="st0" d="M410.8,337.8l-0.2-0.2c0.3-0.1,0.1-0.4,0.1-0.6c0.5-0.3,1.1-0.9,1.6-0.5l0.3,0.8c-0.3,0-0.3,0.5-0.5,0.8
			c-0.1-0.3-0.5,0.2-0.5,0.2l0-0.1c-0.4,0.1-0.5,0.1-0.9,0.1C410.9,338.2,410.9,337.9,410.8,337.8z"/>
		<polygon class="st0" points="411.2,338.1 411.2,338 411.5,337.8 411.5,337.9 		"/>
		<path class="st0" d="M425.3,353.6c0.5-0.3,1.3-0.3,1.2,0.4c-0.1,0.4-0.5,0.7-0.9,0.9C425.1,355,424.5,354,425.3,353.6z"/>
		<path class="st0" d="M418.1,338.6c0-0.3,0.3-0.6,0.6-0.8c0.2,0.1,0.5,0,0.4,0.4c-0.1,0.3-0.3,0.6-0.6,0.8
			c-0.2-0.1-0.5-0.1-0.3-0.4L418.1,338.6z"/>
		<path class="st0" d="M418.7,338.4l0.1,0c0.1-0.2-0.1,0.6-0.4,0.2C418.3,338.3,418.5,338.4,418.7,338.4z"/>
		<path class="st0" d="M431,336.7l-0.5,0.2c0.4-0.2,0.4-0.5,0.4-0.8c0-0.1-0.1-0.2-0.3-0.1c0.3-0.1,0.3-0.4,0.5-0.6l-0.4-0.2
			c1-0.5,2-2.2,3.4-1.5l0.8,1.3l-0.1,0c0.2,0.8-0.3,1.2-0.2,1.9l0.1,0.2l-0.6,0.1c0,0.4-0.2,0-0.4,0.2l-0.4,0.8
			c-0.1-0.1,0-0.2,0-0.3c-0.4-0.2-0.4,0.2-0.5,0.4c-0.1-0.4-0.6-0.3-1.3-0.5c0,0.1-0.1,0.2-0.2,0.3c0.2-0.1,0.1-0.3,0.2-0.5l0-0.1
			l-0.7,0.4C430.6,337.3,431.4,337.1,431,336.7z"/>
		<path class="st0" d="M424.1,324.3c0.1-0.3,0-0.4-0.2-0.5l-0.2,0c-0.1,0.1,0.2-0.3,0.4-0.2c0.1-0.3-0.3-0.5,0.2-0.7
			c0.1-0.4-0.4-0.2-0.6-0.4c0.4-0.3,0.6,0.1,0.9-0.4c-0.2-1,1.2-0.7,1.3-1.3c0.1-0.1,0.4-0.4,0.6-0.1c0.2-0.1,0.1-0.3,0.1-0.3
			c0.5-0.2,1.1,0.4,1.4,0.1c0.3-0.1,0.5,0.2,0.8,0.1c0,0,0.1,0.3,0.5,0.2c-0.3,0.7,0.9,0,0.5,0.7c0.1,0.3,0.5,0.1,0.6,0.1
			c-0.1,0.2-0.5,0.1-0.5,0.5c1,0,0,0.9,0.7,1.3c-0.3,0-0.4,0.3-0.3,0.5l0.1,0.1c-0.6,0-0.4,0.8-0.6,1c-0.1,0.3-1.2,0.1-1.1,1.1
			c-0.2,0.4-1-0.5-1.2,0.4l0,0.4c-0.4-0.1,0.2-0.7-0.4-0.7c-0.4,0.1-0.1,0.4-0.3,0.7c0-0.1,0.1-1.2-0.7-0.7c0,0-0.1,0.2-0.2,0.3
			c-0.1,0.1-0.2,0.3-0.2,0.3c0-0.3,0-0.6-0.1-0.8c-0.4-0.3-0.5,0.6-0.6,0.2c0.1-0.2,0.3-0.5,0-0.6l-0.8,0.1
			C424.5,325.2,423.8,324.7,424.1,324.3z"/>
		<path class="st0" d="M445.9,320.4c-0.1,0-0.1,0-0.2,0c-0.2-0.3,0-1-0.5-1.3c0.5-0.5-0.3-1.2,0.4-1.5c0.2-0.3-0.3-0.5,0.3-0.6
			c0-0.1,0-0.2-0.1-0.3c0.8-0.4,1.2-1.3,2.1-1.4c0.2-0.1,0.4-0.1,0.6,0c0.1,0,0.2,0,0.3,0c0.1,0,0.2-0.1,0.2-0.1c0,0,0,0,0.1,0.1
			c0,0,0,0.1,0,0.1c0,0,0.1,0,0.2,0.1c0,0,0.1,0.1,0.1,0.1c0.1,0.1,0.1,0.1,0.2,0.2c0.1,0.1,0.3,0.3,0.5,0.5l0.3,0.3
			c0.1,0.2,0.4,0.6,0.8,1c0,0.3-0.6,0.7-0.2,1c-0.6,0.2-0.1,0.7-0.2,1.1l-0.3,0l0,0.4c-0.1-0.1-0.1-0.3-0.3-0.2
			c-0.4,0.3-0.4,0.7-0.4,1.1c-0.1-0.1-0.2-0.1-0.1-0.3c-0.4-0.1-0.2,0.4-0.5,0.6l-0.1-0.1l-0.3,0.3l0-0.1c-0.5-0.1-0.5,0.4-0.7,0.7
			c-0.1-0.1,0.1-0.5-0.3-0.5l-0.6,0c0,0.1,0,0.2-0.1,0.3l-0.2-0.6c-0.5,0-0.2,0.7-0.6,0.7C446.6,321,445.7,321.1,445.9,320.4z"/>
	</g>
	<g>
		<path class="st0" d="M618.4,234.8c-0.1,0-0.2-0.2-0.3-0.1l0.4-0.5c-0.5-0.6,0.6-0.6,0.5-1.1c0.8-0.3,1.2-0.2,2,0.3
			c0.4,0.7,0.2,0.7,0.5,1.4c-0.5,0.2,0.4,1.4-0.7,1.3c-0.3,0.5-0.9,0-1.3,0.4c0.3-0.1-0.3-0.3-0.5-0.5l-0.4,0
			c0.3-0.4-0.1-0.7-0.5-0.9C618.4,235.2,618.4,234.9,618.4,234.8z"/>
		<path class="st0" d="M668.7,232.6l-0.2,0.1c0.2-0.2,0.3-0.5,0.4-0.7c-0.2-0.1-0.3-0.1-0.4,0l0,0.1c0-0.2,0.6-0.2,0.3-0.6l-0.1,0
			c0.8-0.2,0.7-1,1.4-1.2c0.3-0.9,1.3-0.4,1.8-0.7c0.1,0.3,0.5,0.3,0.7,0.4l0.6,1.5c-0.2,0.3-0.2,0.6-0.4,1.1c0.5,0,1.2,0.2,1.5,0.6
			c0.7,0.7-0.2,1.1-0.2,1.8c-0.5-0.1-0.8,0.3-1.1,0.7l-0.1,0.2c0.1-0.8-0.9-0.1-1.4-0.1l-0.3,0.1c0.1-0.2,0.4-0.3,0.3-0.5l-0.6,0.3
			c0.1-0.1,0.2-0.1,0.3-0.3l-0.3-0.2c0.2,0,0.1-0.2,0.2-0.3c0-0.1-0.2-0.1-0.3-0.2l0.2-0.3c-0.3-0.1-0.6-0.1-0.6-0.5
			c0,0-0.2,0.1-0.5,0.1c-0.2,0.1-0.5,0.1-0.5,0.1l0.2-0.3c-0.2-0.1-0.3-0.1-0.5,0l0,0.1l0.1-0.3l-0.7,0.2
			C668.6,233.3,669.4,232.8,668.7,232.6z"/>
		<path class="st0" d="M668.6,245.8c-0.1-0.2,0-0.2-0.1-0.5c0.3-0.2,0.7-0.5,1.1-0.3c0.3,0.2,0.4,0.5,0.3,0.9
			c-0.2,0.4-0.2,0.2-0.6,0.5c-0.4-0.1-0.8,0-0.9-0.4L668.6,245.8z"/>
		<path class="st0" d="M670.4,243.7c0.1,0.2,0,0.3,0,0.4c-0.2,0-0.4,0-0.4-0.3L670.4,243.7z"/>
		<path class="st0" d="M681.6,231.9c0.1,0.2,0.4,0.2,0.4,0.4c0,0.4-0.6,0.4-0.8,0.3C681.4,232.1,681.1,232,681.6,231.9z"/>
		<path class="st0" d="M678.8,215.3c0.1-0.1,0.3,0,0.4,0c0.3,0.2,0,0.6-0.1,0.8c-0.4,0.1-0.1-0.1-0.5-0.2
			C678.6,215.7,678.6,215.5,678.8,215.3z"/>
		<path class="st0" d="M698.9,243.9c0.3,0,0.5-0.2,0.8,0c0,0.2,0.1,0.5-0.1,0.7l-0.3,0.1c-0.3-0.1,0.4-0.5-0.2-0.5l-0.1,0.3
			C698.9,244.3,698.8,244.1,698.9,243.9z"/>
		<path class="st0" d="M693.9,230.9c-0.1-0.2-0.2-0.4-0.2-0.7c0.2-0.5,0.5-0.7,1-0.9c0.7,0.3,1.1,0.3,1.3,1c0.4,0.1-0.2,0.6,0.4,0.6
			c-0.2,0.2-0.6,0.4-0.2,0.7c0-0.3-0.5,0.1-0.6,0.2l0.1,0.1c-0.1,0-0.3-0.2-0.3,0c0.1,0.5-0.4,0-0.5,0.2c0-0.1,0-0.2-0.1-0.3
			c-0.1-0.1-0.2,0.1-0.3,0.1l0,0.1l0.1-0.2l-0.5-0.3l0-0.2c0,0-0.2,0-0.3,0C693.8,231.2,693.9,230.9,693.9,230.9z"/>
		<path class="st0" d="M696.3,232.6c0-0.2,0.6-0.2,0.3-0.6c0.1,0,0.2-0.2,0.2-0.3l-0.1-0.2c0.2,0.1,0.3,0,0.5-0.1
			c0.1-0.1-0.1-0.2-0.1-0.4c0.2,0.1,0.3,0,0.5,0.1l0.3-0.3c0,0.1,0.2,0.1,0.3,0.2c0.5-0.6,1,0,1.5-0.1c0.5-0.1,0.4,0.8,1.1,0.5
			c-0.5,1,0.9,0.9,0.4,2.1c-0.1,0-0.2,0.1-0.3,0.1c-0.3,0.2,0,0.5,0.2,0.6c-0.2,0.1-0.4,0-0.6,0c0.1,0.8-1.1,0.7-1.3,1.1
			c-0.1-0.3-0.5,0.2-0.7,0l-0.1,0.3l0-0.4c-0.2,0.2-0.4,0-0.4,0.4c-0.3-0.3-0.4-1-0.8-0.7c0.1-0.2,0-0.4-0.1-0.6
			C696.2,234.1,696.9,232.9,696.3,232.6z"/>
		<path class="st0" d="M709,232.1c0.1-0.4-0.6-0.2-0.7-0.2c0.1-0.2,0.1-0.4,0-0.6c-0.2-0.1-0.4,0.1-0.5,0.2c0.1-0.3,1-0.5,0.6-0.8
			l-0.3,0l0.4-0.5l-0.5-0.1c0.3-0.1,0.9-0.7,0.5-1.1l-0.5-0.2c0.1-0.1,0.2-0.1,0.3-0.1c0.4-0.4-0.6-0.6,0.2-0.8
			c-0.5-0.3-0.4-1.1-0.7-1.4c0.4-0.2,0.1-0.4,0.1-0.6c0.2-0.1,0.3-0.1,0.5-0.2c-0.3-0.4,0.4-0.1,0.4-0.5c0.4-0.2,1,0,1.2-0.6
			c0,0.7,0.8,0.2,1.1,0.4c0.6-0.7-0.5-0.5-0.3-1c0.6,0.1,0.5,1,1.4,0.3l0.1-0.5c0.3,0,0.7,0.3,0.8-0.3l0.7,0.1l0.3-0.4
			c0.1,0,0.1,0.3,0.3,0.2c0.2-0.1,0.1-0.3,0.1-0.4c0.2,0.3,0.5,0.4,0.9,0.2l0.2-0.4l0.6,0.5c0.6-0.8,0.4,0.5,1.1-0.2
			c-0.3,0.9,0.8,0.2,1.1,0.1c-0.1,0.2-0.4,0.5-0.2,0.7c0.2,0.6,0.6-0.3,1-0.4l-0.5,0.8c0.1,0.3,0.4,0.4,0.7,0.4l0.1-0.2
			c0.2,0.1-0.4,1.3,0.4,0.8c-0.1,0.1-0.1,0.2-0.1,0.3c0.1,0.4,0.6-0.1,0.8,0c-0.1,0.2-1.4,0.4-1,1.1l0.7,0.5l-0.9,0
			c-0.5,0.8-0.3,1.2-0.1,1.6c0.2,0.4,0.4,0.8-0.4,1.5c-0.3-0.4-0.9,0.2-1.2,0.5c-0.7,0.7,0.1,1-0.8,1.6c-0.3-0.7-1.7,0.2-2,0.8
			c-0.3,0.5,0.1,0.7-0.2,1c-0.3-0.1,0.1-1.1-0.7-0.9l-0.5,0.7c0.1-0.3-0.3-0.5-0.6-0.5l-0.3,0.5c-0.1-0.2,0.2-0.7-0.3-0.4l-0.5,0.5
			c-0.2-0.1,0.3-0.5-0.1-0.5c-0.2,0-0.7-0.1-0.8,0.3c-0.2,0.2,0.2-0.6-0.6-0.3l-0.4,0.3c0.1-0.3,0.5-0.7,0-0.9l-0.8,0.5
			c0.1-0.2,0.4-0.5,0.1-0.7l-0.8,0.3C708.6,232.8,709.2,232.5,709,232.1z"/>
		<path class="st0" d="M651.4,235.9c0.4-0.1,0.9-0.5,1.3,0.1c0.1,0.5,0.3,1.5-0.5,1.4l-0.1,0.3l-0.7-0.3c0.2-0.4-0.5-0.4-0.3-0.9
			C651.2,236.3,651.6,236.2,651.4,235.9z"/>
		<path class="st0" d="M654,236.2l0.5-0.4L654,236.2z"/>
		<polygon class="st0" points="655.4,235.2 654.8,235.7 654.7,235.6 654.6,235.7 654.5,235.5 		"/>
		<path class="st0" d="M656,234c-0.1,0.1-0.1,0-0.2,0c0.1-0.1,0.2-0.2,0.3-0.3l-0.5,0c0.3-0.2,0.4-0.5,0.5-0.9l-0.1-0.1
			c0.4-0.7,1.2-1.1,1.9-1.1c0.5,0.1,1.2,0.5,1.7,0.1c0.3,0.2-0.3,0.4,0.1,0.5c0.4,0.1,0.7,0.7,1.1,1c-0.4,0.5-0.2,0.8-0.1,1.3
			c-0.1,0.2-0.6,0.4-0.2,0.7l-0.4-0.2c-0.3,0.3,0.1,0.6,0.1,0.9l-0.6-0.2c-0.1,0.5-0.8,0.6-1,0.9c-0.6-0.4-0.9,0.5-1.1,0.9
			c-0.3-0.3,0.3-1.1-0.4-1.4c0,0.1,0,0.3-0.2,0.3c-0.6-0.3,0.3-0.9-0.3-1l-0.6,1C656.2,235.6,656.8,234.9,656,234z"/>
		<path class="st0" d="M655.7,235l0.3-0.3L655.7,235z"/>
		<polygon class="st0" points="660.7,237.3 660.6,237.3 660.5,237 		"/>
	</g>
</g>
</svg>
