<?xml version="1.0" encoding="utf-8"?>
<!-- Generator: Adobe Illustrator 23.0.3, SVG Export Plug-In . SVG Version: 6.00 Build 0)  -->
<svg version="1.1" id="obj_2_" xmlns="http://www.w3.org/2000/svg" xmlns:xlink="http://www.w3.org/1999/xlink" x="0px" y="0px"
	 viewBox="0 0 800 450" style="enable-background:new 0 0 800 450;" xml:space="preserve">
<style type="text/css">
	.st0{fill:#F13F33;}
	.st1{opacity:0.3;fill:#F13F33;}
	.st2{fill:#FF94B3;}
	.st3{opacity:0.3;fill:#FF94B3;}
	.st4{fill:#2252B2;}
	.st5{fill:#FBE7E7;}
	.st6{fill:#ABD2FF;}
	.st7{opacity:0.3;fill:#FBE7E7;}
</style>
<g>
	<g>
		<path class="st0" d="M363.8,185.4c0.6,0,1.1-0.2,1.6-0.3c-1.3,0.1-2.6,0.1-3.9,0.1C362.2,185.3,363,185.5,363.8,185.4z"/>
		<path class="st0" d="M386.3,175c-2.8,2.1-5.5,4.2-8.4,6.1c-1.7,1.1-3.4,2.4-5.4,3c-1.5,0.5-2.6-0.2-4,0c-1.1,0.2-2.1,0.6-3.2,1
			c5.3-0.2,10.4-0.9,15.6-2.1L386.3,175z"/>
		<path class="st0" d="M354.2,184.6c-1.6-0.2-3.2-0.5-4.8-0.4c-1.6,0.1-3.2,0.2-4.9-0.1c-1.5-0.3-3-0.7-4.6-0.7
			c-1.6,0-3.3,0.2-4.9,0.1c-3.2-0.2-6.5-0.1-9.7-0.6c-3-0.5-6.1-0.5-9-1.6c-3-1.1-6-1.3-9-2.1c-3.2-0.9-6.2-0.2-9.5,0
			c-6.4,0.3-12.5,2.5-18.8,3.3c-3.1,0.4-6,1.4-9,2.2c-3,0.8-6.1,1.7-9,3c-2.8,1.2-5.2,3.2-7.9,4.5c-2.4,1.2-4.3,3.1-6.5,4.6
			c-4.7,3.2-8.5,7.4-12.9,10.9c-2.2,1.7-3.4,4.3-5.5,6c-2.2,1.8-4.6,3.3-7.3,4.1c-0.8,0.2-1.6,0.4-2.4,0.6c1.7-1,3.3-2.3,4.7-3.9
			c3.8-4.3,6.6-9.6,9.2-14.7c4.9-9.6,5.9-20.3,1.7-30.4c-3.6-8.6-11.5-12.4-19.9-15.1c2.6,1.2,5.3,2.4,7.8,3.9
			c4.9,2.9,9.2,6.8,11.3,12.2c2.1,5.5,1.8,11.7-0.3,17.2c-2,5.3-6,10-11.3,12.1c-5.6,2.2-11.8,1.4-17.4-0.3
			c-12.7-3.9-24.4-11.6-38.2-10.5c-13.6,1.1-25.3,10.5-32.9,21.2c-9,12.7-12.5,28.4-10.1,43.8c2.8,17.5,12.4,32.9,23.7,46.3
			c10.2,12.1,21.5,23.2,32.1,34.9c8.3,9.3,16.5,18.5,25.9,26.8c9.5,8.3,19.5,16.1,29.9,23.3c10.4,7.1,21.5,12.6,33,17.7l-1-1.5
			c-2.2-1.1-4.5-2.3-6.6-3.5c-3.7-2.1-7.1-4.6-10.5-7.1c-3.9-2.9-8-5.6-11.6-8.9c-3.9-3.6-6.9-7.8-10.4-11.8
			c-3.6-4.2-7.7-7.6-11.8-11.1c-9.6-8-15.7-19.3-23.3-29.1c-7.5-9.7-17.8-19.6-19.6-32.3c-0.7-5.2-0.3-10.6-0.6-15.8
			c-0.3-5.2-0.8-10.5,1-15.5c1-2.8,2.4-5.5,3.8-8.1c1.1-1.1,2-2.5,2.7-3.7c2.4-4,4.2-8.2,6.5-12.2c0.6-1,1.3-2.1,2.1-3
			c0.9-0.9,2-1.6,3-2.4c1.6-1.3,3.6-2.5,5.4-3.3c2.1-1,4-2.2,6.3-2.8c2.4-0.6,4.6-1.5,7.1-1.9c1.4-0.2,2.8-0.3,4.1-0.6
			c0.7-0.1,1.5-0.2,2.1-0.4c0.5-0.2,0.9-0.6,1.4-0.8c1-0.5,2.4-0.9,3.3-1.7c0.8-0.8,1.5-1.8,2.6-2.3c-0.7,0.1-1.4,0.6-2,1
			c-0.7,0.4-1.5,0.7-2.2,1c-1.6,0.5-3.1,1.1-4.7,1.5c-1.7,0.4-3.1,0.9-4.9,0.9c-0.9,0-1.6,0.1-2.4,0.4c-0.4,0.1-0.9,0.4-1.3,0.4
			c-0.5,0-1-0.4-1.6-0.4c-2-0.2-3.7,0.2-5.5,1.2c-0.7,0.4-1.2,0.8-1.9,1.1c-0.7,0.3-1.4,0.7-2,1.1c-1.4,0.9-2.2,2.3-3.7,3.1
			c-1.3,0.7-2.6,1.3-3.7,2.3c-1.2,1.2-1.7,2.8-3,4c-0.5,0.5-1.6,1.5-2.4,1.2c0.3-1.4,0.7-2.7,1.3-4c4.3-9.8,16.7-13.8,26.2-15.9
			c1.5-0.3,3-0.8,4.4-1.3c1.3-0.2,2.5-0.4,3.7-0.6c4.4-1,8-3.2,11.2-6.2c3.2-3,6.1-6.1,9.4-9c4.6-4,9.5-7.7,14.8-10.8
			c5.7-3.3,11.9-5.6,18.1-7.6c6.6-2.1,13.2-4.2,20-5.3c6.7-1.1,13.1-0.5,19.7,0.7c7.4,1.4,14.7,2.4,22.2,2.7
			c9.2,0.4,18.5,0.8,27.7,0.8c0.1,0,0.3,0,0.4,0c-0.7-0.1-1.4-0.3-2.1-0.4C357.7,184.7,355.9,184.8,354.2,184.6z"/>
		<path class="st0" d="M242,382.7c3.5,2.1,6.9,4.4,9.8,7.3c1.4,1.4,2.6,2.8,4.1,4c1.8,1.5,3.8,2.6,5.9,3.7c4,2,8.2,3.2,12.6,4.1
			c4.5,0.9,9,2.1,13.6,2.3c4.9,0.2,9.9-0.3,14.4-2.6c2.3-1.2,4.6-2.3,7.2-2.8c3.5-0.7,7.3-0.6,10.7,0.2c5.9,1.4,10.5,5.7,13.5,10.8
			c1,1.7,1.9,3.9,0.8,5.8c-1,1.8-3.2,2.7-5.1,3.3c-2.4,0.7-4.9,0.6-7.4,0.7c-2.2,0.1-5.4,0-7,1.8c-3.2,3.3,4.2,7.6,6.5,8.8
			c-3.9-0.9-7.4-2.9-10.8-4.9c-1.7-1-3.7-1.5-5.5-2.3c-2-0.9-3.9-2.1-5.9-3c-0.8-0.4-1.7-0.5-2.4-1c-0.8-0.5-1.6-0.9-2.5-1.3
			c-1.7-0.9-3.5-1.7-5.3-2.5c-0.9-0.4-1.8-0.6-2.7-1.1c-1-0.6-1.9-1.3-2.9-1.8c-1.8-0.8-3.7-1.5-5.5-2.4c-1-0.5-2.1-0.7-2.9-1.4
			c-0.9-0.8-1.7-1.3-2.8-1.8c-1.5-0.7-3-1.4-4.4-2.2c-1-0.6-2.1-1-3.1-1.6c-3.1-1.8-5.9-4.1-8.8-6.3L242,382.7z"/>
		<g>
			<path class="st0" d="M123.5,242.7c-0.4,0.5-0.8,1.1-0.9,1.7c0.2,0.5,0.7,0.1,0.8-0.1c1.6,1,2,2.8,3.9,3.3
				c-0.2,0.2-0.5,0.3-0.6,0.6c0.8,1.2,0.8,2.6,1.3,3.8c-1,1,0.2,2-0.5,3.1l-0.6-0.1c-0.4,0.7-0.3,1.7-0.5,2.4c1,0.7,1.1,1.8,1.4,3
				c-0.2,0.6-0.5,1.6-0.6,2c0-0.3-0.1-0.5-0.4-0.6c-0.9,0.1-0.5,1.2-1.3,1.5c-0.6-0.7-0.3-2.1-1.7-1.9c0,1,1,2.2,0.6,2.9
				c0-0.5-0.3-0.9-0.6-1.2c-1.1,0.6-0.2,2-0.1,3c0,1.1,1.4,2,0.7,3.1c-2.2-2.7-4.3-5.6-5.5-8.9c-1.7-3.3-2.2-7.2-2.4-10.7
				c0.3-3.5,3.9-4,5.6-6.3C122.2,242.4,123.1,243.1,123.5,242.7z"/>
			<path class="st1" d="M118.7,249.3c0,0.3-0.5,0-0.3-0.2L118.7,249.3z"/>
			<path class="st1" d="M118.2,250.6c-0.5,0.4-0.6-0.4-0.7-0.7l0.4,0.4l0.5-0.7C118.5,250,117.9,250.3,118.2,250.6z"/>
			<path class="st1" d="M118.7,250.2l-0.2,0.1C118.6,250.2,118.6,250,118.7,250.2z"/>
			<path class="st1" d="M118.8,251.2l0.2,0L118.8,251.2z"/>
			<path class="st1" d="M119.1,252c0.1,0,0,0.2-0.1,0.3C119,252.1,118.9,252,119.1,252z"/>
			<path class="st1" d="M118.4,252.4c-0.2,0.1-0.4-0.2-0.3-0.3C118.4,252.1,118.4,252.2,118.4,252.4z"/>
			<polygon class="st1" points="117.3,252.7 117.1,252.3 117.3,252.3 			"/>
			<path class="st1" d="M119.8,255l0,0.3L119.8,255z"/>
			<path class="st1" d="M119.5,255.5c0,0.5,0.2,0.3-0.2,0.9c0.5-0.4-0.4-0.9,0.2-1C119.5,255.5,119.5,255.5,119.5,255.5z"/>
			<polygon class="st1" points="120.3,255.9 120.3,255.6 120.4,255.8 			"/>
			<path class="st1" d="M119.7,255.7l0.4,0.2L119.7,255.7z"/>
			<path class="st1" d="M117.7,256l0.4,0.1L117.7,256z"/>
			<path class="st0" d="M137.4,261.2c0.9,2-0.2,3.5,0,5.7c-0.9,0-1.4-1-2.1,0.1c-0.3,0.3,0.3,0.3,0.2,0.6c-0.4-0.5-0.9,0.4-1.4,0.6
				c0.1,0.5,0.4,1.1,0.3,1.5c-0.7,0.1-1.4-1.8-1.8-0.3l0.3,1c-1,0-0.2-1.9-1.5-2l-0.6,1.2c-0.2-0.4,0.4-1.4-0.4-1.4
				c-0.9,0-0.1,0.8-0.8,1c-0.6-0.7,0.6-2.6-0.9-2.4c-0.6,0,0,1.2-0.6,0.5c0.9-1.2-0.7-1.9,0.3-3.1c1.2-0.9-0.2-2.3,1.6-2.8
				c0-1,1.3-0.7,1.8-1.1c1.8,1.8,2.2-1,4.2-0.1C136.7,260,137,260.8,137.4,261.2z"/>
			<polygon class="st1" points="130.6,262.7 130.8,262.7 130.8,263.1 130.7,263.1 			"/>
			<path class="st1" d="M129.3,263.7c-0.2,0.1-0.1-0.1-0.1-0.2C129.3,263.5,129.2,263.6,129.3,263.7z"/>
			<polygon class="st1" points="130,263.9 130,263.7 130.3,263.9 			"/>
			<path class="st1" d="M130.3,264.2c-0.1,0.2-0.2,0.1-0.3,0C130.2,264.2,130.3,264.1,130.3,264.2z"/>
			<path class="st1" d="M129.9,265.2c-0.4,0.8-0.4-0.4-1.1-0.4c0.3,0.2,0.5-0.2,0.4-0.5C129.3,264.5,129.6,265.1,129.9,265.2z"/>
			<path class="st1" d="M136,264.1c-0.2-0.3-0.3,0-0.5,0C135.8,263.7,135.9,263.7,136,264.1z"/>
			<path class="st1" d="M128.9,264.4c0,0.1,0,0.2,0,0.2C128.8,264.5,128.8,264.4,128.9,264.4z"/>
			<polygon class="st1" points="128.4,264.9 128.5,264.6 128.5,264.9 			"/>
			<path class="st1" d="M130.7,264.9c-0.1-0.1-0.6-0.1-0.3-0.3C130.4,264.8,130.5,264.6,130.7,264.9z"/>
			<path class="st1" d="M135.6,264.3l0.1,0.2L135.6,264.3z"/>
			<polygon class="st1" points="130.4,265.5 130.4,265.1 130.5,265.3 			"/>
			<path class="st1" d="M135.8,265.3c-0.5-0.6-0.1,0.6-0.5-0.1C135.5,264.8,135.7,265.2,135.8,265.3z"/>
			<path class="st1" d="M129.7,265.8c0.2,0.3,0.4,0.4,0.7,0.3c-0.5-0.1-1.1,0.2-1.2-0.2C129.4,266,129.4,266,129.7,265.8z"/>
			<polygon class="st1" points="128.6,266.3 128.7,266 128.7,266.3 			"/>
			<polygon class="st1" points="135.1,265.7 135.2,265.7 135.2,266.5 135.2,266.5 			"/>
			<path class="st1" d="M130.5,267.1c-0.4,0-0.2,0-0.6-0.1l0.3,0.5l-0.1-0.1l-0.1,0.4c-0.4-0.6,0-1,0.4-1.5
				C130.2,266.8,130.6,267,130.5,267.1z"/>
		</g>
	</g>
	<path class="st2" d="M307.8,422.8c-24.6-12.5-50.9-24.5-69.3-45.8c-14.5-16.7-25.3-41.8-10.8-61.8c9.8-13.6,36.8-28.4,29-48.6
		c-4.3-11.2-17.5-16.3-28.5-17.5c-14.4-1.6-29.8,2.5-41,11.9c-19.4,16.3-19.1,43.5-9.2,65c7.5,16.1,20.6,26.8,34.3,37.5
		c14.6,11.5,27.9,25,43.3,35.3c16.1,10.8,34.5,16.6,51.4,25.7c6.3,3.4,12.1,7.7,18.3,11.3c9,5.3,18.3,9.9,27.7,14.3h12.5
		C345.8,442,326.9,432.5,307.8,422.8z"/>
	<g>
		<path class="st2" d="M166.5,278.4c0.1,0.6-0.1,1.2-0.4,1.6c-0.5-0.1-1-0.3-1-0.8c0.1-0.4,0.1-0.8,0.4-1.1
			C165.9,277.9,166.3,278.1,166.5,278.4z"/>
		<path class="st3" d="M165.4,278.5l0,0.4L165.4,278.5z"/>
		<path class="st3" d="M166.4,279L166.4,279c-0.1,0.2-0.3,0.5-0.4,0.7c-0.3,0.1-0.4-0.5-0.5-0.2c-0.2-0.2,0.2-0.6,0.3-1
			c0.1,0,0.3,0.1,0.4,0l-0.1-0.2C166.3,278.3,166.2,278.8,166.4,279z"/>
		<path class="st2" d="M160.7,292.7c0.3,1,0.7,2.2,0.3,3.2c-0.3,0.8-1.1,1.2-1.9,1.4c-0.2-0.7-1.2-0.7-1.5-1.4
			c-0.4-0.7-0.2-1.5,0-2.3c0.6-0.7,1.2-2.1,2.4-1.6L160.7,292.7z"/>
		<path class="st3" d="M159.1,294.1c-0.1,0.2-0.4,0.2-0.2,0.4C158.7,294.2,158.8,294.1,159.1,294.1z"/>
		<path class="st3" d="M159.2,295.1l0.2,0.2L159.2,295.1z"/>
	</g>
	<g>
		<path class="st4" d="M216.3,352.3c-1.2-8.6-3.1-18.3,0.3-26.6c3.1-7.7,10.2-13.1,15.4-19.4c5.1-6.2,9.1-13.4,12.6-20.6
			c2.1-4.3,4.1-8.9,4.5-13.8c0.3-3.5-0.5-7.4-4-9.1c-3.5-1.7-7.9-0.7-11.5,0.4c-4.3,1.3-8.3,3.3-12.2,5.4c-7.5,4.2-14.1,9.5-20,15.8
			c-2.9,3.1-5.8,6.3-8.8,9.3c-3.3,3.3-6.9,6.5-9.8,10.2c-1.4,1.7-3.8,5.1-0.2,5.8c1.9,0.4,4,0.1,5.8-0.1c2.5-0.3,5-0.6,7.5-0.8
			c2.9-0.2,8-0.6,9,3c0.9,3.3-0.9,7.3-1.4,10.5c-0.6,3.9,0.3,7.3,2.2,10.8c2.5,4.5,5.1,8.8,7.1,13.5c1.1,2.8,2.2,5.6,3.2,8.4
			L216.3,352.3z"/>
		<path class="st5" d="M223,361.7c-3.2-5-6.5-10.1-8-16c-1.3-5.2-1.5-10.9-0.8-16.2c0.8-6,3.5-11,7.8-15.2
			c3.9-3.9,8.5-7.2,11.7-11.8c3.3-4.7,5.7-10.1,8.3-15.2c1.6-3.2,3.2-6.5,4.3-10c0.9-2.8,1.6-6.1,0.6-8.9c-1.9-6-9.6-4.3-14-2.8
			c-5.2,1.7-10.4,4-15.3,6.5c-5.9,3-10.3,8-14.5,13c-5.6,6.7-11.1,13.7-17.6,19.6c-1.3,1.2-2.7,2.4-4.1,3.6c3-0.8,6-1.5,9.2-1.7
			c3.5-0.3,6.9-0.2,10.3-0.7c2.1-0.4,8.2-1.7,8.3,2c0,1.5-1,2.9-1.7,4.2c-0.8,1.5-1.3,3-1.7,4.6c-0.4,1.7-0.8,3.3-1.7,4.8
			c-0.7,1.3-1.8,2.4-2.4,3.8c-0.6,1.5-0.3,3.1,0.1,4.6c0.5,2,1.1,4,1.7,5.9c1,3.5,1.9,7,3.7,10.1c1.4,2.4,2.9,4.9,4.7,7
			c1.9,2.5,4.5,4.3,6.6,6.6c2.3,2.5,4.6,4.7,7.3,6.9L223,361.7z"/>
		<g>
			<path class="st4" d="M310.7,419.8c-8.3-6.6-17.6-11-27.7-13.8c-9.7-2.6-19.6-4.3-28.2-10c-1.3-0.8-2.5-1.7-3.7-2.7
				c2.6,2.4,5.3,4.6,8.3,6.4c8.8,5.4,19.1,7.1,28.8,10.3c9.8,3.2,18.3,8.4,26,15.2c3.2,2.9,6.3,5.9,9.7,8.5
				c3.2,2.5,6.7,4.6,10.4,6.3c4.6,2.1,9.3,3.8,13.9,5.7c3.2,1.3,6.4,2.7,9.6,4.2h2.2c-9.5-3.2-19-6.6-27.4-12.1
				C324.6,432.7,318.1,425.7,310.7,419.8z"/>
			<path class="st4" d="M215.4,347.7c-2.4-5.3-4-11.1-3.1-17c0.9-5.9,4-11.2,7.4-16c4.1-5.7,8.7-11.1,12.7-16.9
				c3.2-4.7,6.8-10,7.5-15.7c0.5-3.9-0.9-7.4-5-8.4c-5.1-1.2-10.9,1.2-15.3,3.5c-5.8,3-11.1,7.1-15.4,12c-2.4,2.7-6,6.8-5.9,10.6
				c0.1,2.7,3,2.6,5,2.1c3.1-0.8,6-2.6,8.8-4.1c0.9-0.5,3.9-2.6,4.4-0.8c0.3,1-0.2,2.4-0.4,3.4c-0.5,2.1-1.1,4.2-1.7,6.3
				c-1.7,6-3.2,12.1-4.2,18.3c-1.7,11.5-1.1,23.7,6.1,33.3c3,3.9,6.6,7.2,10.3,10.5c2.2,2,4.5,4.1,6.6,6.2c-2.3-2.8-4.4-5.7-6.5-8.6
				C222.5,360.5,218.4,354.3,215.4,347.7z"/>
			<path class="st4" d="M237.6,379.2c-1.4-1.5-2.8-2.9-4.3-4.3c2.5,3,5,6,7.6,8.9c3.1,3.4,6.4,6.6,10.1,9.5
				C246.3,388.9,242.1,383.9,237.6,379.2z"/>
		</g>
	</g>
</g>
<g>
	<path class="st6" d="M427.7,168c-14.2-5-28.4-10-42.4-15.8c-9.3-3.8-18.4-8.3-27.9-11.7c-12.2-4.4-24.9-7-37.6-9.8
		c-16.9-3.7-34-7.1-50.3-13c-11.8-4.2-22-10.1-30-19.9c-3.7-4.5-7-9.2-11-13.5c-5.5-5.9-11.9-10.9-18.9-15
		c-23.7-14.1-52.3-20.3-79.5-22.8c-33.3-3-69.5-0.3-99.5,15.8C18.8,68.8,8.2,77.5,0,88.2v266.4c6.8,8.1,15.2,15.2,22.7,22.5
		c12.4,12.1,23.7,25,34.1,38.8c8.6,11.3,16.2,23.8,26.2,34h156.2h89.3h44.1c-13.9-3.9-27.8-7.9-41.4-12.8
		c-11.2-4-22.1-8.7-32.6-14.4c-8.1-4.4-16.2-8.9-24.4-13.2c-19.9-10.4-39.8-21.1-56.1-36.8c-5.8-5.6-11.3-11.6-17.5-16.9
		c-7.7-6.5-16.1-12.1-24.2-18.1c-9.6-7.2-18.8-14.9-27-23.7c-7.9-8.5-14.9-17.8-21.7-27.2c-13-18-29.4-38.1-28.4-61.6
		c1.2-31.3,28.9-55.2,57.2-63.2c24.4-6.9,50.7-5.3,75.6-2.5c35.3,4,70.2,11.1,105.1,17.5c31.4,5.7,63,11.5,95,13.5
		c19.6,1.3,38.7,0.1,58.1-2.7L427.7,168z"/>
	<g>
		<path class="st6" d="M635.1,134.2c-2.2,1.3-4.5,2.5-6.7,3.6C630.8,136.9,633.1,135.8,635.1,134.2z"/>
		<path class="st6" d="M682.5,10.5c0.5,6.6,1.7,12.8,3,19.2c1.3,6.2,3.7,11.4,3.4,17.9c-0.1,2.8-0.3,5.7-0.9,8.4
			c-0.7,2.9-2.2,5.5-3.1,8.4c-0.9,2.8-0.7,5.2,0.9,7.8c1.3,2.1,2.5,3.8,1.8,6.4c-0.8,2.8-2.8,5.3-4.2,7.8c-1.5,2.4-2.9,4.9-4.7,7.1
			c-4.2,4.9-9.5,9.4-14.5,13.5c-4.2,3.4-8.3,5.6-11.2,10.2c-1.4,2.3-2.9,4.4-4.9,6.3c-2.1,1.9-4.5,3.5-6.6,5.3
			c-2,1.7-3.8,3.7-5.9,5.4c-0.1,0.1-0.2,0.1-0.3,0.2c3.3-1.9,6.6-3.9,9.7-6.3c4.6-3.6,8.8-7.6,13.3-11.3
			c9.6-7.9,19.5-15.1,26.8-25.3c7.6-10.7,14.1-22.6,19.7-34.5c5.9-12.4,10.2-25.8,9.5-39.8c-0.3-6.1-1.5-11.7-3.5-17.1h-33
			C680.1,3.1,682.2,6.3,682.5,10.5z"/>
	</g>
</g>
<g>
	<path class="st5" d="M263,150c-8.9-0.6-17.8-2-26.7-3.3c-4.4-0.7-8.7-1.9-13-2.8c-4.4-0.9-8.7-1.1-13.2-1.2
		c-4.4-0.1-8.7-0.6-13.1-1.2c-4.5-0.6-9-0.5-13.6-0.9c-4.6-0.4-8.5-1.9-12.6-3.9c-3.7-1.9-7.4-3.2-11.6-2.6
		c-4.1,0.6-7.6,2.6-11.1,4.7c-3.1,1.9-6.3,3.6-10,2.6c-4.2-1.1-7.1-4.6-10.6-7c-3.7-2.5-7.5-2.5-11.8-1.7c-4.4,0.7-9.2,1.4-13.4,3.1
		c-3.7,1.5-6.3,4.5-8.6,7.7c-2.5,3.5-4.7,7.3-5.5,11.6c-0.8,4.3-0.7,8.7-2.4,12.8c-1.8,4.2-5.4,7.6-6.6,12.1
		c-1.2,4.1-0.2,8.6-0.3,12.8c-0.1,5.1-0.5,10,0.2,15.1c0.7,5.1,2,10.1,3.1,15.2c-2.8-7.3-6-14.6-7.4-22.4c-1.5-7.9-2-15.9-3.3-23.8
		c-1.3-8.2-1.6-15.7,0.8-23.7c2.6-8.9,6.1-18,11.9-25.3c5.9-7.5,14-12,23.7-12.4c8.8-0.3,18.1,0.6,26.8,2.1
		c8.6,1.5,16.6,3.7,25.5,3.3c3.9-0.2,8-0.8,11.9-0.4c3.1,0.3,5.6,1.6,8.1,3.2c3.6,2.4,7.3,4.4,11.4,5.9c4.1,1.5,8.3,2.7,12.2,4.5
		c3.4,1.6,6.5,3.4,10.1,4.4c6.6,1.7,13.6,1.8,20.4,2.2L263,150z"/>
	<path class="st5" d="M61.2,266c-3-4.3-5.8-8.6-8.8-12.8c-2.7-3.9-5.4-8.2-8.8-11.7c-3.4-3.5-7.9-5-12-7.5
		c-4.6-2.8-6.3-6.9-8.1-11.8c-3.4-9.2-9.4-17.3-14-25.8c-2.2-4-4.7-8.5-2.7-13.1c1.5-3.5,4.8-6.1,7.6-8.5c2.9-2.4,6.8-5,8.3-8.6
		c2.1-4.7-5-2.1-6.9-1.4c-1.5,0.5-3.8,1.8-5.4,1.3c-1.7-0.5-1.6-2.7-1.6-4.1c0-5,0.5-10.4,1.2-15.3c0.7-5,2.7-9.4,5.3-13.7
		c2.4-3.9,3.7-7.7,4.9-12.1c1.6-5.7,4.7-8.7,9.9-11.2c2.1-1,4.1-2.1,5.7-3.8c1.5-1.7,2.5-3.7,3.9-5.4c2.8-3.6,7.1-5.1,10.7-7.7
		c4.2-3.1,7.8-5.1,13.1-6.1c-1-2.9-2.1-7.1-5.4-8.2c-3.2-1-6.7,1.2-9.4,2.6c-3.5,1.8-7,3.3-10.8,4.3c-4.1,1.1-8.2,1.9-12,3.6
		c-4,1.7-7.6,4-11.4,6.1c-4,2.2-8.2,4-11.8,6.8c-1.1,0.8-2,1.8-2.8,2.8v121.9c10.9,9.6,22.1,18.7,32.4,29.1
		c9,9.1,16.7,19.3,27.4,26.6c3.2,2.2,6.5,4.2,9.3,7c5.1,5,10.1,10,15.2,15l-4-7.3C73.2,286.8,68.1,275.9,61.2,266z"/>
</g>
<path class="st4" d="M173.9,340.3c-10-9.2-18.7-18.4-28.5-28.2c0.4,0.8,1,1.7,1.8,2.6C155.3,323.3,164.2,331.9,173.9,340.3z"/>
<path class="st4" d="M79.8,229.1c-3.2-6.5-5.6-12.7-8.1-18.8C73.7,216.2,76.3,222.4,79.8,229.1z"/>
<path class="st4" d="M173.9,340.3c7.9,7.2,16.7,14.5,27.5,22C191.6,355.1,182.5,347.8,173.9,340.3z"/>
<path class="st4" d="M66.1,196.8c2,4.5,3.8,9,5.5,13.5c-1.3-3.9-2.4-7.7-3.3-11.4C67.6,198.2,66.9,197.5,66.1,196.8z"/>
<path class="st4" d="M161.3,131.8c-2.6-0.6-5.1-1.1-7.6-1.5C156.7,131.2,159,131.5,161.3,131.8z"/>
<path class="st4" d="M722.2,33.8c-0.2-0.3-0.4-0.5-0.6-0.8c-3,18.1-9.9,37.7-27.4,60.2c-14.5,15.9-30.2,31.8-51.2,44.7
	c-34.6,19.4-73.1,33.3-115.9,36.5c-42.8,2.1-85.2-2.1-127.1-9.6c-27-4.5-51-9.9-75.3-16.3c-30.8-6.9-61.8-17-88.3-25.2
	c-59.3-19-104.9-39.3-139.1-44.2c-33.9-5.3-56.3,4.8-61.2,38.4c-5.3,41.9,16.6,113.8,80.7,185.2C167.2,359.6,244.9,416,344,450h0.8
	c-96.6-33.3-172.6-87.8-224.4-144.1c1.4,0.9,2.7,1.8,4.1,2.7c-52-56.1-77.6-114.2-82.8-154c-5.1-40.1,9.5-62.3,38.7-63.5
	c2.2-0.3,4.7-0.4,7.6-0.1c5.7,0.5,10.6,1.6,16.2,1.9c19.6,3.7,38,7.4,64.3,16.1c0.7,1.1,1.4,2.1,2.1,3.2c6.8,3.2,11.5,3.3,18.9,5.4
	c3.4,1.4,2.8,2.2,2.1,3c-52.4-13.4-97-29.8-114-9.5c3-2.7,5.3-4.6,11-4.2c-20.9,7.7-34.4,23.8-26.5,60.9c1.6,7.6,2.7,14.8,4.2,22.1
	c0.2-0.2,0.3-0.4,0.5-0.6c0.5,3.1,1.1,6.4,2,9.8c-0.3-0.4-0.6-0.9-0.8-1.3c0.1,0.4,0.2,0.7,0.3,1.1c0.2,0.2,0.4,0.4,0.7,0.6
	c3.3,12.6,9.4,27,18.1,42.4c2.8,4.4,5.9,9,9.5,13.8c-2.7-3.4-5.1-6.7-7.2-9.9c27.7,47.2,79.2,102.7,148.3,144.9
	c-77-50.1-138-118.4-156-169.1c14.3,33.7,44.7,73.9,80.7,109.7c-2.4-4.2-11.1-11.3-15.2-16.5C94.9,259.8,73.7,204,74.4,170.9
	c1.1-39.2,29.5-49.9,79.4-40.7c-0.9-0.3-1.9-0.7-3-1.1c4.2,0.8,8.6,1.8,13,2.8c-0.8-0.1-1.6-0.2-2.4-0.2c5.7,1.2,11.7,2.7,17.9,4.4
	c-0.5-0.2-1.1-0.5-1.6-0.7c45.4,11.9,103.6,32.1,172.5,45.5c48,9.6,94.9,19.5,147,21.3c73.4,2.8,142.8-23.7,190-60.4
	c48.1-36.6,74.1-83.4,81-118.4c1.2-8.7,1.6-16.5,1.2-23.6h-50.1C723.5,9,724.8,20,722.2,33.8z"/>
<path class="st4" d="M68.1,197.8c-0.6-2.7-1.2-5.4-1.7-8C65.4,191,64.9,192.8,68.1,197.8z"/>
<path class="st4" d="M79.8,229.1c2.6,5.3,5.7,10.8,9.6,16.7c-0.8-1.3-1.5-2.6-2.3-3.9C84.3,237.4,81.9,233.2,79.8,229.1z"/>
<path class="st4" d="M65.1,99.4c4.4-3.7,8.5-7,14.8-8.1C73.2,91.9,66.8,92.8,65.1,99.4z"/>
<path class="st4" d="M81.6,91c-0.4,0-0.7,0-1.1,0c-0.2,0-0.4,0.1-0.7,0.1C80.4,91.2,81,91.1,81.6,91z"/>
<g>
	<path class="st0" d="M227.3,441.4c-12.5,1.2-3.8,0-6-2.4c0-0.2-7.5-1.5-8.1-2.3c0.6-2.2-5.9-3.3-13-7.4
		c-14.5-7.4,0.2-3.3-22.7-13.9c-2.2-0.8-26-15.3-26.4-15.8c-5.5-6-31.2-22-10-14.1c-15.8-10.1-19.6-14.9-19.5-17.2
		c-0.1-2.5,3.6-2.5-2.2-8.5c-11.9-12.6,11,0.3,31.7,12.5c2.9,1.3-0.2-1.9,7,3.1c7.3,5.2-15.4-13.9-12.3-12.7
		c5.3,4.3,10.5,8.6,15.7,12.9c1.1,0.6,3.3,1.7,4.4,2.4c1.2,0.7,6.5,5.1,11.8,9.5c10.6,8.8,21,17.3,28.8,23.4
		c8.7,6.5,15.7,12.1,20.7,16.2c-8.1-7.4-17.5-16.3-28.2-27.2c-7.7-7.2-15.3-14.4-21.6-20.5c-4.3-4.4-8.6-8.9-12.9-13.5
		c-16.9-16.5-35.1-33.8-46.4-45c-40-37.9-80.4-81-118.2-118.5v93c13.5,14.2,28.7,29.5,43.6,43.4c10.3,8.9,17.3,15.6,25.3,22.7
		c3.1,2.7,6.1,5.3,9,7.7c31.3,26.1,54.9,45.4,83.4,66.8c6.2,4.6,12.7,9.4,19.3,14.2h43.5C222,447,229.2,440.2,227.3,441.4z"/>
	<g>
		<g>
			<g>
				<path class="st2" d="M85.8,343.7c-4.8-6.5-9.5-13.2-13.1-20.4c-3.1-6.1-7.1-13.3-8.4-20.1c-0.8-4,0.2-8.2-0.3-12.2
					c-0.4-3.8-1.8-8-3.2-11.5c-3.2-8.1-10.5-15.4-17-20.8c-6.9-5.8-13.3-11.7-19.2-18.6c-5.4-6.4-10.9-12.4-17.2-18
					c-2.7-2.4-5-5.1-7.4-7.8v33.5c2,1.4,4.1,2.7,6.2,3.8c6,3,12.1,6.6,17.6,10.6c5.9,4.3,13.1,6,18.2,11.2c2.7,2.7,4.9,5.7,7.4,8.4
					c1.3,1.4,2.2,3.2,3.5,4.7c1.1,1.3,2.4,2,3.3,3.5c2.7,4.3,2.5,7.8,2.7,12.6c0.1,2.4-1.2,4.8-0.9,7.1c0.2,1.6,1.2,4.1,1.7,5.6
					c2.3,6.4,7.8,10.5,11.9,15.7c5.4,6.9,11.2,13,17.2,19.4c5.2,5.6,8.8,12.7,13.7,18.5c2.1,2.5,3.8,5.2,6.3,7.3
					c1.9,1.6,4.7,2.9,6.8,4.7c-5.2-5.6-10.5-11.2-15.4-17.1C95,357.4,90.7,350.4,85.8,343.7z"/>
				<path class="st2" d="M115.7,381c0.6,0.7,1.3,1.4,1.9,2.1C117.1,382.3,116.4,381.7,115.7,381z"/>
			</g>
			<path class="st5" d="M214.1,444.6c-2.8-1.8-6.1-1.7-9.2-2c-3.3-0.3-7.2-0.8-9.1-3.8c-1.5-2.4-1.1-5.6-1.8-8.2
				c-0.9-3.1-3.1-6-6.4-6.9c-2.9-0.8-5.2,0.5-7.8,1.5c-13.4,5-24.8-9.8-33.1-17.9c-4-3.9-8.8-6.6-13-10.2
				c-4.9-4.2-9.1-9.2-13.6-13.8c1.6,1.7,2.8,3.4,4.2,5.2c1.8,2.3,3.9,4.1,5.8,6.2c3.5,4,7.7,7.2,11.4,11c6.8,7,13.3,14.8,21.5,20.3
				c6.5,4.4,12.9,8.9,19.6,13c6,3.6,12.4,7,18.1,10.9H219C217.6,448,216.1,445.9,214.1,444.6z"/>
		</g>
		<g>
			<path class="st2" d="M2.9,279.2c0.4-0.4,1-0.1,1.5-0.6c0.4-0.8,0.8-1.8,1-2.8c-0.1-1.3-0.6-2.8-1.9-3.3c-1.4-0.2-2.9,0.7-2.8,2.1
				c-0.6,1.5,0.6,2.7,1.2,3.8C2.4,278.4,2.5,279,2.9,279.2z"/>
			<path class="st2" d="M11.1,259.7c0.3,0.1,0.4,0.4,0.5,0.6l-0.1-0.3c-0.1-0.3-0.5-0.5-0.8-0.4c0,0,0,0-0.1,0.1
				C11.1,259.8,10.7,260,11.1,259.7z"/>
			<path class="st2" d="M10.5,259.7c-0.3,0.3-0.3,0.7-0.3,1c0,0.1,0.1,0.3,0.1,0.4C10.4,260.6,10.1,260.2,10.5,259.7z"/>
			<path class="st2" d="M31.9,259c-0.6-0.7-1.3-0.4-2.1-0.5c-0.5,0.5-1.1,0.4-1.7,0.9c-0.3,0.7-1.5,1.1-1.3,2.1
				c0.4,0.7,0.4,1.6,0.6,2.5c-0.1,0.6-0.5,1.3-0.9,1.7c0,1.1,1,1.9,1.7,2.8c0.7,0.8-0.8,1.6,0.2,2.4c0.5,0.2,0.4-0.3,0.7-0.6
				c-0.2-0.5,0.2-0.8,0-1.3c1.4-0.7,2-2.4,3-3.2c0.7-1.2,0.9-2.7,0.8-4C32.9,260.9,33,259.3,31.9,259z"/>
			<path class="st2" d="M11.1,261.6c0.2-0.4,0.4-0.7,0.4-1.1c0,0.3-0.2,0.6-0.3,0.9c-0.4,0.3-0.3-0.4-0.8-0.3
				C10.6,261.4,10.9,261.6,11.1,261.6z"/>
			<path class="st2" d="M8.6,273.4c-0.3,0.4-0.3,1-0.2,1.5c0.2,0.5,0.9,1.1,1.3,1c0.3-0.8,0.6-1.7,0.2-2.5c0.3,0.1,0.5,0.5,0.6,0.7
				c0.2,0.1,0.6,0.5,0.7,0c-0.1-0.8,0-1.3,0.5-1.9c0.5-0.4,0.6,0.4,1,0.5c0.8-0.1,0.8-1.2,1.2-1.7c0.2-1.2-0.1-2.3-1.1-2.9
				c0.6,0,0.2-0.8,0.7-0.6c0.1,0.4-0.3,1,0.2,1.2c-0.1-0.5,0.2-1.4,0.9-1.1c0.2,0.3,0.1,0.8,0.3,1l-0.1-1.3c0.8,0,0.2,1.2,0.6,1.5
				c0.2-0.3,0.2-0.7,0.2-1c0.7-0.4,0.6-1.2,1.4-1.4c0.3-2-1.8-3.4-1.9-5.3c1.1-0.7,1.4-2.3,1.2-3.7c0.5-0.8-0.2-1.4-0.5-2.2
				c-0.6-0.7-1.6-1.1-2.6-0.8c-0.2,0.4-1,0.8-0.8,1.4c-1,1.4,0.3,2.7,0.2,4.2c0.4,0,0.2-0.5,0.7-0.5c0,0.7,0.4,1.5,0.9,2.1
				c0.4,0,0-0.7,0.1-0.8c0.6,0.2,0.5,0.9,0.5,1.4c-0.4-0.2-1.2-0.5-1.5-0.1c-0.8,0.2-0.9,1.1-1.1,1.7c-0.5,1.4,0.2,2.8,0.4,4.3
				l-0.6-0.1c-0.7,0.2-1,0.8-1.2,1.4c-0.6-0.2-1.1-0.6-1.7-0.1c-0.5,0.5-0.7,1.1-0.8,1.7c-0.1,1,0.5,1.7,1.2,2.3
				C9.4,273.3,8.9,272.9,8.6,273.4z M16.1,266.1l0,0.2l-0.1,0L16.1,266.1L16.1,266.1z M14,267.2c0.1-0.5,0.2,0.1,0.4-0.1l0.1,0.2
				C14.3,267.3,14.2,267,14,267.2z M14.5,266.5c0,0.1-0.1,0.1-0.1,0.2l0.2-0.4C14.6,266.4,14.7,266.6,14.5,266.5z M15.4,266.3
				l0.1-0.2l0.1,0.2L15.4,266.3z M15.8,264.4l0.1,0.4C15.7,264.7,15.7,264.6,15.8,264.4z M15.4,257.7l0-0.1L15.4,257.7L15.4,257.7z
				 M15.4,257.2c-0.2-0.2,0-0.5,0.2-0.5l0.1,0.3C16,257.1,15.4,256.7,15.4,257.2z M16.1,257.9c-0.1,0.1-0.3,0-0.4,0.2
				C15.7,257.8,15.8,257.6,16.1,257.9z M15.1,255.6c0.2,0.2,0.5,0.8,0.7,1l-0.6-0.3l0.1,0C15.3,255.8,15,256,15.1,255.6z M15.2,257
				c0,0,0.1,0.2,0,0.2l-0.1,0.1C15,257.1,15.1,257,15.2,257z M15,256.4c-0.4-0.1-0.1-0.4-0.3-0.6l0.2,0.1
				C15,256,15.1,256.2,15,256.4z M14.2,256.2c-0.1,0-0.1,0.1-0.3,0.1C14,256.3,14.1,256.2,14.2,256.2z M13.1,255.1l0.2,0.2
				c-0.3-0.1,0,0.3,0,0.4c0.1-0.2,0.3,0.1,0.4-0.2c-0.1,0.2,0.1,0.2,0,0.6c-0.1,0-0.5-0.1-0.7,0.1C13.1,255.8,13,255.7,13.1,255.1z
				 M13.1,257c-0.3,0-0.1,0.4-0.2,0.3C12.7,257.2,12.9,256.8,13.1,257z M13.1,256.3c0.1,0.2,0.4,0,0.5,0.2
				C13.4,256.7,13.2,256.3,13.1,256.3z M12.6,257.3l0-0.3c0,0,0.1,0.1,0.1,0.1L12.6,257.3z M13.1,259.4c-0.1-0.2,0-0.4-0.3-0.6
				l0.2,0.2c0,0,0-0.1,0.1-0.1C13.1,259.1,13.5,259.4,13.1,259.4z M13.5,258.1c-0.3-0.2-0.7,0.1-0.8-0.2c0.8,0.3,0.1-0.6,1-0.3
				C13.4,257.7,13.9,258,13.5,258.1z M13.3,257.1c0.2-0.3-0.3-0.5,0-0.5l0,0c0-0.1,0.5,0,0.4-0.3c0,0.8,0.2-0.2,0.6,0.3
				c-0.2,0-0.3,0.1-0.3,0.3l0-0.1l-0.1,0.1C13.9,256.4,13.5,257,13.3,257.1z M13.9,258.8l0-0.2l0,0L13.9,258.8L13.9,258.8z
				 M13.8,257.7l0.1-0.2l0.1,0.1L13.8,257.7z M14.5,257.9c0.1-0.3-0.4-0.4-0.2-0.7l0.1,0.2l0.1-0.3
				C14.4,257.3,14.6,257.6,14.5,257.9z M14.5,259.1c0,0,0.1,0,0.1,0.1C14.7,259.4,14.6,259.1,14.5,259.1z M14.8,257.5L14.8,257.5
				l0-0.2L14.8,257.5z M14.4,256.7c0-0.2,0.3-0.2,0.1-0.4c0.2-0.1,0.3,0.3,0.4,0.3c0,0,0,0.1-0.1,0.1
				C14.7,256.7,14.5,256.7,14.4,256.7z M14.9,258c-0.2,0-0.1-0.4,0.1-0.3L14.9,258z M15.4,265.1c0,0.1,0.2,0.2,0.2,0
				c0.1,0.4-0.6,0-0.4,0.4c0.1-0.3,0.6,0.1,0.5,0.2c-0.2,0.1-0.6,0-0.7,0.1c0-0.1-0.1-0.2-0.3-0.1l0,0.1c-0.2-0.3,0.1-0.2,0.4-0.4
				l-0.2-0.1C15.1,265.3,15.3,265.3,15.4,265.1z M14.6,263.4l0.2,0.1l-0.4,0.2L14.6,263.4z M14.4,265.3l0,0.4
				C14.2,265.7,14.4,265.4,14.4,265.3z M13.7,266c0.1-0.1,0.3-0.4,0.4-0.1C14,266.1,13.9,266.1,13.7,266z M14,265.2
				c-0.1,0-0.2,0.2-0.3,0L14,265.2z M13.9,266.3l-0.2,0.1l-0.1-0.1L13.9,266.3z M12.2,269.8l0,0.1l-0.1,0L12.2,269.8z M10.6,271.1
				l-0.1,0.1l-0.1-0.3L10.6,271.1z M9.6,270.8l0-0.2l0,0L9.6,270.8L9.6,270.8z"/>
			<path class="st2" d="M13.4,257.8c0.1-0.1-0.1-0.1,0-0.2C13.2,257.6,13.2,257.8,13.4,257.8z"/>
			<path class="st2" d="M10.4,261.1C10.4,261.1,10.4,261.1,10.4,261.1C10.4,261.1,10.4,261.1,10.4,261.1
				C10.4,261.1,10.4,261.1,10.4,261.1z"/>
			<path class="st2" d="M10.6,259.6C10.6,259.7,10.5,259.7,10.6,259.6C10.5,259.7,10.6,259.7,10.6,259.6
				C10.6,259.6,10.6,259.6,10.6,259.6z"/>
		</g>
		<g>
			<path class="st2" d="M68.5,289.8c-0.3,0.4-0.6,0.9-0.6,1.3c0.2,0.3,0.6,0,0.6-0.1c1.2,0.6,1.6,2,3,2.3c-0.2,0.2-0.3,0.3-0.4,0.5
				c0.6,0.8,0.7,1.9,1.1,2.7c-0.7,0.8,0.3,1.5-0.2,2.3l-0.5-0.1c-0.2,0.5-0.1,1.3-0.2,1.8c0.8,0.5,0.9,1.3,1.2,2.2
				c-0.2,0.5-0.3,1.2-0.4,1.5c0-0.2-0.1-0.4-0.3-0.5c-0.6,0.1-0.3,0.9-0.9,1.2c-0.4-0.5-0.3-1.5-1.3-1.4c0.1,0.7,0.8,1.6,0.6,2.1
				c-0.1-0.4-0.3-0.6-0.5-0.9c-0.8,0.5,0,1.5,0.1,2.3c0,0.8,1.1,1.4,0.6,2.3c-1.7-1.9-3.4-4-4.5-6.4c-1.4-2.4-1.9-5.3-2.3-7.8
				c0.1-2.6,2.8-3.1,3.9-4.9C67.5,289.7,68.1,290.2,68.5,289.8z"/>
			<path class="st3" d="M65.2,295c0,0.2-0.4,0.1-0.2-0.1L65.2,295z"/>
			<path class="st3" d="M64.9,296c-0.4,0.3-0.5-0.3-0.6-0.5l0.3,0.3l0.3-0.6C65.1,295.5,64.6,295.7,64.9,296z"/>
			<path class="st3" d="M65.2,295.6l-0.1,0.1C65.1,295.6,65.1,295.5,65.2,295.6z"/>
			<path class="st3" d="M65.3,296.4l0.2,0L65.3,296.4z"/>
			<path class="st3" d="M65.6,296.9c0.1,0,0,0.1-0.1,0.2C65.5,297.1,65.4,296.9,65.6,296.9z"/>
			<path class="st3" d="M65.1,297.3c-0.2,0.1-0.3-0.1-0.2-0.2C65,297.1,65.1,297.1,65.1,297.3z"/>
			<polygon class="st3" points="64.3,297.5 64.1,297.3 64.2,297.3 			"/>
			<path class="st3" d="M66.3,299.1l0,0.2L66.3,299.1z"/>
			<path class="st3" d="M66,299.6c0,0.4,0.2,0.3-0.1,0.7C66.3,299.9,65.5,299.6,66,299.6C66,299.5,66,299.6,66,299.6z"/>
			<polygon class="st3" points="66.6,299.8 66.6,299.6 66.7,299.7 			"/>
			<path class="st3" d="M66.2,299.7l0.3,0.1L66.2,299.7z"/>
			<path class="st3" d="M64.7,300l0.3,0L64.7,300z"/>
			<path class="st2" d="M96.5,299.1c-0.2-0.2-0.3-0.7-0.6-0.7C96.4,298.2,96.7,298.8,96.5,299.1z"/>
			<path class="st2" d="M96.1,299.4c0.1-0.2,0.1-0.3,0.3-0.1c-0.3,0.4-1,0-0.8-0.4C95.9,299.1,95.7,299.5,96.1,299.4z"/>
			<path class="st2" d="M79.6,303c0.8,1.5,0,2.6,0.3,4.2c-0.7,0-1.1-0.7-1.6,0.1c-0.2,0.2,0.2,0.2,0.2,0.4c-0.3-0.3-0.7,0.3-1,0.5
				c0.1,0.4,0.3,0.8,0.3,1.1c-0.5,0.1-1.1-1.3-1.4-0.2l0.3,0.7c-0.7,0-0.3-1.4-1.2-1.4l-0.4,0.9c-0.1-0.3,0.3-1.1-0.4-1
				c-0.6,0,0,0.6-0.5,0.8c-0.5-0.5,0.4-1.9-0.8-1.7c-0.4,0,0,0.9-0.4,0.4c0.6-0.9-0.6-1.4,0.1-2.3c0.9-0.7-0.2-1.7,1.1-2.1
				c0-0.7,1-0.6,1.3-0.9c1.4,1.3,1.6-0.8,3.1-0.3C79,302.1,79.3,302.7,79.6,303z"/>
			<polygon class="st3" points="74.6,304.4 74.7,304.4 74.8,304.7 74.7,304.7 			"/>
			<path class="st3" d="M73.6,305.2c-0.1,0.1-0.1-0.1-0.1-0.1C73.7,305.1,73.6,305.2,73.6,305.2z"/>
			<polygon class="st3" points="74.2,305.4 74.2,305.2 74.4,305.3 			"/>
			<path class="st3" d="M74.5,305.5c-0.1,0.1-0.1,0.1-0.2,0C74.3,305.5,74.4,305.5,74.5,305.5z"/>
			<path class="st3" d="M74.2,306.3c-0.3,0.6-0.3-0.3-0.8-0.2c0.2,0.1,0.4-0.2,0.3-0.4C73.7,305.8,74,306.2,74.2,306.3z"/>
			<path class="st3" d="M78.7,305.2c-0.2-0.2-0.2,0-0.4,0C78.5,304.9,78.6,304.9,78.7,305.2z"/>
			<path class="st3" d="M73.4,305.8c0,0,0,0.1,0,0.2C73.4,305.9,73.3,305.7,73.4,305.8z"/>
			<polygon class="st3" points="73,306.1 73.1,305.9 73.1,306.1 			"/>
			<path class="st3" d="M74.7,306.1c-0.1-0.1-0.4,0-0.3-0.2C74.5,306,74.6,305.9,74.7,306.1z"/>
			<path class="st3" d="M78.4,305.4l0.1,0.2L78.4,305.4z"/>
			<polygon class="st3" points="74.6,306.5 74.5,306.2 74.6,306.4 			"/>
			<path class="st3" d="M78.6,306.1c-0.4-0.4,0,0.4-0.4,0C78.3,305.8,78.5,306,78.6,306.1z"/>
			<path class="st3" d="M74,306.8c0.2,0.2,0.3,0.3,0.5,0.2c-0.4-0.1-0.8,0.2-0.9-0.1C73.8,306.9,73.8,306.9,74,306.8z"/>
			<polygon class="st3" points="73.2,307.2 73.3,307 73.3,307.2 			"/>
			<polygon class="st3" points="78.1,306.5 78.1,306.5 78.2,307 78.1,307 			"/>
			<path class="st3" d="M74.7,307.7c-0.3,0-0.2,0-0.5-0.1l0.2,0.4l-0.1,0l0,0.3c-0.3-0.5,0-0.8,0.2-1.1
				C74.5,307.5,74.8,307.6,74.7,307.7z"/>
			<path class="st3" d="M75.2,307.5c-0.1,0.1-0.2,0-0.2-0.1c-0.3,0.1,0.1,0.3,0,0.3c-0.4,0.1,0-0.2-0.2-0.3
				C74.9,307.5,75.3,307.2,75.2,307.5z"/>
			<path class="st3" d="M75.9,307.7c-0.1-0.3-0.4,0.1-0.3-0.3C75.7,307.6,76,307.5,75.9,307.7z"/>
			<path class="st3" d="M75.3,308.3c0-0.5-0.6,0-0.2-0.5C75.3,307.9,75.6,308.1,75.3,308.3z"/>
			<polygon class="st3" points="75.8,308.4 75.7,308.1 75.7,308.2 			"/>
			<polygon class="st3" points="75.1,308.3 75.2,308.3 75.2,308.5 75.1,308.5 			"/>
			<path class="st2" d="M96.5,305.6c0.1,0.3,0,0.6-0.2,0.8c-0.1-0.2,0.4-0.3,0.1-0.6l-0.1,0.2c-0.5-0.2,0.3-0.6-0.4-0.5
				c-0.3,0-0.3,0.3-0.4,0.5c0,0.3,0.4,1,0.6,0.6l-0.4,0.3c-0.4-0.2-0.4-0.8-0.3-1.1C95.8,305.3,96.3,305,96.5,305.6z"/>
			<path class="st2" d="M71.7,311.8l0.1,0.5L71.7,311.8z"/>
			<path class="st2" d="M71.3,312.4l0.4,0.8L71.3,312.4z"/>
			<polygon class="st2" points="72.1,313.7 72.2,313.6 72.4,313.7 			"/>
			<path class="st2" d="M71.8,314.2c0.1,0.1,0,0.2,0,0.3C71.8,314.5,71.8,314.3,71.8,314.2z"/>
			
				<rect x="71.9" y="314.7" transform="matrix(0.9887 -0.1497 0.1497 0.9887 -46.3317 14.3245)" class="st2" width="0" height="0.2"/>
			<path class="st3" d="M78.5,314.1c-0.2,0-0.1-0.2-0.1-0.3C78.3,314,78.5,314.2,78.5,314.1z"/>
			<path class="st3" d="M80.2,314.2c0,0.3,0.3-0.1,0.2,0.2L80.2,314.2C80.2,314.2,80.4,314.1,80.2,314.2z"/>
			<path class="st3" d="M79.9,314.5l0.2,0L79.9,314.5z"/>
			<path class="st2" d="M78.5,314.8c-0.1,0.1,0,0.2-0.1,0.2l-0.1-0.2L78.5,314.8z"/>
			<polygon class="st3" points="78.9,315.1 78.9,314.9 79.1,314.9 			"/>
		</g>
	</g>
</g>
<path class="st4" d="M0,168.1c5.1-22.7,12-46.4,27.5-64.1c18.9-21.6,47.1-26.2,74.3-21.4c28.1,5,54.3,17.4,80.7,27.6
	c25.3,9.8,50.9,18.8,76.5,27.7c29.6,10.4,59.6,19,90.4,25.1c34,6.7,68.4,12.5,102.8,17.3c30.8,4.3,62.1,6.5,92.7-0.4
	c27-6.1,52.2-18.7,73.1-36.7c21.9-18.9,40.1-43.5,49.6-70.9c5.1-14.7,7.3-30.2,6.8-45.8c-0.3-8.9-1.5-17.7-3.1-26.5H0V168.1z"/>
<path class="st0" d="M589,32c-1.2,9.1,2.1,19.4,6.5,27.5c4.8,8.9,18.4,15.4,21.3,24.9c5.7,18.8-16,33.1-33.3,33.1
	c-23.1-0.1-36.6-11.1-48.4-30c-15.5-25-26.6-51.1-58.1-57.5c-22.9-4.6-55.2-0.9-72.7,16.2c-18.3,17.9-16.8,47.7-9.2,69.8
	c10.5,30.5,32,48.7,61.8,59.5c11.4,4.1,25.4,5.2,37.4,7.6c9.4,1.9,17.7,2.1,27.1,0.4c26.2-4.6,52.1-14.5,73-31.4
	c26.8-21.7,44.2-45.8,59.2-76.6c5.6-11.4,8.1-24.5,8.7-37c0.4-6.7-0.9-12.9-1.2-19.5c-0.2-5.9,0.8-12.8,0-19h-94
	C580.1,6.3,590.9,17.7,589,32z"/>
<path class="st2" d="M639,0c4.6,14.3,6.8,29.2,5.5,44.1c-1.5,16.5-7,32.7-16,46.7c-8.2,12.7-19.9,24.2-34.4,29.4
	c-12.1,4.4-25.3,3.4-36.4-3.2c-11.5-6.9-19.5-18.2-26.3-29.5C524.2,75.8,518,63.3,509,52.7c-8.7-10.3-20-18.1-33.1-21.6
	c-14.1-3.8-29.5-2.8-43.1,2.3c-13.8,5.1-25.9,14.8-32.7,28c-7,13.6-7.6,29.5-3.9,44.2c7.9,31.1,32.8,57.1,62.2,69.1
	c27,11,57.7,10.3,85.3,1.8c28.4-8.7,52.8-26.1,72.7-48c10-11,19.1-23,27-35.6c7.4-11.8,13.8-24.4,17.7-37.7
	c3.8-12.7,4.9-26,3.6-39.2c-0.5-5.4-1.4-10.7-2.4-16L639,0C639,0,639,0,639,0z"/>
<path class="st0" d="M660.8,13.2c0,0.7,0.1,1.5,0.1,2.2c0,0.7,0,1.5,0,2.3l0,1.1c0,0,0,0.1,0,0.1l0,0.1l0,0.3l-0.1,0.6
	c-0.1,0.8-0.1,1.6-0.2,2.4c-0.2,1.6-0.3,3.2-0.5,4.8c-0.3,1.6-0.6,3.1-0.8,4.7c-0.4,3.2-1.4,6.4-2.2,9.7l-0.3,1.2l-0.4,1.2
	c-0.3,0.8-0.5,1.6-0.8,2.4c-0.5,1.6-1,3.3-1.6,4.9c-1.3,3.2-2.4,6.4-3.9,9.6c-0.7,1.6-1.4,3.2-2.2,4.7l-2.4,4.7
	c-0.4,0.8-0.8,1.6-1.2,2.3l-1.3,2.3c-0.8,1.5-1.7,3-2.5,4.4c-1,1.5-1.9,3-2.8,4.5l-1.4,2.2c-0.5,0.7-0.9,1.5-1.4,2.2
	c-1,1.4-2,2.8-2.9,4.1c-1,1.4-1.9,2.7-3,4c-1,1.3-2.1,2.6-3.1,3.9c-0.5,0.7-1,1.3-1.5,1.9c-0.5,0.6-1.1,1.2-1.6,1.9
	c-8.4,9.9-17.2,18.3-25.3,24.8c-2,1.6-4,3.1-5.9,4.5c-1.9,1.5-3.8,2.8-5.5,4.1c-0.9,0.6-1.7,1.3-2.5,1.9c-0.8,0.6-1.6,1.1-2.3,1.6
	c-1.5,1-2.8,2-4.1,2.8c-2.5,1.6-4.5,2.9-5.8,3.6c-1.4,0.8-2.1,1.2-2.1,1.2s-0.4,0.2-1,0.6c-0.3,0.2-0.8,0.5-1.3,0.8
	c-0.5,0.3-1.1,0.7-1.8,1c-1.4,0.7-3.1,1.6-5.1,2.6c-1,0.4-2.2,0.9-3.3,1.4c-0.6,0.3-1.2,0.5-1.8,0.8c-0.6,0.3-1.3,0.6-2,0.8
	c-1.4,0.5-2.8,1-4.4,1.5c-0.8,0.2-1.5,0.6-2.4,0.8c-0.8,0.2-1.7,0.4-2.5,0.7c-0.9,0.2-1.7,0.5-2.6,0.7c-0.4,0.1-0.9,0.2-1.4,0.4
	l-0.7,0.2l-0.8,0.2c-1,0.2-2,0.5-3,0.7c-1,0.2-2,0.4-3,0.6c-8.1,1.7-17.6,3-27.8,3.4c-5.1,0.1-10.4,0-15.8-0.6
	c-5.4-0.6-10.9-1.7-16-3.7c-10.8-4.1-21.4-10.7-31-19.2c-4.8-4.2-9.3-9-13.4-14.2c-1.1-1.3-2-2.6-3-3.9c-0.5-0.7-1-1.4-1.4-2l-0.7-1
	l-0.4-0.5c0,0-0.2-0.2,0,0l-0.1-0.1l-0.2-0.3c-0.9-1.5-1.8-3-2.6-4.4c-0.4-0.7-0.8-1.4-1.2-2.2l-1.1-2.2c-3-6-5.1-12.4-6.4-19
	l-0.4-2.5l-0.2-1.2l-0.1-1.2l-0.2-2.5l0-2.5l0-1.2l0.1-1.2l0.2-2.5l0.4-2.4l0.2-1.2l0.3-1.2l0.6-2.4l0.8-2.3l0.4-1.2
	c0.1-0.4,0.3-0.8,0.5-1.1l1-2.3l0.1-0.3c0,0,0,0,0,0l0.1-0.1l0.3-0.6l0.7-1.1c0.4-0.7,0.9-1.6,1.4-2.2l1.4-2c0.4-0.7,1-1.3,1.6-1.9
	c2.1-2.6,4.6-4.8,7.2-6.9c1.4-1,2.7-2,4.1-2.8c0.7-0.4,1.4-0.9,2.1-1.3l2.2-1.1c0.7-0.4,1.5-0.7,2.3-1l2.3-0.9l2.4-0.8l1.2-0.4
	l1.2-0.3l2.4-0.6c0.8-0.2,1.6-0.3,2.4-0.4c1.6-0.3,3.3-0.4,4.9-0.5c6.5-0.4,13,0.9,19.1,2.9c6,2,11.7,5.2,16.7,8.9
	c5.1,3.7,9.6,7.9,13.7,12.3c4.1,4.4,7.9,9,11.4,13.5c1.8,2.2,3.5,4.5,5.2,6.7c0.4,0.5,0.8,1.1,1.3,1.6l0.6,0.8l0.6,0.8
	c0.8,1.1,1.6,2.2,2.4,3.3c3.1,4.3,6.1,8.5,9.2,12.3c3.1,3.8,6.2,7.2,9.7,9.9c0.4,0.4,0.8,0.7,1.3,1c0.4,0.3,0.9,0.6,1.3,0.9
	c0.4,0.3,0.9,0.6,1.3,0.9c0.4,0.3,0.9,0.5,1.4,0.8c1.8,1,3.6,1.7,5.4,2.4c3.6,1.3,7,1.9,10,2.5c6.1,1.2,10.9,2,14.2,2.4
	c3.3,0.4,5.1,0.6,5.1,0.6s-1.8-0.3-5-0.7c-3.3-0.5-8.1-1.5-14.1-2.8c-3-0.7-6.4-1.4-9.8-2.7c-1.7-0.7-3.5-1.4-5.2-2.5
	c-0.4-0.3-0.9-0.5-1.3-0.8c-0.4-0.3-0.8-0.6-1.3-0.9c-0.4-0.3-0.8-0.6-1.3-0.9c-0.4-0.3-0.8-0.7-1.2-1c-3.3-2.7-6.3-6.2-9.2-10
	c-3-3.8-5.8-8-8.8-12.4c-0.8-1.1-1.5-2.2-2.3-3.3l-0.6-0.8l-0.6-0.9c-0.4-0.6-0.8-1.1-1.2-1.7c-1.6-2.2-3.3-4.5-5-6.8
	c-3.4-4.6-7.1-9.3-11.2-14c-4.1-4.6-8.6-9.1-13.8-13.1c-5.2-4-11-7.5-17.5-9.9c-0.8-0.3-1.6-0.6-2.5-0.9l-2.4-0.7l-1.2-0.3l-0.6-0.2
	l-0.3-0.1l-0.2-0.1l-0.2,0l-2.6-0.5l-1.3-0.3c-0.4-0.1-0.9-0.1-1.3-0.2l-2.6-0.3c-0.9-0.1-1.8-0.1-2.7-0.1c-0.9,0-1.8-0.1-2.7,0
	c-1.8,0.1-3.6,0.1-5.4,0.4c-0.9,0.1-1.8,0.2-2.7,0.4l-2.7,0.5l-1.3,0.3l-1.3,0.4l-2.6,0.8l-2.6,1c-0.9,0.3-1.7,0.6-2.5,1.1l-2.5,1.2
	c-0.8,0.4-1.6,0.9-2.4,1.3c-1.6,0.9-3.1,2-4.7,3c-3,2.2-5.8,4.7-8.3,7.5c-0.6,0.7-1.3,1.4-1.8,2.2l-1.7,2.3c-0.6,0.8-1,1.5-1.5,2.3
	l-0.7,1.1l-0.3,0.6l-0.1,0.1l-0.2,0.3l-0.2,0.3l-1.2,2.6c-0.2,0.4-0.4,0.8-0.6,1.3l-0.5,1.3l-1,2.7L405,71l-0.4,1.4l-0.3,1.4
	l-0.5,2.8l-0.3,2.8l-0.1,1.4l0,1.4l-0.1,2.8l0.1,2.8l0.1,1.4l0.2,1.4l0.3,2.8c1.2,7.4,3.4,14.5,6.4,21.1l1.1,2.5
	c0.4,0.8,0.8,1.6,1.2,2.5c0.8,1.7,1.7,3.1,2.6,4.6l0.2,0.3l0.1,0.1l0.2,0.3l0.4,0.6l0.7,1.1c0.5,0.7,1,1.5,1.5,2.2
	c1,1.4,2,2.9,3.1,4.3c4.3,5.6,8.9,10.9,14,15.6c10.1,9.4,21.4,17,33.3,21.9c6.2,2.5,12.4,3.9,18.3,4.8c6,0.9,11.8,1.2,17.3,1.2
	c11.1-0.1,21-1.2,29.9-2.8c1.1-0.2,2.2-0.4,3.3-0.6c1-0.2,2-0.4,3-0.6l0.7-0.1l0.8-0.2c0.5-0.1,1-0.2,1.5-0.4c1-0.2,2-0.5,2.9-0.7
	c1-0.2,1.9-0.4,2.8-0.7c0.9-0.2,1.8-0.5,2.7-0.8c1.7-0.5,3.4-1,4.9-1.5c0.8-0.2,1.5-0.5,2.3-0.8c0.7-0.3,1.4-0.6,2.1-0.8
	c1.4-0.5,2.6-1,3.8-1.5c2.3-1.1,4.3-2.1,5.9-2.8c0.8-0.4,1.5-0.8,2.1-1.1c0.6-0.3,1.1-0.6,1.5-0.8c0.8-0.5,1.2-0.7,1.2-0.7
	s0.8-0.5,2.3-1.4c1.5-1,3.5-2.5,6.2-4.3c1.3-0.9,2.7-2.1,4.2-3.3c0.8-0.6,1.6-1.2,2.4-1.9c0.8-0.6,1.6-1.3,2.4-2
	c1.7-1.4,3.4-2.8,5.3-4.4c1.9-1.6,3.9-3.4,6-5.1c8.1-7.4,16.9-16.7,25.1-27.5c0.5-0.7,1-1.3,1.6-2c0.5-0.7,1-1.4,1.5-2.1
	c1-1.4,2-2.8,3-4.3c1-1.4,2-2.9,2.9-4.4c0.9-1.5,1.9-3,2.9-4.5c0.5-0.8,0.9-1.5,1.3-2.3l1.3-2.3c0.9-1.5,1.7-3.1,2.6-4.6
	c0.8-1.6,1.6-3.3,2.5-4.9l1.2-2.4c0.4-0.8,0.7-1.6,1.1-2.5l2.2-4.9c0.7-1.7,1.3-3.4,2-5c1.4-3.3,2.4-6.8,3.5-10.1
	c0.6-1.7,0.9-3.4,1.4-5.1c0.2-0.9,0.4-1.7,0.7-2.6l0.3-1.3l0.3-1.3c0.6-3.4,1.4-6.8,1.7-10.2c0.2-1.7,0.4-3.4,0.6-5
	c0.1-1.6,0.1-3.3,0.2-4.9c0-0.8,0.1-1.6,0.1-2.4l0-0.6l0-0.3l0-0.1c0-0.2,0-0.1,0-0.2l0-1.2c0-0.8,0-1.6-0.1-2.4
	c-0.1-0.8-0.2-1.6-0.2-2.4c-0.1-1.6-0.5-3.1-0.7-4.6c-0.3-1.5-0.6-2.9-0.9-4.3c-0.3-1.4-0.7-2.7-1.1-4h-2.3
	C659.7,4.1,660.5,8.6,660.8,13.2z"/>
<path class="st2" d="M579.2,2.8c10.4,7.8,11.5,19.3,12.2,31.4c0.7,12.7,3.4,23.6,11.9,33.4c6.4,7.5,18.1,15.7,17.2,26.8
	c-1,12.9-16.6,20.6-27.3,23.8c-13.5,4.1-28.7,3.8-41.3-3.2c-10.7-5.9-18.2-15.7-24.5-25.8c-6.9-11.1-12.8-23-21.3-33
	c-9.5-11.2-22.3-18.4-37.1-19.5c-26.6-1.9-62,13.3-60,44.4c1,15.5,7.6,31.1,15.6,44.3c8.8,14.7,21.2,27,37.1,33.7
	c15.2,6.4,32.1,7.6,48.4,7.7c14.9,0.1,30.1-0.6,44.6-4.2c30.5-7.6,50.1-30.4,68.3-54.3c8.5-11.2,17.4-22,25.6-33.4
	c7.7-10.8,14.3-22.7,15.7-36.2c1.3-13.1-2.3-25.8-4.8-38.5c0-0.1,0-0.2-0.1-0.3h-84.5C576.4,0.9,577.9,1.8,579.2,2.8z"/>
<path class="st5" d="M602.1,0.3c2.6,9.3,2.7,18.7,2.6,28.3c-0.1,9.8,0.6,19.3,4.3,28.5c3.5,8.8,9.3,16.5,12.9,25.2
	c1.4,3.4,2.3,7,2,10.6c-0.3,3.4-1.7,6.5-3.7,9.2c-4.5,6.2-11.1,10.9-17.4,15c-6.4,4.2-13.4,7.8-21.1,8.8c-9.2,1.2-18.5-0.9-26.8-4.7
	c-10-4.5-18.4-11.4-26.9-18.2c-10.7-8.4-22-15.6-34.9-20.1c-7.9-2.8-16.1-4.6-24.3-5.5c-8-0.8-16.2-0.7-24,1.4
	c-6.2,1.7-12.3,4.8-15.9,10.3c-3.5,5.4-3.5,12.1-1.7,18.2c2.3,8.1,7.3,15.3,12.8,21.5c6.4,7.3,14.1,13.5,22.3,18.7
	c14.4,9.1,30.8,14.9,47.8,15.6c13.5,0.6,27-1.7,40-5c13.6-3.5,26.8-8.8,38.2-17.2c11.9-8.7,21.2-20.2,29.4-32.4
	c6.8-10.1,13.2-20.4,20.2-30.4c5.9-8.3,11.7-16.7,15.1-26.4c5.9-16.8,4.8-34.6,1.6-51.8H602C602,0.1,602,0.2,602.1,0.3z"/>
<g>
	<path class="st4" d="M589.7,127.4c-10,4.6-20.7,5.7-31.6,4.7c-12.6-1.2-24.8-4.5-37.3-6c-11.1-1.4-23.5-2.1-34,2.4
		c-6.2,2.7-12.4,8.8-8.2,15.8c2.1,3.6,6,6,9.7,7.7c5.3,2.4,11.1,3.6,16.8,4.2c13.5,1.4,27.3-0.5,40.2-4.4c19-5.6,36-15.9,52.5-26.6
		c12-7.8,24.9-17.1,27.6-32.1c0.2-1.4,0.4-2.8,0.5-4.3c-1.7,7.6-6.5,14.3-11.5,19.9C607.5,116.4,599.1,123.1,589.7,127.4z"/>
	<path class="st4" d="M615.1,42.8c2.2,8.7,5.3,17,8.2,25.4c0.9,2.7,1.8,5.4,2.4,8.2c-0.1-1.5-0.2-3-0.3-4.5
		c-0.4-8,0.1-15.8,1.8-23.6c1.9-8.4,4.8-16.5,7.1-24.8c2.1-7.6,3.5-15.2,3.5-23.1c0-0.1,0-0.3,0-0.4H609
		C609.9,14.4,611.6,28.7,615.1,42.8z"/>
	<path class="st4" d="M625.9,88.8c0.1-0.3,0.1-0.5,0.2-0.8c0.7-3.9,0.4-7.8-0.4-11.6C625.9,80.6,626.2,84.7,625.9,88.8z"/>
</g>
<path class="st0" d="M323.8,438.1c-2.9-1.4-5.9-2.9-9.1-4.5c-3.2-1.6-6.5-3.1-10-4.7c-6.9-3.2-14.3-6.6-22.1-10.2
	c-3.9-1.8-7.8-3.7-11.9-5.6c-2-1-4-2.1-6.1-3.2c-1-0.5-2-1.1-3.1-1.6l-1.5-0.8c-0.2-0.1-0.6-0.3-0.7-0.4l-0.8-0.5
	c-2-1.2-4-2.4-6.1-3.7c-1-0.6-2-1.2-3.1-1.9c-1-0.6-2.1-1.2-3.1-1.9c-2-1.3-4.1-2.7-6.1-4c-2.1-1.4-4.1-2.7-6.2-4.2
	c-8.2-5.7-16.5-11.8-25-17.9c-4.2-3.1-8.5-6.2-12.8-9.3c-2.1-1.6-4.3-3.1-6.5-4.7c-2.1-1.6-4.2-3.2-6.4-4.8l-3.2-2.4l-1.6-1.2
	l-1.6-1.3c-2.1-1.7-4.2-3.4-6.2-5.2l-3.1-2.6l-0.4-0.3l-0.1-0.1c0,0,0,0,0,0l-0.2-0.2l-0.7-0.7l-1.5-1.4l-5.8-5.6
	c-2-1.8-3.8-3.8-5.7-5.7c-1.9-1.9-3.7-3.9-5.6-5.8c-3.6-4-7.3-7.9-10.9-11.9c-1.8-2-3.6-4-5.3-6l-2.7-3l-0.1-0.2c0,0,0,0,0,0
	l-0.1-0.1l-0.3-0.4l-0.6-0.8l-1.2-1.6c-3.3-4.2-6.7-8.3-10.1-12.3c-3.3-4-6.7-8-9.8-12c-0.8-1-1.6-2-2.4-3c-0.8-1-1.5-2-2.3-3
	c-1.5-1.9-2.9-4.1-4.4-6.1c-5.8-8.1-10.6-16.4-14.8-24.7c-0.5-1-1-2.1-1.6-3.1c-0.5-1-1-2.1-1.5-3.1c-1-2.1-1.9-4.1-2.8-6.2
	c-0.9-2-1.8-4.1-2.7-6.1l-0.6-1.5l-0.6-1.5c-0.4-1-0.8-2-1.2-3c-3.3-8-6.6-15.2-9.1-22c-0.3-0.8-0.6-1.7-0.9-2.5
	c-0.3-0.8-0.5-1.6-0.8-2.5c-0.3-0.8-0.5-1.6-0.8-2.4c-0.2-0.8-0.4-1.7-0.7-2.5c-0.2-0.8-0.4-1.6-0.6-2.3c-0.1-0.8-0.3-1.6-0.4-2.3
	c-0.1-0.8-0.3-1.5-0.4-2.3c-0.1-0.4-0.1-0.7-0.2-1.1c0-0.4-0.1-0.8-0.1-1.1c-0.2-1.5-0.3-2.9-0.5-4.4c-0.1-1.4-0.1-2.8-0.2-4.2
	c0-0.7-0.1-1.4-0.1-2c0-0.7,0-1.3,0-2c0-1.3,0-2.6,0.1-3.8c0.3-5,0.8-9.5,1.5-13.5c0.2-1,0.3-2,0.5-2.9c0.2-0.9,0.4-1.9,0.6-2.8
	c0.2-0.9,0.4-1.8,0.6-2.6l0.1-0.6l0-0.2l0,0l0,0l0.1-0.3c0.1-0.4,0.2-0.8,0.3-1.2c0.9-3.1,1.7-5.8,2.6-8.1c1.7-4.6,3.5-7.5,4.9-9.4
	c0.7-1,1.3-1.7,1.7-2.2c0.4-0.6,0.8-0.9,1-1.2c0.4-0.6,0.4-0.7,0.1-0.6c-0.3,0.1-0.8,0.4-1.3,0.7c-0.4,0.3-0.8,0.6-0.8,0.6
	s0.3-0.3,0.6-0.8c0.4-0.4,0.8-0.9,0.9-1.1c0.1-0.3,0-0.4-0.6,0c-0.3,0.2-0.8,0.4-1.4,0.9c-0.6,0.5-1.4,1.2-2.3,2.1
	c-0.9,1-1.9,2.2-2.9,3.8c-1,1.6-2.1,3.6-3.2,5.9c-1.1,2.4-2.1,5.1-3.1,8.3c-0.1,0.4-0.3,0.8-0.4,1.2l-0.1,0.3l-0.1,0.2l0,0.2
	l-0.2,0.6c-0.2,0.8-0.4,1.7-0.7,2.6c-0.2,0.9-0.5,1.8-0.7,2.8c-0.2,1-0.4,2-0.6,3c-0.9,4.2-1.5,8.8-1.9,14c-0.1,1.3-0.1,2.7-0.2,4
	c0,0.7,0,1.4-0.1,2.1c0,0.7,0,1.4,0,2.1c0.1,1.4,0.1,2.9,0.2,4.4c0.2,1.5,0.3,3.1,0.5,4.6c0,0.4,0.1,0.8,0.1,1.2
	c0.1,0.4,0.1,0.8,0.2,1.2c0.1,0.8,0.3,1.6,0.4,2.4c0.1,0.8,0.3,1.7,0.5,2.5c0.2,0.8,0.4,1.7,0.6,2.5c0.2,0.8,0.4,1.6,0.6,2.5
	c0.3,0.9,0.5,1.7,0.8,2.6c0,0.1,0.1,0.2,0.1,0.3c-1.5-3.8-2.8-7.7-4.2-11.6l-0.5-1.5c-0.2-0.4-0.3-1-0.4-1.5l-0.9-3
	c-0.3-1-0.5-2-0.7-3c-0.2-1-0.5-2-0.6-3.1c-1.4-8.2-1.4-16.4-0.5-24.1c0.1-1,0.3-2,0.4-2.9c0.1-0.5,0.1-0.9,0.2-1.3
	c0.1-0.5,0.2-0.9,0.3-1.4c0.4-1.8,0.8-3.6,1.3-5.3c1-3.5,2.3-6.7,3.8-9.6c2.3-4.5,5.1-8,7.9-10.7c2.8-2.7,5.6-4.6,8.1-6.1
	c7.8-3.2,12.4-4.2,14.9-5c-0.1,0-0.1,0-0.2,0c1.4-0.1,2.4-0.5,2.9-1.2c0.1-0.2,0.2-0.4,0.2-0.6c0-0.1,0-0.1-0.1-0.2
	c-0.1-0.1-0.1-0.1-0.2,0c-0.1,0-0.3,0.4-0.5,0.5c-0.2,0.1-0.4,0.1-0.4,0.1s0.2-0.1,0.3-0.3c0.1-0.2,0-0.3,0-0.5c0,0-0.1-0.1-0.2,0
	c0,0-0.1,0.1-0.1,0.1c0,0,0-0.1-0.1-0.1c0-0.1-0.6,0.1-1.8-0.1l0,0l-0.2,0c-2.7,0.3-7.7,0.9-16,3.9l-0.1,0l-0.1,0.1
	c-2.8,1.5-6,3.6-9.1,6.5c-3.1,2.9-6.2,6.8-8.8,11.7c-1.6,3.1-3,6.6-4,10.3c-0.5,1.8-1,3.7-1.3,5.7c-0.1,0.5-0.2,1-0.3,1.5l0,0.1
	l0,0.2l0,0.2l0,0.4l-0.1,0.7c-0.1,1-0.2,1.9-0.3,2.9c-0.9,8.1-0.7,16.7,1,25.2c0.2,1.1,0.5,2.1,0.7,3.2c0.3,1.1,0.5,2.1,0.8,3.2
	l1,3.1c0.2,0.5,0.3,1,0.5,1.6l0.6,1.5c1.5,4,3,8,4.7,11.9c3.1,7.9,6.7,15.5,10.2,22.7c2.7,5.1,5.2,10,7.8,14.5
	c5.6,12.7,12.5,26.1,21.6,38.7c1.5,2,2.9,4.1,4.5,6.2c0.8,1,1.6,2.1,2.4,3.1c0.8,1,1.6,2,2.4,3c3.2,4,6.6,8,10,12
	c3.4,4,6.8,8,10.1,12.1l1.2,1.5l0.6,0.8l0.3,0.4l0.3,0.3l0.2,0.2l2.7,3c1.8,2,3.6,4,5.4,6c3.6,4,7.4,7.9,11.1,11.9
	c1.9,1.9,3.8,3.9,5.7,5.8c1.9,1.9,3.8,3.9,5.8,5.7l6,5.6l1.5,1.4l0.7,0.7l0.2,0.2l0.2,0.1l0.1,0.1l0.4,0.3l3.2,2.5
	c2.1,1.7,4.2,3.4,6.3,5.1l1.6,1.3l1.6,1.2l3.3,2.4c2.2,1.6,4.3,3.2,6.5,4.8c2.2,1.6,4.4,3.1,6.5,4.6c4.4,3.1,8.7,6.1,13,9.1
	c8.6,6,16.9,12,25.3,17.6c2.1,1.4,4.2,2.8,6.3,4.1c2.1,1.3,4.2,2.6,6.2,4c1,0.7,2.1,1.3,3.1,1.9c1,0.6,2.1,1.2,3.1,1.8
	c2.1,1.2,4.1,2.4,6.2,3.6l0.8,0.4c0.3,0.2,0.5,0.3,0.8,0.4l1.6,0.8c1,0.5,2.1,1.1,3.1,1.6c2.1,1,4.1,2.1,6.1,3.1
	c4.1,1.9,8.1,3.8,12.1,5.5c7.9,3.4,15.3,6.7,22.3,9.8c3.5,1.6,6.8,3,10,4.5c3.2,1.5,6.2,3,9.1,4.3c9.3,4.5,17.1,8.4,23.2,11.2h0.7
	C341.2,447,333.3,442.9,323.8,438.1z"/>
<g>
	<g>
		<path class="st6" d="M81.7,83.1c0.4,0.2,0.3,0.3,0.6,0.4c0.3,0.1,0.9,0.3,2.5,0.2c1.5-0.1,3.4-0.4,3.7-0.6
			c0.8-0.3-0.2-0.2-1.3-0.2c-1.1,0-2.3,0-1.6-0.2c-0.6-0.1-1.6,0-2.5-0.1C79.9,82.6,85.4,83.3,81.7,83.1z"/>
		<path class="st6" d="M71.5,75.6c-0.6-0.7-1.2-1.5-1.6-2c0,0.1-0.6-0.4,0.2,0.8C71.3,76,72.5,76.8,71.5,75.6z"/>
		<path class="st6" d="M90.3,79.8c-0.6,0-1.2,0-1.9,0.1c-1,0.3-3,0.4-2.6,0.6c1.5-0.1,2.4,0,3.9-0.3C90.5,80,90.6,79.9,90.3,79.8z"
			/>
		<path class="st6" d="M95.8,79.8c-0.2,0.1,0,0.2,0.4,0.3c0.9,0.1,1.9,0.3,2.6,0.4c-0.1-0.1,0.5-0.1-0.2-0.3
			C97.9,79.9,96.8,79.8,95.8,79.8z"/>
		<path class="st6" d="M93.2,79.3c-0.7,0.1-1.1,0.3-1.8,0.4c0.5,0,1.2,0,2,0.1c1.1,0,2.3-0.1,2.3-0.2C95.6,79.4,94.1,79.3,93.2,79.3
			z"/>
		<path class="st6" d="M98.1,80.6c-0.4,0,0,0.3,0.9,0.5c0.8,0.2,1.6,0.4,2.2,0.5c0.6,0.1,0.2-0.2-0.7-0.5
			C99.7,80.8,98.4,80.5,98.1,80.6z"/>
		<path class="st6" d="M48.7,51.4C48.4,51.4,48.7,51.5,48.7,51.4C49.4,51.4,49,51.4,48.7,51.4z"/>
		<path class="st6" d="M16.2,40.2c0.5,0.7,0.3,0.2,1.1,1.1c0.9,0.8,0.5,0.7,0.2,0.5c0.6,0.5,1.3,1,2.1,1.4c0.4,0.2,0.8,0.4,1.2,0.4
			c0.3,0.1,0.7,0.1,0.8,0.1c0.5,0.1,0.7,0,0.9,0c0.2-0.1,0.5-0.1,1.1-0.1c-1.2,0,0.7-0.3-1-0.3c-1-0.1-2.1-0.3-3.1-0.9
			c-1-0.5-1.9-1.2-2.6-2c0,0,0.2,0.2,0.4,0.4c0.2,0.2,0.4,0.4,0.4,0.4C17.8,41.4,17.1,41.2,16.2,40.2z"/>
		<path class="st6" d="M105.3,81.5c1,0.3,1.6,0.4,2.3,0.5l-0.7-0.3c-0.6-0.1-1.6-0.4-2-0.5C105.2,81.4,104.8,81.3,105.3,81.5z"/>
		<path class="st6" d="M14,39c0-0.2-0.4-0.7-0.9-1.3c-0.3-0.2,0.2,0.5,0.4,0.8C13.6,38.6,13.8,38.8,14,39z"/>
		<path class="st6" d="M0,28.5c5.2-2.6,11,3.9,13.8,7.6c2,2.6,4.4,6.6,8,6.9c3.6,0.4,6.4-3,9.7-4c3-1,4.8,0.9,6.1,3.4
			c0.1,0.2,0.2,0.5,0.4,0.7c0-0.1-0.1-0.1-0.1-0.2l0.1,0.4c-0.5-0.8-1-1.7-1.6-2.4c-0.6-0.7-1.4-1.3-2.2-1.6
			c0.3,0.2,0.7,0.3,0.9,0.6c-0.1,0.1-0.4,0-0.9,0c-0.4,0-1,0.1-1.4,0.3c0.7,0.1,0.8,0.4,0.9,0.6c0,0.2-0.1,0.3,0,0.4
			c0.1,0,0.6,0.1,0.9,0.4c0.5,0.4,0.8,0.8,1,1.1c0.2,0.3,0.2,0.5,0.1,0.4c1.3,2,1.5,3.6,4.3,5.7c1.1,0.9,1.6,1.3,1.8,1.6
			c0.2,0.3,0.3,0.5,0.7,0.9c0.6,0.2-1.3-1.3,0.4-0.5c0,0,0.2,0.1,0.4,0.2c0.2,0.1,0.4,0.2,0.4,0.2c1.1,0.4,2.3,0.6,1.9,0.2
			c0,0,0.3,0.1,0.7,0.3c0.3,0.1,0.7,0.2,0.7,0.2c-0.2-0.1-0.6-0.3-0.7-0.4c-0.1-0.1,0.2-0.1,1.3,0c0.7-0.1,0.1-0.2-0.5-0.4
			c-0.6-0.2-1.2-0.5-0.7-0.5c-0.3-0.1-1.1-0.4-1.9-0.8c-0.9-0.6,0.3-0.1,0.5-0.1c2.2,0.9,4.3,1.1,6.8,0c3.1-1.4,6.7-3.1,10.1-1.9
			c3.3,1.1,2.3,4.3,2,7c-0.4,3.6,1,6.3,2.9,9.2c1.6,2.5,2.9,5.2,4.5,7.7c1.6,2.5,3.8,4.7,6.3,6.3c5.5,3.5,11.7,0.6,17.7,0.8
			c5.9,0.2,11.4,3.9,17.3,3.1c3.1-0.4,5.6-2.3,8.1-4c3.2-2.3,6.5-4.4,9.6-7c1.3-1.1,2.6-2.3,3.9-3.6c-0.5,0.6-0.7,1.1-0.9,1.4
			c0.2,0.1,2.5-2,1.1-0.3c0.5-0.4,1.5-1.4,2.1-2l-0.5,0.8c2.2-2.4,3-3.1,4.9-5.5c0,0.1-0.3,0.6,0.3-0.1l0.7-1.2
			c0.5-0.6,0.5-0.3,0.9-0.7l0-0.2c0.6-0.7,0.9-1.1,1.1-1.6c-0.3,0.2,0.5-1.1-0.4,0.2c-0.5,0.1,1.4-2.1,1.5-2.8
			c0.1-0.6-0.6-0.2-0.2-1.1c0.4-0.6,0.8-1.2,1.2-1.9v-1c0-0.1,0.1-0.1,0.1-0.2l-0.1,0.1V51c-1.1,1.1-2.2,2.2-3.4,3.3
			c-5.1,5-10.6,9.1-17.2,12c-3.3,1.5-6.7,2.7-10.2,3.8c-2.6,0.8-5.3,1.5-8.1,1.2c-6.2-0.7-11.2-5.2-15.7-9.1
			c-8.7-7.6-17.1-15.7-25.2-24C61.1,33,56.3,27.4,50,23.4c-3.1-2-6-3.9-8.6-6.5c-3-3-5.5-6.5-8.1-9.9c-2-2.5-4.2-4.6-6.6-6.7
			c-0.1-0.1-0.2-0.2-0.3-0.2H0V28.5z M43.4,48.8c0.5,0.3,1,0.6,1.6,0.8c-0.1,0-0.3-0.1-0.5-0.2c-0.3-0.1-0.6-0.2-0.6-0.2
			c-1-0.5-1.4-0.9-1.6-1.2C42.6,48.3,43,48.6,43.4,48.8z M41.2,47.2c-0.1-0.1-0.2-0.1-0.3-0.3c0,0-0.1-0.1-0.1-0.1
			C41,47,41.1,47.1,41.2,47.2z"/>
		<path class="st6" d="M29.8,42.4c-0.1,0.1,0.1,0,0.2,0c0.1-0.1,0.2-0.1,0.2-0.1L29.8,42.4z"/>
		<path class="st6" d="M34.7,42.1c0.1,0.1,0.4,0.4,0.4,0.3C35,42.2,34.9,42.3,34.7,42.1z"/>
		<path class="st6" d="M30.9,40.6c-0.2,0.1-0.3,0.1-0.3,0.1l0.2-0.1c0.2-0.1,0.3-0.1,0.5-0.2C31.2,40.5,31,40.6,30.9,40.6z"/>
		<path class="st6" d="M44.5,51.9L44,51.5l-0.1,0C44.1,51.6,44,51.7,44.5,51.9z"/>
		<path class="st6" d="M114.6,82.9c1-0.2,2.8-1,2.9-1.3c0-0.2-0.1-0.2-1.1,0.2c-0.5,0.2-1.3,0.6-1.9,0.8c-0.6,0.2-1.1,0.3-0.8,0.4
			C113.9,82.9,113.6,83.2,114.6,82.9z"/>
		<path class="st6" d="M126.2,65.3c0.2-0.1,0.3,0,0.5-0.2C126.5,65.2,126.4,65.2,126.2,65.3z"/>
		<path class="st6" d="M125.5,65.2l1-0.6c-2.6,1.3-1.3,0.2-4,1.4c-0.2,0,0.3-0.2,0.4-0.3c-1.6,0.5-4.1,1.7-6.2,2.2
			c-2.6,1-3.7,1.6-4.5,2.1c-0.1,0.2-0.1,0.3,1.1,0.1c0.9-0.2,1.2,0,2.6-0.6c1.9-0.2,5-1.6,7-2.3c0,0-0.1,0-0.1,0
			c1.5-0.7,1.8-0.9,2.5-1.4c0.2-0.1,0.2-0.1,0.3-0.1c0.4-0.3,0.8-0.7,0.3-0.7c0.4-0.2,0.9-0.4,1.2-0.6
			C126.4,64.9,125.7,65.2,125.5,65.2z"/>
		<path class="st6" d="M47.2,50.9c0.2,0,0.4,0.1,0.4,0C47.6,51,47.4,51,47.2,50.9c-0.1,0-0.2-0.1-0.2-0.1L47.2,50.9z"/>
		<polygon class="st6" points="125.2,64.4 125.5,64.3 125.4,64.3 		"/>
		<path class="st6" d="M122.8,67.3c0.1,0,0.5-0.2,0.8-0.3C123.4,67.1,123.1,67.2,122.8,67.3z"/>
		<polygon class="st6" points="127.5,64.7 127.3,64.7 126.8,65.1 127.2,65 		"/>
		<path class="st6" d="M125.8,66c-0.2-0.1-1,0.4-1.6,0.7C124.5,66.6,125.2,66.2,125.8,66z"/>
		<path class="st6" d="M127.2,85.2c1.3-0.8,0.2,0.1,1.1-0.4c1.3-0.9,1.7-1.5,2.7-2.4l-1.1,0.6C128.7,83.8,127.5,84.9,127.2,85.2z"/>
		<polygon class="st6" points="128.3,63.2 127.9,63.4 127.7,63.5 		"/>
		<path class="st6" d="M148.1,55.3c0,0.1,0,0.2,0.4-0.2c0.3-0.4,0.6-1,0.5-0.9C148.7,54.5,148.4,54.9,148.1,55.3z"/>
		<path class="st6" d="M134.2,73.5c1.2-1.3,0.4-0.9-0.2-0.8c-0.3,0.1-1,0.7-1.5,1.2c-1.7,1.6-3.3,3-2.6,3c0.9-0.5,1.8-1.2,2.6-1.8
			C132.3,75,134.1,74,134.2,73.5z"/>
		<polygon class="st6" points="137.7,46 137.6,46.1 137.2,46.5 		"/>
		<path class="st6" d="M130.1,62.1c0.1-0.1,0.3-0.3,0.1-0.1C129.8,62.2,130,62.1,130.1,62.1z"/>
	</g>
	<g>
		<path class="st6" d="M47,56.7c-4.5,0.5-10.9,0.5-13.6,4.8c-2.8,4.5-0.2,10.1,2.4,14c2.4,3.6,6.3,6.6,10.9,5.2
			c5.4-1.6,3.4-7.8,2.3-11.6c-0.7-2.4-1.2-5.1-0.8-7.6c0.4-2.5,1.8-3.5,4.1-3.8L47,56.7z"/>
		<path class="st6" d="M136.7,82c5.4-2.7,10.1-6.4,13.2-11.6c1.3-2.2,2.6-4.5,3.3-7c0.6-2,1-5.6-1.8-6c-2.7-0.4-4.9,2.4-5.9,4.6
			c-1,2.3-1.2,4.8-2.4,7c-1.1,2-2.8,3.7-4.3,5.4c-1.4,1.6-2.8,3.1-4.6,4.3c-2.2,1.4-4.6,2.4-6.9,3.7c-2,1.2-3.8,2.7-5.5,4.2
			c0.8,0,1.8,0.2,2.6,0c0.4-0.1,0.5-0.3,1-0.4c0.5-0.1,0.7,0,1.1-0.2c0.6-0.3,1.3-0.5,1.9-0.8c0.8-0.3,1.4-0.2,2.2-0.4
			c0.1-0.2,0.2-0.3,0.4-0.3c0.2,0,0.5,0,0.7,0c0.5-0.1,0.7-0.4,1.1-0.6c0.5-0.3,1-0.5,1.6-0.8c0.3-0.2,0.6-0.5,0.9-0.7
			c0.4-0.3,0.6-0.2,1.1-0.2c0.5-0.1,0.6-0.3,1-0.4c0.4-0.1,1,0,1.4,0H136.7z"/>
		<g>
			<path class="st6" d="M23.5,53.1c-1.7,0.3-3.3,0.8-4.9,1.3c-1.8,0.6-3.5,1.3-5.4,1.2c-1,0-1.9,0-2.9-0.2c-0.9-0.2-1.8,0-2.7-0.3
				c-1.8-0.5-3.6-0.7-5.4-1.2c-0.8-0.2-1.5-0.5-2.3-0.8v4.7c1.7-0.4,3.8,0.3,5.3,0.9c0.8,0.3,1.6,0.9,2.5,1.1c1,0.2,2,0.1,3,0
				c1.1-0.1,2.2-0.2,3.2-0.7c0.9-0.4,1.7-1.1,2.6-1.4c2-0.8,3.8-1.7,5.8-2.4c2.2-0.8,4.3-0.9,6.6-1.2c1.8-0.2,3.6-0.7,5.4-0.8
				c-1.9-0.1-3.7-0.7-5.6-0.7C27.1,52.7,25.4,52.8,23.5,53.1z"/>
			<path class="st6" d="M34.5,53.3c0.2,0,0.4,0,0.5,0c0.1,0,0.2,0,0.3,0c0,0-0.1,0-0.1,0C35,53.3,34.7,53.3,34.5,53.3z"/>
			<path class="st6" d="M35.3,53.3c2,0.1,4.1,1.2,6,0.4c-1.1-0.2-2.2,0-3.3-0.3C37.2,53.3,36.2,53.3,35.3,53.3z"/>
		</g>
	</g>
</g>
<path class="st5" d="M255.2,127.2c-0.3-0.3-0.6-0.6-1.1-1c-0.5-0.4-1-0.8-1.7-1.3c-1.3-1-3.1-2.1-5.3-3.4c-2.2-1.3-5-2.7-7.7-5l0,0
	l0,0c-4.5-3.2-10.7-6.9-17.6-11.4c-1.7-1.2-3.5-2.3-5.2-3.6c-0.9-0.6-1.8-1.3-2.7-1.9c-0.9-0.7-1.7-1.4-2.6-2.1
	c-0.9-0.7-1.7-1.4-2.6-2.2c-0.8-0.8-1.7-1.5-2.5-2.3c-0.8-0.9-1.7-1.7-2.5-2.6c-0.8-0.9-1.6-1.8-2.3-2.7c-3.1-3.6-6-7.7-8.6-11.9
	c-0.6-1.1-1.3-2.2-1.9-3.2c-0.6-1.1-1.2-2.2-1.8-3.3c-0.6-1.1-1.2-2.3-1.8-3.4l-0.9-1.8l-0.9-1.7c-1.2-2.3-2.5-4.6-3.9-7
	c-1.5-2.4-3.2-4.8-5.5-6.9c-2.3-2.1-5.1-3.8-8-4.8c-2.9-1-5.9-1.4-8.7-1.5c0.1,0,0.3,0,0.4,0c-2.3-0.2-4.6-0.3-6.9-0.1
	c-2.4,0.2-4.8,0.7-7,1.6c-0.9,0.4-1.8,0.8-2.7,1.2c-1.2,0.4-2.3,0.9-3.5,1.5c-3.5,1.8-6.5,4.2-9.7,6.5c-3.3,2.4-6.7,3.8-10.7,4.2
	c-4.2,0.3-8.2-0.5-12.1-1.8c-4.1-1.4-7.1-3.5-9.7-6.9c-1.3-1.6-2.5-3.2-4.2-4.5c-1.8-1.3-3.8-2.3-5.7-3.4c-3.7-2.2-6.6-5.4-10.3-7.5
	C73.1,30.7,69,29,65.1,27c-1.9-1-3.8-2-5.6-3c-3.4-3.3-7-6.6-10.8-9.9c-4.3-3.6-8.6-7.4-13-11.1c-1.1-1-2.3-2-3.4-2.9H21.1
	C22,1,23,1.9,23.9,2.8C26,4.9,28.1,6.9,30.1,9c4.1,4.1,8.2,8.1,12.2,12.1c7.8,7.8,14.5,15.6,20.8,22.9c1.5,1.8,3.1,3.5,4.5,5.1
	c0.7,0.8,1.4,1.6,2.1,2.4c0.3,0.4,0.7,0.8,1,1.2l0.5,0.6l0.1,0.1l0.1,0.1c0,0.1-0.3-0.3-0.1-0.2l0,0l0.2,0.3c2.5,3,4.7,5.9,6.8,8.3
	c2.1,2.5,4.1,4.6,5.7,6.2c0.3,0.3,0.6,0.6,0.9,0.8c2,2.4,4,5.3,6.9,6.6c1.3,0.6,2.8,0.8,4.2,1.2c1.8,0.5,3.6,1.3,5.3,2.2
	c3.5,1.8,6.9,3.5,10.7,4.7c3.9,1.2,7.9,2.2,11.2-0.8c1.5-1.4,2.8-3,4.4-4.1c1.7-1.2,3.7-2,5.5-3c3.7-2.1,4.7-5.6,6.4-9.2
	c0.8-1.8,1.8-3.4,2.8-5c1-1.7,1.9-3.6,3.1-5.2c0,0,0,0,0,0c1.2-1.1,2.5-2,3.9-2.7c2.5-1.2,5.6-1.6,9.1-1.5l0.4,0
	c2.1-0.1,4.1,0.1,5.9,0.5c1.9,0.5,3.5,1.3,5.1,2.6c3.2,2.5,5.9,6.7,8.7,11.1l1.1,1.6l1,1.6c0.7,1.1,1.4,2.3,2.1,3.4
	c0.7,1.1,1.5,2.2,2.2,3.3c0.8,1.1,1.5,2.2,2.3,3.2c3.1,4.3,6.5,8.3,10.1,11.9c0.9,0.9,1.8,1.8,2.8,2.7c0.9,0.8,1.8,1.6,2.7,2.4
	c1,0.9,2,1.5,2.9,2.3c1,0.7,1.9,1.5,2.9,2.1c1,0.7,1.9,1.3,2.9,2c1,0.6,1.9,1.2,2.9,1.8c1.9,1.2,3.8,2.2,5.6,3.2
	c7.3,4,13.7,7.1,18.4,9.9c0,0,0,0-0.1,0c3,2.2,5.8,3.5,8.1,4.7c2.3,1.2,4.1,2.2,5.5,3c0.7,0.5,1.3,0.8,1.7,1.2
	C254.5,126.7,254.8,127,255.2,127.2c0.5,0.6,0.8,0.8,0.8,0.8S255.7,127.7,255.2,127.2z M65.6,29.9c2.8,1.3,5.5,3.1,8.1,4.7
	c3.3,2.2,5.5,5.2,8.2,8c3.2,3.3,6.5,6.2,10.4,8.7c1.9,1.2,3.5,2.7,4.9,4.4c1.4,1.6,2.6,3.2,4.3,4.4c3.1,2.2,7.6,3.1,11.4,3
	c4.4-0.2,8.6-2.3,12.4-4.4c1.8-1,3.1-2.3,4.5-3.8c1.4-1.6,3.1-2.9,4.9-4.1c0.3-0.2,0.6-0.4,1-0.7c-0.4,0.4-0.8,0.8-1.1,1.2
	c-1.4,1.5-2.6,3-3.7,4.4c-0.5,0.7-1.1,1.4-1.6,2.2c-0.5,0.7-0.9,1.3-1.4,2c-0.2,0.3-0.5,0.6-0.7,1l-0.3,0.5
	c-0.1,0.1-0.2,0.2-0.3,0.3c-0.3,0.3-0.5,0.6-1,1l-0.6,0.5c-0.2,0.2-0.4,0.3-0.6,0.5c-0.2,0.1-0.4,0.3-0.6,0.4
	c-0.2,0.1-0.4,0.2-0.6,0.4c-3.2,1.9-6.8,2.2-9.7,2.1c-2.9-0.1-5-0.6-6-0.8c-0.6-0.1-1.1-0.2-1.7-0.4l-0.1,0l0,0l0,0l0,0
	c0,0-0.1,0,0.3,0.1l0,0l0,0l-0.1,0l-0.2-0.1l-0.5-0.1c-0.3-0.1-0.6-0.2-0.9-0.2l-0.5-0.1l-0.3-0.1l-0.6-0.2
	c-0.2-0.1-0.4-0.1-0.6-0.2l-0.7-0.2c-1.6-1-3.3-2.2-5.1-3.6c-1.2-0.9-4.1-3.2-8.2-7.5c-2.1-2.1-4.4-4.8-7.3-7.8l-0.3-0.3l-0.2-0.3
	l-0.1-0.1l-0.1-0.1l-0.5-0.5c-0.4-0.4-0.7-0.7-1.1-1.1c-0.7-0.7-1.5-1.5-2.3-2.2c-1.6-1.5-3.2-3.1-4.8-4.7
	C69.6,33.9,67.7,31.9,65.6,29.9z"/>
<g>
	<g>
		<path class="st5" d="M482.5,186.1c-2.3-0.4-5.1-0.9-8.4-1.5c-1.6-0.3-3.4-0.6-5.2-1c-1.8-0.4-3.8-0.8-5.9-1.2
			c-2.1-0.4-4.2-1-6.4-1.5c-2.2-0.5-4.5-1.2-6.9-1.9c-2.4-0.6-4.7-1.6-7.2-2.5c-0.6-0.2-1.2-0.4-1.8-0.7c-0.6-0.3-1.2-0.6-1.9-0.8
			c-1.2-0.6-2.5-1.1-3.8-1.7c-5-2.2-10-5.1-15-8.5c-5-3.4-10-7.2-15.2-11.3c-2.6-2-5.1-4-7.6-6.2c-2.4-2.2-4.8-4.4-7-6.9
			c-4.5-4.8-8.4-10.3-11.3-16.2c-1.4-3-2.7-6-3.6-9.2c-0.3-0.8-0.4-1.6-0.6-2.4c-0.2-0.8-0.4-1.6-0.5-2.4l-0.4-2.3
			c-0.1-0.4-0.1-0.8-0.2-1.3l-0.1-1.3l-0.1-1.3l0-0.5c0,0,0,0,0,0l0-0.1l0-0.2l0-0.3l-0.1-2.5c0-0.8,0-1.7,0.1-2.5l0-1.2l0.1-1.2
			c0.2-3.3,0.7-6.6,1.4-9.8c1.4-6.4,3.7-12.6,6.7-18.2c1.5-2.8,3.2-5.5,5-8c0.4-0.6,0.9-1.2,1.4-1.8l0.7-0.9
			c0.2-0.3,0.5-0.6,0.8-0.9c0.5-0.6,1-1.2,1.5-1.8l0.1-0.1l0.2-0.2l0.4-0.4l0.8-0.8c4.3-4.4,9.1-8.4,13.8-12.3
			c4.7-3.9,9.3-7.9,13.5-12c4.2-4.2,7.8-8.5,10.6-12.9c0.7-1.1,1.4-2.2,2-3.4c0.6-1.2,1.2-2.4,1.7-3.6c1-2.2,1.6-4,2.3-6
			c0.3-0.8,0.6-1.6,0.8-2.4h-3.8h-7.5H225.9c2.7,7.5,5,15.1,7,22.8c3.2,12.1,6.4,24.1,9.6,36.2c6.8,25.6,11.6,54.6,34.6,71.1
			c3.6,2.6,7.6,4.8,11.8,6.5c0.6,0.6,1.2,1,1.7,1.5c0.6,0.5,1.2,1,1.8,1.3c1.1,0.8,2.2,1.4,3.1,2c1.9,1.1,3.6,1.8,5.4,2.6l-0.1-0.1
			c0.9,0.4,1.9,0.9,3,1.2c1.1,0.3,2.3,0.7,3.6,1c1.3,0.3,2.7,0.7,4.4,1.1c1.7,0.6,3.6,0.8,5.2,2.2c-1.4-1.6-3.3-2.3-4.8-3.1
			c-1.6-0.8-2.9-1.4-4.1-2.1c-1.2-0.6-2.1-1.3-3-1.8c-0.8-0.6-1.5-1.2-2.1-1.8l-0.1-0.1c-0.2-0.2-0.4-0.4-0.7-0.5
			c2.5,0.3,5.1,0.3,7.6,0.2c10.9-0.7,20.8-5.6,31.3-8.3c10.5-2.6,21.1-2.5,30.9,2.4c2.8,1.4,5.5,3.2,8,5c1.7,2.1,3.6,4,5.5,5.9
			c2.5,2.5,5.2,4.8,7.9,6.9c2.7,2.1,5.5,4.1,8.2,6c5.4,3.7,10.7,7.4,16,10.6c5.3,3.2,10.8,6,16.1,8c1.3,0.5,2.6,1,3.9,1.5
			c0.6,0.2,1.2,0.5,1.8,0.7c0.9,0.5,1.9,1.1,2.8,1.6c-0.7-0.5-1.5-1-2.2-1.4c0.5,0.1,1,0.3,1.4,0.4c2.6,0.8,5.1,1.6,7.6,2.1
			c2.4,0.6,4.8,1.2,7.1,1.5c2.3,0.4,4.5,0.9,6.6,1.1c2.1,0.3,4.1,0.6,6,0.9c1.9,0.2,3.7,0.4,5.3,0.6c3.3,0.4,6.2,0.7,8.5,0.9
			c4.7,0.5,7.2,0.8,7.2,0.8S487.1,186.9,482.5,186.1z"/>
		<g>
			<path class="st4" d="M317.3,112.5L317.3,112.5C317.3,112.4,317.3,112.5,317.3,112.5z"/>
			<path class="st4" d="M319.2,114.7c0.2-0.2,0.5-0.4,0.8-0.5c-0.3,0-0.6,0-0.8,0.1c0.2-0.1,0.4-0.2,0.5-0.4c-0.3,0-0.8,0.3-1.1,0.4
				c-0.2,0.1-0.8,0.6-1,0.5c0.5-0.4,1.2-0.8,1.6-1.2c-0.2,0-0.4,0-0.5,0c0.2-0.2,0.6-0.3,0.7-0.5c-0.5,0-0.9,0.2-1.3,0.2
				c-0.4,0-0.7,0-1.1,0.1c0.4-0.2,1-0.3,1.3-0.7c-0.2-0.1-0.4,0-0.6,0c0,0,0-0.1,0-0.1c-0.1,0-0.2,0-0.3,0c0,0,0,0,0-0.1v0l-0.1-0.1
				c-0.5,0-0.9,0.1-1.4,0.2c-0.9,0.3-1.8-0.4-2.7-0.1c-1.1,0.4-2.3-0.2-3.4,0.1c-1.1,0.3-2.2,0.6-3.3,0.8c-1.1,0.1-2.2,0.2-3.3,0
				c-2-0.4-3.9-0.8-5.8-1.4c-1.8-0.6-3.6-1.3-5.1-2.4c-1.8-1.3-3.7-2.7-5.4-3.8c-0.3-0.2-0.7-0.5-1.1-0.9c-0.4-0.4-0.8-0.8-1.2-1.2
				c-0.4-0.4-0.8-0.8-1.2-1.2c-0.4-0.4-0.8-0.6-1.2-0.8c1.4,1.3,2.5,2.9,3.7,4.3c-1.6-1.1-3-2.7-4.4-4.3c-1.4-1.6-2.7-3.3-4-5
				c1.2,1.6,2.3,3.2,3.5,4.8c1.2,1.5,2.3,3.1,3.6,4.5c2.5,2.8,5.5,5.4,8.8,7.8c-1.1-0.5-2.2-1.1-3.3-1.8l-10.7-10.9
				c-0.5-0.7-1.1-1.5-1.6-2.2c-1.4-2-2.7-3.9-4.3-5.5c-0.5-0.5-1.1-1-1.6-1.4c2.5,2.3,4.4,5.1,6.3,8l-4.6-4.7c2.2,3,4.5,6.6,7.1,9.7
				c1.8,2.2,3.9,4,5.7,5.2c1.5,1.3,3.2,2.5,4.9,3.4c3.8,2.2,8.2,3.4,12.7,3.6c0.6,0.1,1.2,0.1,1.8,0.2c0.6,0,1.2,0.1,1.8,0.1
				c2.4,0,5-0.1,7.3-0.4c2-0.2,5.6-0.5,6.4-2.5C320.6,114.5,319.8,114.8,319.2,114.7z"/>
			<path class="st4" d="M268.9,90.4l4.7,4.8C272,93.1,270.5,91.3,268.9,90.4z"/>
		</g>
	</g>
	<path class="st0" d="M384.5,16.3C387,11,389.2,5.5,391.4,0h-70.8c5.3,7.5,10,15.4,11.4,24.7c0.6,3.7,0.5,7.3,0.1,10.8
		c-0.1-0.8-0.2-1.7-0.4-2.8c-0.2-1-0.4-2.1-0.7-3.3c-0.4-1.2-0.9-2.6-1.6-3.8c-0.2-0.4-0.4-0.7-0.7-1c-0.2-0.3-0.4-0.5-0.6-0.8
		c-0.4-0.4-0.7-0.3-0.8-0.3c-1.2-1.7-2.5-3-3.6-4.2c-4.4-3.4-9.1-5-13.5-6c-2.2-0.5-4.4-0.8-6.2-1c-1.9-0.3-3.7-0.5-5.6-0.8
		c-7.5-1.1-15.1-2.4-22.4-4.9c-1.7-0.3-3.2-0.9-4.8-1.4c-0.8-0.3-1.6-0.5-2.3-0.9c-0.7-0.4-1.4-0.7-2.1-1.1
		c-1.5-0.8-2.9-1.9-4.2-3.1h-17.7c0.3,0.4,0.5,0.8,0.8,1.1c2.2,2.9,4.5,5.8,7.6,8.5c0.7,0.7,1.5,1.3,2.3,1.9l1.2,0.9
		c0.4,0.3,0.8,0.5,1.1,0.8c1.5,1,3,2,4.5,2.9c6.3,3.7,12.9,6.2,19.3,8.3c2.3,0.5,7.7,1.8,14.6,3.3c1.7,0.4,3.5,0.7,5.4,1.1
		c1.7,0.3,3.2,0.7,4.7,1.2c2.9,1,5.2,2.3,6.5,3.9c0.2,0.2,0.3,0.4,0.5,0.6c0.2,0.2,0.1,0.2,0.2,0.3c0,0.1,0.2,0.4,0.3,1
		c0.1,0.6,0.2,1.3,0.3,2.3c0.1,1,0.2,2,0.2,2.9c0,0.5,0.1,0.9,0.1,1.3c0,0.4,0,0.8,0,1.3c0,0.3,0,0.7,0,1c0,0.4,0,0.7-0.1,1
		c-0.1,0.6-0.1,1.2-0.3,1.7l-0.1,0.4l-0.2,0.6c-0.1,0.4-0.3,0.8-0.4,1.2c-0.4,1.1-0.7,2-1,3.4c-0.2,0.6-0.3,1.4-0.4,1.9
		c-0.1,0.5-0.1,1.1-0.2,1.6c-0.1,1-0.2,2.1-0.3,3c0,0.2,0,0.5-0.1,0.7c0,0.2,0,0.4,0,0.6c0,0.4-0.1,0.7-0.1,1.1
		c-0.1,1.5-0.2,2.9-0.3,4.2c-0.1,1.4-0.2,2.6-0.2,3.7c0,0.5,0,1.1,0,1.6c0,2.4,0.1,5,0.7,7.8c0.2,1.4,0.6,2.8,1,4.2
		c0.5,1.4,1,2.9,1.7,4.1c2.5,5,5.7,8.8,8.6,11.5c0.7,0.6,1.4,1.2,2.1,1.7c0.7,0.5,1.5,1.1,2.2,1.6c1.5,1,3,1.9,4.6,2.9
		c-1.1-1.4-1.9-2.7-2.6-3.8c0.6,0.6,1.3,1.2,1.9,1.8c0.6,0.6,1.3,1.1,1.9,1.6c0.3,0.2,0.6,0.5,0.9,0.7c0.3,0.2,0.5,0.3,0.7,0.5
		c0.5,0.3,0.9,0.5,1.2,0.6c5.7,3.2,4,0.5,2.8-2.2c4.3,4.6,9.2,8.7,14.3,12c5.1,3.3,14.8,8.1,16-1.3c0.6-4.7-0.5-9.7-1.4-14.3
		c-1.1-6.2-2.3-12.4-3-18.7c-1.3-11.9-0.3-23.7,4.3-34.8C373,36.4,379.6,26.8,384.5,16.3z"/>
	<path class="st2" d="M329.7,0c0.4,1.5,0.8,2.9,1.3,4c0.7,1.6,0.6,2.3,1,4c0.3,1.2,1.2,2.2,1.5,3.5c0.4,1.5,0.9,3,1.3,4.5
		c0.4,1.5-0.1,3,0.2,4.5c0.1,0.6,0.8,0.9,1,1.5c0.2,0.8-0.1,1.7,0.1,2.5c0.3,1.3,0.8,3,1.2,4.3c0.5,1.8,2.2,4.7,3.2,6.3
		c0.7,0.9,1.8,1.3,2.5,2c1,0.9,1.7,1.7,2.5,3c0.9,1.5,1.4,2.2,1.5,4c0.1,1.3-0.6,3.4,0.8,4.3c-1.6,3.9-3.7,7.2-7,9.9
		c-3.6,2.9-8.2,4.8-11.3,8.3c-6.9,7.8,2.5,18,7.4,24.2c4.8,6.1,10.1,13.6,17.6,16.5c9.5,3.6,10.9-5.9,10.7-13.1
		c-0.3-10.1-0.6-19.1,3.5-28.6c3.7-8.6,8.3-17.4,14.5-24.5c7-8.1,16-14.2,23.1-22.2c5-5.6,9.1-12,12.6-18.7H329.7z"/>
	<path class="st0" d="M283.7,1.5c1.2,0.7,2.5,1.2,3.8,1.8c2.6,1,5.1,2.2,7.8,2.9c2.5,0.7,5,1.3,7.6,1.6c1.4,0.2,2.8,0.5,4.2,0.8
		c1.4,0.3,2.9,0.5,4.3,1c1.2,0.4,2.4,0.9,3.6,1.5c1,0.5,1.9,1.3,2.9,1.9c2.1,1.2,4.2,2.8,5.5,4.9c1.5,2.3,2.4,4.7,2.8,7.3
		c0.5,3,1.4,6,1.3,9.1c0.4-2.5,0.5-5.1,0.2-7.7c-0.2-2.1-1.3-3.6-2.3-5.5c-1.8-3.8-3.9-7.6-7.3-10.2c-1.7-1.3-3.9-1.7-5.9-2.4
		c-2.1-0.8-4.3-1.1-6.5-1.7c-2.5-0.7-5-1.1-7.4-2c-2.1-0.8-4.3-1.5-6.2-2.6c-1.1-0.7-2.4-1.2-3.5-2h-6.9C282.3,0.5,283,1,283.7,1.5z
		"/>
	<path class="st0" d="M295.7,1.2c1.7,1.1,3.8,1.7,5.7,2.3c2,0.7,4,1.1,6.1,1.7c4,1.2,8.4,1.8,11.8,4.3c3.4,2.5,5.6,6.9,7.1,10.7
		c0.9,2.1,1.5,4.1,1.8,6.4c0.3,2.5,0.4,5.1,0.6,7.6c0-0.5,0-1.1,0-1.7c0-0.5,0.2-1,0.2-1.5c0-1.1,0-2.2,0-3.3c0-1.1-0.3-2-0.7-3
		c-0.2-0.5-0.4-0.7-0.6-1.1c-0.2-0.5-0.2-0.8-0.3-1.4c-0.2-1.6-1.4-3.3-2.1-4.6c-0.4-0.8-0.6-1.5-1-2.3c-0.4-0.8-1.1-1.8-1.2-2.7
		c-0.1,0-0.3-0.1-0.4-0.1c-0.1-0.6-0.6-0.8-1-1.2c-0.4-0.4-0.6-0.8-0.9-1.3c-0.6-0.8-1-1.3-1.9-1.8c-0.4-0.2-0.8-0.3-1.2-0.5
		c-0.5-0.2-0.9-0.5-1.4-0.7c-0.9-0.4-2.1-0.8-3-1.1c-0.5-0.1-0.9-0.1-1.4-0.2c-0.5-0.1-1-0.4-1.6-0.5c-1.1-0.2-2.2-0.5-3.3-0.9
		c-1-0.3-1.9-0.8-2.9-1c-0.5-0.1-1-0.1-1.6-0.1c-0.5,0-1.2-0.3-1.7-0.4c-0.9-0.3-2.2-1.1-2.5-2c-0.1-0.3-0.2-0.6-0.2-0.9H294
		C294.6,0.4,295.1,0.8,295.7,1.2z"/>
	<path class="st2" d="M236.2,2.9c1.1,2.1,2.1,4.2,3.1,6.2c0.9,1.8,1.2,4,2.1,6l0-0.1c0.7,2.1,2.2,3.5,3.6,4.6c1.5,1.1,3,1.9,4.4,2.7
		c1.4,0.7,2.8,1.3,4.1,2c1.3,0.5,2.5,1,3.6,1.4c1.1,0.4,2,0.8,2.9,1.1c0.9,0.3,1.5,0.7,2.1,0.9c1.1,0.5,1.8,0.8,1.8,0.8
		s-0.6-0.3-1.7-1c-0.6-0.3-1.2-0.7-2-1.1c-0.8-0.4-1.8-0.8-2.8-1.3c-1-0.5-2.2-1-3.5-1.6c-1.2-0.7-2.5-1.4-3.9-2.1
		c-1.4-0.8-2.8-1.6-4.1-2.7c-1.3-1.1-2.6-2.4-3-4.1l0,0l0,0c-0.7-1.7-0.9-4-2-6.1c-1-2-2-4.1-3.1-6.2c-0.4-0.7-0.7-1.5-1.1-2.2h-1.8
		C235.2,0.9,235.7,1.9,236.2,2.9z"/>
</g>
<g>
	<path class="st5" d="M271.6,431.8C271.6,431.9,271.6,431.9,271.6,431.8l0,0.2C271.6,431.9,271.7,431.9,271.6,431.8z"/>
	<path class="st5" d="M272.4,447.1c0,0-0.3,0.1-0.3,0.1c0.3,0.4,1,0.7,1.4,1c-0.1,0-0.2,0.2-0.3,0.1c0.3,0.3,0.7,0.3,1.1,0.3
		c0.2,0,0.4,0,0.6,0.1c0.1,0,0.2,0.1,0.3,0.2c0.2-0.2,0.6-0.1,0.8-0.1c0.2-0.1,0.4-0.3,0.5-0.6c-0.2-0.6-0.7-0.9-1.2-1.1
		c-0.1-0.1-0.3-0.1-0.5-0.2l-0.6-0.2c-0.4-0.1-0.8-0.2-1.2-0.3c-0.2,0.2,0.2,0.3,0.3,0.4C273.1,447.2,272.8,447.2,272.4,447.1z"/>
	<path class="st5" d="M266,447.7c0.2,0.1,0.6,0.3,0.9,0.4c0.3,0.1,0.6,0.1,0.9-0.2c0.2-0.4-0.1-0.5-0.4-0.7
		c-0.6-0.4-1.3-0.5-2.1-0.4c0.6,0,0.1,0.6,0.7,0.6c-0.2,0.1,0,0.3-0.1,0.3L266,447.7z"/>
	<path class="st5" d="M283.7,449.3c-0.3-0.1-0.2,0.2-0.4,0.3c0.2,0.2,0.2,0.2,0.5,0.1C283.8,449.6,283.8,449.4,283.7,449.3z"/>
	<polygon class="st5" points="264.7,445.8 265.2,445.7 264.8,445.6 	"/>
	<path class="st5" d="M240.5,432.1c1-0.1,1.8,0.4,2.9,0.3c0.6,0,1.4,0,1.4-0.4c-1-0.6-2.9-0.3-4.2-0.1l0.2,0
		C241,432.1,240.5,432,240.5,432.1z"/>
	<path class="st5" d="M250.8,434c-0.1-0.2-0.6-0.3-0.8-0.4c-0.6-0.1-1.2,0-1.6,0.1l0.7,0.4C249.6,434.1,250.5,434.3,250.8,434z"/>
	<path class="st5" d="M254,432.6l0-0.1c-0.1,0-0.2-0.1-0.3-0.2c-0.5-0.3-1.4-0.2-1.9-0.2c0.2,0,0.4,0.1,0.6,0.1l0.5,0.2
		C253.2,432.6,253.6,432.7,254,432.6z M253.3,432.4L253.3,432.4C253.2,432.4,253.3,432.4,253.3,432.4z"/>
	<path class="st5" d="M291.3,440c0.1-0.1,0.2-0.2,0.2-0.4c0-0.1-0.1-0.1-0.2-0.1C291,439.6,291.1,440,291.3,440z"/>
	<path class="st5" d="M254,431.1l0.3,0.1C254.3,431.1,254.2,431.2,254,431.1z"/>
	<path class="st5" d="M290.9,440.9c-0.1-0.1-0.2-0.2-0.4-0.2c-0.2,0.1-0.4,0.5,0,0.5C290.7,441.3,290.7,441,290.9,440.9z"/>
	<path class="st5" d="M292,436.6c0.4,0.1,0.7-0.1,0.7-0.5c0.2-0.4-0.3-0.6-0.5-0.8c-0.3,0.2-0.7,0.3-0.8,0.8
		C291.7,436.2,291.6,436.7,292,436.6z"/>
	<polygon class="st5" points="304.9,430.1 304.9,430 304.6,430 	"/>
	<path class="st5" d="M305.5,432.8c0-0.1,0-0.1,0-0.2c-0.1,0.1-0.2,0.1-0.4,0.2C305.3,432.8,305.5,433,305.5,432.8z"/>
	<path class="st5" d="M305.1,432.5c0-0.1-0.1-0.1,0-0.2c0.1,0,0.4,0.1,0.5,0.3c0-0.1-0.1-0.2-0.2-0.4c-0.1,0-0.3-0.1-0.4,0l0.1,0.1
		l-0.3,0.1L305.1,432.5z"/>
	<path class="st5" d="M306.9,430.1l-0.4,0.1C306.7,430.3,306.8,430.2,306.9,430.1z"/>
	<path class="st5" d="M304.9,432.8l-0.4-0.5c0.1,0.1,0.5-0.2,0.3-0.1l-0.5,0.2L304.9,432.8z"/>
	<polygon class="st5" points="305.6,432.7 305.6,432.7 305.6,432.7 	"/>
	<path class="st5" d="M294.2,450h0.3C294.4,449.9,294.3,450,294.2,450z"/>
	<path class="st5" d="M294.5,442.1c-0.1-0.1,0-0.4-0.2-0.4c-0.1,0.1-0.2,0.1-0.2,0.3C294.1,442.2,294.4,442.3,294.5,442.1z"/>
	<path class="st5" d="M295.3,449.6c-0.2,0.1-0.2,0.3-0.3,0.4c0,0,0,0,0,0h1C295.9,449.8,295.4,449.8,295.3,449.6z"/>
	<path class="st5" d="M295.7,446.4c-0.1,0.1-0.4,0-0.4,0.3c0,0.2,0.2,0.2,0.4,0.2C295.9,446.8,295.9,446.5,295.7,446.4z"/>
	<path class="st5" d="M300.8,421c0.4-0.1,1.2,0.2,1.1-0.5c-0.7-1.6-2.6-0.8-3.7-1.4l0.4,0.4C299.4,419.8,299.7,420.9,300.8,421z"/>
</g>
<g>
	<path class="st5" d="M438.9,64.3c-0.1,0-0.1-0.2-0.2-0.2l0.4-0.3c-0.3-0.7,0.7-0.4,0.7-0.8c0.7,0,1,0.2,1.6,0.7
		c0.1,0.7-0.1,0.6,0,1.3c-0.5,0-0.1,1.3-1,0.9c-0.4,0.4-0.7-0.2-1.2,0c0.3,0-0.1-0.4-0.3-0.5l-0.3-0.1c0.3-0.3,0.1-0.6-0.2-0.8
		C438.8,64.6,438.8,64.4,438.9,64.3z"/>
	<path class="st5" d="M452.4,97.1c0.2-0.5-0.5-0.2-0.6-0.5c0.2-0.2,0.5,0.2,0.7-0.1c-0.1-0.2-0.5-0.4-0.8-0.2l-0.1,0
		c0.4-0.3,1.3,0.1,1.6-0.5c-0.2,0-0.3-0.3-0.1-0.4c0.6,0,0.8-0.5,1.4-0.5l-0.2-0.2c0.5-0.1,1.1,0,1.6,0c-0.4-0.6,0.9,0,0.8-0.5
		c0.3,0.4,0.7,0.6,0.9,0.4c0.6,0.4,1.3,1,1.3,1.8c0.2,0.4-0.1,0.5-0.2,1l-0.1-0.1c0,0.2-0.3,0.3-0.1,0.5c-0.3,0.1-0.6,0.2-0.7,0.5
		c0,0.3-0.4,0.7-0.6,0.6c-0.1,0.1-0.1,0.2-0.1,0.2c-0.2,0-0.3,0-0.4,0.2c-0.7,0.2-1.6,0.2-2.3,0.8l0.3-0.1l-0.1-0.3l-0.6,0.5
		c0.1-0.3,0.6-0.5,0.4-0.9c-0.2-0.2-0.5,0-0.8,0l0.3-0.2c-0.2-0.3-0.7,0.1-1-0.1c0.5-0.4,0.1-0.7-0.3-1l-0.8-0.1
		C451.8,97.7,452.3,97.5,452.4,97.1z"/>
	<path class="st5" d="M481,77.3l-0.2,0c0.2-0.1,0.4-0.3,0.6-0.5c-0.1-0.1-0.2-0.2-0.3-0.2l-0.1,0.1c0.1-0.1,0.6,0,0.4-0.4l-0.1-0.1
		c0.7,0.1,0.9-0.6,1.6-0.5c0.5-0.7,1.2,0.1,1.7,0c0,0.3,0.3,0.4,0.4,0.6l0,1.4c-0.3,0.1-0.4,0.4-0.6,0.7c0.4,0.2,0.9,0.6,1,1
		c0.3,0.8-0.5,0.9-0.7,1.4c-0.3-0.2-0.8,0-1.1,0.2l-0.2,0.1c0.3-0.6-0.7-0.4-1.1-0.5l-0.2,0c0.1-0.1,0.4-0.1,0.4-0.3l-0.6,0
		c0.1,0,0.2,0,0.3-0.2l-0.2-0.2c0.1,0,0.2-0.1,0.2-0.2c0-0.1-0.1-0.2-0.2-0.2l0.3-0.2c-0.2-0.2-0.4-0.2-0.3-0.6l-0.8-0.1l0.2-0.2
		c-0.1-0.1-0.2-0.2-0.4-0.2l-0.1,0.1l0.2-0.2l-0.6-0.1C480.7,77.8,481.5,77.7,481,77.3z"/>
	<path class="st5" d="M434.8,90.4l-0.2-0.2c0.5-0.2,1-1,1.9-0.9c0.6,0,0.8,0.3,1.4,0.6c0.2,0.9-0.2,1.3-0.8,1.8
		c-0.4-0.2-1.2,0.2-1.7,0.1l-0.1,0.1l0.3-0.2l-1.1-0.5C434.7,91.1,434.7,90.7,434.8,90.4z"/>
	<path class="st5" d="M430.6,76.3l-0.1-0.1c-0.1,0,0.4-0.1,0.3-0.4c0.9-0.4,1.1,1.2,2,0.4c0.4,0.5,1.2,0.4,1.3,1.1
		c0,0.6-0.6,0.8-1.1,0.9l-0.8,0.1c0-0.1-0.1-0.2-0.2-0.2l-0.3,0c0.3-0.4-0.5-0.2-0.6-0.5l0.1,0c0-0.5-0.6-0.3-0.7-0.7l-0.3-0.1
		C430.2,76.5,430.5,76.5,430.6,76.3z"/>
	<path class="st5" d="M451.9,79.7c-0.2-0.1,0.4-0.1,0.1-0.3c0.4,0,0.3-0.4,0.6-0.4l-0.1-0.1c0.6,0.3,0.5-0.8,1.4-0.2
		c0.4-0.4,0.7,0.5,1.1,0.3c0.5,0.6,0.5,0.9,0.2,1.6c-0.4,0.5-0.3,0.2-0.8,0.7l-0.3,0.2c-0.1-0.6-0.5,0.5-0.7-0.1
		c-0.3,0-0.5,0.2-0.8,0.1c0.1-0.1,0.1-0.2,0.1-0.2c-0.2-0.2-0.4-0.1-0.6-0.1l0.1-0.2l-0.4-0.2c0.1,0,0.1-0.1,0.1-0.2l-0.3-0.1
		C451.6,80,452.4,80.1,451.9,79.7z"/>
	<polygon class="st5" points="452.4,83.5 451.8,83.6 452.2,83.5 	"/>
	<path class="st5" d="M465.5,95.9l0-0.2c0.3,0.1,0.2-0.2,0.4-0.3c0.5,0.1,1.2,0,1.3,0.5l-0.2,0.7c-0.2-0.1-0.5,0.2-0.8,0.3
		c0-0.3-0.5-0.1-0.4-0.2l0.1-0.1c-0.3-0.1-0.4-0.2-0.7-0.4C465.4,96.2,465.5,96.1,465.5,95.9z"/>
	<polygon class="st5" points="465.6,96.3 465.6,96.2 466,96.2 466,96.3 	"/>
	<path class="st5" d="M467.3,114.4c0.5,0,1,0.5,0.6,0.9c-0.3,0.3-0.7,0.2-1,0.1C466.4,115.2,466.5,114.2,467.3,114.4z"/>
	<path class="st5" d="M476.7,88c0-0.2,0-0.2,0.1-0.5c0.3-0.1,0.8-0.2,1,0.1c0.2,0.3,0.2,0.5,0,0.8c-0.3,0.2-0.2,0.1-0.6,0.2
		c-0.2-0.2-0.6-0.3-0.6-0.6L476.7,88z"/>
	<path class="st5" d="M478.8,86.8c0,0.2-0.1,0.2-0.2,0.3c-0.1,0-0.3-0.1-0.2-0.3L478.8,86.8z"/>
	<path class="st5" d="M470.1,100.2c0.2-0.2,0.5-0.3,0.8-0.2c0,0.2,0.3,0.3,0.1,0.5c-0.2,0.2-0.5,0.2-0.8,0.2c-0.1-0.1-0.3-0.3,0-0.4
		L470.1,100.2z"/>
	<path class="st5" d="M470.5,100.4l0.1,0.1c0.2-0.1-0.4,0.3-0.4-0.1C470.3,100.1,470.4,100.4,470.5,100.4z"/>
	<path class="st5" d="M479.5,105.7l-0.4-0.2c0.3,0.1,0.5-0.1,0.7-0.4c0-0.1,0-0.2-0.1-0.2c0.3,0.1,0.4-0.1,0.6-0.2l-0.2-0.3
		c0.9,0.1,2.4-0.5,3,0.8l-0.2,1.3l-0.1-0.1c-0.3,0.6-0.8,0.7-1.1,1.1v0.2l-0.4-0.3c-0.2,0.2-0.1-0.1-0.4-0.1l-0.7,0.3
		c0-0.1,0.1-0.2,0.2-0.2c-0.1-0.3-0.4-0.1-0.5,0c0.1-0.3-0.2-0.5-0.6-1c-0.1,0.1-0.2,0.1-0.3,0.1c0.2,0,0.3-0.2,0.4-0.2v-0.1
		l-0.6-0.1C478.9,106,479.5,106.2,479.5,105.7z"/>
	<path class="st5" d="M481.3,93.6c0.2-0.2,0.2-0.3,0.1-0.5l-0.1-0.1c-0.1,0,0.3-0.1,0.3,0.1c0.2-0.1,0.1-0.5,0.5-0.4
		c0.3-0.2-0.1-0.4-0.2-0.6c0.4,0,0.4,0.4,0.8,0.2c0.4-0.8,1.1,0.2,1.5-0.2c0.1,0,0.5,0,0.5,0.3c0.1,0,0.2-0.1,0.2-0.2
		c0.4,0.2,0.5,0.9,0.8,0.9c0.2,0.1,0.2,0.4,0.4,0.5c0,0-0.1,0.3,0.2,0.4c-0.6,0.3,0.6,0.5-0.1,0.7c-0.1,0.2,0.3,0.3,0.3,0.4
		c-0.2,0-0.4-0.2-0.6,0c0.7,0.5-0.5,0.6-0.2,1.2c-0.1-0.2-0.4,0-0.4,0.2l0,0.2c-0.4-0.3-0.6,0.3-0.9,0.3c-0.2,0.1-0.9-0.6-1.3,0.1
		c-0.3,0.2-0.4-0.9-1-0.4l-0.2,0.2c-0.2-0.3,0.5-0.4,0.1-0.6c-0.4-0.1-0.3,0.2-0.5,0.3c0-0.1,0.7-0.8-0.1-0.9l-0.6,0.2
		c0.1-0.2,0.3-0.4,0.3-0.7c-0.1-0.4-0.6,0.1-0.5-0.2c0.2-0.1,0.5-0.1,0.3-0.4l-0.6-0.3C481.2,94.3,480.9,93.7,481.3,93.6z"/>
	<path class="st5" d="M498,102.9c0,0-0.1-0.1-0.2-0.1c0-0.3,0.7-0.7,0.5-1.1c0.7,0,0.5-1,1.3-0.8c0.3-0.1,0.1-0.5,0.6-0.3
		c0.1-0.1,0.1-0.2,0.1-0.3c0.9,0.2,1.8-0.3,2.6,0.1c0.5,0,0.5,0.6,1.1,0.4l-0.2,0.2c0.2,0.4,1.1,0.4,0.7,1l0.3,0.4
		c-0.4,0.3-0.5,0.7-0.6,1.2c-0.3,0.2-1,0.2-0.8,0.6c-0.7-0.1-0.5,0.5-0.8,0.7l-0.3-0.1l-0.3,0.3c-0.1-0.1,0.1-0.3-0.1-0.3
		c-0.5,0.1-0.8,0.3-1.1,0.6c0-0.1-0.1-0.2,0.1-0.2c-0.3-0.3-0.5,0.2-0.8,0.2l0-0.2l-0.4,0l0.1-0.1c-0.3-0.3-0.7,0-1,0.1
		c0-0.1,0.4-0.3,0.1-0.5l-0.5-0.3c0,0.1-0.2,0.1-0.3,0.1l0.3-0.5c-0.4-0.3-0.6,0.3-0.9,0.2C498.2,103.7,497.5,103.3,498,102.9z"/>
	<path class="st5" d="M491.5,81c0,0.2,0.2,0.3,0.2,0.5c-0.2,0.3-0.6,0.1-0.7-0.1C491.3,81.1,491,80.9,491.5,81z"/>
	<path class="st5" d="M495,66.9c0.1-0.1,0.2,0.1,0.3,0.2c0.1,0.3-0.2,0.4-0.3,0.6c-0.3-0.1,0-0.1-0.3-0.3
		C494.7,67.1,494.8,67,495,66.9z"/>
	<path class="st5" d="M465.9,74.6c0.4,0.1,0.9-0.1,1,0.4c0,0.4-0.2,1.3-0.8,1l-0.2,0.2l-0.5-0.4c0.3-0.3-0.3-0.5,0-0.8
		C465.7,74.9,466,74.9,465.9,74.6z"/>
	<path class="st5" d="M467.9,75.7l0.5-0.1L467.9,75.7z"/>
	<polygon class="st5" points="469.4,75.2 468.7,75.5 468.7,75.4 468.5,75.5 468.5,75.3 	"/>
	<path class="st5" d="M470.2,74.5c-0.1,0-0.1,0-0.2-0.1c0.1-0.1,0.2-0.1,0.3-0.2l-0.4-0.2c0.3-0.1,0.5-0.3,0.6-0.6l-0.1-0.1
		c0.5-0.5,1.3-0.4,1.9-0.3c0.4,0.3,0.8,0.8,1.4,0.7c0.2,0.3-0.4,0.2-0.1,0.4c0.3,0.2,0.4,0.8,0.6,1.1c-0.5,0.3-0.4,0.6-0.5,1.1
		c-0.1,0.2-0.6,0.1-0.4,0.5l-0.2-0.3c-0.3,0.2-0.1,0.5-0.2,0.7l-0.4-0.4c-0.2,0.4-0.9,0.2-1.1,0.4c-0.4-0.5-0.9,0.1-1.2,0.4
		c-0.2-0.3,0.6-0.8,0.1-1.2c-0.1,0.1-0.1,0.2-0.2,0.2c-0.4-0.4,0.5-0.6,0-0.9l-0.8,0.6C469.9,75.8,470.6,75.5,470.2,74.5z"/>
	<path class="st5" d="M469.7,75.2L470,75L469.7,75.2z"/>
	<polygon class="st5" points="473,78.7 472.9,78.7 472.9,78.4 	"/>
</g>
<g>
	<path class="st5" d="M72.3,26.9c-0.1,0.5,0.4,0.6,0.6,0.7c-0.1-0.3,0.3-0.2,0.4-0.4c0-0.2,0.1-0.5-0.1-0.6
		C72.9,26.3,72.4,26.4,72.3,26.9z"/>
	<path class="st5" d="M62.7,36.1c-0.2,0.2-0.4,0.5-0.2,0.7c0.2,0.1,0.3,0.2,0.6,0.1c0.3-0.1,0.3-0.5,0.2-0.7
		C63.2,36,62.9,36.1,62.7,36.1z"/>
	<polygon class="st5" points="70.8,16.4 70.8,16.5 70.9,16.3 	"/>
	<polygon class="st5" points="73,21.8 72.9,21.8 73,21.9 	"/>
	<path class="st5" d="M70.4,15.5c-0.4,0.3-0.8,0-1.1,0.3c-0.3-0.4-0.6,0.9-1.1,0.6c0.2,0.3,0.1,0.7,0.1,1.1c0.2-0.2,0.2,0.2,0.3,0.1
		c-0.1,0.3-0.2,0.2-0.2,0.4l0-0.1c0.4-0.3,0.5-0.1,0.9,0.1l0-0.1c0.2-0.2,0.5-0.3,0.7-0.2c0.2-0.6,0.4-0.8,0.7-1.2
		c-0.4-0.1-0.2-0.7-0.4-0.8C70.3,15.6,70.3,15.5,70.4,15.5z"/>
	<path class="st5" d="M70.4,15.5c0.1,0,0.1-0.1,0.2-0.2C70.5,15.3,70.5,15.4,70.4,15.5z"/>
	<path class="st5" d="M72.2,19.5c0,0,0,0.1,0,0.1c0,0,0,0,0,0C72.3,19.6,72.2,19.6,72.2,19.5z"/>
	<path class="st5" d="M70.2,19.2c0,0.1,0,0.3-0.2,0.3c-0.3,0.1-0.1-0.3-0.3-0.3l-0.1,0.4c-0.5,0-0.5,0.6-0.9,0.6
		c0.1,0.7-0.4,1.5,0,2.1l0,0c0.2,0.3,0.6,0.3,0.6,0.9c0.4-0.3,0.8,0.5,1.2,0c0.1,0.1,0.4,0.1,0.4,0.3l0-0.2c0.4-0.3,0.9-0.7,1.4-0.7
		c-0.1-0.2-0.2-0.4,0-0.7c0.1,0,0.1,0.1,0.2,0c0-0.1-0.1-0.2-0.2-0.2c0-0.3,0.3-0.3,0.4-0.5l0.4,0c-0.1-0.1-0.4-0.3-0.7-0.1
		c0-0.1-0.2-0.5,0.1-0.5c-0.1-0.3-0.4-0.6-0.4-1c-0.4-0.3-1-0.3-1.2-0.7C70.8,19,70.4,19.6,70.2,19.2z"/>
	<path class="st5" d="M71.3,18.5c-0.1,0.1-0.2,0.2-0.3,0.3C71,18.7,71.4,18.7,71.3,18.5z"/>
	<path class="st5" d="M75.1,28.2c0.1-0.3,0.5-0.1,0.7,0c0-0.5,0.4-0.4,0.7-0.5c0.2-0.5,0.1-0.8,0.2-1.3c-0.1,0.2-0.5-0.1-0.3-0.3
		c-0.5,0.2-0.7-0.2-1.1-0.1c0,0.4-0.2,0-0.3,0.3c-0.1,0-0.1-0.1-0.1-0.1c0.3,0.3-0.3,0.6-0.3,0.8C74.7,27.5,74.9,27.7,75.1,28.2z"/>
	<polygon class="st5" points="74.5,21.7 74.4,21.6 74.3,21.6 	"/>
	<path class="st5" d="M75.9,20.9c-0.1-0.1-0.2,0-0.2,0.1C75.7,21.1,75.9,21.1,75.9,20.9z"/>
	<path class="st5" d="M68.2,8.9c-0.1,0.1-0.1,0.3,0.1,0.3c0.2-0.1,0.1-0.2,0-0.3C68.4,8.9,68.3,8.9,68.2,8.9z"/>
	<path class="st5" d="M73.5,21.4c0.1,0.1,0.2,0.2,0.3,0.2C73.8,21.3,73.6,21.4,73.5,21.4z"/>
	<path class="st5" d="M70.5,31.9L70.5,31.9c-0.1,0.2-0.2,0.7-0.1,1c0.3-0.3,0.9,0.3,1-0.4c0.1-0.4-0.1-0.4-0.1-0.8
		C71,31.9,70.8,31.7,70.5,31.9z"/>
	<path class="st5" d="M73.5,21.4c0,0-0.1-0.1-0.1,0C73.4,21.3,73.5,21.4,73.5,21.4z"/>
	<path class="st5" d="M76.9,32.7c0-0.1,0.1-0.2,0-0.3c-0.1-0.1-0.4-0.1-0.4,0.2C76.5,32.8,76.7,32.9,76.9,32.7z"/>
	<polygon class="st5" points="56.3,26.5 56.3,26.5 56.3,26.8 56.3,26.8 	"/>
	<path class="st5" d="M65,7.5l0.1,0.1l0-0.1C65.1,7.5,65.1,7.5,65,7.5z"/>
	<path class="st5" d="M58.3,26.1c0.1,0,0.2-0.1,0.2-0.1C58.5,25.9,58.3,25.9,58.3,26.1z"/>
	<path class="st5" d="M59.8,11.7c-0.3-0.1-0.4,0.3-0.2,0.3C59.8,12,59.9,11.8,59.8,11.7z"/>
	<path class="st5" d="M59.1,34.3c-0.1,0.5,0.1,0.6,0.5,0.8c0.2-0.3,0.4-0.1,0.6-0.4c0-0.3,0-0.4,0-0.7c-0.3,0-0.4-0.4-0.8-0.1
		C59.3,34,59.2,34.1,59.1,34.3z"/>
	<path class="st5" d="M42.6,6.6c0.1-0.2-0.1-0.3-0.2-0.3C42.5,6.4,42.3,6.8,42.6,6.6z"/>
	<path class="st5" d="M51.1,7.5c-0.1,0.4-0.4,0-0.4,0.3c0.3,0.3,0.4,1,0.2,1.6c0.1-0.1,0.1-0.1,0.2-0.2c0.3,0.4,0.5,0.8,0.9,1.1
		c0.8-0.1,2-0.2,2.5-0.7c-0.2-0.4,0.3-0.6,0.5-1c0.1,0,0.1,0.2,0.2,0.2c0-0.3-0.3-0.6,0-1c0.4-0.3,0.7,0.2,1,0.2
		c-0.2-0.4-0.9-0.3-1.1-0.8c0.1-0.1-0.1-0.4,0.2-0.4C55.1,7,55,6.8,54.9,6.6c0.1-0.3,0.4-0.3,0.6-0.4c-0.6,0.4-1,0-1.4-0.1
		c-0.2,0,0-0.2,0-0.4c-0.3,0.2-0.5,0.2-0.7,0.3c0-0.4-0.9,0.4-0.7-0.3c-0.5,0.5-0.8,0.8-1.4,1.2C51.2,7.1,51.3,7.3,51.1,7.5z"/>
	<path class="st5" d="M52.5,2.2C52.4,2,52.3,2,52.2,2L52,2.4C52.2,2.6,52.5,2.3,52.5,2.2z"/>
	<path class="st5" d="M60.8,7.2l0.4-0.1c0.3,0.2-0.1,0.7-0.1,0.8c0.1,0,0.3-0.3,0.4-0.2c0.1,0.3,0.3,0.7,0.7,0.6l0.1-0.2
		c0.4,0.1,0.9,0.1,1.1,0.4c0.1-0.2-0.1,0-0.1-0.2c0.2-0.3,0.9-0.7,1.3-1c0-0.5,0.5-1,0.7-1.2c-0.1,0.1-0.2,0.1-0.3,0
		c-0.2-0.2-0.2-0.5,0-0.6c-0.5-0.2-0.4-1-1.1-0.9c-0.5-0.1,0.2-0.8,0.3-1.2c-0.3,0.2-0.4,0.9-0.9,1l0-0.2c-0.3,0.1-0.7,0.2-0.9,0.6
		l0-0.4c-0.1,0.2-0.2,0.7-0.6,0.6c-0.5,0.3-0.3,1-0.7,1.2c0,0.1,0.1,0.2,0.2,0.4C61.3,7.1,61,7,60.8,7.2z"/>
	<path class="st5" d="M66.6,5.9l0,0.1C66.6,6,66.6,6,66.6,5.9C66.6,5.9,66.6,5.9,66.6,5.9z"/>
	<path class="st5" d="M65.4,5.4c-0.1,0.1,0.1,0,0.1,0C65.5,5.4,65.5,5.4,65.4,5.4z"/>
	<path class="st5" d="M61.3,6C61.3,6,61.3,5.9,61.3,6L61.3,6L61.3,6z"/>
	<path class="st5" d="M67.4,16.9c0-0.1,0-0.2-0.1-0.2c-0.1,0-0.2,0.2-0.2,0.3C67.2,17.1,67.3,17,67.4,16.9z"/>
	<path class="st5" d="M66.5,32.6c-0.2,0-0.2,0.3-0.3,0.4c-0.1,0.3,0.2,0.3,0.2,0.5c0.4,0.2,0.6,0,0.8-0.3c0-0.1,0-0.2,0-0.4
		C67.1,32.5,66.8,32.6,66.5,32.6z"/>
	<path class="st5" d="M61.6,5.3c0.1,0,0.1-0.1,0.1-0.2C61.6,5.1,61.6,5.2,61.6,5.3z"/>
	<path class="st5" d="M66.2,10.7L66,10.6c0.1-0.1,0.4-0.4,0.6-0.3c0-0.3-0.1,0.1-0.3-0.1c-0.2-0.2,0.2-0.5,0.3-0.4
		c-0.4,0.1-0.4-0.6-0.7-0.3c0-0.2-0.4,0.3-0.4,0c-0.1,0.4-0.5,0.4-0.4,0.8C65.2,10.7,65.7,10.7,66.2,10.7z"/>
	<path class="st5" d="M63.8,3.7L63.6,4l0,0C63.7,3.9,63.8,3.7,63.8,3.7z"/>
	<polygon class="st5" points="69.5,18.2 69.6,18.3 69.6,18.2 	"/>
	<path class="st5" d="M85,25l0,0.2C85,25.2,85,25.1,85,25C85.1,25,85.1,25,85,25z"/>
	<polygon class="st5" points="102.4,38.8 102.2,38.7 102.4,38.9 	"/>
	<path class="st5" d="M98.6,40.1c0.1,0.1,0.2,0.1,0.2,0C98.9,39.8,98.5,39.9,98.6,40.1z"/>
	<path class="st5" d="M102.3,29.7c-0.1-0.4-0.8-0.1-1-0.6c-0.6,0-1,0.5-1.5,1c-0.1,0.3-0.2,0.4-0.1,0.7c0.1,0.2-0.1,0.7,0.3,0.6
		c0,0.8,0.8,0.5,1.1,0.9c0,0,0,0,0-0.1c0.3,0,0.5-0.1,0.7-0.3c0,0,0,0.1,0,0.1c0.2-0.2,0.4-0.5,0.5-0.8c0.1,0,0.2,0.1,0.2,0.1
		c-0.1-0.1-0.2-0.2-0.1-0.4l0.3-0.1c-0.6,0,0.1-0.8-0.5-0.9C102.2,29.7,102.3,29.8,102.3,29.7z"/>
	<path class="st5" d="M101.1,32.4c0-0.1,0-0.1-0.1-0.2C101,32.3,101,32.4,101.1,32.4z"/>
	<path class="st5" d="M86,28.3c0.2,0.5,0.2,1,0.4,1.5l0.1-0.2c0.4-0.1,0.3,0.4,0.5,0.5l0.1-0.3c0.3,0.4,0.9,0,1.2,0.5
		c0-0.3-0.3-0.1-0.4-0.3c0.3-0.4,0.5-0.3,0.8-0.3l-0.1-0.2c0.2-0.1,0.4-0.4,0.7-0.5c-0.3,0,0-0.2,0-0.4c0.2-0.1,0.4,0.3,0.4-0.1
		c-0.4-0.5-0.3-1.4-0.9-1.9c-0.5,0-0.8-0.1-1.2-0.1l0.1-0.2l-0.9,0.5c0,0,0,0,0-0.1C86.5,27.2,85.9,27.6,86,28.3z"/>
	<path class="st5" d="M89,29.9c0.3-0.1,0.2,0.4,0.6,0.2c0,0-0.3,0-0.2-0.1C89.3,29.7,89.1,29.8,89,29.9z"/>
	<polygon class="st5" points="86.5,30.4 86.6,30.3 86.5,30 	"/>
	<path class="st5" d="M90.1,28.4c0.1,0,0.2-0.1,0.1-0.2C90.2,28.2,90.1,28.3,90.1,28.4z"/>
	<polygon class="st5" points="102.2,31.8 102.2,31.9 102.3,31.7 102.3,31.7 	"/>
	<polygon class="st5" points="103.3,30 103.4,30.1 103.3,30 	"/>
	<path class="st5" d="M105,34.8c0.1,0.2,0.4,0.4,0.6,0.2l0-0.3C105.4,34.5,105,34.4,105,34.8z"/>
	<path class="st5" d="M43.2,0.7c0.4-0.4,0.6,0.2,0.9,0.3c0.1-0.2,0.7-0.5,0.9-1h-2.3C42.7,0.3,42.9,0.6,43.2,0.7z"/>
	<path class="st5" d="M103.8,30.2c0,0,0.1,0,0.1-0.1C103.8,30.1,103.8,30.1,103.8,30.2z"/>
	<path class="st5" d="M102.1,31.7C102.1,31.7,102.1,31.6,102.1,31.7C102.1,31.7,102.1,31.8,102.1,31.7z"/>
	<polygon class="st5" points="103,29.4 103.1,29.4 103.1,29.4 	"/>
	<path class="st5" d="M101.6,32.4c0.1-0.3-0.2-0.1-0.3-0.1C101.3,32.4,101.5,32.3,101.6,32.4z"/>
	<polygon class="st5" points="83.8,35.3 83.8,35.3 83.9,35.3 	"/>
	<path class="st5" d="M84.1,30.6c0.1,0.1,0.2,0.2,0.3,0C84.3,30.5,84.2,30.6,84.1,30.6z"/>
	<path class="st5" d="M83.2,35.2c-0.2,0.1-0.4,0.3-0.4,0.5c0,0.4,0.3,0.4,0.4,0.6c0.4-0.2,0.3-0.4,0.8-0.5l-0.3-0.3
		C84,35,83.4,35.2,83.2,35.2z"/>
	<polygon class="st5" points="77,26.7 77.2,26.7 77.2,26.6 	"/>
	<path class="st5" d="M84.3,37.5c-0.1-0.1-0.2-0.1-0.3,0C83.9,37.7,84.3,37.9,84.3,37.5z"/>
	<path class="st5" d="M84.4,34.6L84.4,34.6c0-0.1,0-0.2,0-0.2L84.4,34.6z"/>
	<path class="st5" d="M78.9,30.9c0.1-0.3-0.2-0.3-0.3-0.5c-0.1,0.2-0.4,0.4-0.2,0.5C78.5,31.2,78.8,30.9,78.9,30.9z"/>
	<path class="st5" d="M78.3,36.4c0.1-0.1,0.2-0.3,0.1-0.4c-0.1,0-0.3-0.1-0.4,0.1C78.1,36.2,78.1,36.4,78.3,36.4z"/>
	<path class="st5" d="M78.2,32c0,0,0.1-0.1,0.1-0.2c0,0-0.1-0.1-0.1-0.1C78,31.9,78.1,32,78.2,32z"/>
	<path class="st5" d="M84,34.1l0.1,0.1l0-0.1C84,34.1,84,34.1,84,34.1z"/>
	<polygon class="st5" points="82.8,41 82.8,41 82.6,41.1 	"/>
	<path class="st5" d="M82.5,40.9C82.5,40.9,82.5,40.9,82.5,40.9L82.5,40.9z"/>
	<path class="st5" d="M84.2,41.4c-0.1,0-0.1,0-0.2,0C84,41.6,84.2,41.6,84.2,41.4z"/>
	<path class="st5" d="M82.5,40.9l-0.1,0C82.4,41,82.4,40.9,82.5,40.9z"/>
	<polygon class="st5" points="82.8,40.8 82.7,40.8 82.8,40.8 	"/>
	<path class="st5" d="M83.9,38.2c0.1,0.1,0.1,0.3,0.2,0.1C84.1,38.1,84,38.2,83.9,38.2z"/>
	<path class="st5" d="M84.9,37.3c0-0.1-0.1-0.1-0.2-0.1C84.6,37.4,84.8,37.6,84.9,37.3z"/>
	<path class="st5" d="M82.2,40.6c0.2,0.3,0.4-0.1,0.7-0.1C82.6,40.4,82.4,40.4,82.2,40.6z"/>
</g>
<g>
	<path class="st4" d="M14.3,444.5c0.1,0.4-0.5,0.4-0.6,0.5c0.6,0.4-0.6,1.3,0.4,1.5c0,0.2,0.1,0.4-0.1,0.5c0.6-0.2,0.4,0.4,0.7,0.7
		c0.2-0.3,0.4-0.2,0.6-0.3l-0.1,0.4l0.2-0.2c0.2,0.2,0.6-0.2,0.6,0.1c0.1-0.1,0.4-0.1,0.7-0.2c0.3-0.1,0.6-0.2,0.6-0.5
		c0.1,0.1,0.3,0.2,0.5,0.1c-0.2-0.1-0.3-0.4,0-0.5c0.1,0.1,0.2,0,0.3,0c0.7-0.9-0.5-1.1,0.1-1.9c-0.7,0.1-0.4-0.6-0.9-0.6
		c-0.5,0-0.8-0.6-1.3-0.2c-0.1-0.1-0.2-0.1-0.2-0.2l-0.3,0.2c-0.1-0.1-0.3-0.1-0.4-0.2c0,0.1,0.1,0.3,0,0.3c-0.1,0-0.3,0.1-0.4,0
		l0,0.2C14.6,444.4,14.5,444.5,14.3,444.5z"/>
	<path class="st4" d="M16.7,429.1c-0.1-0.3-0.4-0.5-0.7-0.6c-0.3,0.2-0.8,0-0.8,0.6c0.2,0.3,0.6,0.4,1,0.5
		C16.4,429.6,16.6,429.5,16.7,429.1z"/>
	<path class="st4" d="M11.7,444.1L11.7,444.1C11.8,444,11.8,444,11.7,444.1L11.7,444.1z"/>
	<path class="st4" d="M19.4,384.2l-0.1,0.1C19.3,384.3,19.4,384.3,19.4,384.2z"/>
	<path class="st4" d="M14.2,442.9c0-0.7-0.4-0.7-1.1-1.1c-0.6,0.1-1.1,0.2-1.4,0.6c-0.1,0.2-0.1,0.5-0.1,0.7l-0.2,0.3l0.3,0.1
		l-0.2,0.2l0.4,0.4l-0.1,0.1c0.2,0,0.4-0.1,0.4,0c0,0.1,0.1,0.2,0,0.3c0.3-0.2,0.6,0.3,0.7-0.1c0.2-0.1,0.3,0.1,0.4,0.1l0-0.1
		c0.1-0.1,0.5-0.2,0.6-0.2c-0.2-0.2,0.3-0.4,0.5-0.5C13.9,443.4,14.6,443.1,14.2,442.9z"/>
	<path class="st4" d="M19.5,384.1c0.1-0.2,0.2-0.4,0.1-0.7c-0.3-0.4-0.7-0.2-0.8,0.2c-0.1,0.2,0,0.7,0.3,0.8l0.2-0.1
		c-0.2,0-0.4-0.3-0.4-0.5c0.1-0.2,0-0.4,0.3-0.4c0.5-0.1-0.1,0.3,0.3,0.4l0.1-0.1C19.8,383.8,19.5,383.9,19.5,384.1z"/>
	<path class="st4" d="M22,419.5c-0.6-0.9-1.5-0.7-2.3-0.7c-0.1-0.1-0.2-0.5-0.4-0.1c0,0.1,0.1,0.1,0.1,0.2c-0.1,0.1-0.3,0-0.4,0
		c0.4,0.5,0.8,0.8,1.3,1.1l-0.1,0l1.3,0.3C21.8,420.2,22,419.9,22,419.5z"/>
	<path class="st4" d="M16.9,396c0.4,0.5,0.5,1.3,0.7,2c-0.1,0.5-0.3,1.1-0.6,1.4c0.1,0.9,1,1.5,1.6,2.2c0.6,0.6-0.6,1.4,0.3,2
		c0.4,0.1,0.3-0.3,0.6-0.5c-0.2-0.4,0.1-0.6-0.1-1.1c1.1-0.7,1.4-2.1,2.2-2.8c0.5-1,0.6-2.3,0.4-3.4c-0.3-0.7-0.4-2-1.2-2.2
		c-0.5-0.5-1-0.2-1.7-0.3c-0.3,0.5-0.9,0.4-1.3,0.8C17.7,394.8,16.7,395.2,16.9,396z"/>
	<polygon class="st4" points="20.7,445.5 20.8,445.4 20.5,445.4 20.5,445.5 	"/>
	<path class="st4" d="M18.7,377.6c0.2,0,0.3,0.3,0.5,0.5C19.3,377.8,19,377.4,18.7,377.6z"/>
	<path class="st4" d="M18.4,378c-0.2,0.4,0.4,0.6,0.6,0.3c-0.2-0.1-0.2,0-0.2,0.1C18.5,378.5,18.6,378.2,18.4,378z"/>
	<path class="st4" d="M14,443.9C14,444,14,444,14,443.9C14.1,444,14,443.9,14,443.9z"/>
	<path class="st4" d="M0,410.6c0.1-0.5,0.3-1,0.3-1.4c-0.1-0.4-0.2-0.7-0.3-1.1V410.6z"/>
	<path class="st4" d="M4.3,396.3c0,0.2-0.2,0.5-0.2,0.7c-0.3,0.3-0.3-0.3-0.7-0.2c0.2,0.2,0.4,0.4,0.6,0.4
		C4.2,396.9,4.3,396.6,4.3,396.3z"/>
	<path class="st4" d="M0.4,386.9c0.4,0.4,0-0.3,0.3-0.3c0.9-0.3,0.3,1,0.7,1.4c0.4-0.2-0.1-0.6,0.4-0.7c0.5-0.1,0.2,0.6,0.4,0.8
		l0.3-0.8c0.7-0.1,0.5,1.1,1.1,1.1l-0.3-0.6c0.1-0.9,0.7,0.2,1.1,0c0.1-0.2-0.2-0.6-0.3-0.9c0.3-0.1,0.5-0.7,0.8-0.5
		c0-0.2-0.3-0.2-0.2-0.3c0.4-0.7,0.7-0.2,1.3-0.2c-0.3-1.3,0.2-2.3-0.5-3.4c-0.3-0.2-0.6-0.6-1-0.6c-1.3-0.4-1.3,1.4-2.5,0.4
		c-0.2,0.3-1.1,0.2-1,0.8c-1,0.4-0.1,1.2-0.7,1.8C-0.2,385.8,0.9,386.1,0.4,386.9z"/>
	<polygon class="st4" points="0.1,392.6 0.2,392.7 0.2,392.7 0.2,392.6 	"/>
	<path class="st4" d="M0,392.2c-0.1,0,0,0.2,0,0.3C0,392.4,0.2,392.2,0,392.2z"/>
	<path class="st4" d="M18.1,433.9c-0.1,0.1-0.2,0-0.3,0l0.3,0.2C18.1,434,18,434,18.1,433.9z"/>
	<path class="st4" d="M7.5,391.6c-0.5-0.6-1.4-0.8-2.1-0.5c-0.2,0.3-0.8,0.7-0.6,1.2c-0.8,1.2,0.4,2.2,0.5,3.4
		c0.3,0,0.2-0.4,0.5-0.4c0,0.6,0.4,1.2,0.9,1.6c0.3,0,0-0.6,0-0.7c0.5,0.1,0.5,0.7,0.5,1.1c-0.4-0.1-1-0.3-1.2,0.1
		c-0.7,0.2-0.6,1-0.8,1.5c-0.3,1.2,0.4,2.3,0.6,3.5l-0.5,0c-0.6,0.2-0.8,0.7-0.9,1.2c-0.5-0.1-0.9-0.4-1.4,0.1
		c-0.4,0.5-0.5,0.9-0.5,1.5c0,0.8,0.5,1.3,1.1,1.8c-0.3,0.1-0.8-0.2-1,0.2c-0.2,0.4-0.2,0.8-0.1,1.2c0.2,0.4,0.8,0.8,1.1,0.7
		c0.2-0.7,0.4-1.4,0-2c0.2,0.1,0.4,0.4,0.6,0.6c0.2,0,0.5,0.3,0.6,0c-0.1-0.7-0.1-1,0.3-1.6c0.4-0.4,0.5,0.3,0.9,0.3
		c0.6-0.1,0.6-1,0.9-1.5c0.1-1-0.2-1.8-1.1-2.3c0.5,0,0.1-0.7,0.6-0.6c0.1,0.3-0.2,0.9,0.2,1c-0.1-0.4,0.1-1.1,0.6-1
		c0.2,0.2,0.2,0.7,0.3,0.8l-0.2-1c0.7-0.1,0.3,1,0.6,1.2c0.2-0.3,0.1-0.6,0.1-0.9c0.5-0.4,0.4-1,1.1-1.2c0.1-1.6-1.7-2.6-1.9-4.2
		c0.9-0.6,1-2,0.7-3.1C8.4,392.6,7.8,392.2,7.5,391.6z"/>
	<path class="st4" d="M3.9,395.7c0.2,0.1,0.3,0.3,0.4,0.5l-0.1-0.3c-0.1-0.2-0.4-0.4-0.7-0.3c0,0,0,0-0.1,0.1
		C3.9,395.7,3.6,395.9,3.9,395.7z"/>
	<polygon class="st4" points="0.4,391.7 0.3,391.6 0.2,391.7 	"/>
	<path class="st4" d="M3.5,395.6C3.4,395.6,3.4,395.6,3.5,395.6C3.4,395.6,3.5,395.6,3.5,395.6C3.5,395.6,3.5,395.6,3.5,395.6z"/>
	<path class="st4" d="M3.4,396.8C3.4,396.8,3.4,396.8,3.4,396.8C3.4,396.8,3.4,396.8,3.4,396.8C3.4,396.8,3.4,396.8,3.4,396.8z"/>
	<path class="st4" d="M3.3,396.5c0,0.1,0.1,0.2,0.1,0.3c-0.1-0.4-0.3-0.7,0-1.1C3.2,395.9,3.2,396.2,3.3,396.5z"/>
	<path class="st4" d="M49.5,441.6c0.1-0.1,0.2-0.1,0.3-0.2C49.6,441.4,49.5,441.5,49.5,441.6L49.5,441.6z"/>
	<path class="st4" d="M49.4,441.8c0.4,0.3,0.9,0.5,1.4,0.2c0-0.1,0-0.3-0.1-0.4c-0.2,0-0.3-0.1-0.5-0.1c0,0.1,0,0.3-0.1,0.3
		l-0.4,0.2l-0.1-0.2c0,0,0,0,0.1-0.1L49.4,441.8z"/>
	<path class="st4" d="M49.6,441.7L49.6,441.7C49.8,441.6,49.7,441.7,49.6,441.7z"/>
	<path class="st4" d="M49.8,441.4c0.1,0,0.2,0,0.3,0c0,0,0,0,0,0C50,441.4,49.9,441.4,49.8,441.4z"/>
	<path class="st4" d="M49.2,441.5L49.2,441.5c-0.2,0-0.2,0.2,0,0.2L49.2,441.5z"/>
	<path class="st4" d="M56.2,449.6c-0.3-0.7-0.9-0.4-1.5-0.4c0.2,0.1-0.1,0.3-0.4,0.3l0.2,0.2l-0.1,0.1l0.2,0.3H56
		C56.1,449.9,56.2,449.8,56.2,449.6z"/>
	<path class="st4" d="M56.1,421.1c-0.2,0.2-0.4,0.6-0.3,0.9c0.2,0.3,0.6,0.3,1,0.1c0.2-0.4,0.3-0.7,0-1.1
		C56.5,421.2,56.3,421,56.1,421.1z"/>
	<path class="st4" d="M57.9,447.4l0.4-0.2l-0.1-0.3c-0.4-0.2-0.8-0.1-1.2-0.1l0.8,0.1l-0.2,0.3l-0.1-0.1l0,0.1l-0.2,0
		c0.1,0,0.3,0,0.3,0.1l0.3-0.3l0.1,0.1C58.1,447.3,58,447.4,57.9,447.4z"/>
	<path class="st4" d="M61.6,450h0.2C61.7,450,61.7,450,61.6,450z"/>
	<path class="st4" d="M62,450h0.3C62.2,449.9,62.1,449.9,62,450z"/>
	<path class="st4" d="M40.3,442c0,0.1,0,0.1-0.1,0.2l0.2,0.2l0-0.2C40.4,442.1,40.4,442,40.3,442z"/>
	<path class="st4" d="M57.4,418.7c-0.5-0.4-0.8,0.4-0.6,0.7c0.3,0.1,0.5,0,0.6-0.2C57.5,419.1,57.7,418.8,57.4,418.7z"/>
	<path class="st4" d="M29.4,449.2c0.4-0.4,1.7-0.8,1.8-0.2c0.8-0.3,0.2-0.7,0.9-1.1c0.3-0.2,0.9-0.5,1.1-0.1c1.5-1-0.2-1.4,0.9-2.5
		l0.7,0.2l-0.5-0.6c-0.2-0.7,0.9-0.5,1-0.6c-0.1-0.2-0.7,0.1-0.6-0.2c0.1-0.1,0.1-0.2,0.2-0.2c-0.8,0.2-0.1-0.6-0.2-0.7l-0.1,0.1
		c-0.2-0.1-0.5-0.2-0.5-0.5l0.6-0.5c-0.3,0-0.8,0.6-0.9,0.1c-0.1-0.2,0.2-0.3,0.3-0.5c-0.3,0.1-1.3,0.3-0.9-0.3
		c-0.7,0.4-0.3-0.6-0.9-0.1l-0.4-0.5l-0.3,0.3c-0.3,0-0.6-0.1-0.7-0.4c0,0.1,0,0.2-0.2,0.3c-0.2,0-0.1-0.1-0.2-0.2l-0.3,0.3
		l-0.5-0.2c-0.2,0.5-0.5,0.1-0.7,0l-0.2,0.4c-0.9,0.4-0.6-0.3-1.1-0.5c-0.4,0.4,0.6,0.5,0,0.9c-0.2-0.2-1,0-0.8-0.6
		c-0.2,0.4-0.7,0.2-1.1,0.2c0,0.4-0.6,0-0.4,0.4c-0.2,0.1-0.3,0-0.5,0.1c-0.1,0.2,0.1,0.4-0.2,0.5c0.2,0.2-0.1,0.9,0.3,1.3
		c-0.7,0.1,0.1,0.4-0.3,0.7c-0.1,0-0.2-0.1-0.2,0l0.4,0.3c0.2,0.4-0.3,0.7-0.6,0.8l0.4,0.2l-0.5,0.3l0.3,0.1
		c0.3,0.4-0.5,0.3-0.6,0.5c0.1,0,0.3-0.2,0.5,0c0.1,0.2,0.1,0.3-0.1,0.5c0.1,0,0.7,0,0.6,0.3c0.1,0.3-0.4,0.5-0.7,0.7l0.7-0.1
		c0.2,0.2-0.1,0.3-0.2,0.5l0.8-0.3c0.3,0.3-0.1,0.5-0.2,0.7l0.4-0.1c0.7-0.1,0.2,0.5,0.4,0.4c0.2-0.3,0.5-0.1,0.7-0.1
		c0.3,0.1-0.2,0.3,0,0.5c0,0,0.5-0.4,0.5-0.4c0.5-0.1,0.2,0.3,0.2,0.4l0.4-0.3c0.3,0.1,0.5,0.3,0.4,0.5l0.5-0.5
		c0.7,0,0.2,0.7,0.4,0.9h0C29.3,449.8,29,449.5,29.4,449.2z"/>
	<path class="st4" d="M23.3,423.3c0.4,0.2,0.9,0.6,1.3,0.2c0.2-0.1,0-0.3,0-0.4c-0.3-0.3-0.7-0.3-1.2-0.2
		C23.3,423,23.5,423.3,23.3,423.3z"/>
	<path class="st4" d="M24,447.1l0-0.3c-0.3-0.5-0.9-0.3-1.3-0.4C22.9,446.9,23.4,447.3,24,447.1z"/>
	<path class="st4" d="M19.9,411.7c0.3,0.1,0.5-0.3,0.5-0.7c-0.2-0.3-0.4-0.6-0.8-0.5C19.1,410.8,19.7,411.5,19.9,411.7z"/>
	<path class="st4" d="M18.4,434.7c0,0-0.1,0-0.1,0C18.3,434.8,18.3,434.8,18.4,434.7z"/>
	<path class="st4" d="M18.4,434.7c0.3,0,0.6-0.1,0.9,0c0.2-0.1,0.5-0.3,0.5-0.5c-0.1-0.8-0.9-0.7-1.3-0.7c0.3,0.2-0.4,0.7,0.2,0.9
		c-0.2,0.3-0.4,0.2-0.5-0.1c0,0,0.1-0.1,0.1,0l0-0.1l-0.1,0l0,0.1c0-0.1,0-0.1-0.1-0.2c-0.2,0.1-0.1,0.3-0.2,0.4l0.5,0.1L18.4,434.7
		C18.4,434.7,18.4,434.7,18.4,434.7z"/>
	<path class="st4" d="M30.3,433.6l-0.2,0.2l0.2,0.1C30.2,433.8,30.2,433.7,30.3,433.6z"/>
	<path class="st4" d="M29.7,433.2l0.4,0.2l-0.1,0.1c0.2,0,0.6-0.3,0.7,0.2c0,0.2-0.1,0.2-0.2,0.3l0.1,0c0.1-0.1,0.5,0,0.5-0.3
		C31,432.9,30.2,433.1,29.7,433.2z"/>
	<path class="st4" d="M18.1,434.1C18.1,434.1,18.1,434.1,18.1,434.1C18.1,434.1,18.1,434.1,18.1,434.1L18.1,434.1z"/>
	<path class="st4" d="M29.6,433.5l0.2,0.2l0.1-0.1L29.6,433.5l0.1,0L29.6,433.5C29.6,433.5,29.6,433.5,29.6,433.5z"/>
	<path class="st4" d="M30.5,422.6l0.2,0.2c-0.5,0.5,0.7,0.1,0.3,0.8c0.3-0.2,0.5,0.1,0.9,0c0.3-0.1,0.6-0.3,0.7-0.7
		c0-0.4-0.2-0.7-0.5-0.8c-0.4-0.2-1.1-0.2-1.4,0.1C30.8,422.3,30.7,422.6,30.5,422.6z"/>
	<path class="st4" d="M30.6,433.9C30.6,433.9,30.6,433.9,30.6,433.9l-0.4-0.1C30.3,433.9,30.6,433.9,30.6,433.9z"/>
</g>
<g>
	<path class="st5" d="M127.1,114.1c-0.3-0.3-0.3-1-0.7-1C127.1,112.9,127.3,113.6,127.1,114.1z"/>
	<path class="st5" d="M126.5,114.4c0.2-0.2,0.2-0.4,0.4-0.1c-0.4,0.5-1.4-0.1-1-0.6C126.2,114,125.9,114.5,126.5,114.4z"/>
	<path class="st7" d="M97.9,123.7c-0.1,0.1-0.2,0-0.3-0.1c-0.4,0.2,0.1,0.4,0,0.4c-0.5,0.1,0-0.3-0.3-0.5
		C97.5,123.6,98,123.3,97.9,123.7z"/>
	<path class="st7" d="M98.8,124c-0.2-0.4-0.5,0.1-0.4-0.4C98.6,123.9,99,123.8,98.8,124z"/>
	<path class="st7" d="M98,124.8c0-0.6-0.8-0.1-0.2-0.7C98,124.2,98.4,124.6,98,124.8z"/>
	<polygon class="st7" points="98.6,124.9 98.5,124.6 98.6,124.6 	"/>
	<polygon class="st7" points="97.7,124.8 97.8,124.8 97.8,125.1 97.7,125.1 	"/>
	<path class="st5" d="M126.6,122.7c0.1,0.4,0,0.8-0.3,1.1c-0.1-0.3,0.5-0.4,0.1-0.7l-0.2,0.2c-0.7-0.4,0.4-0.8-0.4-0.8
		c-0.4,0-0.4,0.4-0.6,0.7c0,0.4,0.5,1.3,0.8,0.8l-0.5,0.4c-0.5-0.3-0.5-1.1-0.3-1.4C125.6,122.3,126.3,122,126.6,122.7z"/>
	<path class="st5" d="M92.8,129.2l0.1,0.7L92.8,129.2z"/>
	<path class="st5" d="M92.2,130l0.4,1.1L92.2,130z"/>
	<polygon class="st5" points="93.3,131.7 93.4,131.6 93.6,131.8 	"/>
	<path class="st5" d="M92.9,132.5c0.2,0.1,0,0.3,0,0.4C92.8,132.8,92.8,132.5,92.9,132.5z"/>
	<path class="st5" d="M105.2,133.2c0.3,1,1.2,1.9,0.5,3c0.2,1.8-0.4,4-1.9,4.8c-0.1,2.6,2.6,4.6,2.1,7.2c-1.2,0.2-1,1.3-2,1.8
		c0,0.5,0,1-0.3,1.4c-0.5-0.4,0.4-2.1-0.7-2.1l0.1,1.7c-0.2-0.2-0.1-0.9-0.3-1.3c-0.9-0.3-1.3,0.8-1.3,1.5c-0.6-0.3-0.1-1.1-0.2-1.6
		c-0.8-0.3-0.3,0.8-1,0.8c1.3,1,1.6,2.4,1.2,4c-0.6,0.7-0.7,2.2-1.8,2.2c-0.6-0.2-0.7-1.2-1.4-0.7c-0.7,0.8-0.9,1.4-0.9,2.5
		c-0.3,0.6-0.7,0-1-0.1c-0.2-0.4-0.4-0.9-0.8-1c0.5,1.1,0,2.3-0.4,3.3c-0.6,0.1-1.4-0.8-1.7-1.4c-0.1-0.7-0.1-1.4,0.4-1.9
		c0.4-0.7,1.1,0,1.6-0.1c-0.8-0.8-1.6-1.8-1.4-3.1c0.2-0.9,0.4-1.6,1.1-2.3c0.8-0.6,1.4-0.1,2.2,0.2c0.3-0.8,0.8-1.5,1.7-1.8
		l0.8,0.2c-0.1-2-1-3.9-0.2-5.8c0.4-0.8,0.5-2.1,1.6-2.2c0.4-0.5,1.4-0.1,2,0.2c0.1-0.6,0.2-1.6-0.6-1.9c-0.1,0.1,0.3,1.1-0.2,1.1
		c-0.7-0.8-1.2-1.9-1.1-2.9c-0.6-0.1-0.4,0.6-0.9,0.6c0.2-1.9-1.5-3.9,0-5.6c-0.2-0.8,0.9-1.3,1.2-1.8
		C103.1,131.5,104.5,132.1,105.2,133.2z"/>
	
		<rect x="93" y="133.1" transform="matrix(0.9959 -9.023441e-02 9.023441e-02 0.9959 -11.6446 8.9338)" class="st5" width="0.1" height="0.2"/>
	<path class="st7" d="M101.8,132.8c-0.3,0-0.1-0.2-0.1-0.4C101.6,132.6,101.8,132.9,101.8,132.8z"/>
	<path class="st7" d="M101.5,133.1c-0.4-0.1,0,0.4-0.1,0.6c0.2-0.3,0.4,0.2,0.6-0.2c-0.1,0.3,0.1,0.3-0.1,0.8
		c-0.2,0-1.1-0.3-1.1,0.5c0.5-1,0.3-0.8,0.5-1.9L101.5,133.1z"/>
	<path class="st5" d="M93.8,133.7l-0.2,0.3L93.8,133.7z"/>
	<path class="st7" d="M104.1,133.1c0,0.4,0.4-0.2,0.3,0.3L104.1,133.1C104,133.1,104.3,133,104.1,133.1z"/>
	<path class="st7" d="M103.6,133.4l0.3,0L103.6,133.4z"/>
	<path class="st5" d="M101.7,133.7c-0.2,0.1,0,0.3-0.1,0.3l-0.1-0.3L101.7,133.7z"/>
	<path class="st7" d="M104.9,135l-0.8-0.5l0.1,0c0-0.5-0.4-0.3-0.2-0.8C104.3,133.9,104.7,134.8,104.9,135z"/>
	<polygon class="st7" points="102.3,134.1 102.3,133.9 102.5,133.9 	"/>
	<path class="st7" d="M103.8,134.2c0.2,0.2,0.1,0.8-0.2,1c-0.4,0-1.3-0.2-1.1,0.6l0-0.4l-0.1,0.1c0-0.8-0.6,0.1-0.8,0.2
		c0.3-0.3-0.4-0.6,0.1-0.7l0,0.1c0-0.2,0.6,0.1,0.6-0.4c-0.1,1.2,0.3-0.3,0.8,0.5c-0.2-0.4,0.5-0.2,0.2-0.6c0.3-0.1,0.5,0.9,0.7,0.2
		c-0.6-0.2,0.1-0.6-0.5-0.9L103.8,134.2z"/>
	<path class="st7" d="M101.9,134.7c-0.2,0.3-0.5-0.2-0.6-0.2C101.4,134.7,101.8,134.5,101.9,134.7z"/>
	<path class="st7" d="M102.7,134.5c-0.1,0-0.2,0.1-0.4,0.1C102.5,134.5,102.6,134.5,102.7,134.5z"/>
	<path class="st7" d="M104.6,134.3l0.3,0.1L104.6,134.3z"/>
	<path class="st7" d="M100.6,135.6l-0.1,0.2l0-0.4C100.6,135.4,100.6,135.5,100.6,135.6z"/>
	<path class="st7" d="M101.2,135.5c-0.4,0-0.1,0.5-0.3,0.4C100.7,135.7,101,135.2,101.2,135.5z"/>
	<path class="st7" d="M104.7,135.6c0.4,0.2-0.5-0.3-0.5,0.3c-0.3-0.3,0.1-0.6,0.4-0.7L104.7,135.6z"/>
	<path class="st7" d="M103.9,135.8l-0.2,0.1c0-0.1,0.1-0.3,0.2-0.3C104,135.6,104.1,135.8,103.9,135.8z"/>
	<path class="st7" d="M103,135.8c0,0.2,0.1,0.6,0,1c0.2-0.4-0.5-0.6-0.3-1l0.1,0.3L103,135.8z"/>
	<path class="st7" d="M102,136.2c-0.4,0.3,0.3,0.7-0.3,0.8c-0.4-0.3-0.9,0-1.1-0.4C101.6,137,100.8,135.8,102,136.2z"/>
	<path class="st5" d="M101.6,136.5c-0.3,0-0.3-0.2,0-0.3C101.5,136.3,101.7,136.4,101.6,136.5z"/>
	<polygon class="st7" points="103.3,136.4 103.5,136 103.4,136.3 	"/>
	<polygon class="st7" points="102.2,136.5 102.3,136.2 102.5,136.3 	"/>
	<polygon class="st7" points="104.2,136.6 104.2,136.4 104.3,136.5 	"/>
	<path class="st7" d="M103.6,137c-0.2,0,0-0.5,0.1-0.4L103.6,137z"/>
	<path class="st7" d="M105.1,136.9c-0.2,0.1-0.4,0-0.5,0.2C104.6,136.7,104.8,136.5,105.1,136.9z"/>
	<path class="st7" d="M101,138.1c0-0.1,0.2-0.1,0.1-0.3c-0.2,0.3,0.6,0.9,0,0.9c-0.1-0.3,0-0.6-0.3-0.8L101,138.1z"/>
	<polygon class="st7" points="102.1,137.7 102.2,137.7 102.2,137.9 102.1,138 	"/>
	<path class="st5" d="M98.8,139.4l0.2,0.5c-0.1-0.2-0.2-0.7-0.6-0.9c-0.6,0.4-0.1,0.1-0.8-0.2c-0.7,0.7-0.3,1.3-0.3,1.9
		c0.7-0.1,0.5,0.9,1.1,0.5c0.1-0.4,0.4-0.8,0.4-1.1c0,0.5-0.3,0.9-0.6,1.4c-0.6-0.1-1.1-0.8-1.1-1.3c-0.1-0.5,0.1-1.2,0.6-1.5
		C98.2,138.6,98.6,139,98.8,139.4z"/>
	<path class="st7" d="M103.1,138.5c0.1,0.3-0.1-0.1-0.1-0.1C103,138.4,103.1,138.4,103.1,138.5z"/>
	<path class="st7" d="M104.5,138.2l0.1,0.2L104.5,138.2z"/>
	<path class="st5" d="M126.3,139.6c1.3,0.6,1.2,2.7,1.5,3.9c0,1.8-0.3,3.8-1.4,5.4c-1.5,1.1-2.4,3.2-4.3,4.1
		c0.1,0.7-0.4,1.1-0.1,1.7c-0.5,0.3-0.4,1-1,0.7c-1.3-1.1,0.8-2.1-0.1-3.3c-0.9-1.3-2.1-2.5-2.1-3.9c0.6-0.5,1-1.4,1.3-2.2
		c-0.2-1.1-0.2-2.4-0.7-3.4c-0.1-1.3,1.6-1.8,2-2.8c0.7-0.6,1.6-0.4,2.3-1.1C124.6,139,125.6,138.6,126.3,139.6z"/>
	<path class="st5" d="M60.9,146c0.1,0.8-0.2,1.6-0.6,2.1c-0.6-0.2-1.3-0.4-1.3-1.2c0.1-0.5,0.1-1.1,0.6-1.5
		C60,145.2,60.6,145.6,60.9,146z"/>
	<path class="st7" d="M59.3,146l-0.1,0.5L59.3,146z"/>
	<path class="st7" d="M60.6,146.8l-0.1-0.1c-0.1,0.4-0.3,0.7-0.5,1c-0.4,0.1-0.4-0.8-0.7-0.2c-0.3-0.3,0.4-0.8,0.4-1.3
		c0.2,0,0.4,0.1,0.6,0l-0.1-0.2C60.7,145.9,60.5,146.6,60.6,146.8z"/>
	<polygon class="st7" points="102.6,144.4 102.8,144.1 103.1,144.3 	"/>
	<path class="st7" d="M102.5,144.6l-0.1,0.6L102.5,144.6z"/>
	<path class="st7" d="M104.3,146.1c-0.3-0.1-0.1-0.3,0-0.5L104.3,146.1z"/>
	<path class="st7" d="M101.8,146.5c-0.1-0.1-0.4,0.3-0.4,0L101.8,146.5z"/>
	<path class="st7" d="M103.7,146.5c0,0.1,0.2,0.2,0.3,0c0,0.5-0.7-0.1-0.6,0.5c0.1-0.4,0.8,0.2,0.7,0.2c-0.4,0.1-1.3-0.1-0.9,0.5
		c0,0.1,0.1-0.9-0.4-0.5l0,0.2c-0.3-0.5,0.1-0.3,0.5-0.5l-0.3-0.1C103.3,146.7,103.5,146.7,103.7,146.5z"/>
	<path class="st7" d="M102.3,147.2c-0.2,0,0-0.4,0.1-0.5L102.3,147.2z"/>
	<path class="st7" d="M101.9,147.5c-0.1,0.2-0.3,0.2-0.5,0.1C101.5,147.5,101.8,147.1,101.9,147.5z"/>
	<polygon class="st7" points="101.4,148 101.3,147.9 101.6,148 	"/>
	<polygon class="st7" points="103.6,148.1 103.8,147.8 103.8,148.1 	"/>
	<path class="st7" d="M102.4,148.3c0,0.1-0.1,0.1-0.2,0.3l0.3-0.5C102.6,148.2,102.6,148.4,102.4,148.3z"/>
	
		<rect x="104.4" y="147.8" transform="matrix(0.9961 -8.801384e-02 8.801384e-02 0.9961 -12.6159 9.7665)" class="st7" width="0.1" height="0.2"/>
	<path class="st7" d="M102.9,148.3l0.3,0L102.9,148.3z"/>
	<path class="st7" d="M101.6,148.6l0.1,0.2L101.6,148.6z"/>
	<path class="st7" d="M102.2,149.1l0.1,0.2c-0.2,0.1-0.4-0.3-0.6-0.1C101.8,148.6,102,149.3,102.2,149.1z"/>
	<path class="st7" d="M103,149l0.2,0.2L103,149z"/>
	<polygon class="st7" points="98.9,152.8 99.1,152.6 99,152.7 	"/>
	
		<rect x="95.4" y="153.3" transform="matrix(0.9961 -8.875722e-02 8.875722e-02 0.9961 -13.2451 9.0773)" class="st7" width="0.1" height="0.3"/>
	<polygon class="st7" points="96.7,154.3 96.6,154 96.8,154.2 	"/>
	<path class="st5" d="M87.1,155.5c1.7,0.8,2.3,2.8,2.3,4.5c-0.3,1.3-0.9,2.5-1.6,3.6c-0.6,0.7-1.4,0.2-2,0.7
		c-0.5-0.3-0.6-1.1-1.3-1.1c-0.7-1.5-2.2-3.2-1.3-5.2C83.2,156.2,85.3,155.1,87.1,155.5z"/>
</g>
<g>
	<path class="st5" d="M137.5,447.5c-1.1-1.9-2.1-3.8-3.4-5.6c-1.4-2-2.8-3.9-4.2-5.9c-2.3-3.4-4.7-7-7.5-10c-1.3-1.4-2.6-2.6-4-3.9
		c-1.3-1.2-2.7-2.1-4.2-3.1c-1.7-1.1-3.3-2.1-5.4-2.4c-2-0.3-4.1-0.4-6,0.2c-1.9,0.6-3.7,1.2-5.7,1.5c-2.1,0.3-4.2,0.2-6.3,0.2
		c-4.6-0.1-8.9-2.5-12.7-4.9c-2.1-1.3-4.3-2.3-6.4-3.7c-2-1.3-3.8-2.8-5.5-4.5c-3.6-3.5-7.1-7.1-10.9-10.4c-1.9-1.7-3.5-3.7-5.2-5.6
		c-0.1-0.1-0.2-0.2-0.3-0.3c-0.2-0.2-0.3-0.5-0.5-0.7c-2.2-3.5-4.4-7.1-7-10.4c-1.2-1.6-3.5-4.9-5.7-5.1c-4.9-0.5,1,11.4,1.7,12.8
		c8.2,15,22.4,24,34.1,35.8c5.1,5.1,9,11,12.3,17.4c1.7,3.1,3.2,6.3,5.1,9.4c0.3,0.5,0.7,1.1,1.1,1.7h10.3c1.4-2.2,2.5-4.8,3.3-6.1
		c3.1-5.2,7.4-10.3,13.9-7.4c6,2.6,10.4,8.4,14.5,13.5h5.9C138.5,449.2,138,448.4,137.5,447.5z M121.8,431.9
		c-4.3-4.4-9.2-6.9-15.3-4.6c-2.7,1-5,2.6-7.4,4.2c-1.6,1.1-3.5,2.7-5.5,3.1c-1.8,0.3-3.1-0.8-4.2-2.1c-2.1-2.3-3.8-4.9-5.7-7.3
		c-2.6-3.2-5.4-6-8.3-8.8c1.6,1,3.1,2,4.6,3.2c1.7,1.5,2.8,3.5,4.5,5c1.4,1.2,3,2.9,4.8,3.3c2.3,0.5,4.6-0.5,6.1-2.2
		c1.5-1.8,3.1-3.3,4.8-4.9c1.1-0.9,2.2-1.9,3.6-2.4c1.1-0.4,2.3-0.3,3.5-0.2c2.3,0.2,4.3,0.8,6.2,2.2c2.1,1.5,3.8,3.5,5.5,5.5
		c1.7,1.9,3.3,3.9,4.8,5.8c1.4,1.8,2.9,3.7,4.2,5.6c1.3,1.9,2.4,3.9,3.8,5.7c0.6,0.8,1.3,1.7,1.9,2.5
		C129.8,441,126,436.2,121.8,431.9z"/>
	<path class="st5" d="M13.2,366.3c-1.1-0.6-2.2-1.3-3.2-2c-0.5-0.3-1-0.7-1.5-0.9c-0.6-0.3-1.1-0.8-1.6-1.2
		c-0.5-0.4-0.9-0.8-1.4-1.3c-0.3-0.3-0.8-1-1.2-1.1c0.1,2.5,2,4.8,3.5,6.6c1.3,1.6,2.5,3.2,3.7,4.8c1.3,1.9,2.8,3.5,4.1,5.3
		c1.3,1.8,2.1,3.8,2.8,5.9c0.6,1.7,1.4,3.2,2.3,4.7c1.2,2.1,3.1,3.6,4.9,5.2c4.8,4.2,9.5,8.5,14.4,12.6l1.8-1.2
		c-0.1-1-0.2-1.8-0.8-2.6c-0.3-0.4-0.4-1-0.6-1.4c-0.4-1-0.9-1.9-1.4-2.8c-0.9-1.9-1.8-3.8-2.9-5.5c-1.9-2.8-4.4-5-6.1-7.8
		c-1-1.5-1.4-3.2-2.1-4.8c-0.3-0.8-0.5-1.7-0.7-2.5c-0.2-0.9-0.5-1.8-0.7-2.7c-0.4-1.6-0.8-3.2-0.9-4.8c0-0.5-0.3-0.8-0.3-1.3
		c0-0.5,0.1-0.9-0.1-1.4c-0.2-1-0.1-1.7,0.1-2.6c0.2-1,0-2.2,0-3.2c0-1-0.3-2-0.3-3c0-0.7-0.1-1.4-0.2-2.1c0,1,0,2-0.1,2.9
		c-0.4,2.4-0.2,4.9-0.2,7.3c0,2.4,0.1,4.8,0.3,7.2c0.1,0.6-0.2,3-1.1,1.7c-0.6-0.9-0.7-2.1-1.4-3c0,0.3,0,0.4-0.1,0.6
		c-0.1,0.3-0.1,0.4-0.1,0.7c-0.1,0.5-0.3,0.7-0.7,0.3c-0.3-0.3-0.5-0.8-0.6-1.1c-0.2-0.5-0.3-0.7-0.6-1.1c-0.3-0.4-0.4-0.9-0.7-1.3
		c-0.2-0.4-0.6-0.7-0.9-1.1c-0.6-0.8-1.3-1.5-2-2.3c-0.3-0.4-0.7-0.8-1-1.3c-0.4-0.6-1-1-1.2-1.7c-0.3-1-0.6-2.1-0.8-3.2
		c-0.3-1-0.4-1.9-1-2.8c-0.4-0.6-1-1.7-1.7-1.9c-0.5,1.1,0.9,1.9,1.3,2.9c0.5,1.2,0.9,2.5,1.5,3.7c0.5,1.1,1,2.2,1.5,3.2
		c0.6,1.2,0.8,2.5,1,3.8C15.4,367.4,14.3,366.9,13.2,366.3z"/>
	<path class="st5" d="M24.8,355.1c-0.1-1.4-0.3-2.7-0.6-4C24.4,352.5,24.6,353.8,24.8,355.1z"/>
</g>
</svg>
