<?xml version="1.0" encoding="utf-8"?>
<!-- Generator: Adobe Illustrator 23.0.3, SVG Export Plug-In . SVG Version: 6.00 Build 0)  -->
<svg version="1.1" id="obj_1_" xmlns="http://www.w3.org/2000/svg" xmlns:xlink="http://www.w3.org/1999/xlink" x="0px" y="0px"
	 viewBox="0 0 800 450" style="enable-background:new 0 0 800 450;" xml:space="preserve">
<style type="text/css">
	.st0{fill:none;}
	.st1{fill-rule:evenodd;clip-rule:evenodd;fill:#ABD2FF;}
	.st2{fill-rule:evenodd;clip-rule:evenodd;fill:#2252B2;}
	.st3{fill-rule:evenodd;clip-rule:evenodd;fill:#FF94B3;}
	.st4{fill:#2252B2;}
	.st5{fill:#FF94B3;}
	.st6{fill-rule:evenodd;clip-rule:evenodd;fill:#F13F33;}
	.st7{fill:#F13F33;}
	.st8{fill:#ABD2FF;}
	.st9{opacity:0.3;fill:#ABD2FF;}
	.st10{opacity:0.4;fill:#ABD2FF;}
	.st11{opacity:0.3;fill:#FF94B3;}
</style>
<rect id="bg_1_" x="0" y="0" class="st0" width="800" height="450"/>
<path class="st1" d="M226.3,279.5c-8.3-3.7-16.9-6-26.1-5.3c-10.9,0.8-21.1,4.7-31.3,8.2c-4.5,1.5-9,2.8-13.7,3.4
	c-4.7,0.6-9.5,0.4-14.2-0.2c-10.2-1.3-19.8-4.6-28.1-10.6c-5.4-3.9-10.3-8.6-15.1-13.3c-5.9-5.9-11.5-12.2-16.7-18.7
	c-5.1-6.5-9.8-13.4-13.8-20.7c-3.6-6.5-6.5-13.3-9.6-20.1c-3-6.7-6.2-13.2-9.7-19.7c-4-7.2-8.2-14.2-12.1-21.4
	c-9.2-17-16-35-22.4-53.2C9.6,96.5,5.4,85.3,0,74.5v122.4c1.8,5,5.1,8.7,8.4,12.9c3.7,4.5,6.2,9.6,8.9,14.7
	c3.1,5.8,7.4,10,12.3,14.3c7.6,6.6,14.9,13.5,21.1,21.5c5.4,6.9,9.7,14.3,13.9,21.9c2.5,4.5,5.5,8.1,9.5,11.3
	c7.1,5.7,14.7,10.8,22.5,15.4c4.4,2.6,8.9,4.9,13.7,6.7c3.5,1.3,7.3,2.4,11.1,2.3c6.1-0.2,10-4.5,14.2-8.4c5.5-5,11.8-8.7,18.9-11.1
	c6.6-2.3,13.6-3.2,20.2-5.6c5.6-2,10.2-5.7,15.1-9c5.7-3.8,12-7,19-7.4c6.2-0.4,12,1.6,17.5,4.3c4.5,2.1,9,4.3,13.2,6.8
	c4,2.4,7.4,5.5,10.6,8.8c-1.1-1.2-2.2-2.5-3.4-3.6C241,286.9,233.8,282.9,226.3,279.5z"/>
<path class="st2" d="M107.9,300.9c-4.1-2.2-7.9-4.8-12-6.9c-4.1-2.1-7.7-4.3-10.4-8.1c-2.7-3.8-4-8.3-5.8-12.5
	c-1.6-4-3.9-7.7-5.9-11.5c-4.2-8.1-6.8-16.6-12.4-23.9c-4.8-6.3-10.7-11.6-15.7-17.8c-6.1-7.5-13.7-14.3-18.4-22.8
	c-9.8-17.7-9.7-38.4-15.9-57.2c-1.8-5.5-4-10.9-4.8-16.7c-0.8-5.5-0.6-11.2-1.2-16.8C4.9,101.5,4,96.4,2,91.5
	c-0.6-1.6-1.3-3.2-2-4.8v22.1c4,9.6,5.5,19.1,6.4,29.4c0.9,10,3.7,19.5,6.5,29.1c2.7,9.3,5,18.8,9.4,27.5
	c4.9,9.5,11.8,17.9,19.2,25.5c7.4,7.6,15.4,14.6,21.7,23.2c5.7,7.7,8.9,16.2,12,25.1c2.9,8.1,6.7,16,12.9,22.1
	c5.8,5.7,13.7,9.8,21.5,12.1c3.9,1.1,8.1,1.8,12.1,0.6c3.9-1.2,6.8-3.9,9.7-6.7c-4,1.5-7.6,3.5-11.5,5.1
	C115.7,303.6,111.9,303,107.9,300.9z"/>
<path class="st3" d="M579.4,443.7c-5.9-3.6-11.4-7.5-16.3-12.3c-4.1-4-8.1-7.8-13.7-9.7c-5.6-1.9-11.6-2.3-17.3-3.4
	c-7.9-1.6-15.7-3.5-23.5-5.3c-8.9-2.1-17.7-4.5-26.6-6.3c-8.2-1.7-16.5-2.3-24.7-3.7c-6.9-1.1-13.5-3.2-20.2-5.2
	c-6.8-2-13.8-3.7-19.9-7.4c-9.7-5.9-16.9-16.4-22.8-25.9c-2.5-4-5.1-7-9.2-9.4c-4.3-2.5-8.3-5.1-12-8.5c-4.6-4.2-9.1-8.5-13.5-12.9
	c-4.4-4.4-8.2-9.3-12.5-13.9c-3.5-3.7-7.4-6.3-12-8.4c-3.8-1.7-7.5-3.4-10.7-6.1c-3.2-2.8-6.2-5.4-10-7.3c-0.2-0.1-0.5-0.2-0.7-0.3
	c-7.9-7.3-16.8-13.2-26.7-17.9c-15.8-7.5-33-12.3-50.4-14c-15.4-1.4-30.9-1-46.3-2.7c-16-1.8-32.2-4.2-47.9-7.8
	c-16.5-3.8-31.8-10.4-44.7-21.5C86.9,224.5,78,213.1,69,202l-19.3-27.3c2,3,3.9,6,5.8,9c6.7,10.7,11.1,22.5,17.2,33.5
	c6.4,11.4,15,21.2,23.3,31.2c8.3,10.1,16.8,20.7,28.6,26.9c14.1,7.4,28.4,5,43,0.6c7.4-2.2,14.8-4.5,22.5-5.4
	c7.5-0.8,15.1-0.2,22.5,1.4c14.8,3.4,29.9,9.8,43,17.6c5.9,3.5,11.4,7.8,15.4,13.4c4.2,5.7,6.8,12.5,9,19.2
	c2.5,7.7,4.8,15.5,7.3,23.2c2.3,7.2,4.8,14.3,6.6,21.7c1.9,7.4,2.9,15,3.5,22.7c0,0.1,0,0.2,0,0.3c-0.4,3.9,0,7.7,0.8,11.3
	c0.3,5.5,0.5,10.9,0.9,16.3c0.7,10.8,1.5,21.6,2.2,32.4h25.4h39.5H590C586.4,447.9,582.9,445.8,579.4,443.7z"/>
<path class="st4" d="M511.7,443c-3.4-3.9-8.1-6.3-13-8c-7-2.4-14.4-3.4-21.7-4.2c-8.6-0.9-17.3-1.2-26-1.6
	c-7.4-0.3-14.9-0.6-22.1-2.2c-5.3-1.2-10.2-3.5-13.9-7.5c-3.9-4.1-6.4-9.3-9.2-14.2c-3-5.4-6.2-10.8-10.5-15.3
	c-3.2-3.4-7.6-6.8-12.5-6.8c-4.5,0-7.4,3.5-8.7,7.5c-2,6.3-0.9,13.5,0.4,19.8c1.8,8.7,4.8,17.1,7.9,25.4c1.7,4.7,3.5,9.4,5.2,14.1
	h1.4c-1.1-3.8-2.1-7.7-2.9-11.6c-1.5-7.1-3.9-13.8-6.1-20.7c-1.5-4.5-2.8-9-3.7-13.7c-0.7-3.8-1.2-8-0.2-11.8
	c0.6-2.5,2.1-4.9,4.7-5.7c2.6-0.8,5.3,0.1,7.5,1.4c6,3.5,9.1,10.1,11.8,16.1c3.5,7.7,7.5,15,14.4,20.2c4.4,3.4,9.5,5.5,14.8,6.6
	c1.8,1.3,3.7,2.3,5.6,3.5c1.4,0.8,2.8,1.7,4.1,2.8c1.2,1,2.1,2.3,3.2,3.4c4.8,4.7,12,7.7,18.8,7.9c1.6,0,3.3-0.2,4.9-0.4
	c1.6-0.1,3.3-0.2,4.9-0.5c4.6-0.7,8.8-2.8,13.4-3.2c6.8-0.7,14.5,0.8,19.5,5.7h1.3c-1.1-1.2-2.4-2.2-3.8-3
	c-5.3-3.1-11.5-5.8-17.7-3.8c-1.5,0.5-2.9,0.8-4.4,1.2c-1.7,0.5-3.2,1.1-5,1.2c-1.9,0.2-3.6-0.2-5.5-0.3c-1.6-0.1-3.1,0.5-4.7-0.1
	c-2.9-1.1-6-1.6-8.9-2.8c-3.2-1.4-6.1-3.1-9-4.8c-1.7-1-3.3-1.7-4.6-3.1c-0.7-0.8-1.5-1.5-2.3-2.3c0.6,0,1.3,0,1.9,0.1
	c9.1,0.1,18.1-0.7,27.2,0.3c8.5,1,17.1,2.5,25.4,4.6c3,0.8,6.1,1.8,8.5,3.9c2.6,2.3,4.1,5.7,5.2,8.9h8.8
	C514.9,447.5,513.6,445.1,511.7,443z"/>
<path class="st5" d="M116.5,323.2c-18.2-4.2-33.5-14.1-45.5-28.3c-6.4-7.6-11.9-16-18.2-23.7c-5.6-6.8-12.2-12.6-18.6-18.6
	c-17.9-17-27.7-39.5-33.1-63.3c-0.4-1.7-0.8-3.4-1.1-5.2v76.2c3.2,4.7,6.7,9.1,10.1,13.6c3.6,4.7,6.8,9.7,10.5,14.3
	c4.3,5.3,9.3,9.9,13.4,15.4c4,5.4,6.6,11.9,11.5,16.7c6.7,6.6,16.4,9.3,25.3,11.7c8.5,2.3,17.3,4.8,26.1,5.6
	c9.3,0.8,18.6-1.1,27.6-2.8c9.5-1.8,19.8-3.1,28.7-7c6.6-2.9,10.6-8.2,14.4-14.2c-7.6,4.5-15.3,8.8-24,10.6
	C134.7,325.9,125.4,325.2,116.5,323.2z"/>
<path class="st6" d="M376.1,432.6c-8.7-20.7-17.5-41.8-28.4-61.5c-12.2-22.2-28.1-40.7-51.1-51.9c-21.4-10.4-45.6-17.2-69.2-19.5
	c-19.1-1.9-38.3,0.1-57.2,3.1c-6.6,1.1-13.3,2.5-19.4,5.4c-6.2,3-11.3,7.5-16.7,11.8c-5.4,4.4-11.2,8.4-18.1,9.9
	c-7.5,1.6-15.3,0.3-22.6-1.8c-16.6-4.7-32.8-12.5-46.8-22.6c-13.8-9.9-27.5-21.8-37.4-35.7c-3.4-4.7-6.5-9.7-9.3-14.9v6.4
	c4.9,9.2,10.7,17.7,17.2,26.1c9.4,12.3,18.4,24,25.2,37.9c7.1,14.5,19.2,22.4,35,25c15.1,2.5,30.7-1.6,45.7-3.4
	c7.4-0.9,15-2.8,22.5-2.6c9.1,0.2,16.8,4.9,23.5,10.7c12.5,10.8,27.1,26.5,27.1,44.2c0,6.9-2.2,13.5-4.6,19.9
	c-2.7,7.4-5.9,14.7-10,21.5c-1.9,3.3-4.2,6.3-6.5,9.2h35.4c1-2.1,1.8-4.2,2.5-6.4c1.4-5,3-9.9,5.5-14.4c1.1-2.1,1.6-4.1,2.4-6.3
	c0.9-2.7,3.1-5,3.7-7.7c0.5-2.2-0.4-4.4-0.3-6.6c0.2-3,1-5.5,0.3-8.5c-1.3-5.5-3-11.1-6.3-15.7c-3.9-5.4-7-11.3-10.8-16.8
	c-4.5-6.4-8.8-9.9-16.2-12.6c13.8,4.5,25,12,33.6,23.9c4.4,6.1,7,12.8,7.4,20.4c0.5,8.6-1.1,17.2-0.7,25.8
	c0.3,7.7,3.3,13.9,6.9,20.6c0.8,1.4,1.5,2.9,2.1,4.3h142.1C380.7,444.2,378.5,438.4,376.1,432.6z"/>
<g>
	<g>
		<path class="st5" d="M308.3,409.4c-0.4-2.1-0.6-4.2-0.9-6.5c-0.2-2.5-0.4-5.1-0.5-7.8c0-0.7,0-1.3-0.1-2l0-1l0-1
			c-0.1-1.4-0.1-2.7-0.1-4c-0.1-4,0.1-7.9,0.1-11.8c0.1-1.9,0.2-3.7,0.1-5.6c0-4.6-0.2-8.9-0.6-12.7c-0.5-4.2-1.4-7.6-2.1-10
			c-0.4-1.2-0.7-2.1-0.9-2.7c-0.2-0.6-0.3-1-0.3-1s-0.3-0.6-0.9-1.8c-0.1-0.3-0.3-0.6-0.5-1c0-0.1-0.1-0.2-0.1-0.3l0-0.1l-0.1-0.1
			l-0.1-0.1c-0.1-0.2-0.2-0.4-0.3-0.6c-0.4-0.8-1.1-1.8-1.7-2.8c-1.4-2.1-3.2-4.5-5.8-6.9c-2.5-2.4-5.7-4.8-9.7-6.6
			c-2-0.9-4.3-1.5-6.5-1.9c-0.5-0.1-1.1-0.2-1.6-0.3c-0.6-0.1-1.2-0.1-1.8-0.2c-0.6,0-1.2-0.1-1.8-0.1c-0.6,0-1.2,0-1.8,0
			c-4.8,0.1-9.8,0.9-14.8,1.6c-0.6,0.1-1.3,0.2-1.9,0.3l-0.9,0.1l-0.3,0.1l-0.2,0l-0.5,0.1c-1.3,0.2-2.6,0.5-3.8,0.7
			c-2.6,0.5-5.2,1.1-7.8,1.8c-1.3,0.4-2.6,0.8-3.9,1.2l-1.9,0.8c-0.6,0.3-1.3,0.5-1.9,0.8l-1.9,0.9c-0.6,0.3-1.2,0.7-1.8,1.1
			l-0.9,0.6l-0.4,0.3l-0.1,0c0,0-0.1,0.1-0.1,0.1l-0.1,0.1l-0.2,0.2c-0.5,0.5-1,0.8-1.6,1.4c-4.2,3.9-6.8,9.2-7.7,14.7
			c-0.5,2.7-0.5,5.5-0.3,8.1c0.1,0.7,0.2,1.3,0.3,2c0.1,0.6,0.3,1.3,0.4,1.9c0.3,1.3,0.7,2.6,1.2,3.8c1.9,4.9,4.8,9.1,8.2,12.3
			c3.5,3.2,7.4,5.6,11.4,6.8c1,0.3,2,0.5,2.9,0.8c1,0.2,1.9,0.3,2.9,0.5c0.6,0.1,1.3,0.2,1.9,0.2c1.2,0.3,2.4,0.6,3.6,0.7
			c8.1,1,16.2-1,23.9-3.3c5.2-1.5,11.6-4.5,17.1-3.2c4.7,1.1,6.6,6,7.9,10.2c1.9,6.4,2.9,13,4.7,19.5c1.6,5.9,3.8,11.7,7.3,16.9
			c2.9,4.3,6.7,7.9,10.1,11.8c0.7,0.8,1.4,1.7,2.1,2.5c-2.1-3.9-4.3-7.8-6.3-11.8C313.4,421.4,310.4,415.5,308.3,409.4z
			 M301.7,352.7c-0.1-0.1-0.1-0.2-0.2-0.3c0-0.3-0.1-0.5-0.1-0.8C301.5,351.9,301.6,352.3,301.7,352.7z M219.1,359.2
			c-0.1-0.6-0.3-1.2-0.4-1.9c-0.1-0.6-0.2-1.3-0.2-1.9c-0.2-2.5-0.1-5.1,0.4-7.7c0.5-2.5,1.3-5,2.6-7.3c1.2-2.3,2.9-4.4,4.8-6.1
			c0.4-0.4,1-0.9,1.5-1.3l0.2-0.2l0.1-0.1c0,0,0,0,0,0l0.1,0l0.4-0.3l0.8-0.5c0.6-0.3,1.1-0.7,1.7-1l1.8-0.8
			c0.6-0.3,1.2-0.5,1.8-0.7l1.8-0.7c1.3-0.4,2.5-0.8,3.8-1.1c2.6-0.6,5.1-1.1,7.7-1.6c1.3-0.2,2.6-0.4,3.8-0.6l0.5-0.1l0.2,0l0.1,0
			c0,0,0,0,0,0l0.1,0l1-0.1c0.6-0.1,1.3-0.1,1.9-0.2c5.1-0.6,9.9-1.3,14.4-1.3c0.6,0,1.1,0,1.7,0c0.5,0.1,1.1,0.1,1.6,0.2
			c0.5,0.1,1,0.1,1.6,0.2c0.5,0.1,1.1,0.2,1.6,0.3c2.1,0.4,3.9,1,5.7,1.8c3.5,1.6,6.3,3.8,8.5,6c2.2,2.2,3.8,4.5,5.1,6.4
			c0.3,0.4,0.5,0.8,0.7,1.2c-0.3-0.4-0.6-0.7-0.9-1.1c-1.2-1.3-2.4-2.4-3.7-3.4c-0.6-0.5-1.3-1-1.9-1.4l-0.5-0.3
			c-0.2-0.1-0.3-0.2-0.5-0.3c-0.3-0.2-0.7-0.4-1-0.6c-0.6-0.4-1.3-0.7-1.9-1.1c-0.6-0.3-1.2-0.6-1.8-0.9c-2.3-1.2-4.4-1.9-5.8-2.5
			c-1.4-0.5-2.3-0.7-2.3-0.7s-0.4-0.1-1.2-0.4c-0.8-0.3-2-0.4-3.4-0.8c-0.4-0.1-0.8-0.2-1.2-0.2c-0.4-0.1-0.8-0.1-1.3-0.2
			c-0.9-0.1-1.9-0.3-2.9-0.4c-1.1-0.1-2.2-0.1-3.4-0.2c-1.2,0-2.4,0.1-3.7,0.1c-5.2,0.2-11.2,2.1-16.7,5.6c-2.7,1.7-5.4,3.7-7.9,6
			c-2.6,2.2-5,4.6-7.4,7.1c-2.3,2.5-4.4,5.3-5.8,8.5c-0.6,1.5-1.2,3.2-1.3,4.9l-0.1,1.2l0,1.2c0,0.8,0.2,1.6,0.3,2.4
			c0.2,1.1,0.6,2.2,1,3.2c-0.4-0.9-0.8-1.9-1.2-2.9C219.7,361.7,219.4,360.5,219.1,359.2z M238.7,381.8c-3.8-1.3-7.6-3.7-10.8-6.9
			c-1.3-1.3-2.6-2.8-3.7-4.4c0.1,0.1,0.1,0.2,0.2,0.3c1.9,2.3,3.9,4.2,5.9,5.8c2,1.6,4.1,2.8,5.9,3.8c1.8,1,3.5,1.6,5,2
			c0.6,0.1,1.1,0.2,1.5,0.3c0.3,0.1,0.7,0.3,1,0.4C242.1,382.8,240.4,382.4,238.7,381.8z M292.5,343.1c-16.4-11.5-41.6-9.5-54.5,6.6
			c-5,6.3-8,15.1-5.1,22.9c1.7,4.7,5.3,8,9.6,10c-0.4-0.1-0.9-0.2-1.4-0.3c-1.4-0.4-3.1-1.1-5-2.1c-1.8-1-3.8-2.2-5.8-3.8
			c-2-1.6-4-3.5-5.8-5.8c-1.7-2.3-3.2-5.1-3.8-8.2c-0.6-3.1-0.2-6.4,1.2-9.5c1.4-3,3.5-5.7,5.8-8.2c2.3-2.5,4.8-4.8,7.4-6.9
			c2.6-2.2,5.2-4.1,7.9-5.8c5.4-3.4,11.2-5.1,16.2-5.3c1.3,0,2.5-0.1,3.7,0c1.1,0.1,2.2,0.1,3.2,0.2c1,0.1,2,0.3,2.8,0.4
			c0.4,0.1,0.9,0.1,1.3,0.2c0.4,0.1,0.8,0.2,1.1,0.3c1.4,0.3,2.6,0.5,3.3,0.8c0.8,0.2,1.2,0.4,1.2,0.4s0.8,0.2,2.2,0.6
			c1.4,0.5,3.4,1.2,5.7,2.3c0.6,0.3,1.2,0.5,1.8,0.8c0.6,0.3,1.2,0.7,1.9,1c0.3,0.2,0.6,0.4,1,0.5c0.2,0.1,0.3,0.2,0.5,0.3l0.5,0.3
			c0.7,0.4,1.3,0.9,1.9,1.3c1.3,0.9,2.5,2,3.6,3.2c1.1,1.2,2.2,2.5,3,4c0.9,1.4,1.5,3,2.1,4.6c0.3,0.8,0.4,1.6,0.6,2.4
			c0.1,0.4,0.1,0.8,0.2,1.2C298.6,348.3,295.8,345.4,292.5,343.1z"/>
	</g>
	<path class="st4" d="M335.4,448.2l-0.1-0.6l-0.1-0.7c-0.1-0.4-0.1-0.9-0.2-1.4c-0.1-0.9-0.2-1.9-0.3-2.8c-0.2-1.9-0.4-3.8-0.7-5.9
		c-0.5-4-1.4-8.1-3.4-11.7c-0.5-0.8-1-1.7-1.6-2.5c-0.6-0.8-1.2-1.5-1.8-2.3c-1.3-1.4-2.6-2.8-3.8-3.9c-0.3-0.3-0.6-0.6-0.9-0.9
		l-0.6-0.5l-0.5-0.4c-0.6-0.5-1.2-1-1.8-1.5c-0.5-0.6-1.1-1.1-1.6-1.6c-0.3-0.3-0.5-0.5-0.8-0.8c-0.2-0.3-0.5-0.6-0.7-0.8
		c-0.5-0.6-0.9-1.1-1.4-1.7c-0.4-0.6-0.8-1.2-1.2-1.8c-0.2-0.3-0.4-0.5-0.6-0.8c-0.2-0.3-0.4-0.6-0.5-0.9c-0.3-0.6-0.7-1.1-1-1.7
		c-1.3-2.2-2.3-4.3-3.1-6.1c-0.7-1.8-1.2-3.4-1.6-4.7c0-0.4-0.1-0.8-0.1-1.3c0-0.4,0-0.7-0.1-1.1c0-0.3,0-0.7,0-1c0-1.4,0-2.8,0-4.1
		c0.1-2.7,0.2-5.2,0.3-7.5c0.2-4.7,0.4-8.8,0.3-12.1c0-1.7-0.1-3.1-0.1-4.4c0-1.3-0.1-2.4-0.2-3.2c-0.2-1.7-0.2-2.7-0.2-2.7
		s0,0.9,0.1,2.7c0,0.9,0.1,2,0,3.2c0,1.3,0,2.7-0.2,4.4c-0.2,3.3-0.5,7.3-1,12c-0.2,2.3-0.4,4.9-0.6,7.5c-0.1,1.3-0.1,2.7-0.2,4.1
		c0,0.4,0,0.7,0,1.1c0,0.4,0,0.7,0,1.1c0,0.7,0,1.5,0.1,2.2c0,1.5,0.2,3,0.4,4.6c0.1,1.6,0.5,3.2,0.8,4.8c0.3,1.6,0.8,3.2,1.2,4.9
		c0.4,1.7,1.1,3.3,1.7,5c0.6,1.7,1.4,3.3,2.1,5c0.8,1.6,1.6,3.3,2.5,5c0.5,0.8,0.9,1.7,1.4,2.5l0.3,0.6c0.2,0.3,0.3,0.4,0.4,0.6
		l0.7,1.2c1,1.6,2,3.3,3,4.9c1,1.7,2.1,3.4,3.1,5.1c1,1.7,2,3.5,3,5.2c1.4,2.4,2.8,4.8,4.2,7.2h5.8
		C335.6,449.4,335.5,448.8,335.4,448.2z M328.9,440.9c-1.1-1.8-2.1-3.5-3.1-5.2c-1.1-1.7-2.2-3.4-3.2-5c-1.1-1.6-2.1-3.3-3.2-4.9
		l-0.8-1.2c-0.1-0.2-0.3-0.4-0.4-0.6l-0.4-0.6c-0.5-0.8-0.9-1.6-1.4-2.4c-0.9-1.6-1.7-3.2-2.5-4.8c-0.7-1.6-1.5-3.2-2.2-4.8
		c-1.8-4.2-3-8.4-3.8-12.4c0.5,1.5,1.2,3.2,2,4.9c0.3,0.6,0.6,1.2,0.9,1.8c0.1,0.3,0.3,0.6,0.5,0.9c0.2,0.3,0.4,0.6,0.6,1
		c0.4,0.6,0.7,1.2,1.1,1.9c0.4,0.6,0.9,1.3,1.3,1.9c0.2,0.3,0.5,0.7,0.7,1c0.2,0.3,0.5,0.6,0.8,0.9c0.5,0.6,1.1,1.3,1.6,1.9
		c0.6,0.6,1.2,1.2,1.9,1.8l0.5,0.5l0.1,0.1l0.1,0.1l0,0c0,0,0.1,0.1-0.1-0.1l0,0l0.2,0.2c0.3,0.3,0.6,0.6,0.9,0.9
		c1.3,1.2,2.3,2.5,3.4,3.8c0.5,0.7,1,1.4,1.5,2.1c0.5,0.7,0.9,1.5,1.3,2.2l0.3,0.6l0.1,0.1l0,0l0.1,0.3c0.2,0.4,0.3,0.9,0.5,1.3
		c0.4,0.9,0.5,1.7,0.8,2.6c0.4,1.7,0.7,3.6,1,5.5c0.2,2,0.5,3.9,0.7,5.8c0,0.2,0.1,0.4,0.1,0.6C330.1,442.9,329.5,441.9,328.9,440.9
		z"/>
</g>
<path class="st4" d="M212.1,381.4c-4.4-6.9-9.1-11.7-12.3-14.9c-0.8-0.8-1.5-1.5-2.2-2.1c-0.6-0.6-1.2-1.1-1.6-1.5
	c-0.9-0.8-1.4-1.2-1.4-1.2s0.4,0.5,1.2,1.3c0.4,0.4,0.9,1,1.5,1.6c0.6,0.7,1.2,1.4,2,2.3c2.9,3.4,7.1,8.5,11,15.5
	c1.9,3.5,3.8,7.5,5.2,11.9c1.3,4.4,2.2,9.3,2,14.5c0,1.3-0.2,2.6-0.3,3.9c-0.2,1.3-0.5,2.6-0.7,3.9l0,0.2l0,0.1l0,0l0,0.1l-0.1,0.5
	l-0.3,1c-0.2,0.7-0.4,1.4-0.6,2.1c-0.4,1.3-1,2.5-1.4,3.8c-2.2,5.2-5.3,10.2-8.7,15.3c-0.9,1.2-1.7,2.5-2.6,3.7
	c-0.4,0.6-0.9,1.2-1.3,1.8l-0.7,0.9l-0.7,0.8c-0.8,1-1.6,2-2.4,3h5.1c0.2-0.2,0.3-0.4,0.5-0.6l0.8-0.9l0.7-0.9
	c0.5-0.6,0.9-1.2,1.4-1.8c0.9-1.2,1.8-2.5,2.7-3.8c3.6-5.1,6.8-10.5,9-16.1c0.5-1.4,1.1-2.9,1.5-4.3c0.2-0.7,0.4-1.4,0.5-2.1l0.3-1
	l0.1-0.5l0-0.1c0-0.2,0-0.1,0-0.1l0,0l0-0.1l0-0.3c0.2-1.4,0.5-2.9,0.6-4.3c0.1-1.4,0.2-2.8,0.2-4.2c0-5.6-1.2-10.8-2.8-15.4
	C216.5,388.8,214.3,384.8,212.1,381.4z"/>
<path class="st3" d="M141,402.9c-13.5-8.3-33.9-5.2-47.6,0.8c-13.6,5.9-24.7,16-40.3,16.3c-16.1,0.3-30.7-8.8-34.8-24.7
	c-4-15.6-0.1-32.7,2.3-48.2c2.3-14.7,4.6-30.1-0.4-44.5c-2.7-7.7-10.6-20.8-20.2-22.7V450h143.9c1.1-2.5,2.1-5,2.9-7.6
	C150.6,430,154.2,411,141,402.9z"/>
<g>
	<g>
		<path class="st4" d="M112.9,437c6.6-1.9,13.6,0.4,20.1-2.1c7-2.7,11.2-10.2,9.5-17.5c-1.6-7.1-8.1-12.2-15.1-13
			c-7.1-0.8-13.9,3-17.9,8.7c-2,2.9-3.1,6.2-3.5,9.6c-0.3,3.4,0.2,6.8,0.2,10.2c0,6.3-2.5,12-6,17h2.7c0,0,0-0.1,0-0.1
			C103,443.8,107,438.7,112.9,437z"/>
		<path class="st4" d="M105,447.6l0.3-0.5c0.2-0.4,0.4-0.7,0.6-1.1c0.2-0.4,0.5-0.7,0.7-1l0.8-1l1-0.9l0.5-0.4
			c0.2-0.1,0.4-0.2,0.5-0.4l1.1-0.7c0.4-0.2,0.8-0.3,1.2-0.5l0.6-0.3c0.2-0.1,0.4-0.1,0.6-0.2l1.2-0.3c0.4-0.1,0.8-0.1,1.2-0.2
			c0.4,0,0.8-0.1,1.3-0.1c0.5,0,0.9,0,1.4,0l0.7,0l0.6,0c0.9,0.1,1.8,0.1,2.6,0.2c3.5,0.2,6.9,0.4,9.9-0.2c1.5-0.3,2.9-0.7,4.1-1.3
			c0.3-0.2,0.6-0.3,0.9-0.5c0.3-0.1,0.5-0.3,0.7-0.4c0.4-0.2,0.8-0.5,1.2-0.8c0.7-0.5,1.3-0.9,1.7-1.2c0.4-0.3,0.5-0.5,0.5-0.5
			s0.3-0.4,0.9-1c0,0,0.1-0.1,0.1-0.2c-0.5,0.7-1.1,1.4-1.7,2.1c-1.5,1.7-3.3,3-5.4,3.9c0,0-0.1,0.1-0.4,0.2
			c-0.3,0.1-0.6,0.3-1.1,0.5c-1,0.4-2.5,0.8-4.3,1.1c-1.8,0.3-4,0.4-6.4,0.2c-1.2-0.1-2.4-0.2-3.6-0.4c-0.6-0.1-1.3-0.2-1.9-0.1
			l-1,0l-1,0.1c-0.7,0-1.3,0.3-1.9,0.4c-0.6,0.2-1.2,0.5-1.8,0.7c-1.1,0.6-2.2,1.4-3,2.3c-1.3,1.4-2.1,3.1-2.5,4.7h0.3
			c0.4-1.5,1.2-3.1,2.5-4.4c0.8-0.9,1.8-1.5,2.9-2.1c0.6-0.2,1.1-0.5,1.7-0.6c0.6-0.1,1.2-0.3,1.8-0.3l0.9-0.1l0.9,0
			c0.6,0,1.2,0.1,1.8,0.2c1.2,0.2,2.4,0.4,3.6,0.6c2.4,0.3,4.7,0.2,6.6,0c1.9-0.2,3.5-0.6,4.6-1c0.5-0.2,1-0.4,1.2-0.5
			c0.3-0.1,0.4-0.2,0.4-0.2c2.1-1.1,4.1-2.7,5.5-4.6c1.3-1.7,2.6-3.5,3.3-5.6c0.2-0.3,0.4-0.5,0.5-0.8c0.2-0.3,0.4-0.7,0.6-1
			c0.1-0.2,0.2-0.3,0.3-0.5l0.2-0.4l0.1-0.3c0.2-0.5,0.3-0.9,0.4-1.4c0.5-1.9,0.5-4,0.2-5.9c-0.5-3.8-1.6-7.5-3.2-9.9
			c-0.8-1.2-1.7-2-2.5-2.4c-0.2-0.1-0.4-0.2-0.5-0.2c-0.2,0-0.3-0.1-0.4-0.1c-0.2-0.1-0.3-0.1-0.3-0.1s0.1,0,0.3,0.1
			c0.1,0,0.2,0.1,0.4,0.2c0.1,0.1,0.3,0.2,0.4,0.3c0.7,0.4,1.4,1.3,2,2.5c1.2,2.4,1.7,6.1,1.6,9.7c0,1.8-0.3,3.5-0.9,4.9
			c-0.1,0.4-0.3,0.7-0.5,1l-0.1,0.1l0,0.1l-0.1,0.1c-0.1,0.2-0.2,0.3-0.4,0.5c-0.2,0.3-0.5,0.6-0.7,0.9c-0.2,0.3-0.4,0.6-0.7,0.8
			c-0.9,0.9-1.6,1.6-2.2,2c-0.6,0.5-0.9,0.7-0.9,0.7s-0.2,0.2-0.4,0.4c-0.3,0.3-0.8,0.6-1.3,1.1c-1.3,1.1-2.7,2.1-5.2,2.7
			c-2.4,0.6-5.6,0.7-9.1,0.8c-0.9,0-1.8,0-2.7,0l-0.3,0l-0.2,0l-0.2,0l-0.1,0l-0.7,0.1c-0.5,0-0.9,0.1-1.4,0.1
			c-0.9,0.1-2,0.3-2.9,0.6l-1.4,0.5c-0.2,0.1-0.5,0.2-0.7,0.3l-0.7,0.3c-0.4,0.2-0.9,0.5-1.3,0.7l-1.2,0.9c-0.2,0.2-0.4,0.3-0.6,0.5
			l-0.5,0.5l-1,1.1c-1.2,1.6-2.1,3.1-2.7,5c-0.2,0.7-0.4,1.4-0.5,2.2h1.2c0.2-0.6,0.4-1.2,0.6-1.8L105,447.6z"/>
	</g>
	<path class="st7" d="M147.4,423.2c0-0.3-0.1-0.5-0.1-0.8c-0.1-0.9-0.2-1.5-0.2-1.5s0,0.5,0.1,1.5
		C147.3,422.7,147.3,422.9,147.4,423.2c-0.1,0.3-0.1,0.6-0.1,0.9c0,0.6,0,1.4-0.2,2.2c-0.1,0.4-0.1,0.8-0.2,1.2
		c-0.1,0.4-0.2,0.8-0.4,1.3c-0.2,0.9-0.6,1.7-1,2.7c-0.2,0.4-0.5,0.9-0.7,1.3c-0.2,0.4-0.5,0.9-0.8,1.3c-0.3,0.4-0.6,0.8-0.9,1.2
		l-1.1,1.1c-0.7,0.7-1.6,1.4-2.3,2.1c-0.8,0.7-1.5,1.4-2.3,2c-0.8,0.6-1.6,1.2-2.3,1.8c-0.4,0.3-0.7,0.6-1,0.9l-0.2,0.2l-0.2,0.2
		c-0.1,0.2-0.3,0.3-0.4,0.4c-1.1,1.2-1.9,2.3-2.4,3.1c-0.5,0.8-0.8,1.3-0.8,1.3s-0.1,0.3-0.3,0.7c-0.1,0.2-0.2,0.4-0.2,0.7h1.4
		c0,0,0-0.1,0.1-0.2c0.2-0.4,0.3-0.6,0.3-0.6s0.2-0.5,0.6-1.2c0.4-0.8,1.1-1.8,2.2-3c0.1-0.2,0.3-0.3,0.4-0.5l0.2-0.2l0.2-0.2
		c0.3-0.3,0.6-0.6,1-0.9c0.6-0.6,1.4-1.2,2.2-1.9c0.8-0.7,1.5-1.4,2.3-2.1c0.7-0.8,1.5-1.4,2.3-2.3l1.1-1.2c0.3-0.4,0.6-0.9,0.9-1.3
		c0.3-0.4,0.6-0.9,0.8-1.4c0.2-0.5,0.5-0.9,0.7-1.4c0.3-1,0.8-1.8,0.9-2.8c0.1-0.4,0.2-0.9,0.3-1.3c0.1-0.4,0.1-0.8,0.1-1.2
		c0.1-0.8,0.1-1.5,0.1-2.2C147.4,423.8,147.4,423.5,147.4,423.2z"/>
	<path class="st7" d="M148.6,421l-0.3-1.4c-0.7-3.6-2.3-7-4.5-9.8c-0.3-0.3-0.6-0.6-0.9-0.9c-0.3-0.3-0.6-0.6-0.9-0.9
		c-0.7-0.5-1.3-1-2-1.4c-0.3-0.2-0.7-0.4-1-0.6c-0.3-0.2-0.7-0.3-1-0.5c-0.3-0.2-0.7-0.3-1-0.5c-0.3-0.1-0.7-0.3-1-0.4
		c-2.6-1-4.8-1.5-6.3-1.8c-1.6-0.3-2.5-0.5-2.5-0.5s0.9,0.2,2.4,0.5c1.5,0.4,3.8,0.9,6.3,2c0.3,0.1,0.6,0.3,1,0.4
		c0.3,0.1,0.6,0.3,1,0.5c0.3,0.2,0.7,0.3,1,0.5c0.3,0.2,0.6,0.4,1,0.6c0.7,0.4,1.3,0.9,1.9,1.4c0.3,0.2,0.6,0.5,0.9,0.9
		c0.3,0.3,0.6,0.6,0.8,0.9c2,2.7,3.5,6.1,4.1,9.6l0.2,1.3l0.1,1.3c0,0.2,0,0.5,0,0.6l0,0.7l-0.1,1.3c-0.2,1.7-0.5,3.4-1.1,5
		c-1.1,3.2-2.8,5.9-4.6,7.7c-1.8,2-3.7,3.2-4.9,4.2c-1.3,1-2,1.5-2,1.5s-0.4,0.3-1,0.8c-0.6,0.5-1.5,1.3-2.4,2.4
		c-0.8,0.9-1.5,2-2.1,3.3h1.2c0.6-1,1.2-1.8,1.9-2.5c0.9-1,1.8-1.7,2.4-2.1c0.6-0.5,1-0.8,1-0.8s0.7-0.6,2-1.5c1.2-1,3.1-2.4,5-4.4
		c1.9-2.1,3.6-4.9,4.6-8.3c0.6-1.6,0.8-3.4,1-5.3l0-1.3l0-0.7c0-0.3,0-0.5-0.1-0.7L148.6,421z"/>
</g>
<g>
	<path class="st5" d="M171.2,387.6c-0.9-6.5-2.5-13.3-6.2-19.3c-0.4-0.8-1-1.5-1.4-2.2c-0.1-0.1-0.1-0.1-0.2-0.3l-0.2-0.2l-0.4-0.5
		c-0.3-0.3-0.5-0.7-0.8-1c-1.2-1.3-2.5-2.6-3.9-3.7c-2.8-2.3-5.9-4.1-9.1-5.5c-6.5-2.9-13.5-4.4-20.4-5.1c-0.9,0-1.8-0.1-2.7-0.1
		l-1.3,0c-0.4,0-0.9,0.1-1.3,0.1c-0.9,0.1-1.7,0.1-2.6,0.2c-0.9,0.1-1.7,0.3-2.6,0.4c-1.7,0.2-3.4,0.8-5,1.2
		c-0.8,0.2-1.6,0.6-2.4,0.9c-0.8,0.3-1.6,0.6-2.4,0.9c-1.5,0.7-3.1,1.4-4.5,2.3c-0.7,0.4-1.4,0.8-2.1,1.2c-0.7,0.4-1.3,0.8-2,1.2
		c-2.7,1.7-5.2,3.5-7.7,5.1c-4.9,3.3-9.8,6-14.5,7c-2.4,0.5-4.6,0.6-6.9,0.3c-0.6-0.1-1.1-0.2-1.6-0.3c-0.2-0.1-0.5-0.1-0.7-0.2
		c-0.2-0.1-0.5-0.2-0.7-0.2c-1-0.3-1.9-0.7-2.8-1.1c-1.8-0.8-3.3-1.9-4.7-2.9c-1.4-1.1-2.6-2.1-3.6-3.1c-2.1-2-3.5-3.9-4.4-5.1
		c-0.9-1.3-1.4-2-1.4-2s-0.2-0.3-0.7-1c-0.2-0.3-0.5-0.7-0.8-1.2c-0.1-0.2-0.3-0.5-0.5-0.7c-0.2-0.3-0.4-0.6-0.6-0.9
		c-0.4-0.7-0.8-1.4-1.3-2.2c-0.4-0.8-0.8-1.6-1.3-2.5c-0.5-0.9-0.9-1.9-1.4-3c-0.5-1-0.9-2.2-1.4-3.4c-1-2.4-1.8-5-2.8-7.9
		c-0.9-2.8-1.8-5.8-2.9-9c-0.6-1.5-1.1-3.1-1.8-4.7c-0.3-0.8-0.7-1.6-1-2.4c-0.4-0.8-0.7-1.6-1.1-2.3c-1.5-3.1-3.2-6.2-4.9-9.3
		c-3.6-6.1-7.6-11.8-11.2-17.2c-3.7-5.4-7.1-10.4-10-14.8c-2.7-4-5-7.4-6.7-9.9v0.4c1.6,2.5,3.7,5.9,6.1,9.9c2.8,4.4,6,9.6,9.5,15.1
		c3.5,5.5,7.2,11.4,10.5,17.5c1.6,3,3.2,6.1,4.5,9.3c0.3,0.8,0.7,1.6,1,2.3c0.3,0.8,0.6,1.6,0.9,2.3c0.6,1.5,1.1,3.1,1.6,4.7
		c0.9,3,1.7,6.1,2.5,9c0.8,2.9,1.6,5.6,2.5,8.2c0.4,1.3,0.9,2.5,1.3,3.6c0.5,1.1,0.9,2.2,1.4,3.2c0.5,1,0.9,2,1.3,2.8
		c0.4,0.8,0.9,1.5,1.2,2.2c0.2,0.3,0.4,0.6,0.5,0.9c0.2,0.3,0.4,0.6,0.5,0.9c0.3,0.5,0.6,1,0.8,1.3c0.5,0.7,0.7,1.1,0.7,1.1
		s0.5,0.7,1.6,2.1c1.1,1.3,2.6,3.3,4.9,5.5c1.1,1.1,2.5,2.2,4.1,3.4c1.6,1.1,3.4,2.2,5.5,3.2c1.1,0.4,2.1,0.9,3.3,1.2
		c0.3,0.1,0.6,0.2,0.9,0.3c0.3,0.1,0.6,0.1,1,0.2c0.6,0.1,1.3,0.3,1.9,0.3c0.3,0,0.6,0.1,0.9,0.1l0.5,0l0.2,0h0.1l0.2,0
		c0.7,0,1.3,0,2,0c0.7-0.1,1.4-0.1,2-0.2c0.7-0.1,1.4-0.3,2-0.4c5.5-1.3,10.6-4.3,15.6-7.8c2.5-1.7,5-3.5,7.5-5.2
		c0.7-0.4,1.3-0.9,2-1.3c0.7-0.4,1.3-0.8,2-1.2c1.3-0.9,2.7-1.5,4.2-2.2c5.7-2.7,12.3-4,18.9-3.7c6.8,0.5,13.5,1.9,19.8,4.5
		c3.1,1.3,6.1,3,8.8,5.1c1.3,1,2.6,2.2,3.7,3.4c0.3,0.3,0.6,0.6,0.8,1l0.4,0.5l0.2,0.2c0,0,0.1,0.1,0.2,0.2c0.5,0.7,1,1.3,1.4,2.1
		c3.6,5.7,5.4,12.2,6.3,18.6c0.5,3.2,0.7,6.4,0.9,9.5c0,0.4,0,0.8,0,1.2l0,1.2c0,0.8,0,1.5,0,2.3c-0.1,1.5-0.2,3-0.3,4.5
		c-0.6,5.9-1.8,11.5-3.2,16.5c-1.4,5-3.1,9.5-4.7,13.4c-1.6,3.9-3.1,7.3-4.4,10.1c-0.6,1.4-1.2,2.6-1.7,3.6h0.1
		c0.5-1,1.1-2.2,1.8-3.5c1.3-2.7,2.9-6.1,4.6-10c1.7-3.9,3.4-8.4,4.9-13.4c1.5-5,2.8-10.6,3.5-16.5c0.2-1.5,0.3-3,0.4-4.6
		c0-0.8,0.1-1.6,0.1-2.3l0-1.2c0-0.4,0-0.8,0-1.2C171.8,394.1,171.6,390.9,171.2,387.6z"/>
	<path class="st4" d="M175.6,379.6c-0.1-0.7-0.2-1.3-0.4-1.8c-0.2-1-0.4-1.5-0.4-1.5c-1-3.8-2.7-7.5-4.8-10.9
		c-0.6-0.8-1.1-1.6-1.8-2.4c-0.7-0.7-1.2-1.5-2-2.2c-0.7-0.7-1.4-1.4-2.2-2.1c-0.4-0.3-0.7-0.7-1.1-1l-1.2-0.9
		c-3.2-2.4-6.8-4.2-10.5-5.5c-3.7-1.4-7.5-2.3-11.4-3c-1.9-0.3-3.9-0.6-5.8-0.7l-1.5-0.1l-1.5,0l-2.9,0c-1,0-2,0.1-3,0.2
		c-1,0.1-2,0.1-3,0.2l-2.9,0.4c-1,0.1-1.9,0.3-2.9,0.5l-2.9,0.6l-0.7,0.2c-0.3,0.1-0.5,0.2-0.7,0.3l-1.4,0.5c-0.9,0.3-1.8,0.7-2.7,1
		l-2.7,1.3c-3.6,1.7-6.9,3.7-10.3,5.7l-0.1,0c-3,2.1-6,4.1-9.3,5.7c-3.3,1.6-6.7,2.7-10.4,2.9c-3.5,0.2-7.2-0.8-10.4-2.4
		c-1.6-0.8-3.1-1.8-4.6-2.9l-2.2-1.7c-0.7-0.6-1.4-1.2-2-1.8c-5.2-5-9-11.5-12-18c-1.5-3.3-2.9-6.7-4.3-10.1c-0.7-1.7-1.5-3.4-2.2-5
		l-2.3-5c-0.4-0.8-0.8-1.6-1.3-2.4l-1.3-2.4l-2.6-4.8c-1.9-3.1-3.9-6.2-5.9-9.3c-4.3-5.9-8.5-11.9-12.7-17.9l-3-4.6
		c-1-1.5-2-3-3-4.6l-2.8-4.7c-0.9-1.6-1.9-3.1-2.7-4.7L0,264.4v0.3c0.8,1.6,1.8,3.1,2.7,4.7l2.8,4.7c0.9,1.6,2,3.1,2.9,4.6l3,4.6
		c4.1,6.1,8.3,12,12.6,18c2,3.1,3.9,6.2,5.8,9.3l2.6,4.8l1.3,2.4c0.4,0.8,0.9,1.6,1.2,2.4l2.3,5c0.8,1.7,1.6,3.3,2.2,5
		c1.4,3.4,2.7,6.8,4.3,10.1c3,6.6,6.8,13.1,12.1,18.3c0.7,0.6,1.4,1.2,2.1,1.9l2.2,1.7c1.5,1.1,3,2.2,4.7,3c3.3,1.7,7,2.7,10.8,2.5
		c3.7-0.2,7.3-1.3,10.7-2.9c3.3-1.6,6.4-3.6,9.5-5.7c0,0,0,0,0,0.1c3.3-2,6.7-4,10.2-5.6l2.6-1.2c0.9-0.4,1.8-0.7,2.7-1l1.4-0.5
		l0.6-0.2l0.7-0.2l2.8-0.6c0.9-0.2,1.9-0.4,2.9-0.5l2.9-0.4c1-0.1,1.9-0.1,2.9-0.2c1,0,1.9-0.2,2.9-0.1l2.9,0l1.5,0l1.4,0.1
		c1.9,0.2,3.8,0.4,5.8,0.8c3.8,0.7,7.6,1.6,11.2,3c3.6,1.4,7.1,3.1,10.1,5.4l1.1,0.9c0.4,0.3,0.7,0.6,1.1,0.9c0.7,0.6,1.4,1.3,2.1,2
		c0.7,0.6,1.3,1.5,1.9,2.2c0.6,0.7,1.1,1.5,1.7,2.3c2.1,3.2,3.6,6.8,4.6,10.5c0,0,0.1,0.5,0.4,1.4c0.1,0.5,0.2,1.1,0.4,1.7
		c0.1,0.7,0.3,1.5,0.4,2.4c0.5,3.6,0.7,8.8,0,15c-0.8,6.2-1.7,13.5-3.2,21.3c-0.4,1.9-0.8,3.9-1.3,5.8c-0.2,1-0.5,2-0.7,3
		c-0.3,1-0.6,2-0.8,3l-0.4,1.5l-0.5,1.5c-0.3,1-0.7,2-1,3c-0.8,1.9-1.5,3.9-2.4,5.8c-1.2,2.7-2.5,5.4-3.9,8h0.7
		c1.3-2.5,2.6-5.1,3.8-7.7c0.9-1.9,1.6-3.9,2.5-5.8c0.3-1,0.7-2,1-3l0.5-1.5l0.4-1.5c0.3-1,0.6-2,0.9-3c0.3-1,0.5-2,0.8-3
		c0.5-2,0.9-3.9,1.4-5.9c1.6-7.7,2.6-15,3.5-21.3c0.8-6.3,0.6-11.7,0.1-15.4C175.9,381.1,175.8,380.3,175.6,379.6z"/>
	<path class="st4" d="M168.1,398.6c0-0.8-0.1-1.7-0.1-2.6c-0.1-0.9-0.1-1.7-0.2-2.6c-0.1-0.9-0.2-1.7-0.4-2.6
		c-0.2-1.7-0.6-3.4-1-5.2c-0.2-0.9-0.5-1.7-0.7-2.6c-0.3-0.8-0.5-1.7-0.8-2.6c-0.7-1.7-1.4-3.4-2.2-5c-3.3-6.5-8.4-12.3-14.8-16.2
		c-3.2-2-6.6-3.5-10.2-4.5l-1.3-0.4l-1.3-0.3c-0.9-0.2-1.8-0.4-2.7-0.6c-0.9-0.2-1.9-0.2-2.8-0.3c-0.9-0.1-1.9-0.1-2.8-0.1
		c-3.7,0-7.4,0.6-10.8,1.6c-3.5,1-6.7,2.4-9.8,4.1c-1.5,0.8-3,1.7-4.5,2.6c-1.5,0.9-2.8,1.8-4.2,2.8c-2.7,1.8-5.4,3.6-8,5.1
		c-5.2,3.1-10.6,5.2-15.7,5.4c-0.6,0.1-1.3,0-1.9,0c-0.3,0-0.6,0-0.9,0c-0.3,0-0.6-0.1-0.9-0.1c-0.3,0-0.6-0.1-0.9-0.1l-0.2,0l0,0
		l-0.1,0l-0.5-0.1c-0.6-0.2-1.2-0.3-1.8-0.5c-2.1-0.6-4.1-1.6-5.9-2.6c-3.5-2.2-6.2-4.7-8.2-7c-2-2.3-3.4-4.3-4.3-5.6
		c-0.9-1.4-1.3-2.1-1.3-2.1c0,0-1-1.5-2.4-4.2c-0.1-0.2-0.2-0.3-0.3-0.5l0-0.1l0-0.1l-0.1-0.3c-0.2-0.4-0.3-0.8-0.5-1.3
		c-0.4-0.9-0.8-1.8-1.2-2.9c-0.4-1-0.9-2.1-1.3-3.2c-0.4-1.1-0.8-2.4-1.2-3.6c-0.4-1.3-0.9-2.6-1.3-4c-0.4-1.4-0.9-2.8-1.3-4.3
		c-0.9-3-1.9-6.1-2.9-9.4c-0.5-1.6-1-3.3-1.6-4.9c-0.6-1.7-1.2-3.4-1.9-5c-1.3-3.4-2.9-6.7-4.6-9.9c-1.7-3.3-3.7-6.3-5.7-9.3
		c-2.2-2.8-4.3-5.6-6.4-8.4c-2.1-2.7-4.1-5.3-6-7.8c-1.8-2.5-3.6-4.8-5.2-7.1c-1-1.5-2-3-2.9-4.3v0.8v0.1v0.4c0.3,0.5,0.7,0.9,1,1.4
		l0.4,0.6c0.3,0.5,0.6,1,0.9,1.5c1.5,2.3,3.2,4.7,4.9,7.3c1.8,2.6,3.7,5.2,5.7,8c2,2.8,4,5.6,6,8.6c1.9,3,3.7,6.1,5.3,9.3
		c1.5,3.2,2.9,6.5,4.1,9.9c0.4,1,0.7,2,1,2.9c0.1,0.4,0.2,0.9,0.3,1.3c0.3,1.2,0.4,2.4,0.6,3.5c0.1,0.6,0.2,1.2,0.3,1.7l0.1,1.8
		c0.1,2.4,0.2,4.8,0.3,7.2c0.2,4.8,0.5,9.7,1.5,14.4c0.7,3.4,1.8,6.8,3.4,10c0.1,0.8,0.2,1.6,0.4,2.3c0.4,1.5,0.7,3.2,1,4.8
		c0.5,2.6,1.3,4.8,3,6.9c1.5,1.9,4.2,2.9,6.5,3.6c2.5,0.8,5,1.3,7.4,2c1.3,0.8,2.6,1.6,4,2.3c1.6,1.4,3.3,2.5,4.8,3.9
		c2.3,2.1,2.8,4.9,3.6,7.8c0.8,2.8,2.2,5.1,5,6.2c2.7,1,5.7,1,8.4,0.4c2.9-0.6,5.8-1.9,8.4-3.4c2.7-1.5,5.3-3.5,6.6-6.4
		c1.3-2.8,1.2-5.9,1.8-8.9c0.5-2.8,1.7-5.2,3.8-7.1c1.1-1.1,2.3-2.1,3.5-3c2.5-1.5,5.1-2.9,7.8-4.1c3.5-1.5,7.1-2.7,10.9-3.3
		c3.8-0.5,7.6-0.5,11.3,0.3c3.7,0.8,7.4,2.1,10.7,4c3.3,1.9,6.3,4.3,9,7.1c2.6,2.8,4.8,5.9,6.6,9.3c0.8,1.7,1.7,3.5,2.2,5.3l0.9,2.7
		c0.3,0.9,0.4,1.9,0.6,2.8c0.5,1.9,0.6,3.8,0.9,5.7c0.1,0.9,0.1,1.9,0.2,2.9c0,1,0.2,1.9,0.1,2.9c0,1.9,0.1,3.8-0.1,5.8
		c-0.1,1.9-0.2,3.8-0.4,5.7c-0.4,3.8-0.8,7.7-1.6,11.4c-0.3,1.5-0.7,2.9-1.1,4.4c-0.2,0.5-0.4,1-0.5,1.5c-1.9,5.1-3.9,9.6-5.9,13.6
		c-0.1,0.1-0.1,0.2-0.2,0.3c-0.3,0.5-0.6,1-0.9,1.5c-0.5,0.8-0.9,1.5-1.4,2.2h0.3c0.2-0.3,0.4-0.6,0.6-0.9c-0.1,0.3-0.3,0.6-0.4,0.9
		h0.3c0.7-1.2,1.4-2.5,2.1-3.9c0.3-0.7,0.7-1.4,1-2.1c1.2-2.3,2.3-4.6,3.3-7c0.6-1.4,1.2-2.9,1.8-4.5c2-5.1,3.8-10.8,4.8-16.9
		c0.1-0.8,0.3-1.6,0.4-2.3c0.1-0.8,0.2-1.6,0.3-2.4l0.1-1.2l0.1-1.2c0-0.8,0.1-1.6,0.1-2.4c0.1-1.6,0.1-3.3,0.1-5
		C168.1,400.3,168.1,399.4,168.1,398.6z M166.9,406c0,0.8-0.1,1.6-0.1,2.4l0,1.2l-0.1,1.2c-0.1,0.8-0.2,1.6-0.2,2.4
		c-0.1,0.8-0.2,1.5-0.3,2.3c-0.5,3.5-1.3,6.8-2.2,10c0.7-3.4,1.1-6.9,1.5-10.4c0.2-1.9,0.3-3.8,0.4-5.8c0.1-1.9,0.1-3.9,0.1-5.8
		c0-1-0.1-1.9-0.1-2.9c-0.1-1-0.1-1.9-0.2-2.9c-0.3-1.9-0.4-3.8-0.9-5.7c-0.2-0.9-0.4-1.9-0.6-2.8l-0.9-2.8
		c-0.6-1.9-1.4-3.6-2.2-5.4c-3.5-6.9-9-12.9-15.7-16.8c-3.3-2-7.1-3.3-10.9-4.1c-3.8-0.9-7.8-0.9-11.6-0.4
		c-3.9,0.6-7.6,1.8-11.2,3.3c-0.2,0.1-0.3,0.1-0.5,0.2l-1,0.4c-0.3,0.2-0.6,0.3-0.9,0.5c-2.7,1.3-5.3,2.8-7.9,4.4c0,0,0,0,0-0.1
		c-0.5,0.3-1,0.5-1.5,0.8c-0.4,0.2-0.7,0.4-1.1,0.6c-1.6,0.8-3.2,1.7-4.8,2.5c-0.8,0.4-1.4,0.9-2.1,1.3c-0.7,0.4-1.6,0.6-2.3,0.9
		c-1.6,0.8-3,1.9-4.6,2.6c-0.9,0.4-1.9,0.8-2.8,1.4c-0.3,0.2-0.5,0.3-0.7,0.4c-1.5,0.6-3.1,1-4.7,1.3c-0.2,0-0.4,0.1-0.6,0.1
		c-0.7,0.1-1.3,0.2-2,0.2c-0.4,0-0.9,0.1-1.3,0.2c-1.7,0.1-3.4-0.1-5-0.4c-2.4-0.4-4.7-1.1-6.9-2.1l-1.4-1c-0.3,0-0.6,0-0.8,0
		c-0.6-0.3-1.1-0.6-1.7-0.9c-0.3-0.2-0.6-0.5-1-0.6c-0.1,0-0.2-0.1-0.3-0.1c-1.4-0.9-2.9-1.9-4.2-2.9c-4.8-3.8-8.9-8.3-12.3-13.3
		c-0.4-0.5-0.7-1-1-1.5l-0.5-0.7l-0.4-0.7c-0.6-1.1-1-2.1-1.5-3.2c-0.9-2.2-1.5-4.5-2.1-6.8c-1-4.6-1.3-9.4-1.6-14.2
		c-0.1-2.4-0.3-4.8-0.4-7.2l-0.1-0.7c0.8,3,1.6,6,2.4,8.8c0.4,1.5,0.8,3,1.2,4.4c0.4,1.4,0.8,2.8,1.2,4.1c0.4,1.3,0.8,2.6,1.2,3.8
		c0.4,1.2,0.8,2.3,1.2,3.3c0.4,1,0.8,2,1.1,2.9c0.2,0.4,0.3,0.9,0.5,1.3l0.1,0.3l0.1,0.1l0,0l0.1,0.2l0,0.1c0.1,0.2,0.2,0.4,0.3,0.6
		c1.4,2.9,2.4,4.5,2.4,4.5s0.5,0.8,1.5,2.3c1,1.5,2.5,3.6,4.7,6c2.2,2.4,5.2,5.2,9.3,7.6c2.1,1.1,4.3,2.2,7,2.9
		c0.6,0.2,1.2,0.3,1.9,0.4l0.5,0.1l0.1,0c0,0,0.2,0,0.2,0l0.1,0l0.3,0c0.3,0,0.7,0.1,1,0.1c0.3,0,0.7,0.1,1.1,0.1c0.4,0,0.7,0,1.1,0
		c0.7,0,1.4,0,2.2-0.1c2.9-0.2,5.9-0.9,8.7-2c2.9-1.1,5.6-2.6,8.4-4.2c2.7-1.7,5.4-3.5,8.1-5.4c1.3-0.9,2.7-1.9,4-2.8
		c1.4-0.9,2.8-1.8,4.2-2.5c2.9-1.6,6-3,9.2-4c3.2-1,6.6-1.6,10.1-1.7c3.5-0.1,6.8,0.5,10.3,1.4c3.4,0.9,6.7,2.3,9.7,4.1
		c6.1,3.6,11.1,9,14.3,15.1c0.8,1.6,1.5,3.2,2.2,4.8c0.4,0.8,0.6,1.6,0.9,2.4c0.2,0.8,0.6,1.6,0.8,2.5c0.4,1.7,0.8,3.3,1.1,5
		c0.1,0.8,0.3,1.7,0.4,2.5c0.1,0.8,0.2,1.7,0.3,2.5c0.1,0.8,0.2,1.7,0.2,2.5c0,0.8,0.1,1.7,0.1,2.5
		C166.9,402.8,166.9,404.4,166.9,406z"/>
</g>
<path class="st7" d="M148.4,373.2c-1.2-0.3-2.4-0.5-3.7-0.7c-0.7-0.2-1.5-0.4-2-1c-0.5-0.6-0.7-1.5-0.9-2.3
	c-0.4-1.3-0.9-2.5-1.6-3.5c-2.3-3.3-6.2-4.8-10-5.1c-4.5-0.3-9,1.1-13,3.1c-2.8,1.4-5.3,3.1-8.2,4.3c-2.2,0.9-4.4,1.6-6.4,2.9
	c-2,1.4-3.6,3.3-4.3,5.6c-0.7,1.9-0.6,3.8-0.3,5.8c0.1-0.8,0.3-1.7,0.4-2.5c0.3-1.4,0.7-2.9,1.4-4.1c0.5-1,1.3-1.8,2.1-2.6
	c2-1.9,4.4-3.4,7.2-3.4c5.4,0.1,9.9,4.6,12.7,8.7c1.7,2.5,3.1,5.3,4.3,8.1c0.9,2.1,1.7,4.3,3.1,6.1c2.5,3.2,6.7,3,10.4,3.2
	c2,0.1,4.1,0.2,6.1,0.9c2,0.7,3.6,2,4.7,3.7c1.5,2.2,2.4,4.8,3,7.4c0.8,3.1,1.2,6.4,1.4,9.6c0.4,6.1,0.2,12.3-1.1,18.3
	c-1.1,5-3,9.9-5.8,14.2h1c1-1.6,2-3.3,2.9-5c1.1-2,2-4,2.6-6.2c0.6-2.2,0.8-4.5,1.1-6.7c0.3-2.5,0.8-4.9,1-7.4
	c0.2-2.3,0-4.5-0.5-6.7c-0.4-2-1-3.9-0.9-5.9c0.1-2.6,0.8-5.2,1.4-7.7c0.7-3.1,1.2-6.3,1.5-9.4c0.3-2.9,0.7-5.9,0.8-8.8
	c0.1-2.9-0.4-5.9-2.2-8.2C154.5,375.4,151.5,373.9,148.4,373.2z"/>
<g>
	<path class="st8" d="M800,290.5c-2.4-3-4.8-6.1-6.9-9.2c-3.9-5.6-4.4-12.4-7.2-18.5c-3-6.6-7.8-11.8-10.1-18.9
		c-2.6-7.8-4.3-16.2-5.3-24.3c-1-8.8-0.7-17.8,0.8-26.6c1.2-7.2,3.3-14.2,4.3-21.4c1.1-7.9,2.8-15.8,3.7-23.7
		c1-8.3-0.3-16.6-0.4-24.9c-0.2-8-0.2-15.4-3.7-22.8c-3.6-7.6-8.6-15.2-14.4-21.3c-5.8-6.1-12.6-8.8-20.7-10.3
		c-7.1-1.3-13.4-3.7-20.1-6.4c-7-2.9-14.5-4.9-20.9-9.1c-6.4-4.1-12.3-9.8-15.9-16.6c-4-7.6-4.7-16.4-7.3-24.5
		c-1.2-3.8-2.6-7.5-3.2-11.4c0-0.2,0-0.3-0.1-0.5h-23.7c2.8,3,4.8,6.4,6.5,10.7c2.6,6.5,3,14.2-0.9,20.3c-3.8,6-7.8,10.6-6.4,18.3
		c1.3,6.7,7.7,11.7,11.8,16.9c5.2,6.6,12.1,11.5,17.6,17.9c5.8,6.9,5.8,13.3,5,21.8c-0.3,3.6-0.4,7.2-1.1,10.8
		c-0.6,3.3-2.2,6.6-2.3,10c-0.2,4,1.9,7.6,3.8,10.9c2.8,4.8,5.7,9.4,8.3,14.2c1.9,3.4,3.9,6.8,6.4,9.8c2.3,2.8,4.8,5.5,6.6,8.7
		c4,7.3,6.5,15.2,10.7,22.5c3.1,5.4,6.2,10.6,10.3,15.5c9.8,11.7,19.2,24.5,22.6,39.7c1.7,7.5,3.6,14.2,6.8,21.2
		c3.3,7.1,5.7,15,11,20.9c5.1,5.7,11.4,11,17.6,15.4c5.6,3.9,11.1,8.1,16.9,11.7V290.5z"/>
	<g>
		<path class="st1" d="M565,226c-5.3,0-12.4-0.8-15.6,4.3c-1.5,2.5-2.6,4.6-5.2,6c-2.5,1.3-5,2.3-6.2,5.2c-3,7.3,10.6,4.1,13.6,2.9
			c3.6-1.3,6.1-0.7,9.5,0.8c2.8,1.3,4.9,1.5,6.9-1.1c1.6-2.2,3.6-5.5,3.4-8.3c-0.2-2.6-2.5-4.9-3.7-7.2L565,226z"/>
		<g>
			<polygon class="st9" points="573.5,14.5 573.6,14.5 573.8,14.5 573.8,14.6 			"/>
			<path class="st8" d="M581.6,10.6c0.2-0.6,0.5-1.4,1.1-1.6c2-0.5,3.2-0.5,4.9-0.2c-0.3,0.1-0.4,0.5-0.3,0.7
				c0.8,0.4,1.9,0.3,2.6,0.7c-0.3,0.2-1,0.2-0.9,0.7c0,0.4,0.8,0.1,1.1,0.1c0,0.5-0.9,0-0.8,0.8c0.1,0.4,0.7,0.1,1,0.4
				c-0.2,0.2-0.9-0.1-0.9,0.5c0,0.8,1,0.4,1.1,0.9c-0.5,0.1-0.9-0.4-1.3-0.2c0.4,1-1.7,1.3-0.7,2.1c-1.3-1.1-1.8,2.2-2.8,1l0.4,0.5
				c-1.1-0.5-2.3-0.4-3-1.5c-1.1-0.9-1.4-2.4-1.8-3.6C581.4,11.4,581.4,11,581.6,10.6z"/>
			<path class="st8" d="M593,17.6c0.8-0.4,1.5-1.1,2.4-1.4c1.3-0.4,1.2,0.4,2.6,0l-0.4,0.3c0.6,0.3,1.1,0.8,1.8,1
				c-0.1,0.3,0.4,0.7-0.2,0.9c-0.2,0.9,0.9,0.4,1.1,0.9c-0.3,0.2-0.8-0.4-1,0.1c-0.2,0.5,0.7,0.7,0.3,1.1c-0.5,0.1-0.7,0.5-0.4,0.8
				c-0.8,0.8-2.5,0.3-2.6,1.6c-0.3-0.1-0.3-0.8-0.7-0.6c0,0.1,0,0.2,0,0.4c-0.8,0.3-1.1-1.4-1.7-0.4c-0.5-0.6-1.5-1.3-1.6-1.9
				C592.7,19.3,592.6,18.6,593,17.6z"/>
			<polygon class="st9" points="595.5,21.3 595.2,21.2 595.4,21.2 			"/>
			<path class="st8" d="M602.7,3.5c-0.1-0.1,0,0.3-0.3,0.2L602.7,3.5z"/>
			<path class="st8" d="M603.4,3.4C603.3,3.7,603.3,3.3,603.4,3.4C603.4,3.3,603.4,3.4,603.4,3.4z"/>
			<path class="st8" d="M603.7,22.5c0.4-1,2-0.9,2.7-1.3c0.9-0.5,1.7-0.4,2.6-0.3c0.9,0.1,1.7,0.2,2.6,0l-0.5,1
				c0.6,0.4,1,1.1,1.8,0.8c-0.3,0.2-0.8,0.5-0.6,0.9c0.1,0.3,0.6,0.1,0.6,0.4c-0.2,0.2-0.6-0.1-0.7,0.2c-0.1,0.4,0.6,0.3,0.6,0.7
				c-0.8-0.3-1.3,0.7-1.7,1.1c0.2,0.4,0.6,0.1,0.9,0.3c-0.4,0.5-0.9-0.2-1.3,0.2c-0.3,0.3,0.5,0.3,0.2,0.6c-0.4,0.5-1.4-0.3-1.4,0.5
				c0,0.2,0.5,0.1,0.4,0.4c-0.3-0.2-0.9,0-1.2-0.4c-0.2,0.1-0.2,0.7-0.2,0.9c-0.4,0-0.5-0.7-1-0.8c-0.4-0.1-0.6,0.8-1.1,0.2
				c-0.6-0.3-1.2-1.3-1.9-0.8c0.1-1.1-0.9-1.2-1.2-1.7C603.1,24.7,603.2,23.4,603.7,22.5z"/>
			<polygon class="st9" points="604.4,23.2 604.4,23.1 604.7,23.1 604.7,23.2 			"/>
			<polygon class="st9" points="609.5,26.7 609.3,26.9 609.3,26.7 			"/>
			<path class="st9" d="M609.7,26.5c-0.1,0.3,0.4,0.2-0.1,0.2C609.5,26.5,609.6,26.5,609.7,26.5z"/>
			<polygon class="st9" points="611,25 611,25 611.2,25 611.2,25.1 			"/>
			<path class="st8" d="M614.8,26.1c1-1.5,2.8-2.1,4.2-2.9c1.7,0.8,3.7,1.9,4.9,3.6c0.1,0.4-0.3,0.4-0.6,0.5
				c0.1,0.8,0.8,1.4,1.5,1.7c-1-0.4-1.5,0.3-2.4,0.5c-0.3,0.6,0.5,0.5,0.6,0.9c-0.5,0-0.9-0.5-1.4-0.4c0,0.3,0.4,0.2,0.3,0.5
				c-1,0.3-1.5,0.5-2.4,0c-0.3,0.3-0.1,0.9-0.1,1c-0.4-0.8-1.3-0.8-2.1-1l-0.1,0.5c-0.6-1.3-2.9-1.2-2.6-3.2
				C614.8,27.2,614.3,26.8,614.8,26.1z"/>
			<path class="st9" d="M617.8,29.9c0,0-0.3,0.2-0.3,0L617.8,29.9z"/>
			<path class="st8" d="M625.5,36.2l1.6-1.2c1.1-0.5,1.5,0.3,2.7-0.3c0,0.8,1.9,0.7,2.8,0.6c-0.4,0.3-1,0.3-1,0.8
				c0.4,0.4,1.2,0.7,1.8,0.6c-0.1,0.5-0.9-0.2-0.9,0.4c0,0.2,0.1,0.6,0.5,0.5c0,0.4-0.7,0.1-0.6,0.6c0.1,0.3,0.5,0.2,0.7,0.4
				c-0.3,0.2-0.7-0.3-0.9,0.1c0.3,0.3,0.8,0.5,0.9,0.9c-1.7-1.1-1.8,1-3.3,0.6c-1.2,0-2.1-0.5-3.2-0.9c-0.8-0.3-1.1-1.2-1.5-1.3
				C624.9,37.4,625.2,37,625.5,36.2z"/>
			<polygon class="st10" points="618.4,35.6 618.2,35.7 618.4,35.3 			"/>
			<path class="st10" d="M618.7,35.8c0.2,0.3-0.1-0.2-0.1,0C618.6,35.8,618.6,35.6,618.7,35.8z"/>
			<path class="st9" d="M625.9,38.3c0,0.3,0,0.2-0.1,0L625.9,38.3z"/>
			<polygon class="st10" points="619.1,34.5 618.9,34.4 619,34.4 			"/>
			<path class="st9" d="M619.6,29.9l-0.2-0.2C619.5,29.8,619.7,29.8,619.6,29.9z"/>
			<path class="st9" d="M626.3,38.4l0.2,0.1c0.1,0-0.4,0-0.5-0.2l0.4,0L626.3,38.4z"/>
			<path class="st10" d="M619.3,34.7c-0.1,0-0.1,0.2-0.2,0.1C619.1,34.7,619.2,34.6,619.3,34.7z"/>
			<path class="st10" d="M619.1,34.3l0.1-0.1L619.1,34.3z"/>
			<path class="st10" d="M619.3,33.8c0.1,0.4,0.5,0,0.7,0C619.7,34.3,619.6,34,619.3,33.8L619.3,33.8z"/>
			<path class="st9" d="M626.8,38.8c-0.2,0-0.1-0.2-0.3-0.2C626.7,38.5,626.8,38.5,626.8,38.8z"/>
			<path class="st10" d="M619.9,34.3c-0.1,0.3-0.3,0.2-0.5,0.3C619.7,34.6,619.7,34.2,619.9,34.3z"/>
			<polygon class="st10" points="619.9,35.9 619.9,35.8 620.1,35.8 620.1,35.9 			"/>
			<polygon class="st10" points="620.4,33.7 620.2,33.6 620.3,33.5 			"/>
			<path class="st10" d="M620.6,34.6c0.2,0.1-0.1,0.2-0.2,0.3C620.4,34.7,620.4,34.6,620.6,34.6z"/>
			<path class="st10" d="M620.9,33.7c0.1-0.1-0.1-0.2-0.2-0.3c0.3,0.2,0.3,0.5,0.7,0c-0.3,0.1-0.3,0.4-0.3,0.5l0.2,0
				c-0.5-0.1-0.5,0.1-0.7-0.3C620.7,33.6,620.8,33.7,620.9,33.7z"/>
			<path class="st10" d="M621.2,35.3c-0.3,0.1-0.1,0.6-0.5,0.2C620.8,35.5,621.1,35.5,621.2,35.3z"/>
			<path class="st10" d="M621,34.4c0.1,0.3,0.5,0.1,0.6,0.3c0-0.2-0.1-0.6-0.3-0.4c0.3-0.2,0.4,0.3,0.7-0.1
				c-0.4,0.1-0.2,0.6-0.5,0.6c0.1-0.1,0-0.2-0.1-0.2c-0.3,0.1-0.1,0.5-0.5,0.3l0.1,0C620.9,34.8,620.8,34.8,621,34.4z"/>
			<path class="st9" d="M628.8,39.6c-0.5,0.5,0.2-0.3-0.4-0.1C628.6,39.6,628.8,39.4,628.8,39.6z"/>
			<polygon class="st10" points="621.2,35.9 621.2,35.9 621.5,35.9 621.5,35.9 			"/>
			<path class="st9" d="M628.9,39.8c0.2-0.1-0.1,0.1-0.2,0.2C628.7,39.8,628.8,39.8,628.9,39.8z"/>
			<path class="st10" d="M621.8,33.5c0,0.2,0.2,0.1,0.2,0c0.2,0.1,0.1,0.3,0,0.4C622,33.6,621.7,33.6,621.8,33.5z"/>
			<path class="st10" d="M621.7,36.2l0.1-0.2L621.7,36.2z"/>
			<polygon class="st10" points="621.8,35.1 621.8,35.1 622.1,35.1 622.1,35.1 			"/>
			<path class="st9" d="M629.2,39.2l0.2,0L629.2,39.2z"/>
			<path class="st10" d="M622.5,34.2c-0.1,0-0.2,0.4-0.3,0.2L622.5,34.2z"/>
			<path class="st9" d="M630,39.3c-0.3,0.2-0.4,0.4-0.7,0.1L630,39.3z"/>
			<path class="st9" d="M629.5,39.7c-0.1,0.1,0.2,0.2,0,0.2L629.5,39.7z"/>
			<polygon class="st10" points="622.6,34.5 622.6,34.5 622.8,34.5 622.8,34.5 			"/>
			<path class="st9" d="M630.9,39.6c-0.1,0.1,0,0.3-0.1,0.3l-0.6-0.3C630.4,39.3,630.6,40,630.9,39.6z"/>
			<path class="st10" d="M623.1,34.6c0.5,0.2,0.4-0.2,0.7,0.3C623.7,34.5,623.1,35.1,623.1,34.6z"/>
			<path class="st9" d="M630.8,39.2L630.8,39.2l-0.5,0.1C630.5,39.2,630.6,39.4,630.8,39.2z"/>
			<path class="st10" d="M623.6,35.9l0.2,0L623.6,35.9z"/>
			<path class="st10" d="M624,34.4l0.2,0.1L624,34.4z"/>
			<path class="st10" d="M624,36l0.2,0L624,36z"/>
			<polygon class="st10" points="624.6,35.8 624.3,35.7 624.6,35.7 			"/>
			<path class="st8" d="M634.1,32.2c0.4-0.9,1.1-0.5,1.8-1.2c1.5-0.4,3,0.5,4.3,0.4c-0.3,0.2-0.7-0.1-1,0.3c0.3,0.5,1-0.2,1.2,0.3
				c-0.2,0-0.7,0.1-0.6,0.4c0.4,0.1,1.1,0,1.4,0.3c-0.3,0-0.8-0.3-1.1,0c0.3,0.4,0.4,1,0.7,1.2c-0.4,0.1-0.8-0.3-1.1,0.1
				c0.2,0.5,1-0.1,1,0.4c-0.9,0-1.8,0.2-2.6,0.4l0.2,0.5c-1.5,0-2.9,0.1-4.1-0.8c-0.4-0.3-1-0.9-0.6-1.4
				C633.8,32.7,633.6,32.4,634.1,32.2z"/>
			<polygon class="st10" points="630.3,33.7 630.1,33.7 630.1,33.7 			"/>
			<polygon class="st10" points="630.6,33.9 630.5,33.7 630.6,33.7 			"/>
			<path class="st8" d="M638.7,47.1c-0.3-0.2-0.5,0.2-0.5,0.4l0.2-0.6L638.7,47.1z"/>
			<path class="st8" d="M638.2,47.6c0.1,0,0.1,0.1,0.1,0.2C638.3,47.7,638.2,47.7,638.2,47.6z"/>
			<polygon class="st8" points="639.3,46.4 638.5,46.7 639.1,46.5 			"/>
			<polygon class="st10" points="631.1,33.8 630.9,33.7 631.1,33.5 			"/>
			<path class="st8" d="M638.6,48l0.2,0.1L638.6,48z"/>
			<polygon class="st8" points="640.5,46.6 639.5,46.4 640.4,46.5 			"/>
			<polygon class="st8" points="639.9,48.3 639.9,48.3 640.2,48.3 640.2,48.3 			"/>
			<polygon class="st10" points="632.3,33.3 632.3,33.3 632.6,33.3 632.6,33.3 			"/>
			<polygon class="st10" points="632.9,33.2 632.8,33 632.9,33 			"/>
			<polygon class="st8" points="640.7,48.2 640.7,48.2 640.8,48.2 640.8,48.2 			"/>
			<polygon class="st8" points="641,46.7 640.9,46.6 641,46.6 			"/>
			<polygon class="st8" points="641.5,47.5 641.3,47.3 641.5,47.4 			"/>
		</g>
	</g>
	<path class="st1" d="M615.5,2.9c0.9,0.8,1.7,1.7,2.6,2.5c0.9,0.9,1.7,1.4,2.6,2c0.8,0.6,2.1,1.7,2.6,2.5c0.4,0.7,0.1,1.1,0.3,1.9
		c0.1,0.7,0.6,1,0.7,1.7c0.2,0.8-0.4,1.9,0,2.7c0.4,1.1,1,0.8,2,1c1.6,0.3,3.1,1,4.6,1.3c2.6,0.5,7.4,2.3,6.6,5.7
		c-0.4,1.7-0.8,3.4-1.3,5.1c-0.2,0.8-0.5,1.5-0.6,2.2c-0.2,0.7-0.8,1.7-0.7,2.4c0.1,0.5,0.6,0.6,0.7,1c0.1,0.4-0.1,0.8,0,1.1
		c0.2,0.6,0.6,1.2,0.7,1.8c0.2,0.7,0,1.3,0.2,2c0.2,0.5,0.6,1.1,0.9,1.6c1.3,2.6,2.7,4.9,4.6,7.2c1,1.2,1.5,2.8,2.3,4
		c0.6,0.8,1.3,1.6,2,2.4c-0.7-2.5-2.5-4.8-3.9-7c-0.8-1.2-1.2-2.5-1.9-3.7c-0.6-1.2-1.3-1.8-1.7-3c-0.8-3.1-1-6.9-0.7-10.1
		c0.1-0.9,0.6-1.7,0.8-2.6c0.1-0.8,0-1.6,0.1-2.4c0.1-0.5,0.4-1,0.5-1.6c0.1-0.8,0.2-1.5,0.4-2.3c0.8-2.6,2.2-4.9,3.2-7.5
		c1.4-4-1.6-6.4-3.6-9.6c-1.2-1.9-2.7-3.7-4.4-5.3H613C613.7,1,614.6,2,615.5,2.9z"/>
</g>
<g>
	<path class="st8" d="M577.2,285.6c-0.3,0.1-0.5,0.2-0.5,0.2L577.2,285.6z"/>
	<path class="st8" d="M800,333.6c-4.1-5.6-9.1-10.4-15.1-14c-4.8-2.9-9.9-5.1-14.8-7.7c-5.3-2.9-10.2-6.3-14.6-10.5
		c-9.8-9.2-16.2-21-21.5-33.1c-5.3-12.2-10.2-24.9-19.9-34.3c-10.3-9.9-23.8-13.5-37.6-14.7c-6.5-0.6-13.1-0.8-19.6-1.8
		c-5.8-0.8-11.4-2.4-16.9-4.5c-11.6-4.5-22.8-10-35.7-9.1c-11.1,0.8-24.7,7.3-22.3,20.5c2.7,14.4,16.7,22.9,23.1,35.3
		c2.4,4.6,2.1,9.1-2.1,12.5c-5.5,4.4-12,8.4-18.6,10.5l-7.3,2.9c2.6-0.9,14.9-4.9,14.9-5c4.8-2.8,10-5.6,14-9.6
		c3.1-3.1,4.5-6.8,3-11.1c-1.9-5.2-6.2-9.6-9.7-13.7c-6-7.1-17.9-19.8-11.8-30c5.9-9.7,21.7-8.2,31-6.2c12.8,2.7,24.9,8,37.4,11.6
		c12.6,3.7,27,5.9,37.8,13.7c12.2,8.8,16.2,24.8,21.6,38c6.9,16.9,15.8,33,29.4,45.4c9.8,9,21.4,15.8,30.7,25.4
		c5.1,5.2,9.8,10.8,14.7,16.2c3,3.2,6.2,6.8,9.9,9.5V333.6z"/>
</g>
<path class="st6" d="M800,292.9c-4.1-3.3-8.3-6.6-12.4-10c-17.6-14.5-33.3-32.4-39.1-54.9c-5.6-21.7-0.3-44.5-7-66
	c-6.9-21.9-23.5-40.4-42.8-52.3c-18.3-11.4-40.2-17-61.7-14.3c-22.5,2.8-43.5,16.5-66.7,13.6c-21.9-2.7-42.4-19.1-47.9-40.8
	c-5.3-20.9,0.7-43-5.5-63.8c-0.5-1.5-1-3-1.6-4.3H351.4c8.5,4.4,16.6,9.2,23.6,16c9.9,9.6,18.3,21.6,23.8,34.2
	c5.4,12.2,5.6,24.2,2.4,37c-3.8,15.1-8.6,29.7-10.7,45.1c-1.9,14-2.9,28.8-0.7,42.7c4.4,27.5,29.9,47.7,55.5,55.2
	c12.8,3.8,26.4,3.6,39.6,2.3c16.5-1.5,33.1-4.7,48.6-10.8c23-9.1,41.7-27.4,67.6-27.6c11.2-0.1,21.6,3.5,31.9,7.7
	c10.8,4.4,21.4,8.1,32.9,10c13.1,2.1,26.5,3.1,38.9,8.2c12.4,5.1,22.6,14.1,28.1,26.4c4.9,10.8,6,22.8,11.2,33.5
	c5.5,11.3,14.8,20.3,24.8,27.6c9.7,7.1,20.4,12,31.2,16.9V292.9z"/>
<g>
	<path class="st4" d="M789.1,282.9c-13.3-12.6-25.1-27.1-32.5-43.9c-7.8-17.5-8.5-41.7-11-60.5c-2.5-19.4-7.9-33.2-18.2-50.1
		C717,111.6,701.4,98,682.8,91.1c-17.7-6.5-36.3-5.8-54.3-1.1c-15.9,4.1-31.4,11.6-48,12.5c-15.6,0.8-29-6.5-39-18.2
		c-11.9-13.9-13.1-39.9-18-57.3c-2.7-9.6-4.3-18.8-6.8-27h-37.5c1.1,1.4,2.2,2.9,3.3,4.4c10.1,14,16.8,29.8,23.1,45.8
		c6.7,17,13.2,35.2,25.4,49.1c5.3,6,11.7,10.9,19.2,13.8c3.8,1.5,7.7,2.4,11.6,2.9c-0.8,0-1.7,0.1-2.5,0.1c-1.5-0.1-3.1,0-4.6-0.2
		c-0.7-0.1-1.5-0.2-2.2-0.2c-0.8-0.1-1.5-0.3-2.3-0.4c-1.6-0.2-2.9-0.7-4.3-1.1c-0.7-0.2-1.4-0.4-2-0.7c-0.7-0.3-1.3-0.5-2-0.8
		c-1.3-0.6-2.6-1.2-3.8-1.8c-0.6-0.4-1.2-0.7-1.8-1.1c-0.6-0.4-1.2-0.7-1.7-1.1c-2.2-1.5-4.3-3.2-6.1-5c-0.5-0.4-0.9-0.9-1.4-1.3
		l-0.3-0.3l-0.2-0.2c0,0,0,0,0,0l-0.1-0.1l-0.6-0.7c-0.8-1-1.7-1.9-2.4-2.9c-0.7-1-1.4-1.9-2-2.8c-0.6-1-1.2-1.9-1.8-2.8
		c-0.6-0.9-1.1-1.9-1.6-2.8c-0.5-0.9-1-1.8-1.4-2.7c-0.4-0.9-0.9-1.7-1.3-2.5c-0.4-0.8-0.8-1.6-1.1-2.4c-0.7-1.5-1.3-3-1.9-4.3
		c-2.2-5.3-3.4-8.3-3.4-8.3l-4.9-11l-4.7-11.1l-2.3-5.5l-2.3-5.6l-2.4-5.6l-1.2-2.8l-1.3-2.7c-0.9-1.8-1.7-3.7-2.6-5.5l-2.8-5.4
		c-0.5-0.9-0.9-1.8-1.5-2.7l-1.5-2.6c-1.1-1.7-2.2-3.5-3.4-5.1c-1-1.4-2-2.7-3-4h-1.4c1.2,1.5,2.3,3.1,3.3,4.7
		c1.1,1.6,2.1,3.4,3.1,5.1l1.4,2.7c0.5,0.9,0.9,1.8,1.3,2.7l2.6,5.4c0.8,1.8,1.6,3.7,2.4,5.5l1.2,2.8l1.1,2.8l2.1,5.6l2.1,5.7
		l2.1,5.7l4.3,11.3l4.4,11.2c0,0,1.3,3,3.6,8.3c0.6,1.3,1.2,2.8,2,4.4c0.4,0.8,0.8,1.6,1.2,2.5c0.4,0.8,0.9,1.7,1.4,2.6
		c0.5,0.9,1,1.8,1.6,2.7c0.6,0.9,1.1,1.9,1.7,2.9c0.6,1,1.3,1.9,1.9,2.9c0.7,1,1.5,2,2.3,3c0.8,1,1.6,1.9,2.5,2.9l0.6,0.7l0.1,0.1
		l0,0c0.1,0.2,0.1,0.1,0.1,0.1l0.2,0.2l0.4,0.3c0.5,0.5,1,0.9,1.5,1.4c2,1.9,4.3,3.6,6.7,5.2c0.6,0.4,1.2,0.8,1.9,1.1
		c0.6,0.4,1.3,0.7,1.9,1.1c1.3,0.7,2.7,1.3,4.1,1.9c0.7,0.3,1.4,0.5,2.2,0.8c0.7,0.3,1.4,0.5,2.2,0.7c1.5,0.4,3.1,0.9,4.6,1
		c0.8,0.1,1.5,0.2,2.3,0.4c0.8,0.1,1.6,0.1,2.4,0.2c1.6,0.2,3.2,0.1,4.8,0.2c3.2-0.1,6.5-0.4,9.7-1c3-0.5,6-1.2,8.9-1.9
		c17.1-1.9,33.5-8.3,50-12.6c17.7-4.6,36.1-4.2,54,0.7c16.7,4.6,31.7,14.3,41,29c9.3,14.7,11.7,29.7,12.2,46.7
		c0.5,17.6,0.2,35.3,6.6,52c6.8,17.9,19.8,32.7,34.1,45.1c6.2,5.3,12.7,10.3,19.4,14.9c1.5,1.1,3.1,2.1,4.7,3.1v-2.1
		C796.3,289.5,792.6,286.3,789.1,282.9z"/>
	<path class="st4" d="M800,302.3c-0.5-0.3-0.9-0.6-1.4-0.9c-2.5-1.6-5-3.2-7.6-4.9c-10.3-6.7-21.1-14.5-31.2-24.2
		c-1.3-1.2-2.5-2.5-3.8-3.7c-1.2-1.3-2.4-2.6-3.6-4c-0.6-0.7-1.2-1.3-1.8-2c-0.6-0.7-1.2-1.3-1.8-2.1c-1.1-1.4-2.2-2.9-3.3-4.4
		c-1.1-1.5-2.3-2.9-3.3-4.5c-0.5-0.8-1.1-1.5-1.6-2.3c-0.5-0.8-1-1.6-1.5-2.3c-2-3.1-3.9-6.4-5.7-9.8c-0.4-0.8-0.9-1.6-1.3-2.4
		c-1.6-3.8-3.5-7.5-5.5-11.2c-4.6-9.5-9.1-19.3-15.2-28.4c-1.1-1.7-2.3-3.3-3.5-5c-1.3-1.6-2.5-3.2-3.9-4.8l-2-2.3
		c-0.7-0.8-1.4-1.5-2.1-2.2c-1.4-1.5-2.9-2.9-4.4-4.3c-6.1-5.5-13-10.3-20.3-14.1c-1.9-0.9-3.7-1.9-5.6-2.6c-1-0.4-1.9-0.8-2.9-1.2
		l-2.9-1.1c-1-0.4-2-0.7-2.9-1l-3-0.9l-3-0.8l-1.5-0.4l-1.5-0.3l-3-0.6l-3.1-0.4l-1.5-0.2c-0.5-0.1-1-0.1-1.5-0.1l-3.1-0.2
		c-2-0.1-4-0.3-6.1-0.3c-2.1,0-4.1-0.1-6.1,0c-16.3,0.3-32.1,4.4-46.5,10c-1.8,0.7-3.6,1.5-5.4,2.2c-1.8,0.8-3.5,1.5-5.2,2.3
		c-0.9,0.4-1.7,0.8-2.6,1.2c-0.4,0.2-0.8,0.4-1.3,0.6l-1.2,0.6c-1.7,0.9-3.3,1.7-5,2.5c-5.2,2.6-10.2,5.1-15.3,7.5
		c-2.8,0.7-5.6,1.2-8.6,1.4c-4.1,0.3-8.1-0.3-11.6-2.7c-1.7-1.2-3.3-2.6-4.8-4c-1.9-1.7-3.8-3.4-5.9-4.9c-4.8-3.5-10.5-6-16.5-6.3
		c-5.5-0.3-10.9,1.5-14.9,5.3c-1.7,1.6-3.1,3.4-4.3,5.4c-1,1.5-1.8,3.1-2.9,4.5c-0.7,0.9-1.5,1.8-2.7,2.1c-0.5,0-1,0-1.4,0
		c-0.4,0-0.8,0-1.2,0c-0.4-0.1-0.7-0.2-1-0.3c-0.5-0.1-0.9-0.3-1.4-0.5c-0.7-0.3-1.3-0.7-2-0.9c-1.1-0.3-2.2-0.7-3.3-1
		c-1.2-0.3-2.5-0.7-3.5-1.4c-1.3-0.9-2.2-1.8-3.8-1.9c-2.9-0.2-5.5-1.6-7.7-3.5c-1-0.9-2.1-1.7-3.3-2.4c-1.6-1.9-2.9-3.7-3.9-5.1
		c-1.1-1.5-1.9-2.7-2.4-3.6c-0.5-0.8-0.8-1.2-0.8-1.2s-0.1-0.2-0.4-0.6c-0.3-0.4-0.6-1-1.1-1.8c-0.5-0.8-1.1-1.8-1.8-3
		c-0.7-1.2-1.4-2.6-2.2-4.1c-0.4-0.8-0.8-1.6-1.2-2.5c-0.2-0.4-0.4-0.9-0.7-1.3c-0.1-0.2-0.2-0.5-0.3-0.7l0-0.1l0,0l0-0.1l-0.1-0.4
		c-0.4-1-0.8-2.1-1.2-3.1c-0.4-1.1-0.7-2.2-1.1-3.3c-1.5-4.6-2.8-10-3.4-16c0-0.4-0.1-0.7-0.1-1.1c0-0.4,0-0.8,0-1.1
		c0-0.8-0.1-1.5-0.1-2.3c-0.1-0.8,0-1.5,0-2.3c0-0.8,0.1-1.5,0.1-2.3c0.2-1.6,0.4-3.4,0.7-4.9c0.2-0.8,0.3-1.6,0.5-2.4
		c0.2-0.8,0.4-1.7,0.6-2.5c1.6-6.7,4.2-13.8,5.3-21.6c2.2-15.5,0.1-32.3-4.9-48.1c-1.3-3.9-2.7-7.8-4.3-11.6c-0.4-1-0.8-1.9-1.2-2.8
		l-0.6-1.4l-0.7-1.4c-0.9-1.8-1.8-3.6-2.9-5.4c-2-3.5-4.2-6.8-6.6-9.9h-1.9c2.5,3.4,4.9,7,7,10.8c1,1.7,1.9,3.5,2.8,5.4l0.6,1.3
		l0.6,1.4c0.4,0.9,0.8,1.9,1.2,2.8c1.5,3.8,2.8,7.6,4,11.5c4.7,15.5,6.4,32.1,4,47c-1.1,7.4-3.8,14.4-5.6,21.3
		c-0.2,0.9-0.4,1.7-0.7,2.6c-0.2,0.9-0.4,1.8-0.6,2.6c-0.4,1.8-0.6,3.4-0.8,5l0,0.2l0,0.2l0,0.3l0,0.6c0,0.4,0,0.8-0.1,1.3
		c0,0.8-0.1,1.7-0.1,2.5c0,0.8,0,1.6,0.1,2.4c0,0.4,0,0.8,0,1.2c0,0.4,0.1,0.8,0.1,1.2c0.5,6.3,1.9,11.9,3.3,16.8
		c0.4,1.2,0.8,2.4,1.1,3.5c0.4,1.1,0.8,2.1,1.2,3.2l0.1,0.4l0.1,0.2l0.1,0.2l0,0l0,0.1c0.1,0.2,0.2,0.5,0.3,0.7
		c0.2,0.5,0.4,0.9,0.7,1.4c0.4,0.9,0.8,1.8,1.2,2.6c0.8,1.6,1.6,3.1,2.3,4.3c0.7,1.2,1.3,2.3,1.8,3.1c0.5,0.8,0.9,1.5,1.1,1.9
		c0.3,0.4,0.4,0.6,0.4,0.6s0.3,0.4,0.8,1.3c0.5,0.8,1.4,2.1,2.5,3.7c0.6,0.8,1.2,1.7,1.9,2.6c0.8,0.9,1.6,2,2.5,3.1
		c0.9,1.1,1.9,2.2,3,3.4c1.1,1.2,2.3,2.4,3.6,3.7c1.3,1.3,2.8,2.5,4.3,3.9c0.7,0.7,1.6,1.3,2.4,1.9c0.9,0.6,1.7,1.3,2.6,2
		c0.9,0.6,1.9,1.2,2.9,1.8c0.5,0.3,1,0.6,1.5,0.9c0.5,0.3,1,0.6,1.6,0.8c1.1,0.6,2.1,1.2,3.3,1.7c1.1,0.5,2.3,1,3.5,1.5
		c0.3,0.1,0.6,0.3,0.9,0.4l0.9,0.3c0.6,0.2,1.3,0.4,1.9,0.6c0.6,0.2,1.3,0.4,1.9,0.6c0.7,0.2,1.3,0.3,2,0.5c0.7,0.1,1.4,0.3,2.1,0.4
		c0.7,0.2,1.4,0.3,2.1,0.4c1.4,0.2,2.7,0.3,4.1,0.5l0.3,0c0.2,0,0.1,0,0.2,0l0.1,0l0.5,0l1.1,0c0.7,0,1.5,0,2.2,0.1
		c1.5,0.1,3,0,4.5-0.1c0.8,0,1.5-0.1,2.3-0.1c0.8,0,1.5-0.1,2.3-0.2c1.5-0.2,3.1-0.2,4.6-0.5c12.4-1.6,25.3-6.1,38.2-11.9
		c6.5-2.9,13-6.2,19.5-9.6c1.6-0.9,3.3-1.7,4.9-2.6l1.2-0.7c0.3-0.2,0.8-0.4,1.2-0.6c0.8-0.4,1.7-0.8,2.5-1.2
		c1.7-0.8,3.4-1.5,5.1-2.3c1.7-0.7,3.5-1.5,5.3-2.2c14.1-5.7,29.5-9.8,45.5-10.2c4-0.2,7.9,0,12,0.2l3,0.2c0.5,0,1,0.1,1.5,0.1
		l1.5,0.2l3,0.4l3,0.5l1.5,0.3l1.5,0.4l2.9,0.7l2.9,0.9c1,0.3,1.9,0.6,2.9,0.9l2.9,1c0.9,0.4,1.9,0.8,2.8,1.2
		c1.9,0.7,3.7,1.7,5.5,2.5c7.2,3.7,14,8.3,20,13.6c1.5,1.4,3,2.7,4.4,4.2c0.7,0.7,1.4,1.4,2.1,2.2l2,2.3c1.3,1.5,2.5,3.1,3.8,4.6
		c1.2,1.6,2.4,3.2,3.5,4.9c3.5,5.1,6.4,10.5,9.2,15.9c-4.2-5.9-8.9-11.5-14.1-16.7c-3-3-6.2-5.8-9.5-8.5c-3.3-2.6-6.8-5.1-10.4-7.4
		c-3.6-2.2-7.3-4.3-11.2-6.1c-3.9-1.7-7.8-3.3-11.9-4.5c-4.1-1.2-8.2-2.2-12.4-2.9c-4.2-0.7-8.4-1.2-12.6-1.4
		c-8.5-0.6-17-0.3-25.4,0.7c-4.2,0.6-8.4,1.3-12.5,2.3c-2.1,0.4-4.1,1.1-6.2,1.6c-2,0.7-4.1,1.2-6,2l-3,1.1l-2.9,1.2
		c-1,0.4-2,0.8-2.9,1.3c-1,0.5-1.9,0.9-2.9,1.4c-3.8,1.9-7.4,4.1-11,6.5c-7.1,4.7-13.7,10-20.5,15.1c-3.4,2.5-6.8,5-10.3,7.4
		c-3.5,2.3-7.2,4.5-10.9,6.4c-7.6,3.8-15.7,6.2-23.9,8.1c-8.2,1.8-16.6,2.9-25.1,3.7c-8.4,0.8-16.9,1.4-25.1-0.6c-1-0.2-2-0.6-3-0.8
		c-0.9-0.3-1.9-0.8-2.9-1.2c-1-0.4-1.9-0.9-2.8-1.3l-1.4-0.7L437,218c-3.6-2.1-7-4.6-10.1-7.4c-3.1-2.8-5.9-5.9-8.6-9.2
		c-2.6-3.3-5-6.8-7.1-10.4c-4.2-7.3-7.5-15.1-9.3-23.3c0,0,0-0.2-0.1-0.6c-0.1-0.4-0.2-0.9-0.3-1.7c-0.1-0.7-0.3-1.6-0.5-2.7
		c-0.2-1.1-0.3-2.3-0.5-3.7c-0.3-2.7-0.4-6.1-0.3-9.9c0.1-1,0.2-1.9,0.2-3c0.1-1,0.2-2.1,0.4-3.1c0.1-0.5,0.2-1.1,0.2-1.6l0.1-0.8
		l0.2-0.8c0.3-1.1,0.6-2.2,0.8-3.4c1.1-4.6,2.9-9.4,4.9-14.6c1-2.5,2.1-5.1,3.2-7.8c1.1-2.7,2.2-5.4,3.3-8.2
		c0.3-0.7,0.6-1.4,0.8-2.1c0.3-0.7,0.5-1.4,0.8-2.1c0.5-1.4,1.1-2.9,1.6-4.3c0.9-2.9,1.9-5.9,2.5-9c0.8-3,1.3-6.2,1.9-9.3
		c0.3-1.6,0.4-3.2,0.7-4.7c0.1-0.8,0.2-1.6,0.3-2.4l0.2-2.4c1.2-12.7,0.4-25.7-2.7-37.3c-3.2-11.6-8.5-21.6-14-29.4
		c-0.7-1-1.3-2-2-2.8h-0.3c0,0,0.1,0.1,0.1,0.1c0.7,0.9,1.3,1.9,2,2.9c5.5,7.8,10.7,17.9,13.7,29.4c2.9,11.6,3.7,24.4,2.4,37.1
		l-0.2,2.4c-0.1,0.8-0.2,1.6-0.3,2.4c-0.2,1.6-0.4,3.1-0.7,4.7c-0.6,3.1-1.2,6.2-2,9.2c-0.7,3.1-1.7,6-2.6,8.9
		c-0.5,1.5-1.1,2.9-1.6,4.3c-0.3,0.7-0.5,1.4-0.8,2.1c-0.3,0.7-0.6,1.4-0.8,2.1c-1.1,2.8-2.3,5.5-3.4,8.1c-1.1,2.7-2.2,5.3-3.2,7.8
		c-0.5,1.3-1,2.5-1.5,3.8c-0.5,1.3-1,2.5-1.4,3.7c-0.8,2.5-1.7,4.8-2.2,7.2c-0.3,1.2-0.6,2.3-0.9,3.4c-0.1,0.3-0.1,0.6-0.2,0.9
		c0,0.3-0.1,0.6-0.1,0.8c-0.1,0.6-0.2,1.1-0.3,1.7c-0.2,1.1-0.4,2.1-0.4,3.2c-0.1,1-0.2,2-0.3,3c-0.1,3.9,0,7.3,0.3,10.1
		c0.2,1.4,0.3,2.7,0.5,3.7c0.2,1.1,0.4,2,0.5,2.7c0.1,0.7,0.2,1.3,0.3,1.7c0.1,0.4,0.1,0.6,0.1,0.6c1.9,8.3,5.2,16.3,9.5,23.7
		c2.2,3.7,4.6,7.2,7.3,10.5c2.7,3.3,5.6,6.5,8.7,9.3c3.2,2.9,6.6,5.4,10.3,7.5l1.4,0.8l1.4,0.7c1,0.5,1.9,1,2.9,1.4
		c1,0.4,1.9,0.8,3,1.2c1,0.3,2.1,0.6,3.1,0.9c4.2,1,8.5,1.3,12.7,1.3c2.1,0,4.3-0.1,6.4-0.2l6.3-0.6c8.4-0.8,16.9-1.9,25.2-3.8
		c2.1-0.5,4.2-0.9,6.2-1.5l3.1-0.9c1-0.3,2-0.6,3-1c2-0.7,4-1.4,6-2.2l5.8-2.6c15.3-7.8,27.7-19.7,41.7-29.1
		c3.5-2.3,7.1-4.6,10.9-6.5c0.9-0.5,1.9-0.9,2.9-1.4c1-0.4,1.9-0.9,2.9-1.3l2.9-1.2l3-1.1c2-0.8,4-1.3,6-2c2-0.5,4.1-1.2,6.1-1.6
		c4.1-1,8.3-1.7,12.5-2.3c8.4-1.1,16.9-1.4,25.3-0.8c4.2,0.2,8.4,0.7,12.6,1.4c4.2,0.6,8.3,1.6,12.4,2.8
		c16.2,4.9,30.9,14.3,42.9,26.2c5.3,5.3,10.2,11.1,14.5,17.2c4.3,8.4,8.2,17,12.6,25.1c1.9,3.4,3.8,6.7,5.9,9.9
		c0.5,0.8,1,1.6,1.6,2.4c0.5,0.8,1.1,1.5,1.6,2.3c1.1,1.5,2.2,3,3.4,4.4c1.1,1.5,2.3,2.9,3.4,4.4c0.5,0.7,1.2,1.4,1.8,2.1
		c0.6,0.7,1.2,1.3,1.8,2c1.2,1.3,2.4,2.7,3.7,4c1.3,1.2,2.6,2.5,3.8,3.7c10.3,9.7,21.2,17.4,31.6,24.1c2.6,1.6,5.2,3.2,7.6,4.8
		c0.6,0.4,1.2,0.7,1.7,1.1V302.3z M726.8,224.6c1.8,3.3,3.5,6.7,5,10.2C730.1,231.4,728.5,228,726.8,224.6z"/>
</g>
<path class="st5" d="M800,298.3c-9.1-6.6-18-13.4-26.4-20.8c-11.7-10.4-21.2-22.4-27.6-36.7c-6.8-15.2-10.8-31.4-15.8-47.3
	c0-0.8,0-1.7-0.1-2.5c-0.1-1.2-0.2-2.4-0.3-3.6c-0.2-1.2-0.4-2.5-0.7-3.7c-0.5-2.5-1.1-5-2-7.5c-1.6-5-3.8-10-5.5-15.2
	c-0.4-1.3-0.8-2.6-1.2-3.9l-0.6-2l-0.5-2c-0.7-2.7-1.3-5.4-2-8.1c-1.3-5.4-2.8-10.9-5.4-15.8l-0.5-0.9c-0.2-0.3-0.4-0.6-0.6-0.9
	l-1.2-1.7c-0.4-0.6-0.9-1.1-1.3-1.6c-0.5-0.5-0.9-1.1-1.4-1.5c-1-0.9-2-1.9-3.1-2.6c-0.6-0.4-1.1-0.8-1.6-1.2
	c-0.6-0.3-1.2-0.7-1.7-1c-0.6-0.4-1.2-0.6-1.8-0.9c-0.6-0.3-1.2-0.6-1.8-0.8c-1.2-0.4-2.4-1-3.6-1.3c-1.2-0.4-2.4-0.8-3.6-1
	c-0.6-0.1-1.2-0.3-1.8-0.4c-0.6-0.1-1.2-0.2-1.8-0.3c-4.8-0.8-9.3-1.2-13.5-1.4c-1,0-2.1-0.1-3.1-0.1c-0.5,0-1,0-1.5-0.1
	c-0.5,0-1,0-1.5,0c-0.7,0-1.4,0-2,0c-0.4,0-0.9-0.1-1.3-0.1c-1.1-0.1-2.2-0.1-3.3-0.2c-0.5,0-1.1,0-1.6,0c-0.5,0-1.1,0-1.7,0
	c-2.2,0-4.5,0.2-6.7,0.4c-4.5,0.5-9,1.5-13.4,2.6c-4.4,1.1-8.7,2.5-13,3.9c-2.1,0.7-4.2,1.3-6.3,2c-2.1,0.7-4.1,1.4-6.1,2.2
	c-6.1,2.2-11.8,4.3-17.1,5.8c-0.1,0-0.2,0-0.3,0c-2.4,0.4-4.8,0.9-7.1,1.3c-20.2,1.2-40.6-0.3-58.2-11.2
	c-22-13.7-33.7-37.9-45.7-59.7c-10.6-19.2-22.4-37.9-40-51.3c-3.4-2.6-6.9-5-10.7-7.1h-15.9c0,0.1,0.1,0.2,0.1,0.3
	c0.7,2.5,1.7,4.9,2.6,7.3c3,7.8,5.8,15.7,7.9,23.8c5.4,21.2,5.3,42.6,5.2,64.3c0,8.2-0.1,16.9,2.5,24.8c2.2,6.5,6.5,11.5,12.5,14.7
	c7.4,4,15.9,5.7,24.2,7.1c10.1,1.6,20.4,2.6,30.6,3.3c20.5,1.5,41,2.3,61.6,1.9c21.3-0.4,42.6-2,63.9-1.2c18,0.6,37.5,2.6,53.2,12.3
	c12.9,8,20.9,20.8,28.3,33.6c8.2,14.3,16.3,28.5,25,42.5c8,12.9,16.1,26,26.2,37.4c10.7,12.1,24,20.8,38.3,27.9
	c0.7,0.3,1.4,0.7,2.1,1V298.3z M686.1,129.6c-24.2-11.2-53-5.4-78.3-2.3c-4.4,0.5-8.9,1-13.4,1.5c1.2-0.3,2.5-0.7,3.7-1
	c1.2-0.3,2.5-0.6,3.7-0.9c2.7-0.8,5.4-1.5,8-2.3c2.6-0.8,5.2-1.6,7.7-2.3c5-1.4,9.7-2.8,13.8-3.9c2-0.6,3.9-1,5.5-1.4
	c1.6-0.4,3.1-0.7,4.3-1c1.2-0.3,2.1-0.5,2.8-0.6c0.6-0.1,1-0.2,1-0.2c0,0,0.7-0.1,2-0.4c0.7-0.1,1.7-0.3,2.8-0.5
	c0.2,0,0.3,0,0.5-0.1c2.2-0.2,4.4-0.3,6.5-0.2c0.5,0,1.1,0,1.6,0c0.5,0,1.1,0,1.6,0c1,0.1,2.1,0.1,3.1,0.2c4.1,0.4,8.1,1.3,11.8,2.1
	c0.9,0.2,1.9,0.4,2.8,0.7l0.7,0.2l0.6,0.2c0.4,0.1,0.9,0.3,1.3,0.4c1.7,0.5,3.4,1,4.9,1.6c3.1,1.1,5.9,2.4,8.1,3.7
	c2.3,1.3,4.1,2.7,5.5,3.9c1.4,1.2,2.3,2.3,2.9,3.1c0.6,0.8,0.9,1.2,0.9,1.2s0.7,0.8,1.7,2.4c1,1.6,2.4,3.9,3.8,6.9
	c0.7,1.5,1.4,3.2,2,5c0.8,1.8,1.6,3.7,2.4,5.7c0.8,1.9,1.6,3.9,2.5,5.8C707.9,145.4,698.7,135.4,686.1,129.6z M726.4,182.2
	c-0.2-0.5-0.3-0.9-0.5-1.4c-0.5-1.9-1.1-3.8-1.8-5.8c-1.3-4-3-8.3-4.6-12.5c-1.6-4.2-3-8.5-4.5-12.5c-0.7-2-1.4-3.9-2-5.7
	c-0.6-1.9-1.2-3.7-1.8-5.3c-1.2-3.3-2.6-5.9-3.6-7.7c-1.1-1.8-1.8-2.8-1.8-2.8s-0.4-0.5-1.1-1.3c-0.7-0.9-1.9-2.1-3.5-3.5
	c-1.6-1.3-3.7-2.8-6.3-4.2c-2.5-1.4-5.5-2.6-8.8-3.7c-1.7-0.5-3.4-1-5.2-1.5c-0.4-0.1-0.9-0.2-1.4-0.4l-0.7-0.2l-0.7-0.1
	c-0.9-0.2-1.9-0.4-2.8-0.6c-0.5-0.1-0.9-0.2-1.4-0.3c3.7,0.2,7.7,0.5,11.8,1.2c0.6,0.1,1.2,0.2,1.8,0.3c0.6,0.1,1.2,0.3,1.8,0.4
	c1.2,0.2,2.4,0.6,3.6,1c1.2,0.3,2.4,0.8,3.6,1.3c0.6,0.3,1.2,0.5,1.7,0.8c0.6,0.3,1.2,0.5,1.7,0.9c0.6,0.3,1.1,0.6,1.7,1
	c0.6,0.3,1.1,0.7,1.6,1.1c1.1,0.7,2,1.6,3,2.5c0.5,0.4,0.9,1,1.4,1.5c0.4,0.5,0.9,1,1.3,1.5l1.1,1.6c0.2,0.3,0.4,0.5,0.6,0.8
	l0.5,0.9c2.6,4.8,4.1,10.2,5.5,15.6c0.7,2.7,1.3,5.4,2.1,8.1l0.6,2l0.6,2c0.4,1.3,0.9,2.6,1.3,3.9c1.8,5.2,4,10.2,5.6,15.1
	c0.9,2.5,1.5,4.9,2,7.4c0.2,1.2,0.5,2.5,0.7,3.7c0.1,1.2,0.3,2.4,0.4,3.6c0,0.5,0,0.9,0.1,1.4C728.8,189,727.6,185.6,726.4,182.2z"
	/>
<g>
	<path class="st5" d="M320.1,128.9c-0.5-3.8-1.7-7.6-3-11.3c0.3,2.3,1.4,4.5,1.8,6.8C319.2,125.9,319.7,127.4,320.1,128.9z"/>
	<path class="st5" d="M320.1,128.9c0.1,1,0.2,1.9,0.3,2.9C320.4,130.8,320.3,129.9,320.1,128.9z"/>
	<path class="st5" d="M198.3,2.2c1.7,3.9,3.4,5.9,7.3,7.6c4.8,2.1,8.4,4.5,11,9.1c1.6,2.9,2.6,6.3,4.4,9.1c1.7,2.7,4.7,4.2,7.6,5.2
		c3.2,1.1,6.4,2.3,9.6,3.3c3.8,1.1,7.8,1,11.7,1.6c4.2,0.7,8.1,2.4,12.1,3.7c3.9,1.3,7.4,2.9,10.9,5.1c2.8,1.7,5.5,3.5,7.8,5.9
		c2.6,2.7,3.7,5.5,4.5,9c0.7,2.9,2.8,4.9,4.6,7.2c1.8,2.3,3.7,4.4,5.7,6.5c2.4,2.5,4.9,4.9,7.1,7.6c2,2.4,2.1,5.1,2.9,8
		c0.9,3.4,2.7,6.3,4.1,9.5c1.5,3.6,3.4,7,4.9,10.6c0.9,2,1.7,4.2,2.6,6.4c0-0.1,0-0.2,0-0.3c-0.3-2.8-1-5.6-1.9-8.3
		c-0.9-2.9-1.7-5.4-2.2-8.4c-0.5-2.6-1.6-5.7-1.4-8.3c0.3-3,3.4-5.3,6.1-6.1c2.5-0.8,4.8-1.2,7-2.8c2.4-1.7,2.5-4.8,2.8-7.5
		c0.3-2.8,0.7-5.5,1.2-8.3c0.7-3.4-0.5-5.2-2.5-7.8c-2.4-3.1-2.9-6.1-3.8-9.9c-0.7-2.9-1.9-6.1-2.1-9c-0.4-6.2,4.9-8.6,8.1-12.9
		c1.5-2,2.6-5,2.7-7.6c0-3-3-3.9-4.8-5.7c-1.4-1.5-1.1-2.8-1.3-4.6c-0.1-1.5-0.8-2.6-1.5-3.9c-1.1-2.1-1.9-4.2-2.7-6.3H197.4
		C197.7,0.7,198,1.5,198.3,2.2z"/>
</g>
<g>
	<path class="st5" d="M329.2,40.5c1.4-1,2.4-2.5,4.4-2.8c2.3-0.1,4.6,0.8,6.3,0.3c0.4,0.1-0.7,1.3,0.5,1.4c0.5,0,1-0.6,1.3,0.1
		c-0.3,0.1-0.4,0.5-0.5,0.6c0.6,0.4,1,1.3,1.9,1.1c-1,0.7,0.1,1.8-0.5,2.7c0.3,0.6,1,0,1.3,0.4c-0.3,0.5-2.1,0.1-1.4,1.3
		c0.2,0.2,0.9,0.4,1,0.7c-0.2,0.2-0.6,0-1,0c-0.3-0.1-0.5,0-0.5,0.4c0.2,0.5,1.5,0.9,0.8,1.2c-1-0.2-1,0.4-1,1.1
		c0,0.7,0,1.5-1.2,1.5c0,0.1,0.1,0.3,0.2,0.4l0.1,0.2l0.1,0.2c0.1,0.2,0.1,0.4,0.1,0.6c-0.1,0-0.2,0-0.3-0.1c0,0-0.1-0.1-0.1-0.1
		l-0.2-0.2c-0.3-0.3-0.5-0.6-0.7-0.8c-0.9,0.1-1.4,0.5-1.9,1c-0.5,0.4-1,0.9-1.3,1.3l-0.3-0.9c-0.4,0-1.1-0.1-1.5,0.3
		c-0.4,0.4,0.4,1-0.3,1.4c-0.5,0.3,0-1.5-0.8-1.4c-0.8,0.1-1.7-0.7-2.4,0c-0.9-0.4-0.6-1.2-0.9-1.8c-0.5-0.1-0.9,0.4-1.4,0
		c-0.7-2.4-1.5-3.4-2.1-6C328.1,43.6,328,40.7,329.2,40.5z"/>
	<g>
		<path class="st5" d="M269.4,52.8c1-0.3,1.7,0.7,2.1,1.5c-0.5,0.6-0.5,1.9-1.5,1.8c-0.8-0.2-1.6-0.5-2.1-0.9
			C267.7,54.1,268,52.9,269.4,52.8z"/>
		<path class="st5" d="M265,54.5l0.2-0.1L265,54.5z"/>
		<polygon class="st5" points="248.9,56.6 248.8,56.2 249,56.5 		"/>
		<polygon class="st5" points="249.8,56 249.6,55.8 249.8,55.7 		"/>
		<polygon class="st5" points="250,57.1 250.1,56.9 250.3,57.1 		"/>
	</g>
	<path class="st5" d="M326.1,26.2c-0.6-1.2,1.6-1.2,0.8-2.3c1.6-0.2,2.8-2.4,4-1.9c0,0.1-0.1,0.3,0,0.4c0.6,0.2,0.5-0.4,0.9-0.7
		c0.2,0.7,1.1,0.6,1.5,0.1c0,0.2-0.3,0.6-0.1,0.7c0.7,0.5,1.1-0.7,1.7-0.5c-0.1,0.3-0.7,0.6-0.4,1c0.6,0.8,1.7-0.8,2.1,0
		c0.2,0.4-0.7,0.3-0.6,0.9c0,0.9,1,0.8,1.7,0.9c0.2,0.4-0.5,0.4-0.6,0.5c0.4,0.7,1.1,1.7,2.1,1.8c-0.2,0.4-1.3,0.5-1.2,1
		c0,0.9,1,0.7,1.5,1.4c-0.5,0.2-0.7-0.5-1,0c-0.2,0.2,0.5,0.1,0.2,0.4c-0.4,0-0.9-0.3-1.1,0.2c-0.2,0.6,0.8,0.5,0.7,1
		c-0.4,0-0.7-0.1-0.9-0.4c-1.1,0.4-0.3,1.2-0.1,1.6c-0.3,0.2-1-0.4-1,0.2c0,0.3,0.6,0.3,0.5,0.6c-0.6,0.2-1.6-1.6-1.8-0.1
		c0.2,0.1,0.1,0.3,0,0.5c-0.5-0.5-1.3-0.8-2-0.4c-0.7,0.4,0.8,0.9,0,1.2c-0.4-0.4-0.5-1.2-1.3-1.2c-0.6,0-0.2,1.2-0.8,0.6
		c-0.2-1.3-1.2,1-1.3-0.7c-0.4-0.1-0.2,0.5-0.6,0.4c-0.1-0.4-0.1-1-0.5-1.1c-0.5-0.1-0.3,0.9-0.8,0.4c0.1-0.7-0.7-1.1-0.8-1.8
		c-0.1-0.4-0.7,0.1-0.8-0.2c-0.1-0.3,0.4-0.7,0-1c-0.4-0.2-0.7,0.5-0.9,0.1c0.7-0.3,0.4-0.9,0.5-1.3l-0.6-0.3
		c0.4-0.4,0.9-0.9,0.9-1.4l-0.6-0.2C325.6,26.3,325.9,26.5,326.1,26.2z"/>
	<path class="st5" d="M356.3,46.8c-0.6-0.9,1.3-0.3,0.7-1.1c0.9,0.3,1.9-0.8,2.5-0.7c0,0.2,0.1,0.8,0.6,0.6c0.5-0.2,1.1-0.7,1.5-0.2
		c-0.1,0.6,1.1,1.1,1.8,1.3c-0.4,0.4-0.2,1,0.2,1.2c1.1,0.3,2.5,0.2,3.5-0.3c0.1,0.2-0.7,0.4-0.3,0.7c1.3-0.9,0.8,1.3,2.1,0.5
		c-0.2,0.1-0.6,0.3-0.7,0.6c0.4,0.4,1.3,0.5,1.3,1.2l-0.2,0.1c0,0.4,0.6,0.4,1,0.5c-0.3,0.5-1.1-0.4-1.2,0.4
		c-0.1,0.5,0.4,1.1,0.8,1.1c-0.4,0.1-0.7-0.2-1-0.1c-0.1,0.4-0.1,1.1,0.5,1.2c-0.3,0-0.9-0.6-1.2-0.1c-0.2,0.3,0.5,0.4,0.4,0.7
		c-0.2,0-0.4-0.5-0.8-0.2c0,0.2,0.2,0.6-0.1,0.7c-1,0.3-2.3-0.9-2.6,0.1c-1.5-0.8-2.9-2.4-3.9-3c-0.3,0.3,0.5,0.4,0,0.7
		c-0.4-0.2-0.8-0.7-1.3-0.5l0.1,0.5c-1.3-1.2-3.2-0.6-3.9-2.5c-0.5-0.7-0.4-1.6-0.6-2.5C356.1,47.6,355.6,46.8,356.3,46.8z"/>
	<path class="st5" d="M346.3,57.4c1.4-1.3,3.8-0.2,5.7-0.4l-0.4,0.3c0.3,0.4,1.2,0.3,1.5,0.4l-0.6,0.5c0.9,0.5,1.5,1.3,2.7,1.3
		c-0.4,0.7-1.7-0.4-1.5,0.6c0.1,0.4,0.8,0.1,1,0.4c-0.1,0.2-0.1,0.6-0.4,0.7c0.2,0.1,0.4,0.5,0.6,0.6l-0.6,0
		c0.2,0.4,0.8,0.5,1.2,0.8c-0.1,0-0.5-0.2-0.7-0.1l0.2,0.4c-0.7-0.5-1.6-0.3-2.5-0.2c-0.1,0.3,0.2,0.7,0.5,0.8
		c-0.7-0.1-1-0.7-1.7-0.7c-0.3,0-0.1,0.4,0,0.5c-1.1-0.5-2.3-0.9-3.4-1.4c-1.2-0.5-1.9-1.5-2.2-2.5
		C345.4,58.8,345.9,57.9,346.3,57.4z"/>
	<polygon class="st11" points="346.7,57.9 346.8,57.9 347,57.9 347,57.9 	"/>
	<path class="st11" d="M348.3,57.4c-0.3-0.2-0.1,0.3-0.4,0.2C347.9,57.4,348.1,57.4,348.3,57.4z"/>
	<polygon class="st11" points="348.8,57.8 348.6,57.7 348.9,57.5 	"/>
	<path class="st11" d="M348.8,57.2c0.4-0.1,0,0.4-0.1,0.2C348.7,57.3,348.7,57.2,348.8,57.2z"/>
	<path class="st11" d="M348.9,58l0-0.1c0,0.5,0.4,0.3,0.6,0.7l-0.9,0C348.6,58.5,349.1,58.2,348.9,58z"/>
	<path class="st11" d="M348.5,60.9c-0.1,0.1-0.2,0.1-0.2,0L348.5,60.9z"/>
	<path class="st11" d="M349.6,57.1c0.5,0.3,1.5,0.4,1.7,0.1c-0.3,0.9,1,0.7,1.3,1.6c-0.2-0.2-0.1,0.1-0.3,0.1
		c0.1,0.4,0.2-0.1,0.4,0.1l-0.2,0.1c0.2,0.4,0.9,0,0.9,0.3c-0.5,0.5-1.5-0.6-1.3,0.5c-0.5-0.5,0.7-0.8-0.2-1.1
		c-0.4,0.2,0.4,0.6-0.1,0.5c-0.4-0.1,0.2-0.5-0.2-0.6c0.1,0.4-0.7,0.1-0.3,0.4l0.3-0.1c-0.7,0.4-0.5-0.5-1.2-0.1
		c0.1,0.1,0.4-0.1,0.2-0.2c-0.5,0.2-0.2,0.1-0.7-0.1c0.3,0.1,0.3-0.6,0.7-0.3c-0.3-0.2-1,0-1-0.5l0.3-0.1c-0.5-0.6-1.1,0.5-1.1-0.4
		C349.2,57.5,349.5,57.3,349.6,57.1z"/>
	<path class="st11" d="M348.7,61.5c-0.1-0.1,0.1-0.3-0.2-0.3C348.5,61.3,349,61.2,348.7,61.5z"/>
	<path class="st11" d="M349.2,59c0.2,0.1-0.1,0-0.1,0C349.1,59,349.2,59,349.2,59z"/>
	<polygon class="st11" points="349,61.5 349,61.7 348.8,61.5 349.1,61.5 	"/>
	<path class="st11" d="M350.1,59.1c-0.1,0.1-0.2-0.1-0.3-0.3C349.9,58.8,350,59,350.1,59.1z"/>
	<path class="st11" d="M350.1,57.6l0.3,0.1L350.1,57.6z"/>
	<polygon class="st11" points="350.6,57.9 350.2,58.1 350.4,57.8 	"/>
	<polygon class="st11" points="350.5,57.7 350.4,57.5 350.6,57.5 	"/>
	<path class="st11" d="M350,61.8c1.3,0.2,0.7-0.2,2,0.2c-0.3,0.1-0.5,0.3-0.1,0.5l0.3-0.4l0.1,0.1c-0.3-0.3,0.4-0.4,0-0.8l-0.1,0.1
		c0.2-0.4,0.4,0.1,0.6,0.2l-0.2,0c0.1,0.4,0.5,0.1,0.7,0.5c0.2-0.3,0.4-0.6,0-0.8c0.3,0.1,1,0.5,0.8,0.6c-0.3-0.4-0.2,0-0.9,0.1
		c0,0.3,0.4,0.3,0.5,0.1c-0.5,0.4-0.8,0.3-1.4,0.4l0,0c-0.3-0.1-0.4,0.3-0.2,0.3c-0.3-0.1-0.2-0.2,0.1-0.3c-0.8,0.5-2.6-0.3-2.1,0.2
		c-0.8-0.3-0.1-0.5-0.7-0.9C349.8,61.7,349.8,61.8,350,61.8z"/>
	<path class="st11" d="M349.8,61.4c-0.2-0.3,0.2,0.3-0.2,0.2C349.6,61.5,349.9,61.6,349.8,61.4z"/>
	<path class="st11" d="M350.6,61.3c-0.1-0.2,0.1-0.1,0.2,0c-0.2,0.1-0.6,0-0.9,0C349.9,60.9,350.4,61.3,350.6,61.3z"/>
	<path class="st11" d="M351,57.6c0.1,0.2-0.2,0.1-0.2,0.1C350.8,57.6,351.1,57.8,351,57.6z"/>
	<polygon class="st11" points="351,58.1 350.9,57.9 351.1,58 	"/>
	<path class="st11" d="M350.7,61.5c0-0.1-0.3,0.3-0.4,0C350.4,61.5,350.6,61.3,350.7,61.5z"/>
	<path class="st11" d="M350.5,61.8c0.3,0.2-0.2,0.2-0.3,0.3C350.1,61.8,350.4,62,350.5,61.8z"/>
	<polygon class="st11" points="351.1,59 350.9,59.1 351,59.1 	"/>
	<polygon class="st11" points="351.1,62.6 350.8,62.6 350.8,62.5 	"/>
	<polygon class="st11" points="350.9,62.4 350.9,62.2 351.1,62.3 	"/>
	<path class="st11" d="M351.5,61.2l0.4-0.2L351.5,61.2C351.9,61.5,351,61.5,351.5,61.2z"/>
	<path class="st11" d="M351.7,60.8c0.3-0.1-0.2,0.1-0.4,0.1C351.5,60.9,351.6,60.6,351.7,60.8z"/>
	<path class="st11" d="M351.7,59.4l0.1,0.1L351.7,59.4z"/>
	<path class="st11" d="M351.1,62.4l0.3,0L351.1,62.4z"/>
	<path class="st11" d="M351.5,61.6l0.3,0.2L351.5,61.6z"/>
	<path class="st11" d="M352.3,60.6L352.3,60.6l-0.3,0.2C351.9,60.6,352.2,60.7,352.3,60.6z"/>
	<path class="st11" d="M352.1,61.5c0.1,0,0.2,0.1,0.1,0.2C352.1,61.5,351.8,61.7,352.1,61.5z"/>
	<path class="st11" d="M352.6,62.2c-0.1,0.2,0.3,0.1,0.6,0.2c-0.4,0.1-0.5-0.3-0.9-0.1C352.4,62.4,352.5,62.2,352.6,62.2z"/>
	<polygon class="st11" points="352.9,61.1 352.6,60.9 352.9,61 	"/>
	<polygon class="st11" points="353,62 352.6,62 352.8,61.8 	"/>
	<polygon class="st11" points="352.9,61.5 352.9,61.5 353.1,61.5 353.1,61.6 	"/>
	<polygon class="st11" points="353.2,61 353,60.9 353.1,60.9 	"/>
	<polygon class="st11" points="353.6,59.8 353.4,59.7 353.4,59.6 	"/>
	<path class="st11" d="M353.7,60.8c0,0.1-0.2,0.2-0.3,0.1C353.5,60.9,353.6,60.8,353.7,60.8z"/>
	<polygon class="st11" points="353.6,60.7 353.5,60.6 353.6,60.5 	"/>
	<path class="st11" d="M353.6,62.5l0.2-0.1L353.6,62.5z"/>
	<path class="st11" d="M354.1,62.2c0,0.1,0.1,0.2,0,0.3C354.2,62.3,353.8,62.2,354.1,62.2z"/>
	<path class="st5" d="M266.2,82c0.4-0.4,0.6-1.1,1.1-1.6c1.6-0.8,2.4-0.1,3.9-0.2c-0.3,0.8,0.5,0.4,0.9,0.5l-0.4,0.5
		c0.2,0.6,1.3,0.7,1.6,1c-0.3,0-0.7-0.1-0.9,0.3c0.2,0.3,0.7,0.1,1.1,0.2c-0.6,0.1-1.1,0.7-0.9,1.2c0.2,0.2,0.5,0,0.5,0.3
		c-0.4,0.2-0.9-0.4-1.1,0c-0.2,0.6,0.8,0.1,0.8,0.6c-0.7,0-1.3-0.3-1.9,0c0,0.2,0.2,0.3,0.3,0.5c-1.7-0.2-3.7-0.1-4.6-1.8
		C266.2,82.8,266.5,82.4,266.2,82z"/>
	<polygon class="st11" points="268.2,83.3 268,83.2 268.2,83.2 	"/>
	<path class="st11" d="M268.3,83.2l0.1,0.1L268.3,83.2z"/>
	<path class="st11" d="M269.7,81.9c-0.2-0.2-0.4,0.7-0.6,0.2L269.7,81.9z"/>
	<polygon class="st11" points="270.8,83.6 270.7,83.7 270.6,83.6 	"/>
	<polygon class="st5" points="271.9,86.9 271.8,86.8 271.8,86.7 	"/>
	<polygon class="st5" points="272.9,87.1 272.1,87.1 272.7,87.1 	"/>
	<polygon class="st5" points="273.4,86.5 273.6,86.6 273.4,86.9 273.6,86.6 	"/>
	<path class="st5" d="M277.6,96.4c-0.2,0.2,0.2,0.2-0.1,0.4C277.5,96.7,277.4,96.5,277.6,96.4z"/>
	<path class="st5" d="M278.2,96c-0.2,0-0.4,0.1-0.5,0.2C277.7,95.9,278,96.1,278.2,96z"/>
	<polygon class="st5" points="278.8,97.4 278.6,97.5 278.7,97.5 	"/>
	<path class="st5" d="M279,96l0.2,0L279,96z"/>
	<path class="st5" d="M279.1,97.5l0.2-0.1L279.1,97.5z"/>
	<polygon class="st11" points="279,87.8 279,87.8 279.2,87.8 279.2,87.8 	"/>
	<polygon class="st11" points="279.4,88.6 279.3,88.5 279.4,88.1 	"/>
	<polygon class="st5" points="279.9,96.5 279.5,96.2 279.8,96.3 	"/>
	<path class="st11" d="M279.7,88.6c0.1,0.2-0.1,0.2-0.2,0.2L279.7,88.6z"/>
	<polygon class="st11" points="280.1,85.4 279.9,85.5 280,85.4 	"/>
	<polygon class="st11" points="280.3,88.5 280.3,88.4 280.5,88.4 280.5,88.5 	"/>
	<polygon class="st11" points="280.3,85.1 280.3,85 280.5,85 280.5,85 	"/>
	<path class="st11" d="M281.3,87.4c0.4,0.2-0.2,0.1-0.2,0.2C281,87.4,281.2,87.5,281.3,87.4z"/>
	<polygon class="st11" points="281.5,87.9 281.3,88.1 281.4,87.9 	"/>
	<polygon class="st11" points="282,87 281.5,86.7 281.9,86.8 	"/>
	<path class="st5" d="M287.9,89.6c0.2,0,0.6,0,0.6,0.3c-0.2,0.3-0.5-0.1-0.7,0.1C287.6,89.9,287.8,89.6,287.9,89.6z"/>
	<path class="st5" d="M289,84.8l0.3,0c-0.3,0-0.5,0.4-0.9,0.3l0.7-0.4L289,84.8z"/>
	<path class="st5" d="M290,84.3c0.1,0.3-0.4,0.1-0.6,0.3C289.5,84.5,289.8,84.4,290,84.3z"/>
	<path class="st11" d="M293.2,89.6c0,0.1-0.2-0.1-0.2-0.1C293.1,89.4,293.1,89.5,293.2,89.6z"/>
	<polygon class="st11" points="278.6,86.3 278.4,86.2 278.6,86.3 	"/>
	<polygon class="st11" points="278.7,85.9 278.7,85.9 278.7,85.8 	"/>
	<polygon class="st11" points="279.8,86.7 279.7,86.9 279.6,86.8 	"/>
	<path class="st11" d="M280.4,83.8c0.1,0.1-0.3,0.2-0.4,0.2C280.2,84,280.4,84,280.4,83.8z"/>
	<polygon class="st11" points="280.6,83.4 280.4,83.3 280.6,83.3 	"/>
	<path class="st11" d="M281.1,84.2l-0.2,0c0.4-0.3,0.4-0.2,0.7,0.1c-0.4-0.2-0.5,0-0.9,0.1C280.8,84.2,280.9,84.4,281.1,84.2z"/>
	<path class="st11" d="M281.2,84.3l0.3,0.1L281.2,84.3z"/>
	<path class="st5" d="M287.2,87.6c0.8-0.1,1.3,0.3,1.4,0.9c0.2,0.7,0.9,1.5-0.1,1.9c-0.6-0.3-1.5-0.8-1.7-1.5
		C286.6,88.5,286.4,87.7,287.2,87.6z"/>
	<path class="st5" d="M295.8,108.3c0.4-0.1,0.9-0.1,1.2,0.1c0.6,0.3,0.1,1.5,0.8,1.5c-0.7,0-1.9,0.1-2.2-0.9
		C295.4,108.8,295.4,108.4,295.8,108.3z"/>
	<path class="st5" d="M291.7,115.4L291.7,115.4L291.7,115.4z"/>
	<path class="st5" d="M295.7,110.4C295.6,110.5,295.7,110.5,295.7,110.4C295.7,110.5,295.6,110.5,295.7,110.4z"/>
	<path class="st5" d="M295.9,110.5L295.9,110.5L295.9,110.5z"/>
	<path class="st11" d="M296.2,109C296.2,109,296.2,109,296.2,109c0.1-0.1,0,0.1,0.1,0.1l0,0c0.2,0.1-0.1,0.3,0.1,0.4
		C296.2,109.2,296.1,109.3,296.2,109z"/>
	<path class="st11" d="M296.3,109.5C296.2,109.6,296.2,109.6,296.3,109.5C296.2,109.5,296.2,109.5,296.3,109.5z"/>
	<path class="st11" d="M296.5,108.6c0,0.2,0.3,0,0.3,0.2l-0.2,0.1c0-0.1,0.2,0,0.1-0.2c-0.1,0.2-0.3,0.1-0.3,0.1
		C296.2,108.7,296.5,108.8,296.5,108.6z"/>
	<polygon class="st11" points="296.4,109.4 296.4,109.4 296.4,109.4 	"/>
	<path class="st11" d="M296.5,109.3c0.1,0,0-0.1,0.1-0.1C296.5,109.2,296.7,109.4,296.5,109.3C296.6,109.3,296.4,109.2,296.5,109.3z
		"/>
	<path class="st11" d="M296.7,109C296.7,109.1,296.7,109,296.7,109C296.7,109,296.7,109,296.7,109z"/>
	<path class="st11" d="M296.7,109.4C296.8,109.4,296.7,109.5,296.7,109.4C296.7,109.5,296.7,109.5,296.7,109.4z"/>
	<path class="st11" d="M296.7,109.6L296.7,109.6L296.7,109.6z"/>
	<path class="st11" d="M296.9,109.4C296.9,109.5,296.9,109.5,296.9,109.4L296.9,109.4z"/>
	<path class="st11" d="M297.1,109.3L297.1,109.3L297.1,109.3z"/>
	<path class="st5" d="M299,103.1c0.1,0,0.1,0.1,0.3,0c-0.3-0.1,0-0.3-0.1-0.5c0.5-0.2,1.1,0.2,1.3,0.7c-0.2,0-0.5,0-0.7,0.1
		c0.2,0.2,0.4,0.4,0.4,0.8c1.1,0.5,1.8,1.7,2.7,2.4c-0.4,0-0.6-0.4-1-0.3c0,0.2,0.2,0.1,0.2,0.2c-0.1,0-0.3-0.1-0.4,0
		c-0.3,0.5,0.5,0.4,0.7,0.7c-0.8-0.1-1.9,0-2.7-0.3c-0.8-0.2-1.5-1.1-1.3-2c0.1-0.3,0.4-0.4,0.6-0.6c-0.3-0.1-0.6-0.4-0.5-0.8
		C298.4,103.3,298.7,103.1,299,103.1z"/>
	<path class="st5" d="M291.7,93.3c0.9-0.3,1.8,0.2,2.4,0.6c-0.4,0-0.8-0.3-1.1-0.4l0,0c-0.2,0-0.4-0.3-0.6,0c0,0,0-0.1,0.1-0.1
		c-0.3-0.1-0.7-0.1-1,0.1c-0.3,0.4,0.3,0.1,0.2,0.5l-0.3,0.1c0.1,0,0.2,0.3,0.3,0.1l0,0c0.5,0.5,1.4,0.4,2.1,0.3v0l0.3,0.1
		c-1,0-2.5,0.4-2.9-0.7C291.2,93.6,291.4,93.4,291.7,93.3z"/>
	<path class="st5" d="M291.7,93.4C291.8,93.4,291.7,93.5,291.7,93.4C291.7,93.5,291.7,93.5,291.7,93.4z"/>
	<path class="st5" d="M292.1,94.2l0.1-0.1L292.1,94.2z"/>
	<polygon class="st5" points="293.9,94 293.8,94.1 293.8,94 	"/>
	<polygon class="st5" points="293.9,94.2 293.8,94.2 293.9,94.1 	"/>
	<path class="st5" d="M294,94l0.2,0.1L294,94z"/>
	<path class="st5" d="M292.6,115.6l0.2-0.1L292.6,115.6z"/>
	<path class="st5" d="M292.9,114.7l0.2,0.1L292.9,114.7z"/>
	<path class="st5" d="M293.2,115.1l-0.2,0.1l0-0.3C293.1,114.9,293.1,115,293.2,115.1z"/>
</g>
</svg>
