<?xml version="1.0" encoding="utf-8"?>
<!-- Generator: Adobe Illustrator 23.0.3, SVG Export Plug-In . SVG Version: 6.00 Build 0)  -->
<svg version="1.1" id="Layer_1" xmlns="http://www.w3.org/2000/svg" xmlns:xlink="http://www.w3.org/1999/xlink" x="0px" y="0px"
	 viewBox="0 0 81.8 85.5" style="enable-background:new 0 0 81.8 85.5;" xml:space="preserve">
<style type="text/css">
	.st0{fill:#ABD2FF;}
</style>
<path class="st0" d="M41.6,0.1c-0.5,0-1,0.1-1.4,0.2C19.5-2.3,4.1,16.1,0.8,35.6C-1.1,47.1,0.2,57.7,7.5,67
	c6.8,8.7,17.7,14.4,28.1,17.6c12.1,3.7,21.4-3.7,29.8-11.5c7.7-7.2,15.3-16.1,16.2-27C83.6,24.9,63.3,0.4,41.6,0.1z M60.7,63.8
	C54.5,70,47.8,77.1,38.3,74.9C30.2,73,22.4,68,16.6,62.2c-6.6-6.6-7.4-15.1-6.2-24c2.1-15,13.9-31.8,31-27.6
	c1.2,0.3,2.3,0.2,3.2-0.2c14.2,2.3,26.7,18.9,27.2,32.5C72.2,51.2,66.3,58.2,60.7,63.8z"/>
<path class="st0" d="M44.8,40.1c0.3-2.2,0.7-4.4,1.2-6.6c1.3,0.3,2.5,0.6,3.3,0.8c6.3,1,9-8.6,2.7-9.6c-1.2-0.2-2.4-0.4-3.6-0.7
	c0.6-2,1.2-4,1.8-5.9c2-6.1-7.6-8.7-9.6-2.7c-0.8,2.5-1.6,5.1-2.3,7.6c-2.1,0.3-4.2,1-6.1,2.6c-5.3,4.4-6.7,11.6-4.1,17.7
	c1.1,2.6,3.2,3.9,5.7,4.7c-0.1,1-0.2,1.9-0.2,2.9c-1.8-0.4-3.7-0.8-5.5-1.1c-6.3-1.3-9,8.3-2.7,9.6c2.4,0.5,5.1,1.3,7.8,1.9
	c0,2.3,0.1,4.7,0.2,7c0.3,6.4,10.3,6.4,10,0c-0.1-1.8-0.1-3.6-0.2-5.4c1,0,1.9-0.1,2.8-0.2c6.9-1.1,9.7-7.6,8.3-13.9
	C53.3,44.1,49.2,41.4,44.8,40.1z M44.7,52.7c0,0.2-0.6,0.2-1.3,0.1c0.1-0.9,0.1-1.8,0.2-2.7C44.4,50.7,44.9,51.7,44.7,52.7z"/>
</svg>
