<?xml version="1.0" encoding="utf-8"?>
<!-- Generator: Adobe Illustrator 23.0.3, SVG Export Plug-In . SVG Version: 6.00 Build 0)  -->
<svg version="1.1" id="Layer_1" xmlns="http://www.w3.org/2000/svg" xmlns:xlink="http://www.w3.org/1999/xlink" x="0px" y="0px"
	 viewBox="0 0 80.7 88.6" style="enable-background:new 0 0 80.7 88.6;" xml:space="preserve">
<style type="text/css">
	.st0{fill:#ABD2FF;}
</style>
<path class="st0" d="M75.1,34.6c-3.8-2-9-2-13.1-2.6c-0.9-0.1-1.8-0.3-2.8-0.4c2.8-3,5.1-6.6,6.7-10.6c1.8-4.5,1.8-9.5,1.1-14.2
	c-0.7-4.3-5.8-8-10.2-6.3c-5,1.9-7.2,6.3-10.8,10.1c-3.9,4.1-9,7.1-14.3,9c-8.5,3-20.7,0.5-25.5,9.9c-0.6,1.1-0.7,2.1-0.5,3.1
	C2.8,39,1.1,45.8,0.4,53C-0.2,59.3-1,72.2,5.5,75.9c7.7,4.5,17.3,7.5,25.7,10.1c8.1,2.5,16.5,3.3,24.8,1.7
	C72.8,84.5,79.7,69.5,80.4,54C80.7,47.5,81.8,38.1,75.1,34.6z M70.6,54c-0.3,11.8-5,21.4-17.1,24.3c-12.2,2.9-25.3-3.5-36.4-8
	c-3.3-1.3-5.9-1.5-6.6-5.3c-0.6-3.4-0.5-6.9-0.4-10.3c0.3-6.4,2-12.7,4.6-18.5c0.6-0.7,1-1.4,1.3-2.3c0.1-0.4,0.2-0.8,0.2-1.1
	c3.7-2.5,11.6-2.1,15.3-2.9c7.2-1.7,13.7-5.6,19.3-10.3c2.6-2.2,4.8-4.9,6.9-7.6c0,0,0,0,0-0.1c0,1.3-0.2,2.7-0.5,4
	c-1.4,6.5-6.6,11.9-13,13.7c-4.3,1.3-5,8.7,0,9.5c6.9,1.1,13.8,2.2,20.8,3.4c2.5,0.4,5.4-0.2,5.5,2.7C70.6,48,70.7,51,70.6,54z"/>
</svg>
